<?xml version="1.0" encoding="UTF-8" standalone="no"?>
<!-- Created with Inkscape (http://www.inkscape.org/) -->

<svg
   xmlns:dc="http://purl.org/dc/elements/1.1/"
   xmlns:cc="http://creativecommons.org/ns#"
   xmlns:rdf="http://www.w3.org/1999/02/22-rdf-syntax-ns#"
   xmlns:svg="http://www.w3.org/2000/svg"
   xmlns="http://www.w3.org/2000/svg"
   xmlns:sodipodi="http://sodipodi.sourceforge.net/DTD/sodipodi-0.dtd"
   xmlns:inkscape="http://www.inkscape.org/namespaces/inkscape"
   version="1.1"
   id="svg2"
   xml:space="preserve"
   width="375.02484"
   height="115.79149"
   viewBox="0 0 375.02484 115.79149"
   sodipodi:docname="proposal-gantt.mmd.svg"
   inkscape:version="0.92.1 unknown"><metadata
     id="metadata8"><rdf:RDF><cc:Work
         rdf:about=""><dc:format>image/svg+xml</dc:format><dc:type
           rdf:resource="http://purl.org/dc/dcmitype/StillImage" /><dc:title></dc:title></cc:Work></rdf:RDF></metadata><defs
     id="defs6"><clipPath
       clipPathUnits="userSpaceOnUse"
       id="clipPath18"><path
         d="M 0,0 H 420 V 595 H 0 Z"
         id="path16"
         inkscape:connector-curvature="0"
         style="clip-rule:evenodd" /></clipPath><clipPath
       clipPathUnits="userSpaceOnUse"
       id="clipPath46"><path
         d="M 392,29 H 29 v 537.36029 h 363 z"
         id="path44"
         inkscape:connector-curvature="0"
         style="clip-rule:evenodd" /></clipPath><clipPath
       clipPathUnits="userSpaceOnUse"
       id="clipPath58"><path
         d="M 358.18015,60.565216 H 62.819878 V 161.2733 H 358.18015 Z"
         id="path56"
         inkscape:connector-curvature="0"
         style="clip-rule:evenodd" /></clipPath><clipPath
       clipPathUnits="userSpaceOnUse"
       id="clipPath72"><path
         d="M 0,0 H 12 V 6 H 0 Z"
         id="path70"
         inkscape:connector-curvature="0" /></clipPath><clipPath
       clipPathUnits="userSpaceOnUse"
       id="clipPath76"><path
         d="M 0,0 H 12 V 6 H 0 Z"
         id="path74"
         inkscape:connector-curvature="0" /></clipPath><clipPath
       clipPathUnits="userSpaceOnUse"
       id="clipPath106"><path
         d="M 0,0 H 12 V 6 H 0 Z"
         id="path104"
         inkscape:connector-curvature="0" /></clipPath><clipPath
       clipPathUnits="userSpaceOnUse"
       id="clipPath110"><path
         d="M 0,0 H 12 V 6 H 0 Z"
         id="path108"
         inkscape:connector-curvature="0" /></clipPath><clipPath
       clipPathUnits="userSpaceOnUse"
       id="clipPath140"><path
         d="M 0,0 H 11 V 6 H 0 Z"
         id="path138"
         inkscape:connector-curvature="0" /></clipPath><clipPath
       clipPathUnits="userSpaceOnUse"
       id="clipPath144"><path
         d="M 0,0 H 11 V 6 H 0 Z"
         id="path142"
         inkscape:connector-curvature="0" /></clipPath><clipPath
       clipPathUnits="userSpaceOnUse"
       id="clipPath174"><path
         d="M 0,0 H 13 V 6 H 0 Z"
         id="path172"
         inkscape:connector-curvature="0" /></clipPath><clipPath
       clipPathUnits="userSpaceOnUse"
       id="clipPath178"><path
         d="M 0,0 H 13 V 6 H 0 Z"
         id="path176"
         inkscape:connector-curvature="0" /></clipPath><clipPath
       clipPathUnits="userSpaceOnUse"
       id="clipPath208"><path
         d="M 0,0 H 13 V 6 H 0 Z"
         id="path206"
         inkscape:connector-curvature="0" /></clipPath><clipPath
       clipPathUnits="userSpaceOnUse"
       id="clipPath212"><path
         d="M 0,0 H 13 V 6 H 0 Z"
         id="path210"
         inkscape:connector-curvature="0" /></clipPath><clipPath
       clipPathUnits="userSpaceOnUse"
       id="clipPath242"><path
         d="M 0,0 H 13 V 6 H 0 Z"
         id="path240"
         inkscape:connector-curvature="0" /></clipPath><clipPath
       clipPathUnits="userSpaceOnUse"
       id="clipPath246"><path
         d="M 0,0 H 13 V 6 H 0 Z"
         id="path244"
         inkscape:connector-curvature="0" /></clipPath><clipPath
       clipPathUnits="userSpaceOnUse"
       id="clipPath276"><path
         d="M 0,0 H 12 V 6 H 0 Z"
         id="path274"
         inkscape:connector-curvature="0" /></clipPath><clipPath
       clipPathUnits="userSpaceOnUse"
       id="clipPath280"><path
         d="M 0,0 H 12 V 6 H 0 Z"
         id="path278"
         inkscape:connector-curvature="0" /></clipPath><clipPath
       clipPathUnits="userSpaceOnUse"
       id="clipPath310"><path
         d="M 0,0 H 12 V 6 H 0 Z"
         id="path308"
         inkscape:connector-curvature="0" /></clipPath><clipPath
       clipPathUnits="userSpaceOnUse"
       id="clipPath314"><path
         d="M 0,0 H 12 V 6 H 0 Z"
         id="path312"
         inkscape:connector-curvature="0" /></clipPath></defs><sodipodi:namedview
     pagecolor="#000000"
     bordercolor="#666666"
     borderopacity="1"
     objecttolerance="10"
     gridtolerance="10"
     guidetolerance="10"
     inkscape:pageopacity="0"
     inkscape:pageshadow="2"
     inkscape:window-width="1920"
     inkscape:window-height="1056"
     id="namedview4"
     showgrid="false"
     inkscape:zoom="3.3655907"
     inkscape:cx="199.34587"
     inkscape:cy="39.694632"
     inkscape:window-x="0"
     inkscape:window-y="24"
     inkscape:window-maximized="1"
     inkscape:current-layer="g10"
     fit-margin-top="0"
     fit-margin-left="0"
     fit-margin-right="0"
     fit-margin-bottom="0" /><g
     id="g10"
     inkscape:groupmode="layer"
     inkscape:label="scratchpad"
     transform="matrix(1.3333333,0,0,1.3333333,-125.77961,221.71145)"><g
       clip-path="url(#clipPath58)"
       id="g54"
       transform="translate(31.514831,-231.31886)"><g
         transform="matrix(0.37577641,0,0,0.37577641,106.78572,142.48447)"
         id="g60"><path
           inkscape:connector-curvature="0"
           id="path62"
           style="fill:#000000;fill-opacity:1;fill-rule:nonzero;stroke:none"
           d="M 0,0 V -183" /><path
           inkscape:connector-curvature="0"
           id="path64"
           style="fill:none;stroke:#ffffff;stroke-width:1;stroke-linecap:butt;stroke-linejoin:miter;stroke-miterlimit:10;stroke-dasharray:none;stroke-opacity:0.29803922"
           d="M 0,0 V -183" /></g><g
         transform="translate(101,143)"
         id="g66"><g
           id="g68" /><g
           id="g92"
           transform="matrix(1,0,0,-1,0,6)"><g
             style="opacity:0.49803922"
             id="g90"
             clip-path="url(#clipPath72)"><g
               id="g88"
               transform="matrix(1,0,0,-1,0,6)"><g
                 id="g86"><g
                   id="g84"
                   clip-path="url(#clipPath76)"><g
                     id="g82"
                     transform="matrix(0.75155282,0,0,0.75155282,5.7857208,-0.51553345)"><text
                       id="text80"
                       style="font-variant:normal;font-weight:normal;font-size:5px;font-family:Arial;-inkscape-font-specification:ArialMT;writing-mode:lr-tb;fill:#d3d3d3;fill-opacity:1;fill-rule:nonzero;stroke:none"
                       transform="translate(-6.394043,6.5)"><tspan
                         id="tspan78"
                         sodipodi:role="line"
                         y="0"
                         x="0 2.7807617 5.5615234 7.2265625 10.007324">03-17</tspan></text>
</g></g></g></g></g></g></g><g
         transform="matrix(0.37577641,0,0,0.37577641,137.5994,142.48447)"
         id="g94"><path
           inkscape:connector-curvature="0"
           id="path96"
           style="fill:#000000;fill-opacity:1;fill-rule:nonzero;stroke:none"
           d="M 0,0 V -183" /><path
           inkscape:connector-curvature="0"
           id="path98"
           style="fill:none;stroke:#ffffff;stroke-width:1;stroke-linecap:butt;stroke-linejoin:miter;stroke-miterlimit:10;stroke-dasharray:none;stroke-opacity:0.29803922"
           d="M 0,0 V -183" /></g><g
         transform="translate(132,143)"
         id="g100"><g
           id="g102" /><g
           id="g126"
           transform="matrix(1,0,0,-1,0,6)"><g
             style="opacity:0.49803922"
             id="g124"
             clip-path="url(#clipPath106)"><g
               id="g122"
               transform="matrix(1,0,0,-1,0,6)"><g
                 id="g120"><g
                   id="g118"
                   clip-path="url(#clipPath110)"><g
                     id="g116"
                     transform="matrix(0.75155282,0,0,0.75155282,5.5993958,-0.51553345)"><text
                       id="text114"
                       style="font-variant:normal;font-weight:normal;font-size:5px;font-family:Arial;-inkscape-font-specification:ArialMT;writing-mode:lr-tb;fill:#d3d3d3;fill-opacity:1;fill-rule:nonzero;stroke:none"
                       transform="translate(-6.394043,6.5)"><tspan
                         id="tspan112"
                         sodipodi:role="line"
                         y="0"
                         x="0 2.7807617 5.5615234 7.2265625 10.007324">04-17</tspan></text>
</g></g></g></g></g></g></g><g
         transform="matrix(0.37577641,0,0,0.37577641,167.6615,142.48447)"
         id="g128"><path
           inkscape:connector-curvature="0"
           id="path130"
           style="fill:#000000;fill-opacity:1;fill-rule:nonzero;stroke:none"
           d="M 0,0 V -183" /><path
           inkscape:connector-curvature="0"
           id="path132"
           style="fill:none;stroke:#ffffff;stroke-width:1;stroke-linecap:butt;stroke-linejoin:miter;stroke-miterlimit:10;stroke-dasharray:none;stroke-opacity:0.29803922"
           d="M 0,0 V -183" /></g><g
         transform="translate(162,143)"
         id="g134"><g
           id="g136" /><g
           id="g160"
           transform="matrix(1,0,0,-1,0,6)"><g
             style="opacity:0.49803922"
             id="g158"
             clip-path="url(#clipPath140)"><g
               id="g156"
               transform="matrix(1,0,0,-1,0,6)"><g
                 id="g154"><g
                   id="g152"
                   clip-path="url(#clipPath144)"><g
                     id="g150"
                     transform="matrix(0.75155282,0,0,0.75155282,5.661499,-0.51553345)"><text
                       id="text148"
                       style="font-variant:normal;font-weight:normal;font-size:5px;font-family:Arial;-inkscape-font-specification:ArialMT;writing-mode:lr-tb;fill:#d3d3d3;fill-opacity:1;fill-rule:nonzero;stroke:none"
                       transform="translate(-5.8374023,6.5)"><tspan
                         id="tspan146"
                         sodipodi:role="line"
                         y="0"
                         x="0 3.3349609 4.7241211 6.1132812 8.894043">w. 17</tspan></text>
</g></g></g></g></g></g></g><g
         transform="matrix(0.37577641,0,0,0.37577641,198.47516,142.48447)"
         id="g162"><path
           inkscape:connector-curvature="0"
           id="path164"
           style="fill:#000000;fill-opacity:1;fill-rule:nonzero;stroke:none"
           d="M 0,0 V -183" /><path
           inkscape:connector-curvature="0"
           id="path166"
           style="fill:none;stroke:#ffffff;stroke-width:1;stroke-linecap:butt;stroke-linejoin:miter;stroke-miterlimit:10;stroke-dasharray:none;stroke-opacity:0.29803922"
           d="M 0,0 V -183" /></g><g
         transform="translate(192,143)"
         id="g168"><g
           id="g170" /><g
           id="g194"
           transform="matrix(1,0,0,-1,0,6)"><g
             style="opacity:0.49803922"
             id="g192"
             clip-path="url(#clipPath174)"><g
               id="g190"
               transform="matrix(1,0,0,-1,0,6)"><g
                 id="g188"><g
                   id="g186"
                   clip-path="url(#clipPath178)"><g
                     id="g184"
                     transform="matrix(0.75155282,0,0,0.75155282,6.4751587,-0.51553345)"><text
                       id="text182"
                       style="font-variant:normal;font-weight:normal;font-size:5px;font-family:Arial;-inkscape-font-specification:ArialMT;writing-mode:lr-tb;fill:#d3d3d3;fill-opacity:1;fill-rule:nonzero;stroke:none"
                       transform="translate(-6.394043,6.5)"><tspan
                         id="tspan180"
                         sodipodi:role="line"
                         y="0"
                         x="0 2.7807617 5.5615234 7.2265625 10.007324">06-17</tspan></text>
</g></g></g></g></g></g></g><g
         transform="matrix(0.37577641,0,0,0.37577641,228.53728,142.48447)"
         id="g196"><path
           inkscape:connector-curvature="0"
           id="path198"
           style="fill:#000000;fill-opacity:1;fill-rule:nonzero;stroke:none"
           d="M 0,0 V -183" /><path
           inkscape:connector-curvature="0"
           id="path200"
           style="fill:none;stroke:#ffffff;stroke-width:1;stroke-linecap:butt;stroke-linejoin:miter;stroke-miterlimit:10;stroke-dasharray:none;stroke-opacity:0.29803922"
           d="M 0,0 V -183" /></g><g
         transform="translate(222,143)"
         id="g202"><g
           id="g204" /><g
           id="g228"
           transform="matrix(1,0,0,-1,0,6)"><g
             style="opacity:0.49803922"
             id="g226"
             clip-path="url(#clipPath208)"><g
               id="g224"
               transform="matrix(1,0,0,-1,0,6)"><g
                 id="g222"><g
                   id="g220"
                   clip-path="url(#clipPath212)"><g
                     id="g218"
                     transform="matrix(0.75155282,0,0,0.75155282,6.5372772,-0.51553345)"><text
                       id="text216"
                       style="font-variant:normal;font-weight:normal;font-size:5px;font-family:Arial;-inkscape-font-specification:ArialMT;writing-mode:lr-tb;fill:#d3d3d3;fill-opacity:1;fill-rule:nonzero;stroke:none"
                       transform="translate(-6.394043,6.5)"><tspan
                         id="tspan214"
                         sodipodi:role="line"
                         y="0"
                         x="0 2.7807617 5.5615234 7.2265625 10.007324">07-17</tspan></text>
</g></g></g></g></g></g></g><g
         transform="matrix(0.37577641,0,0,0.37577641,259.35095,142.48447)"
         id="g230"><path
           inkscape:connector-curvature="0"
           id="path232"
           style="fill:#000000;fill-opacity:1;fill-rule:nonzero;stroke:none"
           d="M 0,0 V -183" /><path
           inkscape:connector-curvature="0"
           id="path234"
           style="fill:none;stroke:#ffffff;stroke-width:1;stroke-linecap:butt;stroke-linejoin:miter;stroke-miterlimit:10;stroke-dasharray:none;stroke-opacity:0.29803922"
           d="M 0,0 V -183" /></g><g
         transform="translate(253,143)"
         id="g236"><g
           id="g238" /><g
           id="g262"
           transform="matrix(1,0,0,-1,0,6)"><g
             style="opacity:0.49803922"
             id="g260"
             clip-path="url(#clipPath242)"><g
               id="g258"
               transform="matrix(1,0,0,-1,0,6)"><g
                 id="g256"><g
                   id="g254"
                   clip-path="url(#clipPath246)"><g
                     id="g252"
                     transform="matrix(0.75155282,0,0,0.75155282,6.3509521,-0.51553345)"><text
                       id="text250"
                       style="font-variant:normal;font-weight:normal;font-size:5px;font-family:Arial;-inkscape-font-specification:ArialMT;writing-mode:lr-tb;fill:#d3d3d3;fill-opacity:1;fill-rule:nonzero;stroke:none"
                       transform="translate(-6.394043,6.5)"><tspan
                         id="tspan248"
                         sodipodi:role="line"
                         y="0"
                         x="0 2.7807617 5.5615234 7.2265625 10.007324">08-17</tspan></text>
</g></g></g></g></g></g></g><g
         transform="matrix(0.37577641,0,0,0.37577641,290.16461,142.48447)"
         id="g264"><path
           inkscape:connector-curvature="0"
           id="path266"
           style="fill:#000000;fill-opacity:1;fill-rule:nonzero;stroke:none"
           d="M 0,0 V -183" /><path
           inkscape:connector-curvature="0"
           id="path268"
           style="fill:none;stroke:#ffffff;stroke-width:1;stroke-linecap:butt;stroke-linejoin:miter;stroke-miterlimit:10;stroke-dasharray:none;stroke-opacity:0.29803922"
           d="M 0,0 V -183" /></g><g
         transform="translate(284,143)"
         id="g270"><g
           id="g272" /><g
           id="g296"
           transform="matrix(1,0,0,-1,0,6)"><g
             style="opacity:0.49803922"
             id="g294"
             clip-path="url(#clipPath276)"><g
               id="g292"
               transform="matrix(1,0,0,-1,0,6)"><g
                 id="g290"><g
                   id="g288"
                   clip-path="url(#clipPath280)"><g
                     id="g286"
                     transform="matrix(0.75155282,0,0,0.75155282,6.1646118,-0.51553345)"><text
                       id="text284"
                       style="font-variant:normal;font-weight:normal;font-size:5px;font-family:Arial;-inkscape-font-specification:ArialMT;writing-mode:lr-tb;fill:#d3d3d3;fill-opacity:1;fill-rule:nonzero;stroke:none"
                       transform="translate(-6.394043,6.5)"><tspan
                         id="tspan282"
                         sodipodi:role="line"
                         y="0"
                         x="0 2.7807617 5.5615234 7.2265625 10.007324">09-17</tspan></text>
</g></g></g></g></g></g></g><g
         transform="matrix(0.37577641,0,0,0.37577641,319.85095,142.48447)"
         id="g298"><path
           inkscape:connector-curvature="0"
           id="path300"
           style="fill:#000000;fill-opacity:1;fill-rule:nonzero;stroke:none"
           d="M 0,0 V -183" /><path
           inkscape:connector-curvature="0"
           id="path302"
           style="fill:none;stroke:#ffffff;stroke-width:1;stroke-linecap:butt;stroke-linejoin:miter;stroke-miterlimit:10;stroke-dasharray:none;stroke-opacity:0.29803922"
           d="M 0,0 V -183" /></g><g
         transform="translate(314,143)"
         id="g304"><g
           id="g306" /><g
           id="g330"
           transform="matrix(1,0,0,-1,0,6)"><g
             style="opacity:0.49803922"
             id="g328"
             clip-path="url(#clipPath310)"><g
               id="g326"
               transform="matrix(1,0,0,-1,0,6)"><g
                 id="g324"><g
                   id="g322"
                   clip-path="url(#clipPath314)"><g
                     id="g320"
                     transform="matrix(0.75155282,0,0,0.75155282,5.8509521,-0.51553345)"><text
                       id="text318"
                       style="font-variant:normal;font-weight:normal;font-size:5px;font-family:Arial;-inkscape-font-specification:ArialMT;writing-mode:lr-tb;fill:#d3d3d3;fill-opacity:1;fill-rule:nonzero;stroke:none"
                       transform="translate(-6.394043,6.5)"><tspan
                         id="tspan316"
                         sodipodi:role="line"
                         y="0"
                         x="0 2.7807617 5.5615234 7.2265625 10.007324">10-17</tspan></text>
</g></g></g></g></g></g></g><g
         transform="matrix(0.37577641,0,0,0.37577641,62.819878,60.565216)"
         id="g332"><path
           inkscape:connector-curvature="0"
           id="path334"
           style="fill:#ffffff;fill-opacity:0.05882353;fill-rule:nonzero;stroke:none"
           d="M 0,48 H 748.5 V 72 H 0 Z" /><path
           inkscape:connector-curvature="0"
           id="path336"
           style="fill:#ffffff;fill-opacity:0.05882353;fill-rule:nonzero;stroke:none"
           d="M 0,72 H 748.5 V 96 H 0 Z" /><path
           inkscape:connector-curvature="0"
           id="path338"
           style="fill:#ffffff;fill-opacity:0.05882353;fill-rule:nonzero;stroke:none"
           d="m 0,96 h 748.5 v 24 H 0 Z" /><path
           inkscape:connector-curvature="0"
           id="path340"
           style="fill:#ffffff;fill-opacity:0.2;fill-rule:nonzero;stroke:none"
           d="m 0,120 h 748.5 v 24 H 0 Z" /><path
           inkscape:connector-curvature="0"
           id="path342"
           style="fill:#eae8b9;fill-opacity:0.2;fill-rule:nonzero;stroke:none"
           d="m 0,144 h 748.5 v 24 H 0 Z" /><path
           inkscape:connector-curvature="0"
           id="path344"
           style="fill:#eae8b9;fill-opacity:0.2;fill-rule:nonzero;stroke:none"
           d="m 0,168 h 748.5 v 24 H 0 Z" /><path
           inkscape:connector-curvature="0"
           id="path346"
           style="fill:#eae8b9;fill-opacity:0.2;fill-rule:nonzero;stroke:none"
           d="m 0,192 h 748.5 v 24 H 0 Z" /><path
           inkscape:connector-curvature="0"
           id="path348"
           style="fill:#81b1db;fill-opacity:1;fill-rule:nonzero;stroke:none"
           d="m 202,50 h 217 c 2,0 3,1 3,3 v 14 c 0,2 -1,3 -3,3 H 202 c -2,0 -3,-1 -3,-3 V 53 c 0,-2 1,-3 3,-3 z" /><path
           inkscape:connector-curvature="0"
           id="path350"
           style="fill:none;stroke:#ffffff;stroke-width:1;stroke-linecap:butt;stroke-linejoin:miter;stroke-miterlimit:10;stroke-dasharray:none;stroke-opacity:0.49803922"
           d="m 202,50 h 217 c 2,0 3,1 3,3 v 14 c 0,2 -1,3 -3,3 H 202 c -2,0 -3,-1 -3,-3 V 53 c 0,-2 1,-3 3,-3 z" /><path
           inkscape:connector-curvature="0"
           id="path352"
           style="fill:#81b1db;fill-opacity:1;fill-rule:nonzero;stroke:none"
           d="m 364,74 h 105 c 2,0 3,1 3,3 v 14 c 0,2 -1,3 -3,3 H 364 c -2,0 -3,-1 -3,-3 V 77 c 0,-2 1,-3 3,-3 z" /><path
           inkscape:connector-curvature="0"
           id="path354"
           style="fill:none;stroke:#ffffff;stroke-width:1;stroke-linecap:butt;stroke-linejoin:miter;stroke-miterlimit:10;stroke-dasharray:none;stroke-opacity:0.49803922"
           d="m 364,74 h 105 c 2,0 3,1 3,3 v 14 c 0,2 -1,3 -3,3 H 364 c -2,0 -3,-1 -3,-3 V 77 c 0,-2 1,-3 3,-3 z" /><path
           inkscape:connector-curvature="0"
           id="path356"
           style="fill:#81b1db;fill-opacity:1;fill-rule:nonzero;stroke:none"
           d="m 460,98 h 105 c 2,0 3,1 3,3 v 14 c 0,2 -1,3 -3,3 H 460 c -2,0 -3,-1 -3,-3 v -14 c 0,-2 1,-3 3,-3 z" /><path
           inkscape:connector-curvature="0"
           id="path358"
           style="fill:none;stroke:#ffffff;stroke-width:1;stroke-linecap:butt;stroke-linejoin:miter;stroke-miterlimit:10;stroke-dasharray:none;stroke-opacity:0.49803922"
           d="m 460,98 h 105 c 2,0 3,1 3,3 v 14 c 0,2 -1,3 -3,3 H 460 c -2,0 -3,-1 -3,-3 v -14 c 0,-2 1,-3 3,-3 z" /><path
           inkscape:connector-curvature="0"
           id="path360"
           style="fill:#81b1db;fill-opacity:1;fill-rule:nonzero;stroke:none"
           d="m 536,122 h 143 c 2,0 3,1 3,3 v 14 c 0,2 -1,3 -3,3 H 536 c -2,0 -3,-1 -3,-3 v -14 c 0,-2 1,-3 3,-3 z" /><path
           inkscape:connector-curvature="0"
           id="path362"
           style="fill:none;stroke:#ffffff;stroke-width:1;stroke-linecap:butt;stroke-linejoin:miter;stroke-miterlimit:10;stroke-dasharray:none;stroke-opacity:0.49803922"
           d="m 536,122 h 143 c 2,0 3,1 3,3 v 14 c 0,2 -1,3 -3,3 H 536 c -2,0 -3,-1 -3,-3 v -14 c 0,-2 1,-3 3,-3 z" /><path
           inkscape:connector-curvature="0"
           id="path364"
           style="fill:#e83737;fill-opacity:1;fill-rule:nonzero;stroke:none"
           d="m 76.5,146 c 1,0 1.5,1 1.5,3 v 14 c 0,2 -0.5,3 -1.5,3 -1,0 -1.5,-1 -1.5,-3 v -14 c 0,-2 0.5,-3 1.5,-3 z" /><path
           inkscape:connector-curvature="0"
           id="path366"
           style="fill:none;stroke:#e83737;stroke-width:1;stroke-linecap:butt;stroke-linejoin:miter;stroke-miterlimit:10;stroke-dasharray:none;stroke-opacity:1"
           d="m 76.5,146 c 1,0 1.5,1 1.5,3 v 14 c 0,2 -0.5,3 -1.5,3 -1,0 -1.5,-1 -1.5,-3 v -14 c 0,-2 0.5,-3 1.5,-3 z" /><path
           inkscape:connector-curvature="0"
           id="path368"
           style="fill:#e83737;fill-opacity:1;fill-rule:nonzero;stroke:none"
           d="m 391.5,170 c 1,0 1.5,1 1.5,3 v 14 c 0,2 -0.5,3 -1.5,3 -1,0 -1.5,-1 -1.5,-3 v -14 c 0,-2 0.5,-3 1.5,-3 z" /><path
           inkscape:connector-curvature="0"
           id="path370"
           style="fill:none;stroke:#e83737;stroke-width:1;stroke-linecap:butt;stroke-linejoin:miter;stroke-miterlimit:10;stroke-dasharray:none;stroke-opacity:1"
           d="m 391.5,170 c 1,0 1.5,1 1.5,3 v 14 c 0,2 -0.5,3 -1.5,3 -1,0 -1.5,-1 -1.5,-3 v -14 c 0,-2 0.5,-3 1.5,-3 z" /><path
           inkscape:connector-curvature="0"
           id="path372"
           style="fill:#e83737;fill-opacity:1;fill-rule:nonzero;stroke:none"
           d="m 709.5,194 c 1,0 1.5,1 1.5,3 v 14 c 0,2 -0.5,3 -1.5,3 -1,0 -1.5,-1 -1.5,-3 v -14 c 0,-2 0.5,-3 1.5,-3 z" /><path
           inkscape:connector-curvature="0"
           id="path374"
           style="fill:none;stroke:#e83737;stroke-width:1;stroke-linecap:butt;stroke-linejoin:miter;stroke-miterlimit:10;stroke-dasharray:none;stroke-opacity:1"
           d="m 709.5,194 c 1,0 1.5,1 1.5,3 v 14 c 0,2 -0.5,3 -1.5,3 -1,0 -1.5,-1 -1.5,-3 v -14 c 0,-2 0.5,-3 1.5,-3 z" /></g><g
         transform="matrix(0.75155282,0,0,0.75155282,62.819878,60.565216)"
         id="g376"><text
           id="text380"
           style="font-variant:normal;font-weight:normal;font-size:5.5px;font-family:Arial;-inkscape-font-specification:ArialMT;writing-mode:lr-tb;fill:#323d47;fill-opacity:1;fill-rule:nonzero;stroke:none"
           x="123.56726"
           y="31.75"><tspan
             id="tspan378"
             sodipodi:role="line"
             y="31.75"
             x="123.56726 127.53918 130.59802 133.34802 134.56995 137.62878 140.68762 142.2157 145.27454 146.80261 148.33069 151.69031 155.66223 159.33069 160.85876 162.38684 164.21838 167.27722 171.85876 174.9176 178.88953 181.94836 183.77991">Design of FRP framework</tspan></text>
<text
           id="text384"
           style="font-variant:normal;font-weight:normal;font-size:5.5px;font-family:Arial;-inkscape-font-specification:ArialMT;writing-mode:lr-tb;fill:#323d47;fill-opacity:1;fill-rule:nonzero;stroke:none"
           x="183.03003"
           y="43.75"><tspan
             id="tspan382"
             sodipodi:role="line"
             y="43.75"
             x="183.03003 185.78003 187.00195 188.8335 190.36157 193.42041 196.47925 197.70117 202.28271 205.95117 207.47925 211.14771 214.20654 217.26538 220.32422 221.85229 224.91113 226.43921 227.66113 230.71997">virtualME Adaptation</tspan></text>
<text
           id="text388"
           style="font-variant:normal;font-weight:normal;font-size:5.5px;font-family:Arial;-inkscape-font-specification:ArialMT;writing-mode:lr-tb;fill:#323d47;fill-opacity:1;fill-rule:nonzero;stroke:none"
           x="230.23643"
           y="55.75"><tspan
             id="tspan386"
             sodipodi:role="line"
             y="55.75"
             x="230.23643 234.20836 237.2672 240.0172 243.07603 246.13487 247.96642 250.71642 253.77525 255.30333 258.9718 262.03064 265.08948 266.3114 267.53333 270.28333 273.34216 274.87024 276.09216 279.151">Research Application</tspan></text>
<text
           id="text392"
           style="font-variant:normal;font-weight:normal;font-size:5.5px;font-family:Arial;-inkscape-font-specification:ArialMT;writing-mode:lr-tb;fill:#323d47;fill-opacity:1;fill-rule:nonzero;stroke:none"
           x="287.05933"
           y="67.75"><tspan
             id="tspan390"
             sodipodi:role="line"
             y="67.75"
             x="287.05933 290.41895 293.47778 296.53662 299.28662 300.50854 303.25854 304.78662 308.75854 310.59009 311.81201 313.34009 314.56201 317.62085">Thesis writing</tspan></text>
<text
           id="text396"
           style="font-variant:normal;font-weight:normal;font-size:5.5px;font-family:Arial;-inkscape-font-specification:ArialMT;writing-mode:lr-tb;fill:#d3d3d3;fill-opacity:1;fill-rule:nonzero;stroke:none"
           transform="translate(41.5,79.75)"><tspan
             id="tspan394"
             sodipodi:role="line"
             y="0"
             x="0 3.668457 5.5 8.5588379 11.617676 14.676514 17.426514 20.485352">Proposal</tspan></text>
<text
           id="text400"
           style="font-variant:normal;font-weight:normal;font-size:5.5px;font-family:Arial;-inkscape-font-specification:ArialMT;writing-mode:lr-tb;fill:#d3d3d3;fill-opacity:1;fill-rule:nonzero;stroke:none"
           transform="translate(199,91.75)"><tspan
             id="tspan398"
             sodipodi:role="line"
             y="0"
             x="0 3.9719238 7.0307617 10.0896 13.148438 14.370361 15.592285 18.651123">Deadline</tspan></text>
<text
           id="text404"
           style="font-variant:normal;font-weight:normal;font-size:5.5px;font-family:Arial;-inkscape-font-specification:ArialMT;writing-mode:lr-tb;fill:#d3d3d3;fill-opacity:1;fill-rule:nonzero;stroke:none"
           transform="translate(327.81641,103.75)"><tspan
             id="tspan402"
             sodipodi:role="line"
             y="0"
             x="0 3.9719238 7.0307617 10.0896 13.148438 14.370361 15.592285 18.651123">Deadline</tspan></text>
<text
           id="text408"
           style="font-variant:normal;font-weight:normal;font-size:5.5px;font-family:Arial;-inkscape-font-specification:ArialMT;writing-mode:lr-tb;fill:#f9fffe;fill-opacity:1;fill-rule:nonzero;stroke:none"
           transform="translate(5,43)"><tspan
             id="tspan406"
             sodipodi:role="line"
             y="0"
             x="0 3.9719238 7.0307617 9.7807617 11.002686 14.061523 17.120361 18.648438 22.620361 25.679199 28.738037 31.488037 33.016113 34.847656 37.906494 40.656494 42.18457 43.406494 46.465332">Design/Construction</tspan></text>
<text
           id="text412"
           style="font-variant:normal;font-weight:normal;font-size:5.5px;font-family:Arial;-inkscape-font-specification:ArialMT;writing-mode:lr-tb;fill:#f9fffe;fill-opacity:1;fill-rule:nonzero;stroke:none"
           transform="translate(5,67)"><tspan
             id="tspan410"
             sodipodi:role="line"
             y="0"
             x="0 3.668457 6.7272949 8.2553711 11.314209 14.373047 16.20459 18.95459 22.013428 23.235352">Authorship</tspan></text>
<text
           id="text416"
           style="font-variant:normal;font-weight:normal;font-size:5.5px;font-family:Arial;-inkscape-font-specification:ArialMT;writing-mode:lr-tb;fill:#f9fffe;fill-opacity:1;fill-rule:nonzero;stroke:none"
           transform="translate(5,91)"><tspan
             id="tspan414"
             sodipodi:role="line"
             y="0"
             x="0 3.668457 6.7272949 10.699219 12.227295 16.199219 19.258057 20.786133 23.844971">PhD Dates</tspan></text>
</g><g
         transform="matrix(0.37577641,0,0,0.37577641,62.819878,60.565216)"
         id="g418"><path
           inkscape:connector-curvature="0"
           id="path420"
           style="fill:none;stroke:#db5757;stroke-width:1;stroke-linecap:butt;stroke-linejoin:miter;stroke-miterlimit:10;stroke-dasharray:none;stroke-opacity:1"
           d="M 170,25 V 243" /></g><g
         transform="matrix(0.75155282,0,0,0.75155282,62.819878,60.565216)"
         id="g422"><text
           id="text426"
           style="font-variant:normal;font-weight:normal;font-size:9px;font-family:Arial;-inkscape-font-specification:ArialMT;writing-mode:lr-tb;fill:#d3d3d3;fill-opacity:1;fill-rule:nonzero;stroke:none"
           transform="translate(144.80933,12.5)"><tspan
             id="tspan424"
             sodipodi:role="line"
             y="0"
             x="0 6.4995117 11.504883 16.510254 19.507324 24.007324 29.012695 31.513184 36.518555 39.019043 41.519531 47.522461 50.519531 55.524902 60.530273 65.535645 70.035645 75.041016 80.046387 82.546875 90.878906 95.884277 98.881348">Course of Proposed Work</tspan></text>
</g></g></g></svg>