<?xml version="1.0" encoding="UTF-8" standalone="no"?>
<!-- Created with Inkscape (http://www.inkscape.org/) -->

<svg
   xmlns:dc="http://purl.org/dc/elements/1.1/"
   xmlns:cc="http://creativecommons.org/ns#"
   xmlns:rdf="http://www.w3.org/1999/02/22-rdf-syntax-ns#"
   xmlns:svg="http://www.w3.org/2000/svg"
   xmlns="http://www.w3.org/2000/svg"
   xmlns:sodipodi="http://sodipodi.sourceforge.net/DTD/sodipodi-0.dtd"
   xmlns:inkscape="http://www.inkscape.org/namespaces/inkscape"
   width="150mm"
   height="55mm"
   viewBox="0 0 150 55"
   version="1.1"
   id="svg8"
   inkscape:version="0.92.1 unknown"
   sodipodi:docname="dual-CvCop.svg">
  <defs
     id="defs2" />
  <sodipodi:namedview
     id="base"
     pagecolor="#ffffff"
     bordercolor="#666666"
     borderopacity="1.0"
     inkscape:pageopacity="0.0"
     inkscape:pageshadow="2"
     inkscape:zoom="2.8"
     inkscape:cx="267.79351"
     inkscape:cy="102.67646"
     inkscape:document-units="mm"
     inkscape:current-layer="layer1"
     showgrid="false" />
  <metadata
     id="metadata5">
    <rdf:RDF>
      <cc:Work
         rdf:about="">
        <dc:format>image/svg+xml</dc:format>
        <dc:type
           rdf:resource="http://purl.org/dc/dcmitype/StillImage" />
        <dc:title></dc:title>
      </cc:Work>
    </rdf:RDF>
  </metadata>
  <g
     inkscape:label="Layer 1"
     inkscape:groupmode="layer"
     id="layer1"
     transform="translate(0,-242)">
    <path
       style="opacity:1;fill:#000000;fill-opacity:1;stroke:none;stroke-width:0.52916664;stroke-linecap:round;stroke-miterlimit:4;stroke-dasharray:none;stroke-opacity:1"
       id="path4489"
       d="m 45.71135,244.07666 c -0.05471,-0.22257 -0.101645,-0.45073 -0.197062,-0.66034 -0.03463,-0.0542 -0.01265,-0.0357 -0.037,-0.0216 -0.069,0.0217 -0.131895,0.058 -0.194244,0.0939 -0.109765,0.0628 -0.208452,0.14178 -0.30803,0.2191 -0.125085,0.0988 -0.240279,0.2078 -0.343474,0.32913 -0.11057,0.13357 -0.191122,0.28682 -0.266589,0.44188 -0.0679,0.14893 -0.106638,0.30656 -0.140444,0.46651 -0.03697,0.191 -0.04859,0.38568 -0.0423,0.57982 0.0067,0.16429 0.05037,0.31938 0.126019,0.46439 0.07501,0.13171 0.19227,0.22562 0.312404,0.31378 0.117655,0.0866 0.249179,0.14704 0.389898,0.18402 0.136924,0.0328 0.272171,0.018 0.405034,-0.0226 0.173744,-0.0618 0.322244,-0.17295 0.461958,-0.29047 0.170463,-0.15687 0.329639,-0.32598 0.485896,-0.49692 0.06092,-0.10494 0.263033,-0.21521 0.325869,-0.30312 0.02148,-0.03 0.02668,-0.0689 0.04003,-0.10332 0.0086,-0.0122 0.02593,-3e-5 0.0173,0.0122 v 0 c -0.07805,0.19991 -0.05191,0.43254 -0.186251,0.61616 -0.139726,0.21697 -0.299339,0.41898 -0.498255,0.5855 -0.175578,0.14458 -0.359871,0.28028 -0.58125,0.3456 -0.189214,0.0464 -0.379246,0.0614 -0.569971,0.01 -0.174739,-0.0516 -0.340529,-0.12381 -0.488299,-0.23229 -0.15775,-0.11319 -0.307779,-0.23853 -0.409628,-0.40681 -0.103182,-0.18291 -0.167984,-0.3793 -0.184385,-0.58992 -0.01402,-0.21846 -0.0063,-0.43722 0.02931,-0.65361 0.04564,-0.24676 0.112199,-0.48954 0.226263,-0.71449 0.09088,-0.17729 0.192411,-0.35013 0.327449,-0.49801 0.120748,-0.12847 0.249666,-0.24841 0.391199,-0.35395 0.111147,-0.0874 0.227481,-0.16877 0.350822,-0.23822 0.09809,-0.0532 0.199096,-0.10485 0.311198,-0.11974 0.156527,-0.007 0.281911,0.0492 0.357909,0.19256 0.106432,0.22945 0.15829,0.4774 0.216268,0.72248 0.09102,0.23167 -0.236617,0.36039 -0.327633,0.12872 z"
       inkscape:connector-curvature="0" />
    <path
       style="opacity:1;fill:#000000;fill-opacity:1;stroke:none;stroke-width:0.52916664;stroke-linecap:round;stroke-miterlimit:4;stroke-dasharray:none;stroke-opacity:1"
       id="path4491"
       d="m 45.276174,243.62154 c -0.0823,0.31666 -0.147421,0.63741 -0.204939,0.95939 -0.04292,0.2525 -0.07739,0.50632 -0.115506,0.75957 -0.02778,0.20557 -0.06267,0.41001 -0.115901,0.61058 -0.03838,0.11533 -0.07994,0.23373 -0.169862,0.31859 0.0024,0.006 0.0048,0.0115 0.0072,0.0172 0.0077,0.0128 -0.01048,0.0237 -0.01818,0.0109 v 0 c -0.003,-0.007 -0.006,-0.014 -0.009,-0.0211 -0.117938,-0.0507 -0.106863,-0.19649 -0.107662,-0.30791 0.01553,-0.20257 0.04516,-0.40332 0.07755,-0.60382 0.03872,-0.25692 0.07361,-0.51448 0.119628,-0.77024 0.06024,-0.32927 0.133734,-0.65562 0.219938,-0.97911 0.0042,-0.22396 0.320905,-0.21804 0.316722,0.006 z"
       inkscape:connector-curvature="0" />
    <path
       style="opacity:1;fill:#000000;fill-opacity:1;stroke:none;stroke-width:0.52916664;stroke-linecap:round;stroke-miterlimit:4;stroke-dasharray:none;stroke-opacity:1"
       id="path4497"
       d="m 112.41426,245.3799 c -0.002,-0.29462 -0.0132,-0.58977 -0.0512,-0.8821 -0.0146,-0.0855 -0.0262,-0.18077 -0.0885,-0.24637 -0.0374,-0.0247 -0.0818,-0.026 -0.12501,-0.0253 -0.0883,0.003 -0.16752,0.0416 -0.24294,0.0842 -0.12144,0.0683 -0.2275,0.15855 -0.32797,0.25418 -0.14048,0.13872 -0.252,0.30106 -0.35415,0.46895 -0.10641,0.18717 -0.18679,0.38628 -0.25837,0.58883 -0.0852,0.24057 -0.13334,0.49107 -0.1736,0.74232 -0.0331,0.2342 -0.0557,0.47019 -0.0638,0.70659 -0.005,0.17663 0.008,0.35286 0.0572,0.52281 0.0409,0.12286 0.12533,0.19999 0.23904,0.25426 0.16737,0.0598 0.34306,0.0254 0.51008,-0.0165 0.24401,-0.0716 0.4629,-0.2043 0.67395,-0.34273 0.2509,-0.17201 0.47103,-0.38265 0.73729,-0.53095 0.0372,-0.0444 0.0744,-0.0888 0.11157,-0.13326 0.0115,-0.01 0.025,0.007 0.0136,0.0162 v 0 c -0.0343,0.0486 -0.0685,0.0972 -0.10282,0.14582 -0.0251,0.0606 -0.0449,0.12354 -0.0752,0.18165 -0.12713,0.2438 -0.34523,0.43287 -0.56113,0.59495 -0.23514,0.15815 -0.48097,0.30285 -0.75756,0.37558 -0.22973,0.051 -0.46345,0.0794 -0.68631,-0.0174 -0.16849,-0.089 -0.303,-0.20973 -0.37869,-0.38896 -0.0764,-0.19464 -0.10066,-0.39913 -0.10103,-0.6078 -0.004,-0.24848 0.002,-0.49683 0.0356,-0.74353 0.0353,-0.26971 0.0815,-0.53864 0.16324,-0.79869 0.0925,-0.28337 0.20315,-0.56091 0.36501,-0.8129 0.12111,-0.18837 0.25311,-0.37082 0.41929,-0.52261 0.12433,-0.1115 0.256,-0.21543 0.40536,-0.29185 0.12758,-0.0592 0.26017,-0.10524 0.40312,-0.0991 0.12884,0.0106 0.24604,0.0461 0.33834,0.14187 0.10208,0.11852 0.14002,0.25992 0.15544,0.41427 0.0297,0.30453 0.0318,0.6103 0.0329,0.91608 0.0364,0.22115 -0.27637,0.27258 -0.31274,0.0514 z"
       inkscape:connector-curvature="0" />
    <path
       style="opacity:1;fill:#000000;fill-opacity:1;stroke:none;stroke-width:0.52916664;stroke-linecap:round;stroke-miterlimit:4;stroke-dasharray:none;stroke-opacity:1"
       id="path4501"
       d="m 111.77361,244.78662 c -0.0652,0.38547 -0.14034,0.76904 -0.2235,1.15101 -0.0824,0.37614 -0.19281,0.74534 -0.30791,1.11253 -0.0851,0.27546 -0.20801,0.5314 -0.35872,0.77589 -2.6e-4,0.015 -0.0215,0.0144 -0.0212,-5.3e-4 v 0 c -0.0245,-0.26989 0.0253,-0.5312 0.0916,-0.79283 0.0947,-0.36524 0.19196,-0.7299 0.27218,-1.09869 0.0827,-0.37802 0.15969,-0.75731 0.22065,-1.13952 -0.006,-0.2311 0.32128,-0.23895 0.32683,-0.008 z"
       inkscape:connector-curvature="0" />
    <path
       style="opacity:1;fill:#000000;fill-opacity:1;stroke:none;stroke-width:0.52916664;stroke-linecap:round;stroke-miterlimit:4;stroke-dasharray:none;stroke-opacity:1"
       id="path4503"
       d="m 114.87975,243.8052 c -0.31686,0.18455 -0.58591,0.42773 -0.79602,0.72709 -0.10259,0.17975 -0.16124,0.36717 -0.15859,0.57393 0.0152,0.12762 0.0706,0.23802 0.19014,0.29223 0.15148,0.034 0.27892,-0.0522 0.39546,-0.1378 0.17729,-0.13823 0.29077,-0.32653 0.38744,-0.52467 0.0918,-0.20032 0.1223,-0.41557 0.11264,-0.63388 -0.0119,-0.13004 -0.0388,-0.25772 -0.0957,-0.37558 -0.03,-0.0451 -0.0338,-0.10095 0.0293,-0.11343 0.0149,-0.0149 0.0297,-0.0298 0.0446,-0.0447 0.004,0.0144 -0.0162,0.0203 -0.0204,0.006 v 0 c 0.0102,-0.0462 0.0204,-0.0924 0.0306,-0.13853 0.10142,-0.002 0.16825,-0.002 0.22074,0.10098 0.0826,0.15652 0.12838,0.32569 0.13078,0.50361 -0.001,0.26312 -0.0392,0.52077 -0.1522,0.76149 -0.13708,0.28214 -0.31045,0.54415 -0.56564,0.73303 -0.20057,0.13075 -0.41294,0.2308 -0.65418,0.14749 -0.21418,-0.10016 -0.34853,-0.2566 -0.39108,-0.49498 -0.0452,-0.34794 0.052,-0.65598 0.25896,-0.9406 0.24911,-0.321 0.55147,-0.58798 0.90344,-0.79354 0.24889,-0.0917 0.37854,0.26031 0.12965,0.35199 z"
       inkscape:connector-curvature="0" />
    <path
       style="opacity:1;fill:#000000;fill-opacity:1;stroke:none;stroke-width:0.52916664;stroke-linecap:round;stroke-miterlimit:4;stroke-dasharray:none;stroke-opacity:1"
       id="path4505"
       d="m 115.60964,243.98273 c -0.0435,0.33107 -0.0752,0.66352 -0.0914,0.99702 -0.007,0.20825 -0.007,0.41683 0.01,0.62455 0.0116,0.073 0.0159,0.14818 0.0326,0.22014 -0.14758,-0.28358 -0.18392,0.17001 -0.14719,-0.14651 0.0129,-0.17792 0.013,-0.35665 0.0169,-0.53498 0.002,-0.26353 0.0286,-0.5253 0.0671,-0.78574 0.0357,-0.22279 0.0895,-0.44189 0.17067,-0.65245 0.0677,-0.17541 0.17925,-0.31364 0.34298,-0.40384 0.13328,-0.0623 0.27317,-0.0657 0.41376,-0.0315 0.16373,0.0459 0.27698,0.15943 0.37412,0.29281 0.0959,0.14373 0.14918,0.30721 0.18808,0.47399 0.0263,0.12707 0.041,0.2567 0.0266,0.38597 -0.0423,0.19583 -0.19705,0.27983 -0.37004,0.33313 -0.22127,0.0548 -0.4501,0.0587 -0.67661,0.0512 -0.23184,-0.0142 -0.41457,-0.0212 -0.43403,-0.29314 -0.0126,-0.008 -0.001,-0.0259 0.0114,-0.0178 v 0 c 0.1775,-0.18439 0.22374,-0.15933 0.47798,-0.1438 0.19003,0.008 0.38133,0.0191 0.57092,-0.002 0.16604,-0.0309 0.0931,-0.0645 0.0842,0.0369 -7.9e-4,0.009 0.0166,-0.007 0.0249,-0.0109 0.0762,-0.0673 0.0676,-0.16424 0.0518,-0.25764 -0.0284,-0.14095 -0.0685,-0.27969 -0.14581,-0.40253 -0.0625,-0.0905 -0.13401,-0.17713 -0.24592,-0.20389 -0.089,-0.009 -0.17588,-0.006 -0.25418,0.0431 -0.0954,0.0675 -0.10935,0.0946 -0.16124,0.19535 -0.0801,0.19163 -0.132,0.39288 -0.16686,0.59754 -0.0408,0.25054 -0.0673,0.50303 -0.0721,0.75704 -0.007,0.18508 -0.0174,0.37001 -0.0285,0.55491 -0.017,0.13593 -0.11715,0.50083 -0.32391,0.28717 -0.0459,-0.0861 -0.0682,-0.18316 -0.0809,-0.27939 -0.0234,-0.21745 -0.025,-0.43625 -0.018,-0.65473 0.015,-0.3389 0.0512,-0.67601 0.0877,-1.01316 -0.012,-0.18738 0.25298,-0.20436 0.26499,-0.017 z"
       inkscape:connector-curvature="0" />
    <path
       style="opacity:1;fill:#000000;fill-opacity:1;stroke:none;stroke-width:0.52916664;stroke-linecap:round;stroke-miterlimit:4;stroke-dasharray:none;stroke-opacity:1"
       id="path4507"
       d="m 35.992326,268.28138 c -0.146595,0.35692 -0.243375,0.73025 -0.323819,1.10667 -0.06985,0.35309 -0.121428,0.70946 -0.175262,1.06524 -0.02756,0.17374 -0.05437,0.3477 -0.09278,0.51944 0.02249,0.16297 -0.336434,0.19717 -0.301636,0.005 0.03536,-0.17493 0.06578,-0.35078 0.09429,-0.52695 0.0479,-0.30754 0.08521,-0.61654 0.132204,-0.92421 0.0541,-0.35412 0.126302,-0.70513 0.209135,-1.05355 0.06119,-0.2584 0.131331,-0.5146 0.214505,-0.76679 0.05301,-0.14176 0.09762,-0.28901 0.169749,-0.42274 0.131498,-0.18863 0.280538,-0.009 0.345824,0.11264 0.0797,0.16192 0.132831,0.33555 0.187328,0.50716 0.08354,0.26179 0.148859,0.52885 0.213963,0.79567 0.06801,0.2848 0.132114,0.5705 0.199461,0.85545 0.05216,0.20876 0.09814,0.41886 0.14079,0.62972 0.01963,0.1012 0.03411,0.20265 0.0595,0.30254 0.02156,0.081 0.0087,0.16272 -0.01521,0.24139 5.29e-4,0.013 0.0011,0.026 0.0016,0.039 0.0034,0.0146 -0.01714,0.0194 -0.02061,0.005 v 0 c -5.29e-4,-0.0128 -0.0011,-0.0256 -0.0016,-0.0384 -0.03256,-0.0549 -0.06455,-0.10997 -0.102601,-0.16136 -0.06071,-0.0865 -0.129122,-0.16839 -0.170375,-0.26692 -0.086,-0.20125 -0.150522,-0.41016 -0.201578,-0.62297 -0.06961,-0.2842 -0.132385,-0.57 -0.199674,-0.85475 -0.06319,-0.26155 -0.126608,-0.52324 -0.204829,-0.78081 -0.05044,-0.16086 -0.09932,-0.3223 -0.160925,-0.47935 -0.05923,-0.14614 -0.03386,-0.0728 0.153519,-0.0894 -0.03402,0.0724 0.01201,-0.0241 0.0019,-0.01 -0.05482,0.0754 -0.06629,0.18101 -0.109919,0.26183 -0.08366,0.24454 -0.156411,0.49249 -0.217683,0.74364 -0.08155,0.34174 -0.157078,0.68504 -0.210317,1.0325 -0.04667,0.30771 -0.08674,0.6163 -0.130474,0.92442 -0.028,0.17737 -0.05739,0.35449 -0.09011,0.53104 -0.03389,0.19271 -0.387336,0.22088 -0.305323,0.0273 0.02543,-0.17075 0.05614,-0.34067 0.08042,-0.5116 0.05594,-0.36109 0.103426,-0.72363 0.172702,-1.08253 0.09373,-0.4489 0.207669,-0.8943 0.387924,-1.31744 0.144309,-0.19083 0.414192,0.0132 0.269883,0.20409 z"
       inkscape:connector-curvature="0" />
    <path
       style="opacity:1;fill:#000000;fill-opacity:1;stroke:none;stroke-width:0.52916664;stroke-linecap:round;stroke-miterlimit:4;stroke-dasharray:none;stroke-opacity:1"
       id="path4509"
       d="m 35.67903,269.81711 c 0.302249,0.009 0.603925,-0.009 0.90537,-0.028 0.09538,-0.005 0.192696,-0.004 0.275375,0.0518 0.02841,0.0191 0.04452,0.0571 0.07696,0.068 0.01982,0.007 0.03903,-0.0149 0.05855,-0.0224 0.0145,-0.004 0.01976,0.0168 0.0053,0.0205 v 0 c -0.122809,0.0464 -0.0034,-0.0129 -0.1242,0.12754 -0.07411,0.0861 -0.184801,0.10978 -0.291182,0.12364 -0.309306,0.0254 -0.619591,0.0312 -0.929865,0.0308 -0.262901,-0.0168 -0.239181,-0.38857 0.02371,-0.3718 z"
       inkscape:connector-curvature="0" />
    <path
       style="opacity:1;fill:#000000;fill-opacity:1;stroke:none;stroke-width:0.52916664;stroke-linecap:round;stroke-miterlimit:4;stroke-dasharray:none;stroke-opacity:1"
       id="path4511"
       d="m 59.969835,268.2141 c 0.03947,0.40635 0.07123,0.81326 0.09485,1.22083 0.0159,0.33569 0.03066,0.67144 0.04503,1.0072 0.01188,0.14847 0.0034,0.29844 0.01675,0.44674 -0.04476,-0.0293 0.01042,0.0215 0.0029,0.0225 -0.425839,0.0594 -0.33352,0.11954 -0.369435,-0.17554 -0.03266,-0.26085 -0.05523,-0.52279 -0.0801,-0.78445 -0.02793,-0.33907 -0.05941,-0.67785 -0.08564,-1.01706 -0.01741,-0.24162 -0.03384,-0.48404 -0.01273,-0.72584 0.01789,-0.19471 0.114268,-0.34275 0.2706,-0.45189 0.14937,-0.0882 0.316172,-0.13643 0.48333,-0.17769 0.18038,-0.0438 0.362236,-0.0449 0.5437,-0.0111 0.153131,0.0354 0.283311,0.11248 0.390303,0.22597 0.128638,0.15656 0.08013,0.30798 0.0055,0.47666 -0.101904,0.15995 -0.225544,0.30436 -0.345514,0.45076 -0.0992,0.11989 -0.200568,0.23799 -0.297664,0.3596 -0.02421,0.0382 -0.06459,0.0719 -0.09711,0.0938 -0.0011,-0.0528 -0.01307,-0.10649 -0.0035,-0.15845 0.0019,-0.0105 0.02125,0.003 0.03195,0.004 0.05907,0.004 0.118829,-3.9e-4 0.178086,0.003 0.153228,0.0103 0.29746,0.0539 0.434207,0.1218 0.18913,0.0961 0.347538,0.23715 0.489987,0.39216 0.155086,0.17884 0.258623,0.3908 0.340969,0.61075 0.07157,0.19238 0.100944,0.38755 0.06393,0.5896 -0.07581,0.25588 -0.251592,0.40553 -0.479568,0.52497 -0.237802,0.10918 -0.495514,0.13184 -0.753538,0.12947 -0.261557,-0.007 -0.509889,-0.0745 -0.732801,-0.21028 -0.126391,-0.10375 -0.164063,-0.21838 -0.14179,-0.37518 -0.0075,-0.013 0.01087,-0.0235 0.01834,-0.0106 v 0 c 0.09002,0.0306 0.182829,0.0475 0.273875,0.0749 0.195099,0.0746 0.395663,0.13337 0.606486,0.13634 0.205724,7.2e-4 0.414779,-0.007 0.605835,-0.0925 0.0701,-0.035 0.135644,-0.07 0.193252,-0.12419 0.03021,-0.0284 0.04312,-0.0742 0.07749,-0.0974 0.0077,-0.005 -7.94e-4,0.0185 -0.0013,0.0278 0.06938,-0.1421 0.05642,-0.28878 0.0082,-0.43747 -0.06549,-0.19564 -0.149979,-0.38381 -0.27968,-0.54633 -0.115972,-0.14409 -0.245414,-0.27531 -0.402548,-0.37508 -0.107476,-0.0632 -0.215778,-0.12205 -0.343995,-0.12295 -0.03635,-10e-4 -0.24157,0.002 -0.257517,-0.0184 -0.04355,-0.0563 -0.06616,-0.12608 -0.09924,-0.18912 0.02882,-0.0589 0.04107,-0.12475 0.09134,-0.17226 0.09905,-0.1206 0.200623,-0.23907 0.299553,-0.35976 0.108313,-0.13171 0.221512,-0.26246 0.305102,-0.41173 -0.01265,0.0563 0.04867,-0.0564 0.01297,-0.0981 -0.0625,-0.0839 -0.154229,-0.12886 -0.255493,-0.15087 -0.147619,-0.0262 -0.294153,-0.0196 -0.438459,0.0243 -0.133615,0.0393 -0.267872,0.087 -0.37682,0.17672 -0.11254,0.10808 -0.04198,0.0365 -0.08643,0.13891 -0.02808,0.2238 -0.0076,0.44982 0.0054,0.67408 0.02548,0.3368 0.05776,0.67298 0.09096,1.0091 0.02334,0.25884 0.04994,0.51747 0.08257,0.77532 0.0357,0.29715 0.107839,0.20527 -0.30403,0.3644 -0.01087,0.004 0.01418,-0.0495 -5.29e-4,-0.0349 5.29e-4,-0.14928 -0.01606,-0.29857 -0.01508,-0.44794 -0.01222,-0.33511 -0.02585,-0.67017 -0.04079,-1.00517 -0.02193,-0.40385 -0.04957,-0.80739 -0.09605,-1.20928 -0.06338,-0.23599 0.270362,-0.32563 0.333743,-0.0896 z"
       inkscape:connector-curvature="0" />
    <path
       style="opacity:1;fill:#000000;fill-opacity:1;stroke:none;stroke-width:0.52916664;stroke-linecap:round;stroke-miterlimit:4;stroke-dasharray:none;stroke-opacity:1"
       id="path4513"
       d="m 48.959504,291.80821 c -0.150574,-0.21888 -0.312787,-0.43292 -0.529537,-0.58973 -0.102862,-0.0675 -0.208179,-0.0841 -0.325742,-0.0566 -0.120242,0.0404 -0.212153,0.12873 -0.299383,0.21701 -0.120322,0.12278 -0.204865,0.27148 -0.277583,0.42569 -0.08279,0.16693 -0.112313,0.34703 -0.135469,0.52901 -0.03013,0.29255 0.0016,0.58525 0.04251,0.8749 0.04273,0.28503 0.109839,0.56506 0.20946,0.83545 0.06218,0.15431 0.139179,0.30317 0.275947,0.40251 0.114491,0.0663 0.237776,0.0215 0.352004,-0.0221 0.223134,-0.10122 0.420291,-0.25025 0.622867,-0.38636 0.156128,-0.11307 0.333758,-0.18483 0.509341,-0.26064 0.01196,-0.009 0.02469,0.008 0.01275,0.0169 v 0 c -0.0921,0.19267 -0.187568,0.38079 -0.347959,0.5275 -0.206978,0.19213 -0.431996,0.36396 -0.69805,0.46665 -0.218467,0.0705 -0.4322,0.0999 -0.640683,-0.0205 -0.190223,-0.13309 -0.321477,-0.31559 -0.410216,-0.53023 -0.115625,-0.28932 -0.195704,-0.59036 -0.243924,-0.8984 -0.0495,-0.31522 -0.0869,-0.63378 -0.06403,-0.95341 0.02498,-0.28453 0.08429,-0.56494 0.214201,-0.82128 0.09636,-0.18463 0.208561,-0.36001 0.361749,-0.50346 0.139406,-0.12568 0.288782,-0.2397 0.476928,-0.27875 0.205501,-0.0284 0.393991,0.009 0.56375,0.13443 0.234344,0.18739 0.416314,0.42379 0.581837,0.67286 0.154533,0.17732 -0.09623,0.39586 -0.250764,0.21854 z"
       inkscape:connector-curvature="0" />
    <path
       style="opacity:1;fill:#000000;fill-opacity:1;stroke:none;stroke-width:0.52916664;stroke-linecap:round;stroke-miterlimit:4;stroke-dasharray:none;stroke-opacity:1"
       id="path4531"
       d="m 35.352574,266.16012 c -5.29e-4,-0.30691 -0.03117,-0.6119 -0.08879,-0.91306 -0.04902,-0.2392 -0.127754,-0.47075 -0.213098,-0.69905 -0.07036,-0.18853 -0.164997,-0.36451 -0.287523,-0.52383 -0.110331,-0.14266 -0.252973,-0.24848 -0.404876,-0.3424 -0.160348,-0.0939 -0.336992,-0.15325 -0.514596,-0.20471 -0.195911,-0.0631 -0.392663,-0.0742 -0.595887,-0.0552 -0.250097,0.026 -0.490913,0.0958 -0.725051,0.18467 -0.250544,0.0975 -0.476554,0.24202 -0.692867,0.39942 -0.223191,0.16209 -0.406603,0.36661 -0.573143,0.58456 -0.14592,0.20335 -0.260707,0.42771 -0.348898,0.66164 -0.108892,0.277 -0.179586,0.56642 -0.236214,0.85797 -0.0568,0.31214 -0.09399,0.62747 -0.120968,0.94346 -0.02883,0.27971 -0.02809,0.56006 0.02297,0.8367 0.05015,0.2446 0.176789,0.45539 0.323942,0.65282 0.171054,0.21723 0.384138,0.39272 0.612712,0.54569 0.226473,0.15849 0.477353,0.2438 0.746196,0.29289 0.302393,0.0556 0.604094,0.0313 0.903079,-0.0281 0.354534,-0.0852 0.679167,-0.25438 1.004467,-0.41365 0.206639,-0.11031 0.434128,-0.16488 0.647472,-0.25828 0.01318,-0.007 0.02323,0.0115 0.01005,0.0186 v 0 c -0.168571,0.18677 -0.322934,0.38852 -0.542091,0.5209 -0.334981,0.20751 -0.689901,0.38274 -1.077563,0.46741 -0.336066,0.0634 -0.677252,0.087 -1.01508,0.0169 -0.296148,-0.0716 -0.580726,-0.18292 -0.8359,-0.35195 -0.249278,-0.17228 -0.490093,-0.35864 -0.677768,-0.59957 -0.173299,-0.22735 -0.321852,-0.47098 -0.387019,-0.75303 -0.06077,-0.30047 -0.07158,-0.60366 -0.04086,-0.90909 0.02806,-0.32546 0.06301,-0.65056 0.120639,-0.97231 0.05967,-0.30774 0.12867,-0.61437 0.241832,-0.90762 0.122227,-0.29932 0.25291,-0.59674 0.454777,-0.85272 0.18583,-0.23329 0.391731,-0.4499 0.635976,-0.6234 0.236741,-0.16643 0.484034,-0.31825 0.756296,-0.42021 0.256809,-0.093 0.520231,-0.16684 0.793083,-0.19373 0.232108,-0.0166 0.466198,-0.015 0.691719,0.0504 0.201522,0.0581 0.400192,0.12802 0.580469,0.23731 0.178533,0.11058 0.346046,0.23908 0.475763,0.4063 0.135316,0.18062 0.252114,0.37284 0.328869,0.58633 0.09213,0.24083 0.173995,0.48599 0.229873,0.73804 0.06273,0.31517 0.09676,0.63481 0.101973,0.95633 0.04493,0.21495 -0.259056,0.27849 -0.303988,0.0635 z"
       inkscape:connector-curvature="0" />
    <path
       style="opacity:1;fill:#000000;fill-opacity:1;stroke:none;stroke-width:0.52916664;stroke-linecap:round;stroke-miterlimit:4;stroke-dasharray:none;stroke-opacity:1"
       id="path4533"
       d="m 34.465971,268.28259 c 0.22906,-0.0959 0.452318,-0.20551 0.667753,-0.329 0.212288,-0.12871 0.05436,-0.22083 0.298066,0.22859 -0.04476,0.0815 -0.06674,0.17178 -0.08827,0.26142 0.0024,-0.008 0.0089,-0.0337 0.0072,-0.0251 -0.02682,0.13526 -0.05672,0.26979 -0.0822,0.4054 -0.0331,0.17652 -0.06161,0.35383 -0.09455,0.53038 -0.01146,0.13608 -0.07522,0.24331 -0.137761,0.3597 -0.01339,0.001 -0.02676,0.002 -0.04014,0.003 -0.05362,0.0998 -0.194715,0.0239 -0.1411,-0.0758 v 0 c -0.0099,-0.0126 -0.01992,-0.0253 -0.02988,-0.0379 -0.01132,0.0108 -0.01831,0.0329 -0.03397,0.0325 -0.03258,-9.8e-4 0.01521,-0.24632 0.02302,-0.26132 0.03494,-0.17652 0.06493,-0.35388 0.0952,-0.53126 0.0364,-0.19244 0.06867,-0.38596 0.119165,-0.57537 0.03096,-0.10915 0.06869,-0.21596 0.124952,-0.31501 0.308666,0.32291 0.286425,0.17911 0.08816,0.278 -0.228552,0.1138 -0.456686,0.22856 -0.691033,0.33019 -0.19685,0.0598 -0.281453,-0.21856 -0.0846,-0.27838 z"
       inkscape:connector-curvature="0" />
    <path
       style="opacity:1;fill:#000000;fill-opacity:1;stroke:none;stroke-width:0.52916664;stroke-linecap:round;stroke-miterlimit:4;stroke-dasharray:none;stroke-opacity:1"
       id="path4535"
       d="m 25.893976,260.97582 c 0.157464,-0.22786 0.306417,-0.46319 0.416447,-0.71793 0.0098,-0.0492 0.03428,-0.11441 0.02814,-0.17295 0.01233,0.093 0.133993,0.0864 0.198665,0.11664 0.0098,0.005 -0.0048,0.041 0.0019,0.0325 0.0093,-0.0119 0.0123,-0.0275 0.01847,-0.0413 -0.04321,0.12709 -0.07463,0.25796 -0.10708,0.38813 -0.05275,0.20849 -0.08662,0.42091 -0.121444,0.63292 -0.0416,0.26111 -0.08372,0.52215 -0.127508,0.7829 -0.03289,0.20215 -0.06453,0.40448 -0.112043,0.6038 -0.02064,0.0796 -0.04991,0.15508 -0.09364,0.22452 -0.01368,0.0157 -0.02953,0.0289 -0.04678,0.0404 0.0085,0.0123 -0.0089,0.0243 -0.01741,0.012 v 0 c -0.02019,-0.004 -0.04078,-0.004 -0.05905,-0.015 -0.0631,-0.0637 -0.07176,-0.15221 -0.07291,-0.23855 0.01072,-0.20408 0.04461,-0.4055 0.07975,-0.60662 0.04248,-0.26095 0.08534,-0.52183 0.126731,-0.78295 0.03418,-0.22009 0.06789,-0.44062 0.119525,-0.65744 0.03427,-0.13902 0.06706,-0.27847 0.105542,-0.4164 0.0154,-0.0401 0.09094,-0.28557 0.183224,-0.27329 0.233839,0.0311 0.218125,0.009 0.243457,0.11653 0.0099,0.15932 -0.03219,0.30758 -0.101209,0.45162 -0.129169,0.26152 -0.284644,0.50844 -0.445524,0.75147 -0.163396,0.15359 -0.380603,-0.0775 -0.217209,-0.23107 z"
       inkscape:connector-curvature="0" />
    <path
       style="opacity:1;fill:#000000;fill-opacity:1;stroke:none;stroke-width:0.52916664;stroke-linecap:round;stroke-miterlimit:4;stroke-dasharray:none;stroke-opacity:1"
       id="path4537"
       d="m 25.741849,262.51297 c 0.277373,-0.0279 0.553376,-0.0717 0.832726,-0.0641 0.09993,-0.002 0.192338,0.0325 0.288356,0.0521 0.0146,-0.003 0.01918,0.0174 0.0046,0.0207 v 0 c -0.07964,0.0779 -0.156178,0.15403 -0.263641,0.19384 -0.269479,0.10784 -0.555858,0.14647 -0.842624,0.18195 -0.271812,0.0137 -0.291201,-0.37069 -0.01939,-0.3844 z"
       inkscape:connector-curvature="0" />
    <path
       style="opacity:1;fill:#000000;fill-opacity:1;stroke:none;stroke-width:0.52916664;stroke-linecap:round;stroke-miterlimit:4;stroke-dasharray:none;stroke-opacity:1"
       id="path4539"
       d="m 27.342427,261.73147 c -0.04932,0.30781 -0.08925,0.61701 -0.135067,0.92535 -0.02596,0.16806 -0.05184,0.3361 -0.07221,0.50493 -0.008,0.0623 -0.01095,0.12515 -0.01998,0.18732 -0.25591,0.16778 -0.199112,-0.10713 -0.196231,-0.12029 0.0213,-0.1193 0.0404,-0.23897 0.06109,-0.3584 0.02832,-0.15814 0.06435,-0.31476 0.09953,-0.47148 0.02958,-0.12992 0.05627,-0.26064 0.0915,-0.38919 0.02223,-0.0878 0.04176,-0.1761 0.108284,-0.23999 0.245224,0.0297 0.236532,0.0481 0.340455,0.23169 0.05712,0.1085 0.112975,0.21767 0.166656,0.32791 0.06205,0.13347 0.111331,0.27219 0.159991,0.41093 0.04397,0.12874 0.0798,0.26002 0.120054,0.38993 0.01762,0.0652 0.04857,0.12816 0.04374,0.19683 -0.0044,0.0293 -0.01336,0.0541 -0.04448,0.0594 0.08128,0.0386 0.02673,0.15353 -0.05456,0.11495 v 0 c -0.03603,-0.005 -0.07289,0.001 -0.106878,-0.0124 -0.07153,-0.0514 -0.09993,-0.13294 -0.125746,-0.21441 -0.04204,-0.12795 -0.07555,-0.25847 -0.118017,-0.3863 -0.04194,-0.13046 -0.08922,-0.25949 -0.143804,-0.3852 -0.04913,-0.10748 -0.103989,-0.21208 -0.156879,-0.31773 -0.01881,-0.0361 -0.0377,-0.0721 -0.05813,-0.10735 -0.0094,-0.0161 -0.04788,-0.0425 -0.02985,-0.0473 0.05125,-0.0135 0.1055,-0.0104 0.15825,-0.0156 0.0354,-0.0353 0.05053,-0.1059 0.009,0.006 -0.04004,0.12333 -0.07541,0.2478 -0.103196,0.37456 -0.03547,0.15286 -0.07178,0.30557 -0.101147,0.45976 -0.02199,0.12112 -0.04207,0.24255 -0.06361,0.36375 -0.0076,0.0402 -0.135273,0.59481 -0.299879,0.18678 -0.01117,-0.0719 -0.0038,-0.14412 0.0037,-0.21612 0.02013,-0.17224 0.04706,-0.34356 0.0759,-0.51453 0.05043,-0.30901 0.102277,-0.61781 0.147545,-0.92764 -0.01138,-0.17249 0.23255,-0.18859 0.243935,-0.0161 z"
       inkscape:connector-curvature="0" />
    <path
       style="opacity:1;fill:#000000;fill-opacity:1;stroke:none;stroke-width:0.52916664;stroke-linecap:round;stroke-miterlimit:4;stroke-dasharray:none;stroke-opacity:1"
       id="path4541"
       d="m 27.124196,262.85744 c 0.214575,0.0135 0.105048,4.5e-4 0.328319,0.0413 0.01474,-0.003 0.01842,0.0182 0.0037,0.0208 v 0 c -0.188315,0.15375 -0.0932,0.0846 -0.283962,0.20949 -0.192108,0.034 -0.240136,-0.23772 -0.04803,-0.27168 z"
       inkscape:connector-curvature="0" />
    <path
       style="opacity:1;fill:#000000;fill-opacity:1;stroke:none;stroke-width:0.52916664;stroke-linecap:round;stroke-miterlimit:4;stroke-dasharray:none;stroke-opacity:1"
       id="path4545"
       d="m 43.631225,268.90235 c 0.414229,-0.0587 0.828759,-0.11452 1.243785,-0.16741 0.429368,-0.0501 0.861449,-0.0709 1.293114,-0.0893 0.515138,-0.0223 1.030547,-0.0376 1.54587,-0.0548 0.574448,-0.0197 1.149258,-0.0219 1.723978,-0.0245 0.618963,6.6e-4 1.237911,0.005 1.856877,0.005 0.669467,0.002 1.338855,-0.008 2.008055,-0.0264 0.660829,-0.0198 1.321448,-0.0453 1.982322,-0.0637 0.38404,-0.002 0.770768,-0.0307 1.154578,-0.002 0.626362,0.047 -0.107728,0.0217 0.49167,0.0361 0.01495,7.9e-4 0.01381,0.0219 -0.0011,0.0211 v 0 c -0.626375,0.0597 0.163131,-0.0226 -0.49761,0.0702 -0.383201,0.0538 -0.772861,0.0553 -1.158018,0.0857 -0.661519,0.0348 -1.323258,0.0648 -1.984986,0.0954 -0.671563,0.0285 -1.343305,0.0533 -2.015606,0.053 -0.618898,0.002 -1.237779,-10e-4 -1.856677,-9.2e-4 -0.57251,0.002 -1.14509,0.005 -1.71732,0.0252 -0.514522,0.0167 -1.02902,0.0342 -1.543394,0.055 -0.427382,0.0192 -0.854665,0.0405 -1.281134,0.0751 -0.414221,0.0268 -0.828265,0.0583 -1.241761,0.0943 -0.132477,0.002 -0.135093,-0.18551 -0.0026,-0.18735 z"
       inkscape:connector-curvature="0" />
    <path
       style="opacity:1;fill:#000000;fill-opacity:1;stroke:none;stroke-width:0.52916664;stroke-linecap:round;stroke-miterlimit:4;stroke-dasharray:none;stroke-opacity:1"
       id="path4547"
       d="m 56.065043,268.00469 c 0.278532,0.0835 0.557281,0.16683 0.82677,0.27658 0.129037,0.0588 0.258165,0.11459 0.333542,0.23882 0.061,0.17768 -0.08268,0.30495 -0.206037,0.40796 -0.119274,0.093 -0.249758,0.16937 -0.380976,0.24386 -0.127076,0.0685 -0.248523,0.14724 -0.382725,0.20129 -0.10595,0.0406 -0.187275,0.0404 -0.269454,-0.0396 -0.01418,0.005 -0.02096,-0.0153 -0.0068,-0.0201 v 0 c 0.009,-0.12047 0.06276,-0.19917 0.163388,-0.26702 0.117557,-0.0816 0.244797,-0.14707 0.369011,-0.21775 0.11774,-0.0669 0.235662,-0.13412 0.347361,-0.21083 0.03578,-0.0256 0.03845,-0.0257 0.06794,-0.0525 0.0055,-0.005 0.01794,-0.0229 0.01582,-0.0158 -0.02551,0.0856 -0.04917,0.0601 -0.0016,0.11564 0.06783,0.0302 -0.137229,-0.15107 -0.16324,-0.12549 -0.259504,-0.11283 -0.532596,-0.18917 -0.8024,-0.27303 -0.185314,-0.0633 -0.09585,-0.32533 0.08947,-0.26207 z"
       inkscape:connector-curvature="0" />
    <path
       style="opacity:1;fill:#000000;fill-opacity:1;stroke:none;stroke-width:0.52916664;stroke-linecap:round;stroke-miterlimit:4;stroke-dasharray:none;stroke-opacity:1"
       id="path4549"
       d="m 48.971199,263.34168 c 0.270256,0.0268 0.544176,0.0324 0.804677,-0.0517 0.142711,-0.0526 0.224489,-0.159 0.292489,-0.28848 0.04677,-0.11068 0.07261,-0.23042 0.09425,-0.34995 0.01609,-0.11787 0.0227,-0.23782 0.0098,-0.35629 -0.02167,-0.0556 0.0476,0.0156 0.07917,0.0269 -0.05385,0.0702 -0.09898,0.14638 -0.14156,0.22416 -0.08496,0.16489 -0.157874,0.33575 -0.229449,0.50677 -0.112927,0.26736 -0.212641,0.54003 -0.309139,0.81367 -0.10373,0.29835 -0.190635,0.60225 -0.277239,0.90592 -0.06658,0.23255 -0.123446,0.46765 -0.183941,0.7018 -0.02669,0.10467 -0.05793,0.20924 -0.135763,0.28704 -0.0085,0.007 -0.01704,0.0145 -0.02558,0.0217 0.0087,0.0122 -0.0085,0.0245 -0.0172,0.0123 v 0 c -0.01347,-0.002 -0.02695,-0.003 -0.04042,-0.005 -0.09937,-0.0747 -0.08226,-0.20549 -0.0653,-0.31583 0.04543,-0.24191 0.110974,-0.47948 0.177443,-0.71633 0.08839,-0.3088 0.178017,-0.61735 0.283871,-0.92075 0.09809,-0.27977 0.200411,-0.55822 0.319897,-0.8297 0.0965,-0.21907 0.189233,-0.44032 0.303962,-0.65072 0.06673,-0.11319 0.137459,-0.23098 0.254743,-0.29793 0.135316,-0.0409 0.249203,0.0165 0.274119,0.16113 0.0154,0.13679 0.0074,0.27498 -0.0024,0.41197 -0.01971,0.19676 -0.0657,0.3891 -0.162939,0.56355 -0.107458,0.17632 -0.248062,0.31264 -0.448741,0.37835 -0.293632,0.0814 -0.595619,0.0811 -0.897744,0.051 -0.200801,-0.0303 -0.157914,-0.3143 0.04289,-0.28398 z"
       inkscape:connector-curvature="0" />
    <path
       style="opacity:1;fill:#000000;fill-opacity:1;stroke:none;stroke-width:0.52916664;stroke-linecap:round;stroke-miterlimit:4;stroke-dasharray:none;stroke-opacity:1"
       id="path4555"
       d="m 48.552062,264.35487 c 0.339542,0.0266 0.679995,0.0277 1.020238,0.0203 0.194866,-0.0247 0.376399,0.0345 0.564037,0.0684 0.01484,-0.002 0.01765,0.019 0.0028,0.021 v 0 c -0.17839,0.13286 -0.349247,0.24585 -0.581199,0.25619 -0.351732,0.0273 -0.704125,0.0134 -1.056042,-0.006 -0.254297,-0.0355 -0.20414,-0.39509 0.05015,-0.35962 z"
       inkscape:connector-curvature="0" />
    <path
       style="opacity:1;fill:#000000;fill-opacity:1;stroke:none;stroke-width:0.52916664;stroke-linecap:round;stroke-miterlimit:4;stroke-dasharray:none;stroke-opacity:1"
       id="path4557"
       d="m 58.122374,275.55054 c -0.196871,0.33073 -0.37788,0.67057 -0.564224,1.00728 -0.192376,0.34076 -0.381325,0.68344 -0.571121,1.02564 -0.242131,0.44864 -0.49226,0.89269 -0.748599,1.33334 -0.290476,0.49607 -0.585973,0.98916 -0.879181,1.48361 -0.28329,0.48012 -0.56115,0.9634 -0.837915,1.4473 -0.2639,0.46289 -0.525491,0.92709 -0.793527,1.38761 -0.234519,0.39728 -0.467194,0.79563 -0.700763,1.19346 -0.08757,0.10853 -0.181028,0.35593 -0.306562,0.42913 -0.0054,-0.0577 0.0088,-0.037 -0.03987,-0.0639 0.0141,-0.005 0.02125,0.0149 0.0071,0.0199 v 0 c -0.138221,0.0225 -0.112546,0.0566 -0.114105,-0.0581 0.0024,-0.19434 0.135012,-0.37334 0.211942,-0.54317 0.227709,-0.4033 0.468702,-0.79887 0.701366,-1.1993 0.266832,-0.46134 0.530135,-0.92469 0.793686,-1.3879 0.2788,-0.48426 0.558475,-0.96805 0.843182,-1.44886 0.292875,-0.49517 0.588367,-0.98877 0.879896,-1.48474 0.255077,-0.44018 0.49975,-0.88617 0.74386,-1.3325 0.190048,-0.34241 0.383101,-0.68314 0.57408,-1.02503 0.163192,-0.29093 0.321971,-0.58432 0.485947,-0.87482 0.0643,-0.22256 0.379055,-0.13163 0.314756,0.0909 z"
       inkscape:connector-curvature="0" />
    <path
       style="opacity:1;fill:#000000;fill-opacity:1;stroke:none;stroke-width:0.52916664;stroke-linecap:round;stroke-miterlimit:4;stroke-dasharray:none;stroke-opacity:1"
       id="path4559"
       d="m 52.860024,283.04728 c -0.07404,0.30404 -0.148535,0.60805 -0.215176,0.91381 -0.02995,0.14339 -0.05736,0.28764 -0.07252,0.43344 0.0013,0.0591 -0.03347,-10e-4 -0.05848,-0.0199 -0.03885,-0.0123 0.01384,-0.0143 0.02829,-0.0179 0.09139,-0.0293 0.179916,-0.0665 0.267906,-0.10464 0.157496,-0.0738 0.318397,-0.13886 0.482103,-0.19748 0.12551,-0.0435 0.257995,-0.0523 0.386699,-0.0817 0.01373,-0.006 0.02217,0.0134 0.0085,0.0194 v 0 c -0.09688,0.10725 -0.183904,0.22489 -0.303347,0.30913 -0.15023,0.10474 -0.304231,0.20464 -0.474006,0.27533 -0.106987,0.0464 -0.215289,0.093 -0.32938,0.11886 -0.07683,0.0124 -0.153308,0.0147 -0.225489,-0.0192 -0.08228,-0.0557 -0.12764,-0.12698 -0.126994,-0.22915 0.0057,-0.16176 0.03714,-0.32103 0.06939,-0.47927 0.06835,-0.30929 0.147153,-0.61599 0.224539,-0.9231 0.0016,-0.239 0.339656,-0.23666 0.337997,0.002 z"
       inkscape:connector-curvature="0" />
    <path
       style="opacity:1;fill:#000000;fill-opacity:1;stroke:none;stroke-width:0.52916664;stroke-linecap:round;stroke-miterlimit:4;stroke-dasharray:none;stroke-opacity:1"
       id="path4561"
       d="m 58.886041,279.31938 c -0.331242,0.0373 -0.641133,0.1437 -0.930076,0.30666 -0.192416,0.11679 -0.356309,0.26607 -0.471313,0.45968 -0.02943,0.0684 -0.06104,0.14696 -0.03885,0.24519 0.03285,0.0805 0.109633,0.11712 0.188759,0.13982 0.131233,0.0181 0.251899,-0.0414 0.362572,-0.10485 0.130087,-0.0817 0.233156,-0.19487 0.324871,-0.31639 0.07656,-0.10836 0.138343,-0.22657 0.187568,-0.3496 -0.0057,0.0298 0.01812,-0.0833 0.0093,-0.11168 -0.02162,0.0912 0.182383,0.11839 0.184031,0.12816 0.0066,-0.0133 0.005,-0.0384 0.01976,-0.0398 0.0044,-5.3e-4 -0.01159,0.0213 -0.03386,0.0901 -0.02305,0.0712 -0.03968,0.14435 -0.05692,0.21705 -0.04922,0.22532 -0.09465,0.45145 -0.142957,0.67698 -0.06265,0.27986 -0.145544,0.55434 -0.236053,0.82626 -0.08756,0.26414 -0.200538,0.51896 -0.343429,0.75767 -0.10496,0.16609 -0.261837,0.26889 -0.441992,0.33717 -0.181152,0.0711 -0.369072,0.0669 -0.556453,0.029 -0.179414,-0.0419 -0.336595,-0.13009 -0.461904,-0.26417 -0.119333,-0.15627 -0.119142,-0.36928 0.0568,-0.48298 0.025,-0.009 0.05,-0.019 0.075,-0.0285 0.01167,-0.009 0.02492,0.007 0.01326,0.0165 v 0 c -0.0055,0.0263 -0.01109,0.0527 -0.01662,0.0791 7.94e-4,0.0217 -0.0074,0.0456 0.0021,0.0651 0.0038,0.008 0.01566,-0.0107 0.02447,-0.0101 0.02495,0.002 0.05444,0.0582 0.08144,0.0553 0.101336,0.0618 0.204917,0.12112 0.321281,0.14997 0.121896,0.0266 0.244234,0.0379 0.366067,0.002 0.119092,-0.0395 0.222869,-0.0891 0.29995,-0.19338 0.123285,-0.16253 0.212056,-0.34406 0.279125,-0.53674 0.09017,-0.26281 0.17285,-0.52852 0.233931,-0.79978 0.05051,-0.22567 0.09488,-0.45254 0.140854,-0.67916 0.03521,-0.16058 0.06692,-0.32372 0.143849,-0.47072 0.09312,-0.13465 0.324424,-0.19127 0.33805,0.0378 -0.02267,0.10402 -0.05967,0.20433 -0.102481,0.30165 -0.06426,0.13429 -0.134689,0.26608 -0.226783,0.38374 -0.112709,0.13873 -0.23944,0.26602 -0.394716,0.35729 -0.160536,0.0878 -0.33197,0.15657 -0.518615,0.12668 -0.16297,-0.0373 -0.30879,-0.10816 -0.383974,-0.26666 -0.07088,-0.20987 -0.03496,-0.40128 0.08705,-0.58972 0.151227,-0.22026 0.34771,-0.39658 0.582377,-0.52627 0.321767,-0.16536 0.664882,-0.27621 1.02625,-0.31401 0.208811,-0.006 0.217074,0.28946 0.0083,0.2953 z"
       inkscape:connector-curvature="0" />
    <path
       style="opacity:1;fill:#000000;fill-opacity:1;stroke:none;stroke-width:0.52916664;stroke-linecap:round;stroke-miterlimit:4;stroke-dasharray:none;stroke-opacity:1"
       id="path4563"
       d="m 37.877395,273.44054 c 0.177215,0.35047 0.357555,0.6994 0.539882,1.04725 0.179033,0.34901 0.370311,0.69152 0.557633,1.03611 0.233812,0.42309 0.47502,0.84209 0.715645,1.26134 0.27718,0.48568 0.555032,0.97097 0.831734,1.45692 0.293536,0.50936 0.577286,1.02414 0.855866,1.54179 0.291224,0.54191 0.563613,1.09351 0.827153,1.64931 0.25967,0.55685 0.514639,1.11586 0.77397,1.67287 0.228886,0.4927 0.456491,0.986 0.682075,1.48021 0.201726,0.44869 0.392639,0.90255 0.56289,1.36414 0.09875,0.24635 0.165039,0.50283 0.236718,0.75771 0.0092,0.0118 -0.0076,0.0248 -0.01672,0.013 v 0 c -0.140126,-0.20619 -0.287975,-0.40716 -0.406813,-0.62711 -0.237439,-0.42296 -0.446558,-0.86081 -0.653018,-1.29956 -0.23096,-0.49225 -0.458536,-0.98608 -0.690716,-1.47775 -0.261461,-0.55529 -0.523166,-1.11048 -0.783897,-1.66612 -0.264009,-0.55156 -0.533259,-1.10072 -0.824013,-1.63881 -0.276796,-0.51732 -0.560165,-1.03105 -0.854675,-1.53853 -0.276411,-0.48742 -0.554459,-0.97389 -0.833073,-1.46005 -0.241559,-0.42322 -0.485507,-0.84518 -0.714576,-1.27537 -0.184459,-0.35077 -0.354925,-0.7083 -0.532098,-1.06276 -0.176654,-0.35176 -0.355137,-0.70262 -0.535144,-1.05268 -0.128614,-0.18469 0.13257,-0.36657 0.261184,-0.18189 z"
       inkscape:connector-curvature="0" />
    <path
       style="opacity:1;fill:#000000;fill-opacity:1;stroke:none;stroke-width:0.52916664;stroke-linecap:round;stroke-miterlimit:4;stroke-dasharray:none;stroke-opacity:1"
       id="path4565"
       d="m 43.412253,285.67321 c 0.269848,0.24277 0.540282,0.48497 0.81928,0.71722 0.144835,0.11897 0.293922,0.2349 0.462933,0.31752 0.09226,0.0361 0.06678,0.006 -0.0052,0.0372 -0.0067,0.004 -0.01249,0.0114 -0.02008,0.0109 -3.2e-5,0 0.006,-0.21875 0.0057,-0.23466 0.0035,-0.1638 -0.03106,-0.38493 -0.05786,-0.56798 -0.0404,-0.27809 -0.08578,-0.55596 -0.107566,-0.83625 -0.01132,-0.12101 0.01315,-0.23341 0.0021,-0.35401 -0.0068,-0.0133 0.01204,-0.023 0.01884,-0.01 v 0 c 0.04061,0.1019 0.109249,0.17374 0.15118,0.27571 0.103566,0.24959 0.182145,0.5094 0.251947,0.77028 0.06289,0.26383 0.113932,0.53027 0.112996,0.80287 -0.0058,0.1499 -0.0044,0.30872 -0.106839,0.42891 -0.114882,0.0844 -0.228492,0.0923 -0.360336,0.038 -0.200962,-0.0854 -0.37674,-0.21457 -0.544251,-0.35347 -0.28186,-0.23462 -0.55286,-0.48172 -0.829347,-0.72258 -0.226322,-0.14605 -0.01976,-0.46612 0.206552,-0.32007 z"
       inkscape:connector-curvature="0" />
    <path
       style="opacity:1;fill:#000000;fill-opacity:1;stroke:none;stroke-width:0.52916664;stroke-linecap:round;stroke-miterlimit:4;stroke-dasharray:none;stroke-opacity:1"
       id="path4567"
       d="m 27.761112,279.5828 c -0.257297,0.15855 -0.500515,0.33837 -0.710155,0.5565 -0.07975,0.0962 -0.161915,0.20449 -0.16641,0.33409 0.01008,-0.1275 -0.0013,-0.0152 0.03535,0.0247 0.062,0.0391 0.13081,0.0356 0.198115,0.0149 0.109325,-0.038 0.189121,-0.11981 0.263035,-0.20525 0.09025,-0.10437 0.162179,-0.22185 0.221051,-0.3462 0.02814,-0.008 0.07805,-0.30636 0.04811,-0.18025 -0.0044,-0.0489 -0.01328,0.013 0.0061,0.016 0.07611,0.0118 0.153763,0.01 0.230645,0.0144 -0.0091,0.0707 -0.0249,0.14029 -0.0377,0.21036 -0.02185,0.11532 -0.03163,0.23221 -0.04226,0.34882 -0.01738,0.20286 -0.02336,0.4065 -0.03156,0.60989 -0.007,0.22064 -0.02011,0.44082 -0.03853,0.66077 -0.01169,0.14841 -0.05206,0.28773 -0.127781,0.4155 -0.07467,0.11759 -0.185507,0.19108 -0.313259,0.23957 -0.140642,0.0477 -0.285927,0.0382 -0.429522,0.0129 -0.164801,-0.0328 -0.302982,-0.11898 -0.429762,-0.22538 -0.15248,-0.13718 -0.220718,-0.31441 -0.246481,-0.51306 -0.01035,-0.23923 0.07258,-0.41258 0.257749,-0.55438 0.1162,-0.0459 0.06059,-0.0194 0.167064,-0.0792 0.01283,-0.008 0.02373,0.0104 0.01087,0.0181 v 0 c -0.08304,0.0866 -0.05027,0.0369 -0.0973,0.14969 -0.05122,0.12074 -0.08201,0.23604 -0.0391,0.3442 0.03037,0.12005 0.07794,0.23553 0.166015,0.3254 0.0805,0.0745 0.17144,0.13609 0.27812,0.16649 0.08728,0.021 0.176974,0.0326 0.265543,0.0109 0.06501,-0.0204 0.121579,-0.0478 0.158856,-0.10795 0.0518,-0.0958 0.06823,-0.20317 0.07725,-0.31084 0.01392,-0.15717 0.02069,-0.32738 0.02787,-0.48997 0.0084,-0.2073 0.01484,-0.41471 0.02855,-0.62176 0.01476,-0.17797 0.03311,-0.35598 0.06773,-0.53135 0.01662,-0.0857 0.02869,-0.17354 0.06195,-0.25474 0.25536,-0.0505 0.29623,-0.10848 0.286287,0.10858 -0.01992,0.12672 -0.05218,0.24926 -0.110165,0.36471 -0.06862,0.14012 -0.144293,0.27701 -0.23619,0.40344 -0.103746,0.13051 -0.218874,0.24912 -0.380625,0.30496 -0.1475,0.0369 -0.28916,0.0347 -0.426082,-0.0394 -0.176509,-0.10721 -0.241438,-0.24876 -0.206912,-0.45715 0.04795,-0.18431 0.147484,-0.34281 0.281371,-0.47835 0.234119,-0.22738 0.500367,-0.41607 0.777295,-0.58807 0.232104,-0.10954 0.387017,0.2187 0.154911,0.32824 z"
       inkscape:connector-curvature="0" />
    <path
       style="opacity:1;fill:#000000;fill-opacity:1;stroke:none;stroke-width:0.52916664;stroke-linecap:round;stroke-miterlimit:4;stroke-dasharray:none;stroke-opacity:1"
       id="path4569"
       d="m 29.627972,279.54888 c -0.147402,0.19624 -0.302342,0.39719 -0.378053,0.63366 -0.0044,0.034 -0.01352,0.0979 0.0026,2.7e-4 0.0016,-0.0102 -0.0027,0.0244 0.0057,0.0306 0.06315,0.0324 0.125124,0.0147 0.187333,-0.01 0.08665,-0.0381 0.146275,-0.10776 0.197109,-0.18506 0.01365,-0.0193 0.06404,-0.16162 0.04034,-0.16821 -0.03857,-0.0107 0.0061,0.0933 -0.0249,0.007 -0.03229,-0.0783 -0.0958,-0.13568 -0.160803,-0.18702 -0.06402,-0.0454 -0.136062,-0.0778 -0.212415,-0.0954 -0.0917,-0.0221 -0.03561,-0.029 -0.02868,-0.0562 0.0089,-0.0349 0.0055,-0.0718 0.0082,-0.10771 0.01011,0.011 -0.0055,0.0253 -0.01558,0.0143 v 0 c -0.01513,-0.0613 -0.04441,-0.1207 -0.04539,-0.1838 -5.29e-4,-0.0342 0.143653,-0.0489 0.170979,-0.0365 0.123534,0.0342 0.241234,0.0838 0.338323,0.17011 0.109598,0.10362 0.205451,0.21997 0.234783,0.37227 0.01281,0.16809 -0.02357,0.31857 -0.123018,0.45499 -0.08198,0.10836 -0.180406,0.20218 -0.307409,0.25577 -0.122954,0.0427 -0.250729,0.0567 -0.375697,0.0111 -0.196557,-0.0954 -0.235884,-0.25158 -0.165926,-0.46189 0.103971,-0.25672 0.26293,-0.48314 0.430189,-0.70261 0.172238,-0.15719 0.394549,0.0864 0.222311,0.24358 z"
       inkscape:connector-curvature="0" />
    <path
       style="opacity:1;fill:#000000;fill-opacity:1;stroke:none;stroke-width:0.52916664;stroke-linecap:round;stroke-miterlimit:4;stroke-dasharray:none;stroke-opacity:1"
       id="path4571"
       d="m 31.315231,278.80114 c 0.284919,-0.0677 0.55582,-0.17908 0.786296,-0.36087 0.123751,-0.11012 0.198821,-0.24919 0.228595,-0.41056 0.0016,-0.06 -0.0085,-0.13014 -0.03521,-0.18967 -0.01561,-0.0375 -0.03662,-0.025 -0.004,-0.006 0.0462,0.007 0.02735,0.0161 0.0069,0.0498 -0.05589,0.0926 -0.09707,0.19306 -0.137215,0.2932 -0.08445,0.21198 -0.1587,0.42782 -0.23232,0.64375 -0.107839,0.32373 -0.224923,0.64426 -0.333206,0.96783 -0.116642,0.34115 -0.215008,0.68805 -0.291306,1.04037 -0.04535,0.211 -0.07184,0.42516 -0.08664,0.64025 -0.0088,0.0671 -7.94e-4,0.15273 -0.04493,0.21012 -0.0064,0.001 -0.01283,0.002 -0.01926,0.003 0.09543,0.0668 0.0011,0.20177 -0.09447,0.13497 v 0 c -0.01273,-0.004 -0.02548,-0.009 -0.0382,-0.013 -0.08468,-0.0634 -0.123793,-0.14787 -0.130403,-0.25443 -0.02183,-0.29616 0.02347,-0.59121 0.08684,-0.88017 0.08494,-0.36194 0.187465,-0.71946 0.315296,-1.06879 0.117282,-0.3204 0.233582,-0.64116 0.345755,-0.96339 0.07847,-0.22209 0.15816,-0.44427 0.261448,-0.65635 0.05754,-0.11514 0.113831,-0.23266 0.194193,-0.33407 0.06753,-0.0735 0.141729,-0.13239 0.247774,-0.12279 0.09679,0.0249 0.159851,0.0868 0.194916,0.1809 0.04477,0.14442 0.03452,0.28965 -0.0042,0.43537 -0.06539,0.18844 -0.162039,0.35888 -0.316384,0.4899 -0.252327,0.20068 -0.542305,0.33329 -0.854479,0.4146 -0.172927,0.0324 -0.218763,-0.21214 -0.04584,-0.24455 z"
       inkscape:connector-curvature="0" />
    <path
       style="opacity:1;fill:#000000;fill-opacity:1;stroke:none;stroke-width:0.52916664;stroke-linecap:round;stroke-miterlimit:4;stroke-dasharray:none;stroke-opacity:1"
       id="path4573"
       d="m 30.902298,279.94242 c 0.260633,-0.10393 0.528783,-0.12614 0.805463,-0.12569 0.01426,-0.005 0.02069,0.0156 0.0064,0.0202 v 0 c -0.20928,0.1972 -0.431165,0.36586 -0.703974,0.46802 -0.256325,0.0763 -0.364241,-0.28619 -0.107915,-0.3625 z"
       inkscape:connector-curvature="0" />
    <path
       inkscape:connector-curvature="0"
       d="m 98.358402,268.28138 c -0.1466,0.35692 -0.24338,0.73025 -0.32382,1.10667 -0.0699,0.35309 -0.12143,0.70946 -0.17527,1.06524 -0.0276,0.17374 -0.0544,0.3477 -0.0928,0.51944 0.0225,0.16297 -0.336429,0.19717 -0.301631,0.005 0.03536,-0.17493 0.06578,-0.35078 0.09429,-0.52695 0.0479,-0.30754 0.0852,-0.61654 0.1322,-0.92421 0.0541,-0.35412 0.1263,-0.70513 0.20914,-1.05355 0.0612,-0.2584 0.13133,-0.5146 0.2145,-0.76679 0.053,-0.14176 0.0976,-0.28901 0.16975,-0.42274 0.1315,-0.18863 0.28054,-0.009 0.34583,0.11264 0.0797,0.16192 0.13283,0.33555 0.18732,0.50716 0.0835,0.26179 0.14886,0.52885 0.21397,0.79567 0.068,0.2848 0.13211,0.5705 0.19946,0.85545 0.0522,0.20876 0.0981,0.41886 0.14079,0.62972 0.0196,0.1012 0.0341,0.20265 0.0595,0.30254 0.0216,0.081 0.009,0.16272 -0.0152,0.24139 5.3e-4,0.013 10e-4,0.026 0.002,0.039 0.003,0.0146 -0.0171,0.0194 -0.0206,0.005 v 0 c -5.3e-4,-0.0128 -10e-4,-0.0256 -0.002,-0.0384 -0.0326,-0.0549 -0.0645,-0.10997 -0.1026,-0.16136 -0.0607,-0.0865 -0.12913,-0.16839 -0.17038,-0.26692 -0.086,-0.20125 -0.15052,-0.41016 -0.20158,-0.62297 -0.0696,-0.2842 -0.13238,-0.57 -0.19967,-0.85475 -0.0632,-0.26155 -0.12661,-0.52324 -0.20483,-0.78081 -0.0504,-0.16086 -0.0993,-0.3223 -0.16092,-0.47935 -0.0592,-0.14614 -0.0339,-0.0728 0.15351,-0.0894 -0.034,0.0724 0.012,-0.0241 0.002,-0.01 -0.0548,0.0754 -0.0663,0.18101 -0.10991,0.26183 -0.0837,0.24454 -0.15642,0.49249 -0.21769,0.74364 -0.0816,0.34174 -0.15708,0.68504 -0.21031,1.0325 -0.0467,0.30771 -0.0867,0.6163 -0.13048,0.92442 -0.028,0.17737 -0.0574,0.35449 -0.0901,0.53104 -0.0339,0.19271 -0.387335,0.22088 -0.305322,0.0273 0.02543,-0.17075 0.05614,-0.34067 0.08042,-0.5116 0.0559,-0.36109 0.10342,-0.72363 0.1727,-1.08253 0.0937,-0.4489 0.20767,-0.8943 0.38792,-1.31744 0.14431,-0.19083 0.4142,0.0132 0.26989,0.20409 z"
       id="path4577"
       style="opacity:1;fill:#000000;fill-opacity:1;stroke:none;stroke-width:0.52916664;stroke-linecap:round;stroke-miterlimit:4;stroke-dasharray:none;stroke-opacity:1" />
    <path
       inkscape:connector-curvature="0"
       d="m 98.045102,269.81711 c 0.30225,0.009 0.60392,-0.009 0.90537,-0.028 0.0954,-0.005 0.1927,-0.004 0.27537,0.0518 0.0284,0.0191 0.0445,0.0571 0.077,0.068 0.0198,0.007 0.039,-0.0149 0.0585,-0.0224 0.0145,-0.004 0.0198,0.0168 0.005,0.0205 v 0 c -0.1228,0.0464 -0.003,-0.0129 -0.1242,0.12754 -0.0741,0.0861 -0.1848,0.10978 -0.29118,0.12364 -0.3093,0.0254 -0.61959,0.0312 -0.92986,0.0308 -0.2629,-0.0168 -0.23918,-0.38857 0.0237,-0.3718 z"
       id="path4579"
       style="opacity:1;fill:#000000;fill-opacity:1;stroke:none;stroke-width:0.52916664;stroke-linecap:round;stroke-miterlimit:4;stroke-dasharray:none;stroke-opacity:1" />
    <path
       inkscape:connector-curvature="0"
       d="m 122.3359,268.2141 c 0.0395,0.40635 0.0712,0.81326 0.0949,1.22083 0.0159,0.33569 0.0307,0.67144 0.045,1.0072 0.0119,0.14847 0.003,0.29844 0.0168,0.44674 -0.0448,-0.0293 0.0104,0.0215 0.003,0.0225 -0.42583,0.0594 -0.33352,0.11954 -0.36943,-0.17554 -0.0327,-0.26085 -0.0552,-0.52279 -0.0801,-0.78445 -0.0279,-0.33907 -0.0594,-0.67785 -0.0856,-1.01706 -0.0174,-0.24162 -0.0338,-0.48404 -0.0127,-0.72584 0.0179,-0.19471 0.11427,-0.34275 0.2706,-0.45189 0.14937,-0.0882 0.31617,-0.13643 0.48333,-0.17769 0.18038,-0.0438 0.36224,-0.0449 0.5437,-0.0111 0.15313,0.0354 0.28331,0.11248 0.3903,0.22597 0.12864,0.15656 0.0801,0.30798 0.006,0.47666 -0.1019,0.15995 -0.22554,0.30436 -0.34551,0.45076 -0.0992,0.11989 -0.20057,0.23799 -0.29767,0.3596 -0.0242,0.0382 -0.0646,0.0719 -0.0971,0.0938 -0.001,-0.0528 -0.0131,-0.10649 -0.004,-0.15845 0.002,-0.0105 0.0212,0.003 0.0319,0.004 0.0591,0.004 0.11883,-3.9e-4 0.17809,0.003 0.15323,0.0103 0.29746,0.0539 0.43421,0.1218 0.18913,0.0961 0.34754,0.23715 0.48998,0.39216 0.15509,0.17884 0.25863,0.3908 0.34097,0.61075 0.0716,0.19238 0.10095,0.38755 0.0639,0.5896 -0.0758,0.25588 -0.25159,0.40553 -0.47956,0.52497 -0.23781,0.10918 -0.49552,0.13184 -0.75354,0.12947 -0.26156,-0.007 -0.50989,-0.0745 -0.7328,-0.21028 -0.12639,-0.10375 -0.16407,-0.21838 -0.14179,-0.37518 -0.007,-0.013 0.0109,-0.0235 0.0183,-0.0106 v 0 c 0.09,0.0306 0.18283,0.0475 0.27387,0.0749 0.1951,0.0746 0.39566,0.13337 0.60649,0.13634 0.20572,7.2e-4 0.41478,-0.007 0.60583,-0.0925 0.0701,-0.035 0.13565,-0.07 0.19325,-0.12419 0.0302,-0.0284 0.0431,-0.0742 0.0775,-0.0974 0.008,-0.005 -7.9e-4,0.0185 -0.001,0.0278 0.0694,-0.1421 0.0564,-0.28878 0.008,-0.43747 -0.0655,-0.19564 -0.14997,-0.38381 -0.27968,-0.54633 -0.11597,-0.14409 -0.24541,-0.27531 -0.40254,-0.37508 -0.10748,-0.0632 -0.21578,-0.12205 -0.344,-0.12295 -0.0363,-10e-4 -0.24157,0.002 -0.25752,-0.0184 -0.0435,-0.0563 -0.0662,-0.12608 -0.0992,-0.18912 0.0288,-0.0589 0.0411,-0.12475 0.0913,-0.17226 0.099,-0.1206 0.20063,-0.23907 0.29956,-0.35976 0.10831,-0.13171 0.22151,-0.26246 0.3051,-0.41173 -0.0126,0.0563 0.0487,-0.0564 0.013,-0.0981 -0.0625,-0.0839 -0.15423,-0.12886 -0.25549,-0.15087 -0.14762,-0.0262 -0.29416,-0.0196 -0.43846,0.0243 -0.13362,0.0393 -0.26787,0.087 -0.37682,0.17672 -0.11254,0.10808 -0.042,0.0365 -0.0864,0.13891 -0.0281,0.2238 -0.008,0.44982 0.005,0.67408 0.0255,0.3368 0.0578,0.67298 0.091,1.0091 0.0233,0.25884 0.0499,0.51747 0.0826,0.77532 0.0357,0.29715 0.10784,0.20527 -0.30403,0.3644 -0.0109,0.004 0.0142,-0.0495 -5.3e-4,-0.0349 5.3e-4,-0.14928 -0.0161,-0.29857 -0.0151,-0.44794 -0.0122,-0.33511 -0.0258,-0.67017 -0.0408,-1.00517 -0.0219,-0.40385 -0.0496,-0.80739 -0.0961,-1.20928 -0.0634,-0.23599 0.27036,-0.32563 0.33374,-0.0896 z"
       id="path4581"
       style="opacity:1;fill:#000000;fill-opacity:1;stroke:none;stroke-width:0.52916664;stroke-linecap:round;stroke-miterlimit:4;stroke-dasharray:none;stroke-opacity:1" />
    <path
       inkscape:connector-curvature="0"
       d="m 111.32557,291.80821 c -0.15057,-0.21888 -0.31278,-0.43292 -0.52953,-0.58973 -0.10287,-0.0675 -0.20818,-0.0841 -0.32575,-0.0566 -0.12024,0.0404 -0.21215,0.12873 -0.29938,0.21701 -0.12032,0.12278 -0.20486,0.27148 -0.27758,0.42569 -0.0828,0.16693 -0.11231,0.34703 -0.13547,0.52901 -0.0301,0.29255 0.002,0.58525 0.0425,0.8749 0.0427,0.28503 0.10984,0.56506 0.20946,0.83545 0.0622,0.15431 0.13918,0.30317 0.27595,0.40251 0.11449,0.0663 0.23777,0.0215 0.352,-0.0221 0.22313,-0.10122 0.42029,-0.25025 0.62287,-0.38636 0.15613,-0.11307 0.33376,-0.18483 0.50934,-0.26064 0.012,-0.009 0.0247,0.008 0.0127,0.0169 v 0 c -0.0921,0.19267 -0.18757,0.38079 -0.34796,0.5275 -0.20698,0.19213 -0.432,0.36396 -0.69805,0.46665 -0.21847,0.0705 -0.4322,0.0999 -0.64068,-0.0205 -0.19023,-0.13309 -0.32148,-0.31559 -0.41022,-0.53023 -0.11562,-0.28932 -0.1957,-0.59036 -0.24392,-0.8984 -0.0495,-0.31522 -0.0869,-0.63378 -0.064,-0.95341 0.025,-0.28453 0.0843,-0.56494 0.2142,-0.82128 0.0964,-0.18463 0.20856,-0.36001 0.36175,-0.50346 0.1394,-0.12568 0.28878,-0.2397 0.47692,-0.27875 0.20551,-0.0284 0.394,0.009 0.56375,0.13443 0.23435,0.18739 0.41632,0.42379 0.58184,0.67286 0.15453,0.17732 -0.0962,0.39586 -0.25076,0.21854 z"
       id="path4583"
       style="opacity:1;fill:#000000;fill-opacity:1;stroke:none;stroke-width:0.52916664;stroke-linecap:round;stroke-miterlimit:4;stroke-dasharray:none;stroke-opacity:1" />
    <path
       inkscape:connector-curvature="0"
       d="m 97.718642,266.16012 c -5.3e-4,-0.30691 -0.0312,-0.6119 -0.0888,-0.91306 -0.049,-0.2392 -0.12775,-0.47075 -0.213094,-0.69905 -0.07036,-0.18853 -0.164997,-0.36451 -0.287523,-0.52383 -0.110331,-0.14266 -0.252973,-0.24848 -0.404876,-0.3424 -0.160348,-0.0939 -0.336992,-0.15325 -0.514596,-0.20471 -0.195911,-0.0631 -0.392663,-0.0742 -0.595887,-0.0552 -0.250097,0.026 -0.490913,0.0958 -0.725051,0.18467 -0.250544,0.0975 -0.476554,0.24202 -0.692867,0.39942 -0.223191,0.16209 -0.406603,0.36661 -0.573143,0.58456 -0.14592,0.20335 -0.260707,0.42771 -0.348898,0.66164 -0.108892,0.277 -0.179586,0.56642 -0.236214,0.85797 -0.0568,0.31214 -0.09399,0.62747 -0.120968,0.94346 -0.02883,0.27971 -0.02809,0.56006 0.02297,0.8367 0.05015,0.2446 0.176789,0.45539 0.323942,0.65282 0.171054,0.21723 0.384138,0.39272 0.612712,0.54569 0.226473,0.15849 0.477353,0.2438 0.746196,0.29289 0.302393,0.0556 0.604094,0.0313 0.903079,-0.0281 0.354534,-0.0852 0.679167,-0.25438 1.004467,-0.41365 0.206639,-0.11031 0.434128,-0.16488 0.647472,-0.25828 0.01318,-0.007 0.02323,0.0115 0.01005,0.0186 v 0 c -0.168571,0.18677 -0.322934,0.38852 -0.542091,0.5209 -0.334981,0.20751 -0.689901,0.38274 -1.077563,0.46741 -0.336066,0.0634 -0.677252,0.087 -1.01508,0.0169 -0.296148,-0.0716 -0.580726,-0.18292 -0.8359,-0.35195 -0.249278,-0.17228 -0.490093,-0.35864 -0.677768,-0.59957 -0.173299,-0.22735 -0.321852,-0.47098 -0.387019,-0.75303 -0.06077,-0.30047 -0.07158,-0.60366 -0.04086,-0.90909 0.02806,-0.32546 0.06301,-0.65056 0.120639,-0.97231 0.05967,-0.30774 0.12867,-0.61437 0.241832,-0.90762 0.122227,-0.29932 0.25291,-0.59674 0.454777,-0.85272 0.18583,-0.23329 0.391731,-0.4499 0.635976,-0.6234 0.236741,-0.16643 0.484034,-0.31825 0.756296,-0.42021 0.256809,-0.093 0.520231,-0.16684 0.793083,-0.19373 0.232108,-0.0166 0.466198,-0.015 0.691719,0.0504 0.201522,0.0581 0.400192,0.12802 0.580469,0.23731 0.178533,0.11058 0.346046,0.23908 0.475763,0.4063 0.135316,0.18062 0.252116,0.37284 0.328866,0.58633 0.0921,0.24083 0.174,0.48599 0.22988,0.73804 0.0627,0.31517 0.0968,0.63481 0.10197,0.95633 0.0449,0.21495 -0.25906,0.27849 -0.30399,0.0635 z"
       id="path4585"
       style="opacity:1;fill:#000000;fill-opacity:1;stroke:none;stroke-width:0.52916664;stroke-linecap:round;stroke-miterlimit:4;stroke-dasharray:none;stroke-opacity:1" />
    <path
       inkscape:connector-curvature="0"
       d="m 96.832043,268.28259 c 0.22906,-0.0959 0.452318,-0.20551 0.667749,-0.329 0.21229,-0.12871 0.0544,-0.22083 0.29807,0.22859 -0.0448,0.0815 -0.0667,0.17178 -0.0883,0.26142 0.002,-0.008 0.009,-0.0337 0.007,-0.0251 -0.0268,0.13526 -0.0567,0.26979 -0.0822,0.4054 -0.0331,0.17652 -0.0616,0.35383 -0.0945,0.53038 -0.0115,0.13608 -0.07522,0.24331 -0.137761,0.3597 -0.01339,0.001 -0.02676,0.002 -0.04014,0.003 -0.05362,0.0998 -0.194715,0.0239 -0.1411,-0.0758 v 0 c -0.0099,-0.0126 -0.01992,-0.0253 -0.02988,-0.0379 -0.01132,0.0108 -0.01831,0.0329 -0.03397,0.0325 -0.03258,-9.8e-4 0.01521,-0.24632 0.02302,-0.26132 0.03494,-0.17652 0.06493,-0.35388 0.0952,-0.53126 0.0364,-0.19244 0.06867,-0.38596 0.119165,-0.57537 0.03096,-0.10915 0.06869,-0.21596 0.124956,-0.31501 0.30866,0.32291 0.28642,0.17911 0.0882,0.278 -0.228556,0.1138 -0.45669,0.22856 -0.691037,0.33019 -0.19685,0.0598 -0.281453,-0.21856 -0.0846,-0.27838 z"
       id="path4587"
       style="opacity:1;fill:#000000;fill-opacity:1;stroke:none;stroke-width:0.52916664;stroke-linecap:round;stroke-miterlimit:4;stroke-dasharray:none;stroke-opacity:1" />
    <path
       inkscape:connector-curvature="0"
       d="m 88.260048,260.97582 c 0.157464,-0.22786 0.306417,-0.46319 0.416447,-0.71793 0.0098,-0.0492 0.03428,-0.11441 0.02814,-0.17295 0.01233,0.093 0.133993,0.0864 0.198665,0.11664 0.0098,0.005 -0.0048,0.041 0.0019,0.0325 0.0093,-0.0119 0.0123,-0.0275 0.01847,-0.0413 -0.04321,0.12709 -0.07463,0.25796 -0.10708,0.38813 -0.05275,0.20849 -0.08662,0.42091 -0.121444,0.63292 -0.0416,0.26111 -0.08372,0.52215 -0.127508,0.7829 -0.03289,0.20215 -0.06453,0.40448 -0.112043,0.6038 -0.02064,0.0796 -0.04991,0.15508 -0.09364,0.22452 -0.01368,0.0157 -0.02953,0.0289 -0.04678,0.0404 0.0085,0.0123 -0.0089,0.0243 -0.01741,0.012 v 0 c -0.02019,-0.004 -0.04078,-0.004 -0.05905,-0.015 -0.0631,-0.0637 -0.07176,-0.15221 -0.07291,-0.23855 0.01072,-0.20408 0.04461,-0.4055 0.07975,-0.60662 0.04248,-0.26095 0.08534,-0.52183 0.126731,-0.78295 0.03418,-0.22009 0.06789,-0.44062 0.119525,-0.65744 0.03427,-0.13902 0.06706,-0.27847 0.105542,-0.4164 0.0154,-0.0401 0.09094,-0.28557 0.183224,-0.27329 0.233839,0.0311 0.218125,0.009 0.243457,0.11653 0.0099,0.15932 -0.03219,0.30758 -0.101209,0.45162 -0.129169,0.26152 -0.284644,0.50844 -0.445524,0.75147 -0.163396,0.15359 -0.380603,-0.0775 -0.217209,-0.23107 z"
       id="path4589"
       style="opacity:1;fill:#000000;fill-opacity:1;stroke:none;stroke-width:0.52916664;stroke-linecap:round;stroke-miterlimit:4;stroke-dasharray:none;stroke-opacity:1" />
    <path
       inkscape:connector-curvature="0"
       d="m 88.107921,262.51297 c 0.277373,-0.0279 0.553376,-0.0717 0.832726,-0.0641 0.09993,-0.002 0.192338,0.0325 0.288356,0.0521 0.0146,-0.003 0.01918,0.0174 0.0046,0.0207 v 0 c -0.07964,0.0779 -0.156178,0.15403 -0.263641,0.19384 -0.269479,0.10784 -0.555858,0.14647 -0.842624,0.18195 -0.271812,0.0137 -0.291201,-0.37069 -0.01939,-0.3844 z"
       id="path4591"
       style="opacity:1;fill:#000000;fill-opacity:1;stroke:none;stroke-width:0.52916664;stroke-linecap:round;stroke-miterlimit:4;stroke-dasharray:none;stroke-opacity:1" />
    <path
       inkscape:connector-curvature="0"
       d="m 89.708499,261.73147 c -0.04932,0.30781 -0.08925,0.61701 -0.135067,0.92535 -0.02596,0.16806 -0.05184,0.3361 -0.07221,0.50493 -0.008,0.0623 -0.01095,0.12515 -0.01998,0.18732 -0.25591,0.16778 -0.199112,-0.10713 -0.196231,-0.12029 0.0213,-0.1193 0.0404,-0.23897 0.06109,-0.3584 0.02832,-0.15814 0.06435,-0.31476 0.09953,-0.47148 0.02958,-0.12992 0.05627,-0.26064 0.0915,-0.38919 0.02223,-0.0878 0.04176,-0.1761 0.108284,-0.23999 0.245224,0.0297 0.236532,0.0481 0.340455,0.23169 0.05712,0.1085 0.112975,0.21767 0.166656,0.32791 0.06205,0.13347 0.111331,0.27219 0.159991,0.41093 0.04397,0.12874 0.0798,0.26002 0.120054,0.38993 0.01762,0.0652 0.04857,0.12816 0.04374,0.19683 -0.0044,0.0293 -0.01336,0.0541 -0.04448,0.0594 0.08128,0.0386 0.02673,0.15353 -0.05456,0.11495 v 0 c -0.03603,-0.005 -0.07289,0.001 -0.106878,-0.0124 -0.07153,-0.0514 -0.09993,-0.13294 -0.125746,-0.21441 -0.04204,-0.12795 -0.07555,-0.25847 -0.118017,-0.3863 -0.04194,-0.13046 -0.08922,-0.25949 -0.143804,-0.3852 -0.04913,-0.10748 -0.103989,-0.21208 -0.156879,-0.31773 -0.01881,-0.0361 -0.0377,-0.0721 -0.05813,-0.10735 -0.0094,-0.0161 -0.04788,-0.0425 -0.02985,-0.0473 0.05125,-0.0135 0.1055,-0.0104 0.15825,-0.0156 0.0354,-0.0353 0.05053,-0.1059 0.009,0.006 -0.04004,0.12333 -0.07541,0.2478 -0.103196,0.37456 -0.03547,0.15286 -0.07178,0.30557 -0.101147,0.45976 -0.02199,0.12112 -0.04207,0.24255 -0.06361,0.36375 -0.0076,0.0402 -0.135273,0.59481 -0.299879,0.18678 -0.01117,-0.0719 -0.0038,-0.14412 0.0037,-0.21612 0.02013,-0.17224 0.04706,-0.34356 0.0759,-0.51453 0.05043,-0.30901 0.102277,-0.61781 0.147545,-0.92764 -0.01138,-0.17249 0.23255,-0.18859 0.243935,-0.0161 z"
       id="path4593"
       style="opacity:1;fill:#000000;fill-opacity:1;stroke:none;stroke-width:0.52916664;stroke-linecap:round;stroke-miterlimit:4;stroke-dasharray:none;stroke-opacity:1" />
    <path
       inkscape:connector-curvature="0"
       d="m 89.490268,262.85744 c 0.214575,0.0135 0.105048,4.5e-4 0.328319,0.0413 0.01474,-0.003 0.01842,0.0182 0.0037,0.0208 v 0 c -0.188315,0.15375 -0.0932,0.0846 -0.283962,0.20949 -0.192108,0.034 -0.240136,-0.23772 -0.04803,-0.27168 z"
       id="path4595"
       style="opacity:1;fill:#000000;fill-opacity:1;stroke:none;stroke-width:0.52916664;stroke-linecap:round;stroke-miterlimit:4;stroke-dasharray:none;stroke-opacity:1" />
    <path
       inkscape:connector-curvature="0"
       d="m 105.99729,268.90235 c 0.41423,-0.0587 0.82876,-0.11452 1.24379,-0.16741 0.42937,-0.0501 0.86145,-0.0709 1.29311,-0.0893 0.51514,-0.0223 1.03055,-0.0376 1.54587,-0.0548 0.57445,-0.0197 1.14926,-0.0219 1.72398,-0.0245 0.61896,6.6e-4 1.23791,0.005 1.85688,0.005 0.66947,0.002 1.33885,-0.008 2.00805,-0.0264 0.66083,-0.0198 1.32145,-0.0453 1.98233,-0.0637 0.38404,-0.002 0.77076,-0.0307 1.15457,-0.002 0.62637,0.047 -0.10772,0.0217 0.49167,0.0361 0.0149,7.9e-4 0.0138,0.0219 -0.001,0.0211 v 0 c -0.62637,0.0597 0.16313,-0.0226 -0.49761,0.0702 -0.3832,0.0538 -0.77286,0.0553 -1.15801,0.0857 -0.66152,0.0348 -1.32326,0.0648 -1.98499,0.0954 -0.67156,0.0285 -1.34331,0.0533 -2.01561,0.053 -0.61889,0.002 -1.23778,-10e-4 -1.85667,-9.2e-4 -0.57251,0.002 -1.14509,0.005 -1.71732,0.0252 -0.51453,0.0167 -1.02902,0.0342 -1.5434,0.055 -0.42738,0.0192 -0.85466,0.0405 -1.28113,0.0751 -0.41422,0.0268 -0.82827,0.0583 -1.24176,0.0943 -0.13248,0.002 -0.1351,-0.18551 -0.003,-0.18735 z"
       id="path4597"
       style="opacity:1;fill:#000000;fill-opacity:1;stroke:none;stroke-width:0.52916664;stroke-linecap:round;stroke-miterlimit:4;stroke-dasharray:none;stroke-opacity:1" />
    <path
       inkscape:connector-curvature="0"
       d="m 111.33727,263.34168 c 0.27025,0.0268 0.54417,0.0324 0.80468,-0.0517 0.14271,-0.0526 0.22448,-0.159 0.29248,-0.28848 0.0468,-0.11068 0.0726,-0.23042 0.0942,-0.34995 0.0161,-0.11787 0.0227,-0.23782 0.01,-0.35629 -0.0217,-0.0556 0.0476,0.0156 0.0792,0.0269 -0.0538,0.0702 -0.099,0.14638 -0.14156,0.22416 -0.085,0.16489 -0.15787,0.33575 -0.22944,0.50677 -0.11293,0.26736 -0.21265,0.54003 -0.30914,0.81367 -0.10373,0.29835 -0.19064,0.60225 -0.27724,0.90592 -0.0666,0.23255 -0.12345,0.46765 -0.18394,0.7018 -0.0267,0.10467 -0.0579,0.20924 -0.13577,0.28704 -0.008,0.007 -0.017,0.0145 -0.0256,0.0217 0.009,0.0122 -0.009,0.0245 -0.0172,0.0123 v 0 c -0.0135,-0.002 -0.0269,-0.003 -0.0404,-0.005 -0.0994,-0.0747 -0.0823,-0.20549 -0.0653,-0.31583 0.0454,-0.24191 0.11098,-0.47948 0.17745,-0.71633 0.0884,-0.3088 0.17801,-0.61735 0.28387,-0.92075 0.0981,-0.27977 0.20041,-0.55822 0.31989,-0.8297 0.0965,-0.21907 0.18924,-0.44032 0.30397,-0.65072 0.0667,-0.11319 0.13746,-0.23098 0.25474,-0.29793 0.13532,-0.0409 0.2492,0.0165 0.27412,0.16113 0.0154,0.13679 0.007,0.27498 -0.002,0.41197 -0.0197,0.19676 -0.0657,0.3891 -0.16294,0.56355 -0.10746,0.17632 -0.24806,0.31264 -0.44874,0.37835 -0.29363,0.0814 -0.59562,0.0811 -0.89775,0.051 -0.2008,-0.0303 -0.15791,-0.3143 0.0429,-0.28398 z"
       id="path4601"
       style="opacity:1;fill:#000000;fill-opacity:1;stroke:none;stroke-width:0.52916664;stroke-linecap:round;stroke-miterlimit:4;stroke-dasharray:none;stroke-opacity:1" />
    <path
       inkscape:connector-curvature="0"
       d="m 110.91813,264.35487 c 0.33954,0.0266 0.68,0.0277 1.02024,0.0203 0.19487,-0.0247 0.3764,0.0345 0.56404,0.0684 0.0148,-0.002 0.0177,0.019 0.003,0.021 v 0 c -0.17839,0.13286 -0.34925,0.24585 -0.5812,0.25619 -0.35173,0.0273 -0.70413,0.0134 -1.05604,-0.006 -0.2543,-0.0355 -0.20414,-0.39509 0.0502,-0.35962 z"
       id="path4603"
       style="opacity:1;fill:#000000;fill-opacity:1;stroke:none;stroke-width:0.52916664;stroke-linecap:round;stroke-miterlimit:4;stroke-dasharray:none;stroke-opacity:1" />
    <path
       inkscape:connector-curvature="0"
       d="m 120.48844,275.55054 c -0.19687,0.33073 -0.37788,0.67057 -0.56422,1.00728 -0.19238,0.34076 -0.38133,0.68344 -0.57112,1.02564 -0.24213,0.44864 -0.49226,0.89269 -0.7486,1.33334 -0.29048,0.49607 -0.58597,0.98916 -0.87918,1.48361 -0.28329,0.48012 -0.56115,0.9634 -0.83792,1.4473 -0.2639,0.46289 -0.52549,0.92709 -0.79352,1.38761 -0.23452,0.39728 -0.4672,0.79563 -0.70077,1.19346 -0.0876,0.10853 -0.18102,0.35593 -0.30656,0.42913 -0.005,-0.0577 0.009,-0.037 -0.0399,-0.0639 0.0141,-0.005 0.0213,0.0149 0.007,0.0199 v 0 c -0.13822,0.0225 -0.11254,0.0566 -0.1141,-0.0581 0.002,-0.19434 0.13501,-0.37334 0.21194,-0.54317 0.22771,-0.4033 0.4687,-0.79887 0.70136,-1.1993 0.26684,-0.46134 0.53014,-0.92469 0.79369,-1.3879 0.2788,-0.48426 0.55848,-0.96805 0.84318,-1.44886 0.29288,-0.49517 0.58837,-0.98877 0.8799,-1.48474 0.25508,-0.44018 0.49975,-0.88617 0.74386,-1.3325 0.19005,-0.34241 0.3831,-0.68314 0.57408,-1.02503 0.16319,-0.29093 0.32197,-0.58432 0.48595,-0.87482 0.0643,-0.22256 0.37905,-0.13163 0.31475,0.0909 z"
       id="path4605"
       style="opacity:1;fill:#000000;fill-opacity:1;stroke:none;stroke-width:0.52916664;stroke-linecap:round;stroke-miterlimit:4;stroke-dasharray:none;stroke-opacity:1" />
    <path
       inkscape:connector-curvature="0"
       d="m 121.25211,279.31938 c -0.33124,0.0373 -0.64113,0.1437 -0.93008,0.30666 -0.19241,0.11679 -0.3563,0.26607 -0.47131,0.45968 -0.0294,0.0684 -0.061,0.14696 -0.0388,0.24519 0.0328,0.0805 0.10963,0.11712 0.18876,0.13982 0.13123,0.0181 0.2519,-0.0414 0.36257,-0.10485 0.13009,-0.0817 0.23316,-0.19487 0.32487,-0.31639 0.0766,-0.10836 0.13835,-0.22657 0.18757,-0.3496 -0.006,0.0298 0.0181,-0.0833 0.009,-0.11168 -0.0216,0.0912 0.18238,0.11839 0.18403,0.12816 0.007,-0.0133 0.005,-0.0384 0.0198,-0.0398 0.004,-5.3e-4 -0.0116,0.0213 -0.0339,0.0901 -0.023,0.0712 -0.0397,0.14435 -0.0569,0.21705 -0.0492,0.22532 -0.0947,0.45145 -0.14295,0.67698 -0.0627,0.27986 -0.14555,0.55434 -0.23606,0.82626 -0.0876,0.26414 -0.20054,0.51896 -0.34343,0.75767 -0.10496,0.16609 -0.26183,0.26889 -0.44199,0.33717 -0.18115,0.0711 -0.36907,0.0669 -0.55645,0.029 -0.17942,-0.0419 -0.3366,-0.13009 -0.46191,-0.26417 -0.11933,-0.15627 -0.11914,-0.36928 0.0568,-0.48298 0.025,-0.009 0.05,-0.019 0.075,-0.0285 0.0117,-0.009 0.0249,0.007 0.0133,0.0165 v 0 c -0.006,0.0263 -0.0111,0.0527 -0.0166,0.0791 8e-4,0.0217 -0.007,0.0456 0.002,0.0651 0.004,0.008 0.0157,-0.0107 0.0245,-0.0101 0.025,0.002 0.0544,0.0582 0.0814,0.0553 0.10134,0.0618 0.20492,0.12112 0.32129,0.14997 0.12189,0.0266 0.24423,0.0379 0.36606,0.002 0.11909,-0.0395 0.22287,-0.0891 0.29995,-0.19338 0.12329,-0.16253 0.21206,-0.34406 0.27913,-0.53674 0.0902,-0.26281 0.17285,-0.52852 0.23393,-0.79978 0.0505,-0.22567 0.0949,-0.45254 0.14085,-0.67916 0.0352,-0.16058 0.0669,-0.32372 0.14385,-0.47072 0.0931,-0.13465 0.32443,-0.19127 0.33805,0.0378 -0.0227,0.10402 -0.0597,0.20433 -0.10248,0.30165 -0.0643,0.13429 -0.13469,0.26608 -0.22678,0.38374 -0.11271,0.13873 -0.23944,0.26602 -0.39472,0.35729 -0.16053,0.0878 -0.33197,0.15657 -0.51861,0.12668 -0.16297,-0.0373 -0.30879,-0.10816 -0.38398,-0.26666 -0.0709,-0.20987 -0.035,-0.40128 0.087,-0.58972 0.15123,-0.22026 0.34771,-0.39658 0.58238,-0.52627 0.32177,-0.16536 0.66488,-0.27621 1.02625,-0.31401 0.20881,-0.006 0.21707,0.28946 0.008,0.2953 z"
       id="path4609"
       style="opacity:1;fill:#000000;fill-opacity:1;stroke:none;stroke-width:0.52916664;stroke-linecap:round;stroke-miterlimit:4;stroke-dasharray:none;stroke-opacity:1" />
    <path
       inkscape:connector-curvature="0"
       d="m 100.24346,273.44054 c 0.17722,0.35047 0.35756,0.6994 0.53989,1.04725 0.17903,0.34901 0.37031,0.69152 0.55763,1.03611 0.23381,0.42309 0.47502,0.84209 0.71564,1.26134 0.27718,0.48568 0.55504,0.97097 0.83174,1.45692 0.29353,0.50936 0.57728,1.02414 0.85586,1.54179 0.29123,0.54191 0.56362,1.09351 0.82716,1.64931 0.25967,0.55685 0.51464,1.11586 0.77397,1.67287 0.22888,0.4927 0.45649,0.986 0.68207,1.48021 0.20173,0.44869 0.39264,0.90255 0.56289,1.36414 0.0987,0.24635 0.16504,0.50283 0.23672,0.75771 0.009,0.0118 -0.008,0.0248 -0.0167,0.013 v 0 c -0.14013,-0.20619 -0.28797,-0.40716 -0.40681,-0.62711 -0.23744,-0.42296 -0.44656,-0.86081 -0.65302,-1.29956 -0.23096,-0.49225 -0.45854,-0.98608 -0.69072,-1.47775 -0.26146,-0.55529 -0.52316,-1.11048 -0.78389,-1.66612 -0.26401,-0.55156 -0.53326,-1.10072 -0.82402,-1.63881 -0.27679,-0.51732 -0.56016,-1.03105 -0.85467,-1.53853 -0.27641,-0.48742 -0.55446,-0.97389 -0.83307,-1.46005 -0.24156,-0.42322 -0.48551,-0.84518 -0.71458,-1.27537 -0.18446,-0.35077 -0.35493,-0.7083 -0.5321,-1.06276 -0.17665,-0.35176 -0.35514,-0.70262 -0.535138,-1.05268 -0.12862,-0.18469 0.132568,-0.36657 0.261178,-0.18189 z"
       id="path4611"
       style="opacity:1;fill:#000000;fill-opacity:1;stroke:none;stroke-width:0.52916664;stroke-linecap:round;stroke-miterlimit:4;stroke-dasharray:none;stroke-opacity:1" />
    <path
       inkscape:connector-curvature="0"
       d="m 90.127184,279.5828 c -0.257297,0.15855 -0.500515,0.33837 -0.710155,0.5565 -0.07975,0.0962 -0.161915,0.20449 -0.16641,0.33409 0.01008,-0.1275 -0.0013,-0.0152 0.03535,0.0247 0.062,0.0391 0.13081,0.0356 0.198115,0.0149 0.109325,-0.038 0.189121,-0.11981 0.263035,-0.20525 0.09025,-0.10437 0.162179,-0.22185 0.221051,-0.3462 0.02814,-0.008 0.07805,-0.30636 0.04811,-0.18025 -0.0044,-0.0489 -0.01328,0.013 0.0061,0.016 0.07611,0.0118 0.153763,0.01 0.230645,0.0144 -0.0091,0.0707 -0.0249,0.14029 -0.0377,0.21036 -0.02185,0.11532 -0.03163,0.23221 -0.04226,0.34882 -0.01738,0.20286 -0.02336,0.4065 -0.03156,0.60989 -0.007,0.22064 -0.02011,0.44082 -0.03853,0.66077 -0.01169,0.14841 -0.05206,0.28773 -0.127781,0.4155 -0.07467,0.11759 -0.185507,0.19108 -0.313259,0.23957 -0.140642,0.0477 -0.285927,0.0382 -0.429522,0.0129 -0.164801,-0.0328 -0.302982,-0.11898 -0.429762,-0.22538 -0.15248,-0.13718 -0.220718,-0.31441 -0.246481,-0.51306 -0.01035,-0.23923 0.07258,-0.41258 0.257749,-0.55438 0.1162,-0.0459 0.06059,-0.0194 0.167064,-0.0792 0.01283,-0.008 0.02373,0.0104 0.01087,0.0181 v 0 c -0.08304,0.0866 -0.05027,0.0369 -0.0973,0.14969 -0.05122,0.12074 -0.08201,0.23604 -0.0391,0.3442 0.03037,0.12005 0.07794,0.23553 0.166015,0.3254 0.0805,0.0745 0.17144,0.13609 0.27812,0.16649 0.08728,0.021 0.176974,0.0326 0.265543,0.0109 0.06501,-0.0204 0.121579,-0.0478 0.158856,-0.10795 0.0518,-0.0958 0.06823,-0.20317 0.07725,-0.31084 0.01392,-0.15717 0.02069,-0.32738 0.02787,-0.48997 0.0084,-0.2073 0.01484,-0.41471 0.02855,-0.62176 0.01476,-0.17797 0.03311,-0.35598 0.06773,-0.53135 0.01662,-0.0857 0.02869,-0.17354 0.06195,-0.25474 0.25536,-0.0505 0.29623,-0.10848 0.286287,0.10858 -0.01992,0.12672 -0.05218,0.24926 -0.110165,0.36471 -0.06862,0.14012 -0.144293,0.27701 -0.23619,0.40344 -0.103746,0.13051 -0.218874,0.24912 -0.380625,0.30496 -0.1475,0.0369 -0.28916,0.0347 -0.426082,-0.0394 -0.176509,-0.10721 -0.241438,-0.24876 -0.206912,-0.45715 0.04795,-0.18431 0.147484,-0.34281 0.281371,-0.47835 0.234119,-0.22738 0.500367,-0.41607 0.777295,-0.58807 0.232104,-0.10954 0.387017,0.2187 0.154911,0.32824 z"
       id="path4615"
       style="opacity:1;fill:#000000;fill-opacity:1;stroke:none;stroke-width:0.52916664;stroke-linecap:round;stroke-miterlimit:4;stroke-dasharray:none;stroke-opacity:1" />
    <path
       inkscape:connector-curvature="0"
       d="m 91.994044,279.54888 c -0.147402,0.19624 -0.302342,0.39719 -0.378053,0.63366 -0.0044,0.034 -0.01352,0.0979 0.0026,2.7e-4 0.0016,-0.0102 -0.0027,0.0244 0.0057,0.0306 0.06315,0.0324 0.125124,0.0147 0.187333,-0.01 0.08665,-0.0381 0.146275,-0.10776 0.197109,-0.18506 0.01365,-0.0193 0.06404,-0.16162 0.04034,-0.16821 -0.03857,-0.0107 0.0061,0.0933 -0.0249,0.007 -0.03229,-0.0783 -0.0958,-0.13568 -0.160803,-0.18702 -0.06402,-0.0454 -0.136062,-0.0778 -0.212415,-0.0954 -0.0917,-0.0221 -0.03561,-0.029 -0.02868,-0.0562 0.0089,-0.0349 0.0055,-0.0718 0.0082,-0.10771 0.01011,0.011 -0.0055,0.0253 -0.01558,0.0143 v 0 c -0.01513,-0.0613 -0.04441,-0.1207 -0.04539,-0.1838 -5.29e-4,-0.0342 0.143653,-0.0489 0.170979,-0.0365 0.123534,0.0342 0.241234,0.0838 0.338323,0.17011 0.109598,0.10362 0.205451,0.21997 0.234783,0.37227 0.01281,0.16809 -0.02357,0.31857 -0.123018,0.45499 -0.08198,0.10836 -0.180406,0.20218 -0.307409,0.25577 -0.122954,0.0427 -0.250729,0.0567 -0.375697,0.0111 -0.196557,-0.0954 -0.235884,-0.25158 -0.165926,-0.46189 0.103971,-0.25672 0.26293,-0.48314 0.430189,-0.70261 0.172238,-0.15719 0.394549,0.0864 0.222311,0.24358 z"
       id="path4617"
       style="opacity:1;fill:#000000;fill-opacity:1;stroke:none;stroke-width:0.52916664;stroke-linecap:round;stroke-miterlimit:4;stroke-dasharray:none;stroke-opacity:1" />
    <path
       inkscape:connector-curvature="0"
       d="m 93.681303,278.80114 c 0.284919,-0.0677 0.55582,-0.17908 0.786296,-0.36087 0.123751,-0.11012 0.198821,-0.24919 0.228595,-0.41056 0.0016,-0.06 -0.0085,-0.13014 -0.03521,-0.18967 -0.01561,-0.0375 -0.03662,-0.025 -0.004,-0.006 0.0462,0.007 0.02735,0.0161 0.0069,0.0498 -0.05589,0.0926 -0.09707,0.19306 -0.137215,0.2932 -0.08445,0.21198 -0.1587,0.42782 -0.23232,0.64375 -0.107839,0.32373 -0.224923,0.64426 -0.333206,0.96783 -0.116642,0.34115 -0.215008,0.68805 -0.291306,1.04037 -0.04535,0.211 -0.07184,0.42516 -0.08664,0.64025 -0.0088,0.0671 -7.94e-4,0.15273 -0.04493,0.21012 -0.0064,0.001 -0.01283,0.002 -0.01926,0.003 0.09543,0.0668 0.0011,0.20177 -0.09447,0.13497 v 0 c -0.01273,-0.004 -0.02548,-0.009 -0.0382,-0.013 -0.08468,-0.0634 -0.123793,-0.14787 -0.130403,-0.25443 -0.02183,-0.29616 0.02347,-0.59121 0.08684,-0.88017 0.08494,-0.36194 0.187465,-0.71946 0.315296,-1.06879 0.117282,-0.3204 0.233582,-0.64116 0.345755,-0.96339 0.07847,-0.22209 0.15816,-0.44427 0.261448,-0.65635 0.05754,-0.11514 0.113831,-0.23266 0.194193,-0.33407 0.06753,-0.0735 0.141729,-0.13239 0.247774,-0.12279 0.09679,0.0249 0.159851,0.0868 0.194916,0.1809 0.04477,0.14442 0.03452,0.28965 -0.0042,0.43537 -0.06539,0.18844 -0.162039,0.35888 -0.316384,0.4899 -0.252327,0.20068 -0.542305,0.33329 -0.854479,0.4146 -0.172927,0.0324 -0.218763,-0.21214 -0.04584,-0.24455 z"
       id="path4619"
       style="opacity:1;fill:#000000;fill-opacity:1;stroke:none;stroke-width:0.52916664;stroke-linecap:round;stroke-miterlimit:4;stroke-dasharray:none;stroke-opacity:1" />
    <path
       inkscape:connector-curvature="0"
       d="m 93.26837,279.94242 c 0.260633,-0.10393 0.528783,-0.12614 0.805463,-0.12569 0.01426,-0.005 0.02069,0.0156 0.0064,0.0202 v 0 c -0.20928,0.1972 -0.431165,0.36586 -0.703974,0.46802 -0.256325,0.0763 -0.364241,-0.28619 -0.107915,-0.3625 z"
       id="path4621"
       style="opacity:1;fill:#000000;fill-opacity:1;stroke:none;stroke-width:0.52916664;stroke-linecap:round;stroke-miterlimit:4;stroke-dasharray:none;stroke-opacity:1" />
    <path
       style="fill:none;fill-rule:evenodd;stroke:#000000;stroke-width:0.26458332px;stroke-linecap:butt;stroke-linejoin:miter;stroke-opacity:1"
       d="m 87.939606,277.27076 c 0.135787,0.0204 0.271304,0.0428 0.407366,0.0614 0.121224,0.0165 0.246385,0.0112 0.368302,0.0112 0.18405,0 0.368403,5.3e-4 0.552456,0.003 0.617325,0.007 1.236408,-0.0102 1.852678,-0.0474 0.439013,-0.0265 0.877353,-0.0631 1.316964,-0.0809 0.512651,-0.0208 1.027221,-0.0373 1.540179,-0.0474 0.441513,-0.009 0.88143,-0.002 1.322544,-0.0279 0.310454,-0.0181 0.634182,-0.0487 0.94308,0.003 0.20583,0.0343 0.579224,0.16519 0.775671,0.067"
       id="path4623"
       inkscape:connector-curvature="0" />
    <path
       style="opacity:1;fill:#000000;fill-opacity:1;stroke:none;stroke-width:0.52916664;stroke-linecap:round;stroke-miterlimit:4;stroke-dasharray:none;stroke-opacity:1"
       id="path4625"
       d="m 85.538129,286.29573 c 0.331668,-0.0388 0.665337,-0.0831 0.998799,-0.0464 0.149561,0.0359 0.0789,0.0148 0.212503,0.0615 0.01497,5e-5 0.0149,0.0212 -6.9e-5,0.0212 v 0 c -0.130445,0.0663 -0.06197,0.0326 -0.205655,0.10067 -0.318506,0.11941 -0.65414,0.18002 -0.989505,0.2318 -0.260699,0.0114 -0.276775,-0.35732 -0.01606,-0.36868 z"
       inkscape:connector-curvature="0" />
    <path
       style="opacity:1;fill:#000000;fill-opacity:1;stroke:none;stroke-width:0.52916664;stroke-linecap:round;stroke-miterlimit:4;stroke-dasharray:none;stroke-opacity:1"
       id="path4627"
       d="m 85.481534,286.94332 c 0.328912,-0.0397 0.658122,-0.0741 0.988621,-0.097 0.214492,-0.017 0.427781,0.002 0.639376,0.0364 0.113303,0.0309 0.05683,0.0201 0.169233,0.0333 0.01498,-1.6e-4 0.01519,0.021 2.33e-4,0.0212 v 0 c -0.112416,0.0352 -0.05632,0.0136 -0.167884,0.0661 -0.206266,0.0756 -0.415057,0.14586 -0.632446,0.1821 -0.327618,0.0522 -0.657212,0.0874 -0.986153,0.13003 -0.263152,0.008 -0.274132,-0.36439 -0.01098,-0.37215 z"
       inkscape:connector-curvature="0" />
    <path
       style="opacity:1;fill:#000000;fill-opacity:1;stroke:none;stroke-width:0.52916664;stroke-linecap:round;stroke-miterlimit:4;stroke-dasharray:none;stroke-opacity:1"
       id="path4631"
       d="m 88.957413,285.43901 c 0.289425,-0.0533 0.576519,-0.12317 0.849357,-0.23449 0.120931,-0.0545 0.228325,-0.12957 0.298532,-0.24329 0.04031,-0.0864 0.0046,-0.007 -0.0084,0.007 -0.0069,0.007 0.0079,-0.0188 0.01109,-0.0285 0.0093,-0.0285 0.01103,-0.0551 0.0104,-0.0847 -0.0037,-0.0567 -0.02244,-0.10973 -0.04834,-0.15968 -0.0085,-0.0112 -0.01749,-0.0224 -0.02882,-0.0306 0.03128,0.0174 0.069,0.003 0.03407,0.0425 -0.06776,0.0778 -0.124767,0.16366 -0.182322,0.24902 -0.10168,0.1573 -0.190844,0.32234 -0.276331,0.48886 -0.09298,0.18801 -0.171109,0.38229 -0.241665,0.57965 -0.09473,0.28331 -0.15729,0.5756 -0.223674,0.8664 -0.06266,0.2935 -0.130222,0.58576 -0.207272,0.87582 -0.04727,0.16432 -0.08942,0.33066 -0.152119,0.48999 -0.05951,0.12811 -0.06073,0.0822 -0.210048,0.0379 0.0105,-0.0159 0.02101,-0.0317 0.03153,-0.0476 7.94e-4,-0.0149 0.02201,-0.0137 0.02114,10e-4 v 0 c 7.94e-4,0.0168 0.0013,0.0337 0.0021,0.0505 -0.16595,0.0524 -0.202856,0.0886 -0.182036,-0.0647 0.03731,-0.16228 0.09543,-0.31907 0.136858,-0.4803 0.07921,-0.28565 0.148749,-0.57371 0.208153,-0.86417 0.06593,-0.30193 0.133967,-0.60423 0.225473,-0.89958 0.08937,-0.26796 0.19712,-0.52929 0.331062,-0.77837 0.09276,-0.17545 0.189521,-0.34905 0.305658,-0.51043 0.0716,-0.10158 0.145811,-0.20286 0.238963,-0.28604 0.07563,-0.061 0.160097,-0.0959 0.25772,-0.0667 0.07497,0.03 0.138213,0.077 0.185412,0.14351 0.05697,0.0859 0.0954,0.18042 0.109609,0.2831 0.01511,0.16608 -0.01707,0.31334 -0.126002,0.44803 -0.118713,0.13993 -0.264838,0.24464 -0.435941,0.31332 -0.291774,0.11359 -0.595712,0.18981 -0.900845,0.2584 -0.251913,0.0236 -0.285248,-0.33269 -0.03333,-0.35626 z"
       inkscape:connector-curvature="0" />
    <path
       style="opacity:1;fill:#000000;fill-opacity:1;stroke:none;stroke-width:0.52916664;stroke-linecap:round;stroke-miterlimit:4;stroke-dasharray:none;stroke-opacity:1"
       id="path4633"
       d="m 88.475017,286.44341 c 0.289422,-0.0243 0.57821,-0.0588 0.868762,-0.0656 0.152447,-0.003 0.272928,0.0254 0.363913,0.1503 0.01495,7.9e-4 0.01373,0.022 -0.0013,0.0211 v 0 c -0.09613,0.11959 -0.212021,0.17086 -0.36607,0.18734 -0.285959,0.0352 -0.573942,0.0507 -0.860081,0.0846 -0.267112,0.004 -0.272415,-0.37401 -0.0053,-0.37776 z"
       inkscape:connector-curvature="0" />
    <path
       style="opacity:1;fill:#000000;fill-opacity:1;stroke:none;stroke-width:0.52916664;stroke-linecap:round;stroke-miterlimit:4;stroke-dasharray:none;stroke-opacity:1"
       id="path4635"
       d="m 89.076341,283.67193 c 0.331062,0.0747 0.664681,0.13708 0.998058,0.20035 0.211122,0.0457 0.426112,0.0659 0.639911,0.0938 0.158509,0.0151 0.306274,0.0471 0.415224,0.16881 0.01572,7.9e-4 0.03146,0.002 0.04719,0.002 0.01484,0.002 0.01214,0.0229 -0.0027,0.021 v 0 c -0.01566,-7.9e-4 -0.0313,-0.002 -0.04696,-0.002 -0.131892,0.11077 -0.288784,0.14294 -0.459406,0.14016 -0.228854,-0.002 -0.454724,-0.0349 -0.678564,-0.0818 -0.33469,-0.0654 -0.66907,-0.13227 -1.002988,-0.2015 -0.240995,-0.0638 -0.150751,-0.40463 0.09024,-0.34082 z"
       inkscape:connector-curvature="0" />
    <path
       style="opacity:1;fill:#000000;fill-opacity:1;stroke:none;stroke-width:0.52916664;stroke-linecap:round;stroke-miterlimit:4;stroke-dasharray:none;stroke-opacity:1"
       id="path4637"
       d="m 91.669556,286.56677 c -0.175003,0.16956 -0.335304,0.3572 -0.446394,0.57198 -0.03459,0.0777 -0.04816,0.15489 -0.01146,0.23278 0.02463,0.0444 0.06317,0.0621 0.112303,0.0577 0.05566,-0.008 0.0902,-0.05 0.122208,-0.0922 0.05896,-0.0992 0.04018,-0.10827 0.05895,-0.2122 0.01728,-0.12894 -0.0021,-0.25836 -0.03528,-0.38304 -0.02238,-0.0925 -0.05907,-0.17923 -0.108956,-0.2599 -0.0079,-0.0152 -0.04712,-0.0488 -0.01064,-0.0503 0.05223,-0.0273 0.186809,-0.1497 0.06669,-0.0856 0.0013,0.0149 -0.0199,0.0166 -0.02109,0.002 v 0 c -0.08762,-0.0844 -0.01513,-0.21245 0.107889,-0.20562 0.06619,0.0176 0.110646,0.0555 0.148987,0.11306 0.07414,0.11149 0.121769,0.23602 0.147066,0.36759 0.02357,0.16529 0.03554,0.33187 0.0024,0.49715 -0.03388,0.15611 -0.09448,0.3092 -0.204253,0.42793 -0.08297,0.0798 -0.177271,0.13511 -0.295563,0.13762 -0.114006,-0.008 -0.219842,-0.042 -0.306636,-0.11953 -0.125638,-0.13873 -0.163108,-0.30077 -0.109445,-0.48308 0.141486,-0.31182 0.337732,-0.57996 0.589102,-0.81485 0.211246,-0.13734 0.405469,0.16141 0.194223,0.29875 z"
       inkscape:connector-curvature="0" />
    <path
       style="opacity:1;fill:#000000;fill-opacity:1;stroke:none;stroke-width:0.52916664;stroke-linecap:round;stroke-miterlimit:4;stroke-dasharray:none;stroke-opacity:1"
       id="path4639"
       d="m 93.934154,286.66684 c -0.306231,0.0836 -0.595651,0.2147 -0.847998,0.40748 -0.07629,0.0693 -0.160128,0.14171 -0.200136,0.23986 -0.0057,0.014 0.0114,-0.0285 0.0208,-0.0403 0.0059,-0.007 -0.0067,0.0179 -0.01008,0.0268 -0.01958,0.0609 0.03235,0.10046 0.0789,0.12853 0.117364,0.052 0.241096,0.0486 0.364874,0.0279 0.153686,-0.0283 0.292266,-0.0979 0.418981,-0.18706 0.101817,-0.0752 0.175702,-0.16985 0.214582,-0.28991 -0.0033,0.003 -0.01021,0.014 -0.0098,0.01 0.007,-0.0731 0.02503,-0.1294 0.01442,-0.20523 0.0075,-0.0264 -0.03894,-0.0756 -0.0059,-0.0437 0.04615,0.0332 0.08946,-5.3e-4 0.06078,0.0683 0.0054,-0.009 0.01826,-0.0371 0.01611,-0.0268 -0.0082,0.0393 -0.02972,0.0748 -0.0415,0.11319 -0.02397,0.0782 -0.04201,0.15731 -0.05944,0.23716 -0.04457,0.22707 -0.06492,0.45787 -0.08529,0.68807 -0.02249,0.31618 -0.0532,0.63156 -0.09572,0.94567 -0.03938,0.32392 -0.125023,0.63765 -0.230444,0.94543 -0.07149,0.20599 -0.183605,0.37396 -0.372067,0.48524 -0.202161,0.0965 -0.393777,0.0397 -0.582684,-0.0557 -0.227651,-0.12959 -0.405244,-0.32074 -0.568111,-0.52218 -0.150932,-0.19029 -0.264218,-0.40343 -0.32013,-0.63976 -0.02966,-0.2151 0.01212,-0.41552 0.229777,-0.50495 0.08218,-0.0251 0.15062,-0.0146 0.230672,0.008 0.01479,-0.002 0.01807,0.0186 0.0033,0.0209 v 0 c -0.04674,0.0475 -0.09921,0.091 -0.134459,0.14821 -0.0097,0.0265 -0.04918,0.0776 -0.0213,0.082 0.0141,0.002 0.0082,-0.0347 0.02236,-0.0366 0.0307,-0.004 -0.03803,0.11539 0.01135,0.12861 0.06307,0.18399 0.16392,0.35038 0.280617,0.50549 0.130763,0.16528 0.272624,0.32271 0.453605,0.43469 0.07758,0.0451 0.16193,0.0987 0.254145,0.0669 0.125598,-0.0598 0.192635,-0.18691 0.251524,-0.30721 0.138363,-0.21149 0.139006,-0.49966 0.198519,-0.73738 0.04315,-0.31043 0.07336,-0.62225 0.09541,-0.93489 0.02053,-0.23997 0.04384,-0.48005 0.08385,-0.71768 0.03466,-0.1833 0.07294,-0.36847 0.163997,-0.53331 0.07277,-0.10941 0.175014,-0.18405 0.308348,-0.11982 0.0852,0.0579 0.123452,0.13674 0.128336,0.23979 -0.0016,0.14428 -0.02745,0.28619 -0.0939,0.41553 -0.08101,0.12978 -0.182523,0.24296 -0.309182,0.33033 -0.151153,0.1009 -0.31093,0.18666 -0.489492,0.22838 -0.174612,0.0357 -0.352795,0.0592 -0.52065,-0.0179 -0.147309,-0.0788 -0.259775,-0.18215 -0.274838,-0.35854 0.01664,-0.24268 0.178112,-0.42592 0.36145,-0.57006 0.290756,-0.20208 0.611566,-0.34804 0.953823,-0.44101 0.253124,-0.0373 0.305816,0.32071 0.05269,0.35797 z"
       inkscape:connector-curvature="0" />
    <path
       style="opacity:1;fill:#000000;fill-opacity:1;stroke:none;stroke-width:0.52916664;stroke-linecap:round;stroke-miterlimit:4;stroke-dasharray:none;stroke-opacity:1"
       id="path4641"
       d="m 93.057687,284.60227 c 0.385919,-0.0329 0.771483,-0.0686 1.158206,-0.0908 0.265041,-0.0192 0.527756,-0.0253 0.778214,0.071 0.03597,0.0224 0.07194,0.0448 0.107907,0.0672 0.01495,-5.3e-4 0.01564,0.0207 7.94e-4,0.0212 v 0 c -0.036,0.0326 -0.07199,0.0652 -0.10799,0.0977 -0.246546,0.13608 -0.514133,0.15252 -0.792247,0.15789 -0.383148,0.0221 -0.765405,0.0554 -1.147313,0.0931 -0.295148,-0.002 -0.29261,-0.4192 0.0026,-0.4174 z"
       inkscape:connector-curvature="0" />
    <path
       style="opacity:1;fill:#000000;fill-opacity:1;stroke:none;stroke-width:0.52916664;stroke-linecap:round;stroke-miterlimit:4;stroke-dasharray:none;stroke-opacity:1"
       id="path4643"
       d="m 119.89285,278.36208 c 0.37704,0.0347 0.75554,0.0466 1.13383,0.058 0.30698,-10e-4 0.61166,0.006 0.89763,0.12567 0.0379,0.0181 0.0759,0.0363 0.11387,0.0544 0.0149,0.001 0.013,0.0224 -0.002,0.0211 v 0 c -0.0416,0.0185 -0.0832,0.037 -0.12473,0.0555 -0.29673,0.11168 -0.60838,0.12162 -0.92319,0.10977 -0.38425,-0.006 -0.76809,-0.0237 -1.15135,-0.052 -0.26336,-0.0395 -0.20753,-0.41192 0.0558,-0.37245 z"
       inkscape:connector-curvature="0" />
    <path
       style="opacity:1;fill:#000000;fill-opacity:1;stroke:none;stroke-width:0.52916664;stroke-linecap:round;stroke-miterlimit:4;stroke-dasharray:none;stroke-opacity:1"
       id="path4645"
       d="m 110.98483,261.26319 c 0.36526,-0.009 0.73025,-0.0255 1.0953,-0.0402 0.30901,-0.0204 0.617,0.008 0.92473,0.0316 0.42838,0.13002 -0.16737,-0.0645 0.25953,0.12269 0.041,0.018 0.0873,0.0203 0.13099,0.0304 0.0148,0.002 0.0113,0.0233 -0.003,0.0209 v 0 c -0.0453,7.6e-4 -0.0917,-0.007 -0.13592,0.002 -0.0503,0.011 -0.0952,0.039 -0.14281,0.0586 -0.0453,0.008 -0.0906,0.0163 -0.13585,0.0245 -0.30497,0.007 -0.60728,0.0549 -0.91251,0.0611 -0.3658,0.0152 -0.7316,0.0302 -1.09744,0.0442 -0.25173,-0.0123 -0.23426,-0.36835 0.0175,-0.356 z"
       inkscape:connector-curvature="0" />
    <path
       style="opacity:1;fill:#000000;fill-opacity:1;stroke:none;stroke-width:0.52916664;stroke-linecap:round;stroke-miterlimit:4;stroke-dasharray:none;stroke-opacity:1"
       id="path4647"
       d="m 99.481052,274.4483 c 0.0616,-0.33404 0.11368,-0.66975 0.15417,-1.00699 0.0214,-0.17127 0.0301,-0.34384 0.0489,-0.51533 0.0252,-0.19606 0.0218,-0.14911 0.375328,-0.21439 0.005,-9.6e-4 0.0974,0.0785 0.10058,0.0812 0.11338,0.10173 0.21591,0.21456 0.31883,0.32662 0.11411,0.12328 0.22858,0.24624 0.35253,0.35975 0.0864,0.0808 0.19025,0.13468 0.29935,0.17741 0.1109,0.0364 0.20268,0.0856 0.27985,0.17357 0.0148,-0.004 0.0296,-0.009 0.0444,-0.013 0.0147,-0.003 0.0186,0.0181 0.004,0.0208 v 0 c -0.0153,0.005 -0.0305,0.0109 -0.0458,0.0164 -0.0975,0.16366 -0.22167,0.1982 -0.40659,0.1747 -0.16842,-0.0403 -0.31784,-0.1171 -0.44622,-0.23502 -0.13089,-0.11967 -0.2549,-0.24643 -0.37303,-0.37876 -0.0967,-0.10396 -0.192518,-0.20888 -0.290708,-0.31144 -0.0195,-0.0194 -0.0815,-0.0385 -0.0604,-0.0561 0.389348,-0.32409 0.277128,-0.25452 0.261318,-0.1507 -0.0206,0.1717 -0.0323,0.34433 -0.0533,0.516 -0.042,0.34148 -0.0923,0.6817 -0.150248,1.02087 0.0102,0.29201 -0.40274,0.30646 -0.41296,0.0145 z"
       inkscape:connector-curvature="0" />
    <path
       style="opacity:1;fill:#000000;fill-opacity:1;stroke:none;stroke-width:0.52916664;stroke-linecap:round;stroke-miterlimit:4;stroke-dasharray:none;stroke-opacity:1"
       id="path4649"
       d="m 106.63147,268.11553 c -0.26155,0.16446 -0.51648,0.33955 -0.76389,0.5246 -0.0442,-0.005 -0.33491,0.33536 -0.18602,0.15798 -0.0194,0.0174 -0.0316,0.04 -0.0449,0.0619 -0.005,0.01 -0.005,0.0141 -0.006,0.021 0.009,0.0271 -0.0243,-0.028 -0.0318,-0.0366 0.0343,0.0245 0.0734,0.0409 0.111,0.0595 0.0911,0.0437 0.17615,0.0985 0.26068,0.15345 0.0796,0.0489 0.14963,0.10986 0.21365,0.17745 0.0405,0.0437 0.0741,0.0927 0.10951,0.14039 0.0512,0.0682 0.13358,0.10538 0.20693,0.14505 0.14456,0.0682 0.27471,0.13405 0.37145,0.26435 0.025,0.006 0.05,0.0123 0.075,0.0185 0.0142,0.005 0.008,0.0248 -0.007,0.0201 v 0 c -0.0251,-0.006 -0.0502,-0.0124 -0.0753,-0.0186 -0.16647,0.0624 -0.32682,0.0535 -0.49757,0.006 -0.12291,-0.0363 -0.2394,-0.086 -0.34107,-0.16582 -0.0471,-0.0404 -0.0909,-0.0839 -0.12799,-0.13394 -0.0435,-0.0486 -0.095,-0.0877 -0.15029,-0.12226 -0.0739,-0.0469 -0.14762,-0.0946 -0.22635,-0.13328 -0.0572,-0.0279 -0.1142,-0.0568 -0.16504,-0.0955 -0.0478,-0.0389 -0.0913,-0.0859 -0.10516,-0.14809 -0.0116,-0.0491 -0.0217,-0.0981 -0.0159,-0.14904 0.006,-0.0796 0.0283,-0.15593 0.0693,-0.22504 0.11435,-0.14393 0.23853,-0.27031 0.39305,-0.37257 0.25586,-0.18701 0.51969,-0.36243 0.78423,-0.53687 0.27366,-0.10519 0.42243,0.28182 0.14876,0.38702 z"
       inkscape:connector-curvature="0" />
    <path
       style="opacity:1;fill:#000000;fill-opacity:1;stroke:none;stroke-width:0.52916664;stroke-linecap:round;stroke-miterlimit:4;stroke-dasharray:none;stroke-opacity:1"
       id="path4655"
       d="m 118.93708,276.09348 c 0.28165,-0.19724 0.55639,-0.40438 0.81752,-0.62814 0.1183,-0.10722 0.23773,-0.21745 0.33146,-0.34779 0.007,-0.01 -0.0157,0.0178 -0.0236,0.0267 0.0381,-0.0475 0.0708,-0.099 0.10683,-0.14791 0.0247,-0.25902 0.40445,-0.009 0.36947,0.10675 0.0141,0.0501 0.0212,0.10238 0.0266,0.1543 0.008,0.12208 0.009,0.24447 0.01,0.36678 -0.001,0.14479 -0.006,0.28951 -0.006,0.43432 -0.007,0.0852 2.6e-4,0.16804 0.0122,0.25205 0.0168,0.0785 -0.0141,0.10239 0.0668,0.13947 0.0135,0.006 0.004,0.0255 -0.009,0.0191 v 0 c -0.0756,-0.029 -0.12624,0.0143 -0.20436,-0.0119 -0.12746,-0.0663 -0.19798,-0.18193 -0.22532,-0.32214 -0.0215,-0.15143 -0.0182,-0.30309 -0.0131,-0.45567 -5e-5,-0.11566 -0.002,-0.23126 -0.004,-0.34688 -0.001,-0.0462 -0.002,-0.0924 -0.0158,-0.13698 -0.0527,-0.33131 0.26864,0.21608 0.3544,-0.0709 -0.0344,0.0604 -0.0749,0.11727 -0.11527,0.17376 -0.14634,0.1828 -0.30006,0.35825 -0.4848,0.50416 -0.27223,0.22215 -0.55438,0.43141 -0.83835,0.63826 -0.24565,0.10953 -0.40055,-0.23786 -0.15491,-0.3474 z"
       inkscape:connector-curvature="0" />
    <path
       style="opacity:1;fill:#000000;fill-opacity:1;stroke:none;stroke-width:0.52916664;stroke-linecap:round;stroke-miterlimit:4;stroke-dasharray:none;stroke-opacity:1"
       id="path4665"
       d="m 43.042678,249.58634 c -0.175417,0.0448 -0.42422,0.0286 -0.56387,0.16456 0.02098,0.0371 0.01357,0.0312 0.05189,-0.0749 0.01085,-0.0301 -0.02968,-0.0491 0.02125,-0.011 0.07389,0.0474 0.157848,0.0681 0.243544,0.0812 0.122708,0.0121 0.244927,-0.005 0.36554,-0.0261 0.170394,-0.0301 0.336225,-0.079 0.499684,-0.13485 0.202036,-0.0686 0.395502,-0.15889 0.5886,-0.2489 0.210717,-0.0992 0.417491,-0.20637 0.625814,-0.3104 0.226359,-0.11348 0.455692,-0.22088 0.683622,-0.33115 0.252836,-0.12663 0.510723,-0.24244 0.771176,-0.3524 0.258157,-0.10682 0.51689,-0.2122 0.777695,-0.31239 0.245052,-0.0962 0.497181,-0.17121 0.753377,-0.23076 0.232635,-0.0511 0.469948,-0.0747 0.707316,-0.0891 0.207359,-0.0122 0.410951,0.0112 0.608727,0.073 0.141301,0.05 0.261869,0.13461 0.358558,0.24802 0.117859,0.16566 0.03893,0.33071 -0.09676,0.46091 -0.136223,0.12079 -0.299288,0.20279 -0.461457,0.28236 -0.128063,0.057 -0.265964,0.11799 -0.404855,0.0699 -0.04977,-0.0319 -0.02857,-0.0131 -0.06467,-0.0551 -0.01498,7e-5 -0.01506,-0.0211 -9.8e-5,-0.0212 v 0 c 0.019,-0.0487 0.0087,-0.0234 0.03125,-0.0757 0.07514,-0.12435 0.204007,-0.19338 0.32934,-0.26023 0.130353,-0.0698 0.262581,-0.1414 0.371975,-0.2423 0.05002,-0.0594 0.0011,-0.006 -0.01042,0.0419 -0.0011,0.004 0.03219,0.0207 0.04018,0.0106 0.0034,-0.004 0.003,-0.0106 0.0045,-0.0158 -0.02125,-0.091 -0.122619,-0.13388 -0.19898,-0.17001 -0.167404,-0.0575 -0.342254,-0.0777 -0.519176,-0.0675 -0.224136,0.0135 -0.448027,0.037 -0.667522,0.0859 -0.245573,0.0585 -0.48731,0.13168 -0.722281,0.22452 -0.257466,0.0994 -0.514395,0.20034 -0.768435,0.30825 -0.256188,0.11003 -0.510516,0.22406 -0.759767,0.3492 -0.226462,0.11147 -0.455985,0.21663 -0.681543,0.32998 -0.210288,0.10554 -0.419131,0.21411 -0.632452,0.31348 -0.201419,0.0922 -0.40427,0.18177 -0.613812,0.25418 -0.175249,0.0567 -0.35198,0.10953 -0.534593,0.13693 -0.144608,0.0229 -0.290991,0.0443 -0.437534,0.0264 -0.122457,-0.017 -0.242641,-0.0489 -0.34998,-0.11231 -0.167,-0.11225 -0.223665,-0.28359 -0.04833,-0.438 0.204965,-0.13794 0.451914,-0.1783 0.690782,-0.22374 0.242179,-0.008 0.253923,0.33419 0.01175,0.34249 z"
       inkscape:connector-curvature="0" />
    <path
       style="opacity:1;fill:#000000;fill-opacity:1;stroke:none;stroke-width:0.52916664;stroke-linecap:round;stroke-miterlimit:4;stroke-dasharray:none;stroke-opacity:1"
       id="path4683"
       d="m 109.14615,250.89106 c -0.24149,0.0948 -0.4869,0.19056 -0.69471,0.34887 -0.10413,0.10621 -0.0277,0.0249 -0.009,0.0162 0.0151,-0.007 -0.0221,0.028 -0.0222,0.0445 0.0295,0.0539 0.0841,0.0869 0.13434,0.11905 0.10712,0.0639 0.22592,0.10093 0.34559,0.13289 0.16851,0.0433 0.34215,0.0549 0.51538,0.058 0.2259,-5.8e-4 0.45048,-0.0259 0.67446,-0.0526 0.26517,-0.0327 0.52791,-0.0808 0.78902,-0.13692 0.28388,-0.0608 0.56176,-0.14498 0.8406,-0.22492 0.28311,-0.0817 0.56766,-0.15834 0.85139,-0.23788 0.30699,-0.0905 0.61526,-0.17687 0.92081,-0.27209 0.28691,-0.0884 0.57433,-0.17418 0.86646,-0.24369 0.25189,-0.0565 0.50789,-0.0906 0.76432,-0.11816 0.18516,-0.0194 0.37104,-0.0304 0.55672,-0.0434 0.1328,-0.0118 0.26578,-0.0175 0.39903,-0.0199 0.14155,-0.0115 0.18328,0.008 0.28011,0.12201 0.005,0.0407 0.017,0.0812 0.0149,0.1221 -0.008,0.15722 -0.25154,0.30736 -0.34863,0.38658 -0.1796,0.10537 -0.35601,0.3387 -0.54671,0.4092 -0.10473,0.0606 -0.16188,0.0998 -0.27783,0.14102 -0.057,0.0203 -0.12118,0.0207 -0.17465,0.0489 -0.0404,0.0213 -0.0657,0.0634 -0.0986,0.0952 -0.008,0.0127 -0.0259,0.001 -0.018,-0.0112 v 0 c 0.0328,-0.0318 0.0771,-0.055 0.0983,-0.0954 0.0228,-0.0433 0.0127,-0.0977 0.0278,-0.14425 0.0337,-0.10409 0.0798,-0.15545 0.1416,-0.24312 0.21125,-0.21021 0.43226,-0.40689 0.67206,-0.58441 -0.017,0.018 0.10008,-0.1154 0.11851,-0.0511 0.008,0.0293 0.0164,0.0586 0.0246,0.0879 0.10018,0.10023 0.15993,0.0837 0.0334,0.0646 -0.12484,-0.007 -0.24973,0.007 -0.37442,0.0119 -0.18154,0.0116 -0.36301,0.0245 -0.54412,0.0416 -0.24486,0.0259 -0.48927,0.0587 -0.72937,0.11445 -0.28675,0.0659 -0.56981,0.14621 -0.85145,0.23117 -0.30873,0.0864 -0.61556,0.17944 -0.92377,0.26767 -0.283,0.0801 -0.56779,0.15376 -0.84971,0.2377 -0.28436,0.0825 -0.56932,0.16436 -0.85898,0.22639 -0.26828,0.0579 -0.53689,0.115 -0.80832,0.15638 -0.23855,0.0371 -0.47894,0.0665 -0.72073,0.0673 -0.19833,-0.003 -0.39624,-0.0176 -0.5887,-0.0694 -0.15066,-0.0406 -0.29892,-0.0912 -0.43155,-0.1754 -0.12151,-0.0796 -0.23145,-0.17361 -0.27763,-0.31665 -0.0426,-0.22365 0.06,-0.37791 0.24765,-0.50577 0.23904,-0.15493 0.50114,-0.26593 0.76623,-0.36854 0.25685,-0.0461 0.322,0.31716 0.0652,0.36323 z"
       inkscape:connector-curvature="0" />
  </g>
</svg>
