<?xml version="1.0" encoding="UTF-8" standalone="no"?>
<!-- Created with Inkscape (http://www.inkscape.org/) -->

<svg
   xmlns:dc="http://purl.org/dc/elements/1.1/"
   xmlns:cc="http://creativecommons.org/ns#"
   xmlns:rdf="http://www.w3.org/1999/02/22-rdf-syntax-ns#"
   xmlns:svg="http://www.w3.org/2000/svg"
   xmlns="http://www.w3.org/2000/svg"
   xmlns:sodipodi="http://sodipodi.sourceforge.net/DTD/sodipodi-0.dtd"
   xmlns:inkscape="http://www.inkscape.org/namespaces/inkscape"
   width="152mm"
   height="45mm"
   viewBox="0 0 152 45.000001"
   version="1.1"
   id="svg8"
   inkscape:version="0.92.1 unknown"
   sodipodi:docname="fix-C.svg">
  <defs
     id="defs2" />
  <sodipodi:namedview
     id="base"
     pagecolor="#ffffff"
     bordercolor="#666666"
     borderopacity="1.0"
     inkscape:pageopacity="0.0"
     inkscape:pageshadow="2"
     inkscape:zoom="1.979899"
     inkscape:cx="311.28875"
     inkscape:cy="174.9164"
     inkscape:document-units="mm"
     inkscape:current-layer="layer1"
     showgrid="false" />
  <metadata
     id="metadata5">
    <rdf:RDF>
      <cc:Work
         rdf:about="">
        <dc:format>image/svg+xml</dc:format>
        <dc:type
           rdf:resource="http://purl.org/dc/dcmitype/StillImage" />
        <dc:title></dc:title>
      </cc:Work>
    </rdf:RDF>
  </metadata>
  <g
     inkscape:label="Layer 1"
     inkscape:groupmode="layer"
     id="layer1"
     transform="translate(0,-252)">
    <path
       style="opacity:1;fill:#000000;fill-opacity:1;stroke:none;stroke-width:0.52916664;stroke-linecap:round;stroke-miterlimit:4;stroke-dasharray:none;stroke-opacity:1"
       id="path5756"
       d="m 60.366305,261.68288 c 0.136589,-0.49598 0.270224,-0.99276 0.414435,-1.48659 0.121778,-0.41778 0.25548,-0.8319 0.384607,-1.24742 0.08525,-0.27677 0.16773,-0.55442 0.243361,-0.83398 0.03636,-0.13706 0.07146,-0.27511 0.123047,-0.40742 0.405024,0.15389 0.294722,0.0882 0.30117,0.44835 0.0083,0.31578 0.05442,0.62879 0.102423,0.94048 0.06582,0.4302 0.151281,0.85689 0.246827,1.28136 0.08283,0.3479 0.17803,0.69261 0.289761,1.03229 0.08549,0.0997 0.08063,0.4321 0.150836,0.50955 0.01114,0.01 -0.003,0.0258 -0.01413,0.0158 v 0 c -0.0697,-0.0765 0.01889,0.01 -0.10114,-0.0578 -0.123264,-0.0693 -0.186172,-0.22043 -0.259776,-0.33187 -0.159777,-0.33186 -0.278561,-0.68069 -0.365091,-1.03874 -0.102838,-0.4298 -0.188909,-0.86323 -0.258577,-1.29969 -0.05156,-0.3235 -0.101645,-0.64802 -0.115258,-0.9758 -0.0011,-0.0318 -0.0081,-0.33701 -0.0037,-0.33804 0.0975,-0.0227 0.2002,-0.002 0.3003,-0.003 -0.0016,0.003 -0.003,0.006 -0.0044,0.01 -0.04055,0.0939 -0.03297,0.0838 -0.07347,0.22048 -0.09176,0.3326 -0.189294,0.66355 -0.292463,0.99279 -0.130175,0.41246 -0.260985,0.82475 -0.382947,1.23973 -0.142629,0.4926 -0.279159,0.98693 -0.41102,1.48252 -0.107955,0.19432 -0.382764,0.0417 -0.274812,-0.15267 z"
       inkscape:connector-curvature="0" />
    <path
       style="opacity:1;fill:#000000;fill-opacity:1;stroke:none;stroke-width:0.52916664;stroke-linecap:round;stroke-miterlimit:4;stroke-dasharray:none;stroke-opacity:1"
       id="path5758"
       d="m 60.767736,260.84096 c 0.419672,-0.03 0.832398,-0.11804 1.251384,-0.1521 0.179136,-0.0452 0.325853,0.0742 0.495229,0.0463 0.0149,-0.001 0.01693,0.0196 0.0021,0.0211 v 0 c -0.175532,0.0289 -0.278262,0.19821 -0.466574,0.22104 -0.415049,0.11334 -0.844354,0.15452 -1.270981,0.20204 -0.239268,0.008 -0.250357,-0.33054 -0.01109,-0.33838 z"
       inkscape:connector-curvature="0" />
    <path
       style="opacity:1;fill:#000000;fill-opacity:1;stroke:none;stroke-width:0.52916664;stroke-linecap:round;stroke-miterlimit:4;stroke-dasharray:none;stroke-opacity:1"
       id="path5760"
       d="m 61.464464,263.83456 c 0.0024,0.53399 -0.0016,1.06793 -0.01119,1.60183 -0.01222,0.47609 -0.02056,0.95225 -0.02516,1.42848 -0.0043,0.52615 -0.0033,1.05233 -0.0041,1.5785 0.0016,0.55981 -0.0021,1.11959 -0.01016,1.67934 -0.0089,0.45457 -0.01352,0.90923 -0.0291,1.36364 -0.0094,0.28595 -0.01505,0.57448 -0.07094,0.85597 -0.0079,0.0646 -0.04973,0.11004 -0.07494,0.1673 -0.0036,0.0145 -0.02416,0.009 -0.02053,-0.005 v 0 c -0.02469,-0.0693 -0.06438,-0.13151 -0.07349,-0.206 -0.04114,-0.24492 -0.04799,-0.49305 -0.05385,-0.74095 -0.0041,-0.4538 5.29e-4,-0.90752 0.01003,-1.36124 0.0078,-0.55911 0.0145,-1.11823 0.01058,-1.67741 -5.29e-4,-0.52741 -6.6e-5,-1.05482 0.0028,-1.58222 0.0039,-0.47813 0.01169,-0.95621 0.02726,-1.43412 0.0131,-0.5335 0.02191,-1.0671 0.02476,-1.60076 -0.04753,-0.21075 0.250518,-0.27798 0.298055,-0.0672 z"
       inkscape:connector-curvature="0" />
    <path
       style="opacity:1;fill:#000000;fill-opacity:1;stroke:none;stroke-width:0.52916664;stroke-linecap:round;stroke-miterlimit:4;stroke-dasharray:none;stroke-opacity:1"
       id="path5762"
       d="m 60.562451,271.79074 c 0.19766,0.38583 0.384398,0.77715 0.582962,1.1625 0.04859,0.0848 0.09028,0.17833 0.157237,0.25138 0.0093,0.0101 0.04541,0.0302 0.03573,0.0205 -0.0069,-0.007 -0.01662,-0.0103 -0.02495,-0.0155 -0.0063,-0.004 -0.01754,-0.004 -0.01881,-0.0106 -0.0021,-0.0115 0.19081,-0.37139 0.204822,-0.40197 0.125116,-0.28794 0.224729,-0.586 0.352875,-0.87261 0.06403,-0.14777 0.15058,-0.27717 0.266845,-0.38748 0.0069,-0.0133 0.02569,-0.003 0.01876,0.01 v 0 c 0.02846,0.17909 0.0236,0.35454 -0.02466,0.53105 -0.08258,0.31497 -0.193802,0.62148 -0.32789,0.91829 -0.104045,0.22087 -0.203441,0.48773 -0.460327,0.55858 -0.250592,-0.0294 -0.31673,-0.20444 -0.429834,-0.40898 -0.200049,-0.38458 -0.383956,-0.77733 -0.584894,-1.16149 -0.136765,-0.17828 0.115369,-0.3717 0.252135,-0.19341 z"
       inkscape:connector-curvature="0" />
    <path
       style="opacity:1;fill:#000000;fill-opacity:1;stroke:none;stroke-width:0.52916664;stroke-linecap:round;stroke-miterlimit:4;stroke-dasharray:none;stroke-opacity:1"
       id="path5764"
       d="m 56.311494,266.3864 c -0.11866,0.56726 -0.190603,1.14275 -0.259408,1.71774 -0.05439,0.44231 -0.08898,0.88686 -0.150521,1.32828 -0.02294,0.13721 -0.03563,0.2775 -0.0943,0.405 0.0104,0.0108 -0.0048,0.0255 -0.01524,0.0147 v 0 c -0.164426,-0.0349 -0.156393,-0.23446 -0.172829,-0.37126 -0.01386,-0.44594 0.03252,-0.89101 0.07256,-1.33465 0.06144,-0.58507 0.129233,-1.16996 0.240924,-1.74798 -0.0084,-0.26786 0.370448,-0.27967 0.378804,-0.0118 z"
       inkscape:connector-curvature="0" />
    <path
       style="opacity:1;fill:#000000;fill-opacity:1;stroke:none;stroke-width:0.52916664;stroke-linecap:round;stroke-miterlimit:4;stroke-dasharray:none;stroke-opacity:1"
       id="path5766"
       d="m 56.954469,267.57043 c -0.203756,0.40773 -0.396344,0.82088 -0.592297,1.23237 -0.08487,0.16588 -0.156514,0.33846 -0.244848,0.50257 -0.06329,0.10431 -0.03915,0.0855 -0.160207,-0.23333 -0.0097,-0.0256 0.04225,-0.0348 0.06246,-0.0532 0.09563,-0.0866 0.213792,-0.10884 0.338408,-0.10014 0.161507,0.0277 0.291063,0.12948 0.415004,0.22991 0.139533,0.12132 0.267449,0.25525 0.396473,0.3875 0.102245,0.10574 0.206843,0.20958 0.294664,0.32786 0.03481,0.0551 0.06298,0.11365 0.09514,0.17032 0.01474,0.003 0.01103,0.0235 -0.0037,0.0208 v 0 c -0.07947,0.0453 -0.142473,0.0747 -0.235987,0.0503 -0.15699,-0.0599 -0.267128,-0.17556 -0.378097,-0.29873 -0.123323,-0.12612 -0.244952,-0.25417 -0.374219,-0.37426 -0.07646,-0.0685 -0.153834,-0.14133 -0.251386,-0.17844 -0.05355,-0.0122 -0.09016,0.006 -0.129937,0.0438 -0.0082,0.006 -0.101589,0.0786 -0.108976,0.0749 -0.289386,-0.14478 -0.292426,-0.12395 -0.230699,-0.28204 0.07508,-0.16989 0.162841,-0.33386 0.241398,-0.50212 0.198287,-0.41118 0.397545,-0.82188 0.596308,-1.23283 0.15178,-0.19128 0.42229,0.0234 0.27051,0.21465 z"
       inkscape:connector-curvature="0" />
    <path
       style="opacity:1;fill:#000000;fill-opacity:1;stroke:none;stroke-width:0.52916664;stroke-linecap:round;stroke-miterlimit:4;stroke-dasharray:none;stroke-opacity:1"
       id="path5768"
       d="m 60.757052,277.03911 c -0.167243,0.53905 -0.326249,1.0803 -0.505129,1.61568 -0.146328,0.43522 -0.316582,0.86216 -0.503153,1.28159 -0.09015,0.17039 -0.05276,0.0864 -0.11508,0.25053 -0.0067,0.0134 -0.02564,0.004 -0.01889,-0.01 v 0 c 0.02196,-0.18903 0.01193,-0.0889 0.02893,-0.30056 0.08235,-0.46588 0.214432,-0.92036 0.353145,-1.37229 0.160652,-0.54383 0.315857,-1.0893 0.484518,-1.63073 0.116903,-0.19493 0.39257,-0.0296 0.275667,0.16532 z"
       inkscape:connector-curvature="0" />
    <path
       style="opacity:1;fill:#000000;fill-opacity:1;stroke:none;stroke-width:0.52916664;stroke-linecap:round;stroke-miterlimit:4;stroke-dasharray:none;stroke-opacity:1"
       id="path5770"
       d="m 59.812485,277.33705 c 0.385847,-0.25923 0.787455,-0.49421 1.216088,-0.67486 0.225068,-0.0883 0.460476,-0.1425 0.700201,-0.0953 0.237117,0.0654 0.229074,0.24984 0.176792,0.4515 -0.106151,0.22381 -0.271256,0.41101 -0.434811,0.59421 -0.173834,0.1931 -0.356386,0.37823 -0.547304,0.55443 -0.02148,0.0159 -0.04355,0.031 -0.06445,0.0477 -0.02431,0.0194 -0.06265,0.10179 -0.06085,0.0707 0.0095,-0.16411 -0.04736,-0.15537 0.03315,-0.15447 0.161094,-0.0239 0.319055,-0.0635 0.480491,-0.0868 0.218416,-0.029 0.42033,0.0213 0.612611,0.1221 0.184356,0.10924 0.299445,0.27559 0.384111,0.46746 0.07378,0.19043 0.08528,0.39166 0.06934,0.59294 -0.0259,0.24371 -0.135885,0.44018 -0.301035,0.6154 -0.207706,0.19286 -0.471866,0.2773 -0.746337,0.31867 -0.329755,0.0328 -0.63456,-0.0646 -0.922075,-0.21653 -0.248769,-0.15074 -0.414216,-0.35365 -0.441479,-0.64577 0.01109,-0.1319 0.06124,-0.22439 0.162058,-0.30489 0.0096,-0.0115 0.02585,0.002 0.01627,0.0135 v 0 c -0.0064,0.0918 7.4e-5,0.1099 0.04343,0.18663 0.09368,0.16247 0.218707,0.30347 0.380338,0.40146 0.227039,0.12259 0.469723,0.20243 0.7312,0.1918 0.210653,-0.0171 0.421553,-0.0546 0.589603,-0.19314 0.100711,-0.096 0.170638,-0.20475 0.212799,-0.33646 0.03436,-0.16437 0.03484,-0.33048 -0.01167,-0.49322 -0.05152,-0.15486 -0.128818,-0.29177 -0.267915,-0.38477 -0.152289,-0.0869 -0.312322,-0.13161 -0.488979,-0.10302 -0.1807,0.0287 -0.357587,0.0855 -0.541271,0.0887 -0.350816,-0.0722 -0.148029,-0.29051 -0.02926,-0.42426 0.178091,-0.18056 0.362056,-0.35587 0.525386,-0.55035 0.135924,-0.1635 0.279974,-0.32926 0.362931,-0.52724 -1.82e-4,0.0109 -0.0081,0.0248 -5.29e-4,0.0326 0.0032,0.003 0.09164,-0.0546 0.01521,-0.049 -0.185799,-0.0494 -0.379908,0.026 -0.553781,0.086 -0.41306,0.17703 -0.801598,0.40407 -1.172194,0.65793 -0.179345,0.0906 -0.307414,-0.16307 -0.128069,-0.25363 z"
       inkscape:connector-curvature="0" />
    <path
       style="opacity:1;fill:#000000;fill-opacity:1;stroke:none;stroke-width:0.52916664;stroke-linecap:round;stroke-miterlimit:4;stroke-dasharray:none;stroke-opacity:1"
       id="path5778"
       d="m 68.114564,267.78454 c 0.385189,-0.0221 0.770576,-0.0411 1.155687,-0.0645 0.190482,-0.0111 0.381162,-0.0186 0.571789,-0.0268 0.12003,-0.005 0.240143,-0.007 0.360262,-0.008 0.08336,-0.003 0.166859,-0.003 0.250073,-0.01 0.05394,-0.003 0.107225,-0.0118 0.160711,-0.0187 0.02172,0.002 0.04785,-0.0131 0.05783,-0.0188 0.03516,-0.0254 0.07202,-0.0482 0.106463,-0.0746 0.07194,-0.0649 0.145706,-0.1275 0.220795,-0.18874 0.10582,-0.0826 0.213799,-0.1628 0.32907,-0.23178 0.08557,-0.0488 0.171686,-0.0709 0.268783,-0.054 0.116501,0.0402 0.154516,0.14396 0.174699,0.25536 0.01558,0.13425 0.01834,0.26951 0.02806,0.40425 0.0098,0.14124 0.04072,0.27945 0.07692,0.41591 0.02718,0.0872 0.05528,0.18024 0.119896,0.24764 0.03271,0.0299 0.06858,0.0266 0.108405,0.015 0.104399,-0.036 0.18524,-0.11096 0.264964,-0.18424 0.116441,-0.11429 0.22447,-0.23679 0.331661,-0.35968 0.08557,-0.10109 0.174482,-0.19926 0.27515,-0.28554 0.08524,-0.0687 0.167013,-0.0907 0.269656,-0.0493 0.09397,0.0728 0.111188,0.19025 0.1368,0.29917 0.03292,0.13385 0.07465,0.26449 0.131487,0.39008 0.03398,0.0675 0.07754,0.12852 0.148903,0.15778 0.07469,0.0198 0.147992,-0.0149 0.214894,-0.0449 0.138779,-0.0701 0.265269,-0.16147 0.383125,-0.26228 0.112387,-0.0998 0.212489,-0.2121 0.317891,-0.31896 0.138946,-0.12646 0.102405,-0.13891 0.317842,-0.0724 0.07474,0.0875 0.100806,0.20158 0.139427,0.30731 0.03226,0.0883 0.08772,0.15597 0.165928,0.20628 0.06816,0.0395 0.133972,0.0335 0.206047,0.0109 0.140168,-0.0585 0.252878,-0.16466 0.364657,-0.26451 0.140031,-0.12725 0.26517,-0.26852 0.3761,-0.42153 0.0631,-0.0843 0.114091,-0.17966 0.19146,-0.25224 0.159663,-0.12451 0.262329,0.0768 0.297839,0.1886 0.02582,0.0911 0.06697,0.17542 0.116419,0.25568 0.05375,0.0823 0.12436,0.15014 0.200134,0.21174 0.05499,0.0428 0.11721,0.0674 0.185592,0.077 0.05395,0.008 0.106106,-0.003 0.15789,-0.0172 0.06913,-0.0166 0.131963,-0.0495 0.195815,-0.0795 0.08833,-0.0409 0.171519,-0.0908 0.25432,-0.14168 0.09601,-0.0553 0.195483,-0.10445 0.29676,-0.14925 0.10578,-0.0483 0.216823,-0.0813 0.330327,-0.10523 0.111008,-0.0222 0.224472,-0.0263 0.337201,-0.0326 0.115652,-0.005 0.231428,-0.006 0.346834,-0.0157 0.115993,-0.0125 0.231754,-0.0253 0.348263,-0.0321 0.09245,-0.005 0.185071,-0.004 0.277201,-0.0137 0.03455,-0.006 0.0753,-0.009 0.10331,-0.001 -0.0096,0.0437 0.01222,0.0792 0.04571,0.10941 0.01,-0.0112 0.02577,0.003 0.0158,0.0141 v 0 c 0.02516,0.061 0.03469,0.11283 -0.01685,0.16098 -0.0425,0.0263 -0.09337,0.023 -0.141671,0.0289 -0.09504,0.008 -0.190363,0.009 -0.285586,0.013 -0.115875,0.007 -0.231021,0.0217 -0.346859,0.0294 -0.116459,0.005 -0.233018,0.008 -0.349493,0.0127 -0.100126,0.005 -0.200615,0.008 -0.30003,0.0219 -0.09588,0.0188 -0.189431,0.0461 -0.278026,0.088 -0.09183,0.0422 -0.182317,0.0875 -0.268994,0.13956 -0.09048,0.0537 -0.182063,0.10555 -0.277702,0.14967 -0.07872,0.0375 -0.159131,0.0715 -0.244559,0.0908 -0.08462,0.0184 -0.16991,0.0291 -0.256268,0.0146 -0.108437,-0.0206 -0.209605,-0.0588 -0.295346,-0.1307 -0.09649,-0.0774 -0.185238,-0.1644 -0.256313,-0.26617 -0.06294,-0.0976 -0.118488,-0.19995 -0.149304,-0.31268 -0.02918,-0.10925 -0.03001,-0.10844 0.104947,-0.12045 -0.05497,0.0847 -0.116224,0.16524 -0.173479,0.24841 -0.12186,0.16179 -0.25046,0.31837 -0.398302,0.45748 -0.135506,0.13099 -0.274611,0.2658 -0.456104,0.32951 -0.144039,0.0371 -0.283382,0.0387 -0.412851,-0.0448 -0.11689,-0.0815 -0.209703,-0.18499 -0.264559,-0.31825 -0.03244,-0.0833 -0.05985,-0.16849 -0.07923,-0.2558 0.202171,-0.0354 0.07518,-0.0116 0.01132,0.073 -0.107971,0.11169 -0.212891,0.22653 -0.32825,0.33081 -0.132458,0.11639 -0.266448,0.23358 -0.422859,0.31723 -0.131556,0.0636 -0.265663,0.10945 -0.411184,0.0624 -0.129035,-0.0547 -0.223941,-0.14605 -0.288576,-0.27142 -0.07056,-0.1401 -0.123385,-0.28867 -0.154887,-0.44257 -0.0071,-0.0343 -0.0588,-0.17959 -0.01013,-0.18778 0.07063,0.006 0.06178,-0.0214 0.0066,0.0345 -0.09032,0.0849 -0.17077,0.17902 -0.250147,0.27411 -0.111065,0.13082 -0.21993,0.26378 -0.338352,0.38809 -0.109289,0.10711 -0.225565,0.21277 -0.377291,0.25295 -0.126809,0.0219 -0.244925,0.008 -0.345397,-0.0798 -0.09612,-0.0983 -0.159147,-0.21644 -0.197427,-0.34873 -0.04362,-0.15121 -0.07942,-0.30516 -0.09335,-0.46227 -0.01138,-0.13146 -0.01656,-0.26317 -0.01836,-0.39509 -0.0021,-0.0463 -0.01849,-0.09 0.03875,-0.0787 0.03682,-0.004 -0.07136,0.0393 -0.07738,0.0538 -0.100991,0.0691 -0.196056,0.14643 -0.28621,0.22913 -0.07527,0.0714 -0.144283,0.1499 -0.227272,0.21283 -0.04676,0.0358 -0.09407,0.0715 -0.146367,0.0989 -0.04961,0.0211 -0.101129,0.0314 -0.154628,0.0372 -0.05949,0.008 -0.119026,0.0154 -0.17898,0.0188 -0.0883,0.005 -0.176795,0.006 -0.265182,0.008 -0.117189,7.7e-4 -0.234381,0.002 -0.351498,0.007 -0.189977,0.006 -0.379921,0.0138 -0.569894,0.0203 -0.38412,0.0129 -0.767832,0.0365 -1.151372,0.0608 -0.224009,-1e-5 -0.223991,-0.31681 1.9e-5,-0.3168 z"
       inkscape:connector-curvature="0" />
    <path
       style="opacity:1;fill:#000000;fill-opacity:1;stroke:none;stroke-width:0.52916664;stroke-linecap:round;stroke-miterlimit:4;stroke-dasharray:none;stroke-opacity:1"
       id="path5780"
       d="m 79.716488,266.5929 c 0.333219,0.10677 0.667282,0.21383 0.985848,0.35961 0.157266,0.0713 0.265726,0.14385 0.291079,0.32186 -0.0543,0.18777 -0.198255,0.28767 -0.338392,0.41046 -0.176323,0.14896 -0.345228,0.30669 -0.507402,0.4709 -0.13657,0.13339 -0.253024,0.28535 -0.383863,0.42384 -0.08418,0.0668 -0.01638,0.0578 -0.02909,-0.0383 -0.0026,-0.0196 -0.09892,-0.1119 -0.0917,0.0142 0.01482,0.002 0.0117,0.0231 -0.0031,0.0209 v 0 c -0.261956,0.16554 -0.240469,-0.16377 -0.124973,-0.30225 0.118981,-0.16421 0.264147,-0.30764 0.405953,-0.45189 0.171281,-0.16502 0.350644,-0.32044 0.534109,-0.47177 0.05403,-0.0455 0.285044,-0.30729 0.161499,-0.0715 0.06337,0.15257 0.100944,0.0739 -0.06377,0.004 -0.303933,-0.14586 -0.626973,-0.24598 -0.947926,-0.34691 -0.242937,-0.079 -0.131212,-0.42257 0.111729,-0.34357 z"
       inkscape:connector-curvature="0" />
    <path
       style="opacity:1;fill:#000000;fill-opacity:1;stroke:none;stroke-width:0.52916664;stroke-linecap:round;stroke-miterlimit:4;stroke-dasharray:none;stroke-opacity:1"
       id="path5782"
       d="m 86.660549,258.8989 c -0.05219,-0.32979 -0.09154,-0.67111 -0.239766,-0.97433 -0.05932,-0.10371 -0.103415,-0.0798 -0.192706,-0.031 -0.185775,0.11154 -0.32698,0.28069 -0.464116,0.4452 -0.153157,0.19969 -0.30103,0.41157 -0.384265,0.65126 -0.0965,0.24264 -0.143248,0.49797 -0.149501,0.75804 0.0037,0.16298 0.03901,0.32151 0.136518,0.45384 0.07815,0.0923 0.187166,0.12871 0.301662,0.1523 0.140231,0.0283 0.279603,0.0121 0.416993,-0.021 0.181875,-0.0524 0.348496,-0.14502 0.515094,-0.23276 0.161256,-0.0931 0.341966,-0.14753 0.49553,-0.25201 0.01252,-0.008 0.0241,0.01 0.01159,0.0177 v 0 c -0.127445,0.16247 -0.229902,0.34505 -0.400497,0.4698 -0.175938,0.13379 -0.360442,0.25654 -0.575448,0.31803 -0.178885,0.0428 -0.359984,0.0588 -0.541692,0.0194 -0.177638,-0.0426 -0.342889,-0.11068 -0.464309,-0.25369 -0.13461,-0.17941 -0.211117,-0.38196 -0.220427,-0.60809 -0.0067,-0.29579 0.03581,-0.58819 0.136636,-0.8675 0.131286,-0.31456 0.28244,-0.61754 0.510511,-0.87515 0.168881,-0.19827 0.346511,-0.39577 0.580429,-0.51848 0.239139,-0.0879 0.450467,-0.0546 0.598181,0.1703 0.173252,0.32941 0.231077,0.69907 0.289436,1.06326 0.08127,0.25446 -0.278585,0.36939 -0.359857,0.11494 z"
       inkscape:connector-curvature="0" />
    <path
       style="opacity:1;fill:#000000;fill-opacity:1;stroke:none;stroke-width:0.52916664;stroke-linecap:round;stroke-miterlimit:4;stroke-dasharray:none;stroke-opacity:1"
       id="path5784"
       d="m 86.23508,258.17174 c -0.109834,0.47778 -0.217141,0.95608 -0.315941,1.43627 -0.05957,0.26289 -0.0841,0.53482 -0.180801,0.78784 -0.01863,0.0635 -0.06302,0.10976 -0.09658,0.1641 0.01246,0.008 7.94e-4,0.0259 -0.01172,0.0176 v 0 c -0.104532,1.9e-4 -0.139499,-0.0566 -0.162941,-0.15491 -0.03501,-0.27226 0.05638,-0.54074 0.09945,-0.80733 0.100126,-0.48307 0.209084,-0.96418 0.319995,-1.44489 7.94e-4,-0.24645 0.349448,-0.24516 0.348538,0.001 z"
       inkscape:connector-curvature="0" />
    <path
       style="opacity:1;fill:#000000;fill-opacity:1;stroke:none;stroke-width:0.52916664;stroke-linecap:round;stroke-miterlimit:4;stroke-dasharray:none;stroke-opacity:1"
       id="path5786"
       d="m 89.968679,256.8214 c -0.197294,0.5231 -0.393811,1.04646 -0.596119,1.56765 -0.190892,0.48995 -0.384951,0.97882 -0.562827,1.4737 -0.148212,0.40162 -0.273405,0.81104 -0.39088,1.22251 -0.0615,0.22752 -0.11902,0.45539 -0.21277,0.67207 -0.01011,0.0747 -0.09708,0.10412 -0.121367,0.16495 0.0048,0.0142 -0.01532,0.0209 -0.02008,0.007 v 0 c -0.0384,-0.0536 -0.101711,-0.0696 -0.102679,-0.15107 -0.03196,-0.23534 0.01241,-0.46792 0.06581,-0.69749 0.104206,-0.42614 0.235149,-0.84455 0.384167,-1.2572 0.182579,-0.49727 0.369713,-0.99279 0.568899,-1.48369 0.206738,-0.51997 0.412706,-1.04022 0.610116,-1.56383 0.03229,-0.26709 0.410012,-0.22142 0.377717,0.0457 z"
       inkscape:connector-curvature="0" />
    <path
       style="opacity:1;fill:#000000;fill-opacity:1;stroke:none;stroke-width:0.52916664;stroke-linecap:round;stroke-miterlimit:4;stroke-dasharray:none;stroke-opacity:1"
       id="path5788"
       d="m 90.481794,258.52053 c -0.169969,0.42209 -0.315818,0.85281 -0.44572,1.28869 -0.07175,0.24697 -0.120655,0.49936 -0.169156,0.7516 -0.02545,-0.033 0.0013,0.1551 -0.02484,0.1226 -0.0052,-0.006 -0.0016,-0.0192 -0.0089,-0.0232 -0.07293,-0.0402 -0.150712,-0.071 -0.226068,-0.10646 0.07712,-0.15686 0.142515,-0.31922 0.206319,-0.48185 0.09223,-0.24986 0.178766,-0.50179 0.265682,-0.75353 0.110077,-0.32427 0.235048,-0.64307 0.364318,-0.96008 0.07419,-0.18194 0.14383,-0.36622 0.240286,-0.53783 0.06086,-0.16495 0.278839,-0.16622 0.356328,0.01 0.04824,0.12872 0.07273,0.26482 0.100782,0.39897 0.04401,0.19615 0.08499,0.39297 0.123415,0.59029 0.04437,0.21823 0.08678,0.43689 0.132564,0.65483 0.04768,0.19419 0.09373,0.38883 0.145672,0.582 0.03449,0.13075 0.08217,0.25761 0.114671,0.38886 0.01373,0.0591 0.01609,0.10758 -0.02869,0.14887 -0.0049,0.005 -0.0098,0.01 -0.01474,0.0145 0.07209,0.0843 -0.04706,0.1862 -0.11915,0.10195 v 0 c -0.008,4.2e-4 -0.01603,8.5e-4 -0.02402,0.001 -0.0648,-0.0151 -0.101235,-0.063 -0.122664,-0.12439 -0.04325,-0.12921 -0.0831,-0.2596 -0.121028,-0.39046 -0.05477,-0.20013 -0.104775,-0.40119 -0.135012,-0.60666 -0.04481,-0.21942 -0.08697,-0.43936 -0.128389,-0.65944 -0.03879,-0.19618 -0.07561,-0.39282 -0.119578,-0.58793 -0.02551,-0.12094 -0.04992,-0.2422 -0.07961,-0.3622 -0.0254,-0.0909 0.301914,-0.12661 0.155549,0.0492 -0.08532,0.16676 -0.151644,0.34205 -0.223822,0.51471 -0.107654,0.26425 -0.212974,0.52944 -0.304858,0.79969 -0.105606,0.3043 -0.206777,0.61027 -0.322054,0.91109 -0.0698,0.17454 -0.139107,0.35027 -0.231933,0.51417 -0.346755,0.009 -0.318604,0.0606 -0.299593,-0.18566 0.03359,-0.26714 0.09625,-0.5299 0.165235,-0.78983 0.144121,-0.49809 0.320489,-0.98575 0.511474,-1.46772 0.137218,-0.18917 0.404746,0.005 0.267525,0.19406 z"
       inkscape:connector-curvature="0" />
    <path
       style="opacity:1;fill:#000000;fill-opacity:1;stroke:none;stroke-width:0.52916664;stroke-linecap:round;stroke-miterlimit:4;stroke-dasharray:none;stroke-opacity:1"
       id="path5790"
       d="m 89.993479,259.7632 c 0.422981,-4.2e-4 0.8456,-0.0284 1.26856,-0.0241 0.166262,-0.0195 0.255236,0.0554 0.369237,0.15828 0.01495,6.9e-4 0.014,0.0218 -0.0011,0.0211 v 0 c -0.116954,0.1021 -0.209908,0.18896 -0.378617,0.18031 -0.42455,0.032 -0.851217,0.0241 -1.276516,0.0404 -0.265856,-0.0129 -0.247555,-0.38892 0.01831,-0.37598 z"
       inkscape:connector-curvature="0" />
    <path
       style="opacity:1;fill:#000000;fill-opacity:1;stroke:none;stroke-width:0.52916664;stroke-linecap:round;stroke-miterlimit:4;stroke-dasharray:none;stroke-opacity:1"
       id="path5794"
       d="m 88.371985,262.87322 c 0.01122,0.45939 0.03456,0.9183 0.05703,1.37723 0.01775,0.38732 0.04448,0.77413 0.06451,1.16133 0.02506,0.46122 0.03674,0.92298 0.04772,1.3847 0.0099,0.48636 0.0149,0.97283 0.01603,1.4593 0.0042,0.43895 -0.0016,0.87781 -0.01598,1.31652 -0.01736,0.39381 -0.03627,0.78757 -0.05204,1.18145 -0.0136,0.32569 -0.02331,0.65153 -0.03278,0.97736 -0.0058,0.19835 -0.01204,0.3968 -0.02297,0.59494 -0.01198,0.0734 0.0041,0.16621 -0.04523,0.2283 -0.02228,0.0187 -0.01008,0.0107 -0.03675,0.0238 0.03235,0.0714 -0.06864,0.11716 -0.100989,0.0457 v 0 c -0.03027,-0.004 -0.01611,2.6e-4 -0.04259,-0.0127 -0.04924,-0.0589 -0.04411,-0.13968 -0.05458,-0.2123 -0.01648,-0.19839 -0.01953,-0.39755 -0.0154,-0.59654 0.0043,-0.32719 0.007,-0.65445 0.02048,-0.98143 0.01434,-0.39392 0.0319,-0.78771 0.04852,-1.18153 0.01574,-0.43578 0.02225,-0.87169 0.01876,-1.30776 -0.0024,-0.48586 -0.0035,-0.97174 -0.01513,-1.45749 -0.01011,-0.45971 -0.02164,-0.91944 -0.04505,-1.37871 -0.02008,-0.38949 -0.04582,-0.77872 -0.05842,-1.16856 -0.01225,-0.46204 -0.02265,-0.92412 -0.0343,-1.38618 -0.04771,-0.21153 0.251431,-0.279 0.29914,-0.0675 z"
       inkscape:connector-curvature="0" />
    <path
       style="opacity:1;fill:#000000;fill-opacity:1;stroke:none;stroke-width:0.52916664;stroke-linecap:round;stroke-miterlimit:4;stroke-dasharray:none;stroke-opacity:1"
       id="path5796"
       d="m 87.469335,270.75859 c 0.171535,0.39054 0.346263,0.7797 0.526558,1.16628 0.07726,0.15584 0.142094,0.32113 0.250748,0.45867 0.02893,0.0303 0.05965,0.0602 0.100933,0.0381 0.0937,-0.058 0.161571,-0.14579 0.228444,-0.23139 0.129384,-0.16672 0.230201,-0.35199 0.32226,-0.54112 0.09919,-0.23991 0.164817,-0.49156 0.250082,-0.73663 0.04207,-0.13378 0.09815,-0.2622 0.154635,-0.39029 0.0054,-0.0139 0.02516,-0.006 0.01971,0.008 v 0 c 0.02093,0.15793 0.03993,0.31588 0.02453,0.47561 -0.02524,0.28617 -0.07839,0.56746 -0.208455,0.82673 -0.102433,0.20409 -0.217718,0.40211 -0.360839,0.5808 -0.104872,0.12681 -0.216614,0.25333 -0.379327,0.30298 -0.137459,0.0217 -0.254815,-0.0107 -0.354603,-0.11152 -0.131776,-0.14816 -0.215447,-0.32881 -0.298434,-0.50734 -0.179446,-0.38864 -0.351488,-0.78065 -0.529407,-1.16999 -0.119182,-0.179 0.133971,-0.34755 0.25315,-0.16854 z"
       inkscape:connector-curvature="0" />
    <path
       style="opacity:1;fill:#000000;fill-opacity:1;stroke:none;stroke-width:0.52916664;stroke-linecap:round;stroke-miterlimit:4;stroke-dasharray:none;stroke-opacity:1"
       id="path5808"
       d="m 87.394352,277.12985 c -0.116678,-0.27721 -0.227711,-0.56648 -0.421426,-0.80069 -0.04673,-0.0473 -0.05606,-0.0347 -0.102097,-0.01 -0.06562,0.036 -0.127214,0.0784 -0.187457,0.12262 -0.07551,0.057 -0.140036,0.12662 -0.20446,0.19544 -0.08125,0.083 -0.136877,0.18427 -0.191717,0.2854 -0.06991,0.13707 -0.135443,0.27599 -0.194918,0.41789 -0.06723,0.16433 -0.125931,0.33202 -0.179758,0.50116 -0.05348,0.18071 -0.104079,0.36242 -0.146518,0.54606 -0.03565,0.17423 -0.03743,0.20489 -0.05417,0.35043 -0.01254,0.13974 -0.02289,0.27969 -0.03288,0.41963 -0.0091,0.0951 -0.0038,0.18797 0.02926,0.27772 0.03214,0.0731 0.08166,0.1357 0.139086,0.19046 0.04718,0.0465 0.104764,0.0771 0.164738,0.10345 0.06697,0.0283 0.134149,0.0576 0.206748,0.0668 0.09233,-2.7e-4 0.175331,-0.0428 0.2556,-0.0838 0.149696,-0.0825 0.286224,-0.18596 0.424172,-0.28622 0.170247,-0.12958 0.328822,-0.27358 0.484476,-0.42012 0.100767,-0.11091 0.221438,-0.19968 0.33817,-0.29247 0.01056,-0.0106 0.02556,0.004 0.015,0.0149 v 0 c -0.05536,0.15508 -0.111514,0.30989 -0.216709,0.43975 -0.13417,0.18628 -0.282782,0.36088 -0.43896,0.52911 -0.137596,0.14618 -0.284308,0.2861 -0.462243,0.38259 -0.139433,0.0694 -0.285924,0.12405 -0.444558,0.11409 -0.105561,-0.0112 -0.206674,-0.0374 -0.304792,-0.0784 -0.09681,-0.0399 -0.189913,-0.0876 -0.268817,-0.15781 -0.09549,-0.0849 -0.181086,-0.17951 -0.238942,-0.29478 -0.06568,-0.13737 -0.101566,-0.28002 -0.09114,-0.43359 0.0085,-0.14512 0.02283,-0.28978 0.03387,-0.43472 0.02011,-0.20023 0.04882,-0.3998 0.09756,-0.59528 0.04948,-0.1919 0.102669,-0.38297 0.164608,-0.57125 0.06235,-0.17676 0.130501,-0.35137 0.209709,-0.52135 0.06991,-0.14958 0.143918,-0.29762 0.231749,-0.43764 0.07432,-0.11548 0.15753,-0.22445 0.255532,-0.32114 0.07914,-0.08 0.163666,-0.15419 0.257011,-0.21745 0.08144,-0.0557 0.165237,-0.10938 0.256828,-0.14702 0.162758,-0.053 0.310708,-0.0282 0.434999,0.097 0.217871,0.25557 0.347035,0.56919 0.47839,0.87505 0.122934,0.20926 -0.173003,0.38311 -0.295936,0.17385 z"
       inkscape:connector-curvature="0" />
    <path
       style="opacity:1;fill:#000000;fill-opacity:1;stroke:none;stroke-width:0.52916664;stroke-linecap:round;stroke-miterlimit:4;stroke-dasharray:none;stroke-opacity:1"
       id="path5810"
       d="m 87.182622,276.90365 c -0.182674,0.40468 -0.353137,0.81467 -0.50705,1.23113 -0.107268,0.27708 -0.172104,0.56653 -0.233423,0.85632 -0.05084,0.2386 -0.100256,0.47759 -0.156295,0.71503 -0.02665,0.0921 -0.03978,0.20711 -0.129122,0.26071 -0.07278,0.16829 -0.310782,0.0654 -0.238003,-0.10292 v 0 c -0.03498,-0.11264 -0.02737,-0.22117 7.93e-4,-0.33583 0.04939,-0.2392 0.104109,-0.47729 0.154311,-0.71633 0.06707,-0.30536 0.144809,-0.60842 0.26058,-0.8996 0.162338,-0.42058 0.337661,-0.83578 0.522708,-1.2469 0.168563,-0.2301 0.493982,0.008 0.325419,0.23839 z"
       inkscape:connector-curvature="0" />
    <path
       style="opacity:1;fill:#000000;fill-opacity:1;stroke:none;stroke-width:0.52916664;stroke-linecap:round;stroke-miterlimit:4;stroke-dasharray:none;stroke-opacity:1"
       id="path5812"
       d="m 90.836827,275.75735 c -0.213211,0.46736 -0.418957,0.93821 -0.615135,1.41297 -0.197075,0.47561 -0.370348,0.96052 -0.539321,1.44666 -0.168754,0.49298 -0.326454,0.98963 -0.481285,1.48712 -0.105712,0.3165 -0.174056,0.64638 -0.300644,0.95565 -0.06325,0.0699 -0.038,0.0293 -0.07266,0.12359 0.0043,0.0143 -0.01595,0.0204 -0.02027,0.006 v 0 c -0.05859,-0.0997 -0.02835,-0.0383 -0.07766,-0.1902 -0.05588,-0.36852 0.02689,-0.73492 0.11597,-1.09243 0.137408,-0.51164 0.296833,-1.0168 0.472035,-1.51677 0.172275,-0.49439 0.350972,-0.98683 0.555635,-1.46889 0.204137,-0.47498 0.415571,-0.94668 0.635437,-1.4146 0.177342,-0.23186 0.505238,0.0189 0.327895,0.2508 z"
       inkscape:connector-curvature="0" />
    <path
       style="opacity:1;fill:#000000;fill-opacity:1;stroke:none;stroke-width:0.52916664;stroke-linecap:round;stroke-miterlimit:4;stroke-dasharray:none;stroke-opacity:1"
       id="path5814"
       d="m 92.844221,276.93139 c -0.20987,0.49491 -0.403029,0.9968 -0.587748,1.50158 -0.151577,0.43194 -0.299072,0.86513 -0.462568,1.29276 -0.11085,0.24075 -0.194234,0.50615 -0.370097,0.70954 -0.07042,0.045 -0.04965,0.0162 -0.07505,0.0757 -0.0056,0.0139 -0.02524,0.006 -0.01961,-0.008 v 0 c -0.0048,-0.0798 0.0021,-0.0336 -0.03218,-0.13655 -0.01971,-0.29088 0.08162,-0.56992 0.159152,-0.84652 0.140182,-0.44145 0.284631,-0.88151 0.44468,-1.31625 0.190175,-0.51066 0.384122,-1.02008 0.599657,-1.5207 0.175649,-0.24307 0.519409,0.005 0.34376,0.24841 z"
       inkscape:connector-curvature="0" />
    <path
       style="opacity:1;fill:#000000;fill-opacity:1;stroke:none;stroke-width:0.52916664;stroke-linecap:round;stroke-miterlimit:4;stroke-dasharray:none;stroke-opacity:1"
       id="path5816"
       d="m 92.485049,277.12549 c 0.331309,-0.2086 0.656424,-0.43377 1.031013,-0.5561 0.213307,-0.0577 0.412133,-0.034 0.593145,0.0911 0.163978,0.14106 0.173432,0.32802 0.08682,0.52024 -0.113715,0.19973 -0.279191,0.36417 -0.438502,0.52764 -0.171331,0.17384 -0.351467,0.33883 -0.535053,0.49958 -0.169559,0.12786 -0.142034,0.19797 -0.114822,-0.0742 0.0971,0.0525 0.205264,0.0811 0.30743,0.12286 0.176361,0.0668 0.326689,0.17608 0.469572,0.29671 0.173752,0.15179 0.290169,0.34575 0.376955,0.55673 0.09202,0.23225 0.111297,0.46075 0.02955,0.6999 -0.09755,0.21691 -0.284287,0.34686 -0.491181,0.44821 -0.253743,0.1127 -0.520964,0.11201 -0.788812,0.0637 -0.238594,-0.0548 -0.449543,-0.17013 -0.623309,-0.34099 -0.155545,-0.16968 -0.171971,-0.35759 -0.03101,-0.53733 0.01122,-0.0231 0.02246,-0.0462 0.0337,-0.0692 0.0084,-0.0124 0.02593,-5.3e-4 0.01754,0.0119 v 0 c -0.008,0.0234 -0.01601,0.0469 -0.024,0.0703 0.07196,0.0717 0.142089,0.14409 0.224255,0.20493 0.146135,0.0973 0.305332,0.17215 0.475867,0.21625 0.190992,0.037 0.379095,0.0353 0.563999,-0.0332 0.124402,-0.0509 0.242879,-0.11358 0.299839,-0.24278 0.0058,-0.0163 0.01162,-0.0326 0.01744,-0.0489 0.0016,0.014 -0.0031,0.0534 0.0051,0.042 0.05483,-0.0762 0.0013,-0.23226 -0.0059,-0.31247 -0.0539,-0.17594 -0.140057,-0.33422 -0.272695,-0.46423 -0.115113,-0.10817 -0.238549,-0.20996 -0.38076,-0.28061 -0.121446,-0.0528 -0.252433,-0.0839 -0.365135,-0.15499 -0.103825,-0.34036 -0.105654,-0.25095 0.09504,-0.4485 0.176678,-0.15883 0.353485,-0.31785 0.51872,-0.48875 0.133067,-0.13926 0.275403,-0.2781 0.364967,-0.45071 0.02336,-0.0794 0.0013,-0.0171 0.01074,0.0201 0.0024,0.01 0.0268,-0.10346 -0.0052,-0.0838 -0.0918,-0.0928 -0.222062,-0.082 -0.340891,-0.0538 -0.352314,0.11381 -0.670118,0.30569 -0.981036,0.50361 -0.180297,0.0873 -0.303704,-0.16771 -0.123407,-0.25498 z"
       inkscape:connector-curvature="0" />
    <path
       style="opacity:1;fill:#000000;fill-opacity:1;stroke:none;stroke-width:0.52916664;stroke-linecap:round;stroke-miterlimit:4;stroke-dasharray:none;stroke-opacity:1"
       id="path5818"
       d="m 93.510204,264.74169 c -0.07859,0.54628 -0.146691,1.094 -0.213627,1.6418 -0.05965,0.47528 -0.117176,0.95083 -0.167958,1.42714 -0.01815,0.16206 -0.02952,0.3247 -0.03926,0.48743 -9.5e-5,0.005 0.0028,0.0181 -2.64e-4,0.0144 -0.0048,-0.006 -0.0038,-0.0143 -0.0056,-0.0214 -0.117528,-2e-4 -0.237374,0.0226 -0.352586,-6.1e-4 -2.65e-4,-6e-5 0.04895,-0.21413 0.05172,-0.22583 0.04547,-0.19996 0.100698,-0.39738 0.159187,-0.59385 0.07286,-0.26361 0.185906,-0.51184 0.304167,-0.75742 0.101063,-0.19871 0.228899,-0.3788 0.398124,-0.52418 0.148413,-0.11201 0.308293,-0.12465 0.475755,-0.053 0.155096,0.0881 0.24311,0.23616 0.303649,0.39849 0.05854,0.18578 0.02556,0.36781 -0.03557,0.54722 -0.08147,0.22083 -0.218315,0.40887 -0.368495,0.5871 -0.0969,0.11513 -0.206677,0.21822 -0.322432,0.31396 -0.03796,0.0149 -0.139922,0.0917 -0.04333,0.0363 0.05449,-0.17116 0.02299,-0.0461 0.03507,0.0122 0.02717,0.071 0.08409,0.12632 0.135541,0.18047 0.06868,0.0688 0.151143,0.11982 0.236244,0.1655 0.08401,0.0439 0.168886,0.086 0.258299,0.11775 0.09945,0.0286 0.187093,0.0885 0.270063,0.14863 0.02021,-9.6e-4 0.04042,-0.002 0.06063,-0.003 0.01482,-0.002 0.01773,0.0189 0.0029,0.021 v 0 c -0.01992,0.009 -0.03983,0.0177 -0.05974,0.0266 -0.101487,0.11033 -0.227497,0.1798 -0.381064,0.14429 -0.112628,-0.0296 -0.217691,-0.0775 -0.319468,-0.134 -0.112443,-0.0618 -0.219779,-0.13171 -0.310587,-0.22345 -0.08694,-0.0894 -0.16478,-0.18656 -0.213564,-0.30264 -0.04124,-0.13151 -0.04221,-0.24491 0.01749,-0.37329 0.04288,-0.0483 0.09402,-0.0764 0.144659,-0.11468 0.102081,-0.0838 0.19418,-0.17908 0.279873,-0.27938 0.09056,-0.11251 0.188725,-0.24865 0.244523,-0.3657 0.05105,-0.11509 0.09293,-0.23452 0.06838,-0.36208 -0.02384,-0.0928 -0.06462,-0.18044 -0.140661,-0.24229 -0.06208,-0.0343 -0.109175,-0.001 -0.158612,0.0435 -0.130217,0.13452 -0.219094,0.29944 -0.299194,0.46749 -0.08427,0.17605 -0.151341,0.36012 -0.209327,0.5463 -0.05583,0.19046 -0.110985,0.38127 -0.155139,0.57483 -0.01275,0.054 -0.253473,1.01466 -0.441229,0.29486 -0.003,-0.17207 0.01328,-0.34403 0.02884,-0.51516 0.0485,-0.47917 0.108006,-0.95712 0.16486,-1.43534 0.07042,-0.55057 0.136175,-1.10176 0.214783,-1.65125 -0.01339,-0.27081 0.369594,-0.28974 0.382979,-0.0189 z"
       inkscape:connector-curvature="0" />
    <path
       style="opacity:1;fill:#000000;fill-opacity:1;stroke:none;stroke-width:0.52916664;stroke-linecap:round;stroke-miterlimit:4;stroke-dasharray:none;stroke-opacity:1"
       id="path5820"
       d="m 96.383015,264.2673 c -0.132495,0.49509 -0.229576,0.99842 -0.310687,1.50416 -0.06168,0.41408 -0.105838,0.8304 -0.171828,1.24385 -0.01159,0.25791 -0.173895,0.49184 -0.165079,0.74579 0.0031,0.0146 -0.0176,0.019 -0.02069,0.004 v 0 c -0.0085,-0.23973 -0.160129,-0.46397 -0.12473,-0.7159 0.0037,-0.42312 0.04577,-0.84424 0.110545,-1.26234 0.08273,-0.51638 0.179589,-1.03072 0.312489,-1.53685 0.01193,-0.26162 0.381926,-0.24474 0.369991,0.0169 z"
       inkscape:connector-curvature="0" />
    <path
       style="opacity:1;fill:#000000;fill-opacity:1;stroke:none;stroke-width:0.52916664;stroke-linecap:round;stroke-miterlimit:4;stroke-dasharray:none;stroke-opacity:1"
       id="path5822"
       d="m 95.911028,268.79323 c -0.129099,0.27434 -0.253797,0.55251 -0.318482,0.8498 0.0063,0.10995 -0.02405,0.0633 2.65e-4,0.0519 0.103814,-0.027 0.18516,-0.0958 0.248004,-0.18 0.05341,-0.10551 0.05459,-0.11332 0.02905,-0.25569 -0.02816,-0.11482 -0.08743,-0.21655 -0.165775,-0.30397 -0.05954,-0.0583 -0.0222,-0.13289 -0.02535,-0.2065 -0.01492,0.001 -0.01659,-0.0199 -0.0016,-0.0211 v 0 c 0.07261,-0.11422 0.167421,-0.15126 0.281554,-0.0632 0.140425,0.1313 0.238429,0.29197 0.274982,0.48292 0.024,0.23533 -0.02185,0.45966 -0.185132,0.64117 -0.130159,0.12985 -0.279723,0.2359 -0.467117,0.2593 -0.230639,-0.007 -0.369837,-0.14484 -0.357994,-0.38232 0.04823,-0.39414 0.236024,-0.75352 0.391808,-1.11387 0.17076,-0.20919 0.466611,0.0323 0.295852,0.2415 z"
       inkscape:connector-curvature="0" />
    <path
       style="opacity:1;fill:#000000;fill-opacity:1;stroke:none;stroke-width:0.52916664;stroke-linecap:round;stroke-miterlimit:4;stroke-dasharray:none;stroke-opacity:1"
       id="path5824"
       d="m 59.850757,289.75229 c 0.126153,-0.3181 0.242316,-0.64511 0.275859,-0.98746 -0.01019,-0.0759 0.01482,-0.084 -0.04386,-0.17177 -0.02971,-0.0414 -0.07596,-0.0617 -0.121869,-0.08 -0.07591,-0.0263 -0.156274,-0.0326 -0.235831,-0.0379 -0.08828,-0.003 -0.175882,0.0107 -0.262935,0.0235 -0.08454,0.0113 -0.162581,0.043 -0.239583,0.0779 -0.08474,0.0438 -0.16432,0.0973 -0.241345,0.15346 -0.09435,0.0704 -0.183274,0.14819 -0.262895,0.23491 -0.109559,0.12903 -0.200795,0.2723 -0.292233,0.41437 -0.108138,0.17489 -0.21368,0.35143 -0.304784,0.53587 -0.07162,0.15203 -0.122542,0.31122 -0.153096,0.47618 -0.01696,0.14528 -0.0085,0.24503 0.01365,0.4026 0.02799,0.17121 0.08879,0.33418 0.162277,0.49052 0.07583,0.15531 0.191169,0.28296 0.317574,0.39849 0.136797,0.11803 0.292523,0.20944 0.456806,0.28311 0.151,0.0682 0.302638,0.0693 0.461406,0.0353 0.232821,-0.069 0.414378,-0.22898 0.590045,-0.38898 0.200618,-0.23547 0.479573,-0.38392 0.694201,-0.59992 0.0097,-0.0114 0.02582,0.002 0.01614,0.0137 v 0 c -0.116014,0.35661 -0.197186,0.63478 -0.490492,0.89632 -0.21944,0.19911 -0.455131,0.3852 -0.749311,0.45639 -0.224221,0.041 -0.441878,0.0347 -0.653783,-0.059 -0.194238,-0.0868 -0.380492,-0.19079 -0.543038,-0.32959 -0.159213,-0.14054 -0.305655,-0.29442 -0.406625,-0.48346 -0.09017,-0.18207 -0.16631,-0.37113 -0.20827,-0.57069 -0.0417,-0.2329 -0.05651,-0.47057 -0.0071,-0.70409 0.04479,-0.1892 0.106421,-0.37428 0.196596,-0.54716 0.100497,-0.19233 0.212651,-0.37807 0.332553,-0.55896 0.105153,-0.15572 0.208573,-0.31405 0.336179,-0.45271 0.09681,-0.0959 0.198559,-0.18666 0.309679,-0.26587 0.09613,-0.068 0.195614,-0.13159 0.303657,-0.17928 0.102846,-0.0421 0.208344,-0.0773 0.319074,-0.0916 0.109384,-0.0155 0.219565,-0.0245 0.329975,-0.0138 0.10572,0.009 0.2105,0.0262 0.312349,0.0569 0.101232,0.0341 0.197234,0.0782 0.268859,0.16075 0.128865,0.16159 0.154985,0.34357 0.124478,0.54929 -0.05733,0.36396 -0.17499,0.71337 -0.311822,1.05477 -0.135839,0.20684 -0.428347,0.0147 -0.292507,-0.1921 z"
       inkscape:connector-curvature="0" />
    <path
       style="opacity:1;fill:#000000;fill-opacity:1;stroke:none;stroke-width:0.52916664;stroke-linecap:round;stroke-miterlimit:4;stroke-dasharray:none;stroke-opacity:1"
       id="path5826"
       d="m 59.259307,289.22103 c -0.08087,0.48841 -0.131048,0.98104 -0.174046,1.474 -0.03039,0.38067 -0.04209,0.76235 -0.051,1.14401 -0.0096,0.15018 -0.01619,0.26979 -0.131866,0.37344 -0.01251,0.0107 -0.02503,0.0214 -0.03755,0.0321 0.01257,0.008 0.0011,0.0259 -0.01148,0.0178 v 0 c -0.02119,0.004 -0.0424,0.007 -0.06361,0.0111 -0.238276,-0.0553 -0.168537,-0.36887 -0.175043,-0.55145 0.0075,-0.38951 0.02635,-0.77875 0.05938,-1.16698 0.04486,-0.50186 0.103994,-1.00244 0.183496,-1.50007 0.117446,-0.28405 0.519158,-0.11796 0.401712,0.16609 z"
       inkscape:connector-curvature="0" />
    <path
       style="opacity:1;fill:#000000;fill-opacity:1;stroke:none;stroke-width:0.52916664;stroke-linecap:round;stroke-miterlimit:4;stroke-dasharray:none;stroke-opacity:1"
       id="path5838"
       d="m 67.072413,289.19759 c 0.494324,0.0501 0.991238,0.0574 1.487535,0.0467 0.421857,-0.0147 0.843399,-0.0368 1.265222,-0.0523 0.454935,-0.0195 0.910214,-0.023 1.365475,-0.0189 0.44646,0.009 0.892884,0.0197 1.339262,0.0319 0.425413,0.0133 0.850911,0.0227 1.276445,0.031 0.3907,0.007 0.781413,10e-4 1.171967,-0.01 0.343905,-0.0111 0.687499,-0.0267 1.031632,-0.0261 0.298992,-0.003 0.597037,0.0179 0.893939,0.0511 0.183761,0.022 0.366655,0.0539 0.544926,0.10396 0.07967,-0.003 0.09608,0.0754 0.145211,0.10504 0.01431,0.004 0.0082,0.0246 -0.0061,0.0203 v 0 c -0.055,-2.7e-4 -0.111294,0.0598 -0.175482,0.021 -0.176784,-0.0274 -0.354984,-0.044 -0.533607,-0.0539 -0.293012,-0.0121 -0.586393,-0.01 -0.879162,0.008 -0.343096,0.0188 -0.686385,0.0334 -1.029558,0.0508 -0.394745,0.0181 -0.789776,0.0307 -1.184994,0.0287 -0.427128,-2.4e-4 -0.854091,-0.0123 -1.28111,-0.0208 -0.444968,-0.0101 -0.889897,-0.0225 -1.334939,-0.0288 -0.45112,-0.003 -0.90223,10e-4 -1.352998,0.0211 -0.42351,0.0161 -0.846865,0.0369 -1.27056,0.0474 -0.506088,0.006 -1.012249,-0.004 -1.516489,-0.052 -0.215376,-0.0307 -0.171969,-0.33529 0.04341,-0.30459 z"
       inkscape:connector-curvature="0" />
    <path
       style="opacity:1;fill:#000000;fill-opacity:1;stroke:none;stroke-width:0.52916664;stroke-linecap:round;stroke-miterlimit:4;stroke-dasharray:none;stroke-opacity:1"
       id="path5840"
       d="m 76.466251,288.61932 c 0.396126,0.10821 0.791882,0.21762 1.185423,0.33492 0.163619,0.0442 0.32225,0.10263 0.476957,0.17132 0.286313,0.092 0.07387,0.35683 -0.108736,0.4607 -0.13988,0.0676 -0.283985,0.12607 -0.426773,0.18719 -0.143542,0.0578 -0.279567,0.13166 -0.412075,0.21111 -0.06279,0.038 -0.124817,0.0773 -0.178774,0.12712 -0.0083,0.0328 0.06089,-0.22692 0.01958,-0.12484 -0.03978,0.0597 -0.05428,0.1311 -0.08445,0.19574 0.0056,0.009 0.01117,0.0172 0.01677,0.0258 0.0094,0.0116 -0.007,0.0249 -0.01646,0.0133 v 0 c -0.0057,-0.009 -0.0114,-0.0174 -0.01709,-0.0262 -0.09167,0.003 -0.171831,-0.0209 -0.220692,-0.10427 -0.05081,-0.12405 -0.01818,-0.25252 0.07225,-0.34229 0.07524,-0.0662 0.16096,-0.1189 0.247523,-0.169 0.14912,-0.0842 0.30347,-0.15883 0.465204,-0.21583 0.13593,-0.0493 0.273151,-0.0947 0.409345,-0.1433 0.02595,-0.0106 0.07031,-0.062 0.07669,-0.0347 0.09225,0.39476 0.03468,0.22655 0.02336,0.21897 -0.135088,-0.0759 -0.289372,-0.10873 -0.434893,-0.1583 -0.391782,-0.11652 -0.786672,-0.22195 -1.182023,-0.32562 -0.213434,-0.0629 -0.124548,-0.36469 0.08889,-0.30185 z"
       inkscape:connector-curvature="0" />
    <path
       style="opacity:1;fill:#000000;fill-opacity:1;stroke:none;stroke-width:0.52916664;stroke-linecap:round;stroke-miterlimit:4;stroke-dasharray:none;stroke-opacity:1"
       id="path5844"
       d="m 84.849195,288.5644 c 0.01389,-0.36754 0.0044,-0.73856 -0.07742,-1.09823 -0.03127,-0.11187 -0.07658,-0.2158 -0.180885,-0.27344 -0.07087,-0.0326 -0.139218,-0.0146 -0.206259,0.0169 -0.129301,0.074 -0.230714,0.18158 -0.322918,0.29662 -0.134454,0.17335 -0.215704,0.37605 -0.287467,0.58111 -0.07278,0.2419 -0.123238,0.48934 -0.164973,0.73828 -0.04667,0.31807 -0.06255,0.63951 -0.07376,0.96044 -0.01024,0.30095 -0.01143,0.60198 0.0062,0.90262 0.01225,0.17543 0.03422,0.35086 0.08801,0.51873 0.02455,0.0711 0.05864,0.13655 0.12755,0.1712 0.07132,0.0321 0.143084,0.0307 0.217678,0.0143 0.141195,-0.0456 0.261432,-0.13532 0.380034,-0.22157 0.173128,-0.13368 0.341106,-0.2739 0.515768,-0.40557 0.106498,-0.0931 0.241478,-0.13075 0.35242,-0.21448 0.01214,-0.009 0.02453,0.008 0.01238,0.0172 v 0 c -0.08904,0.12053 -0.137663,0.26342 -0.234971,0.37975 -0.143029,0.18706 -0.302311,0.36209 -0.484892,0.5116 -0.149669,0.12086 -0.308406,0.23535 -0.498091,0.28285 -0.141809,0.0263 -0.281316,0.0222 -0.415412,-0.0368 -0.137591,-0.0716 -0.238011,-0.17524 -0.297055,-0.32085 -0.07561,-0.1924 -0.113859,-0.3946 -0.128437,-0.60076 -0.02064,-0.31041 -0.02233,-0.62127 -0.01177,-0.9322 0.01008,-0.33453 0.02233,-0.66973 0.06978,-1.00148 0.04942,-0.33091 0.117332,-0.66013 0.230817,-0.97564 0.09182,-0.23582 0.199041,-0.46671 0.363657,-0.66179 0.133178,-0.15037 0.279712,-0.29097 0.468473,-0.3687 0.163571,-0.0527 0.323184,-0.062 0.480021,0.0205 0.173315,0.10906 0.277558,0.26634 0.331734,0.46452 0.09333,0.38674 0.09705,0.78385 0.08376,1.18001 0.03886,0.2432 -0.305081,0.29817 -0.343945,0.055 z"
       inkscape:connector-curvature="0" />
    <path
       style="opacity:1;fill:#000000;fill-opacity:1;stroke:none;stroke-width:0.52916664;stroke-linecap:round;stroke-miterlimit:4;stroke-dasharray:none;stroke-opacity:1"
       id="path5846"
       d="m 87.132264,289.46723 c -0.403881,0.1756 -0.774361,0.41401 -1.096055,0.71398 -0.03614,0.0397 -0.07426,0.0778 -0.108413,0.11921 -0.07847,0.0953 -0.146436,0.20435 -0.191609,0.31956 -0.04607,0.1175 -0.04394,0.1114 -0.01778,0.0759 -0.0302,0.1169 -0.007,0.21003 0.0693,0.3 0.09368,0.0935 0.217427,0.10203 0.342474,0.0928 0.18777,-0.0236 0.351777,-0.11436 0.503055,-0.22283 0.172389,-0.13323 0.296905,-0.31161 0.408697,-0.49589 0.09808,-0.16801 0.158991,-0.35139 0.204216,-0.5393 0.01773,-0.10873 0.04968,-0.22886 0.0132,-0.33738 0.009,0.0286 0.113091,0.0414 0.178811,0.0342 0.01058,-0.0205 0.01572,-0.0449 0.03172,-0.0615 0.02387,-0.0248 -0.01561,0.0672 -0.01915,0.10146 -0.01021,0.0988 -0.0061,0.19638 -0.0021,0.29534 0.01405,0.25572 0.07772,0.50374 0.156646,0.74613 0.06334,0.18798 0.160894,0.36044 0.282581,0.51628 0.08214,0.10268 0.17018,0.18693 0.287975,0.24529 0.0149,-0.002 0.01696,0.0196 0.0021,0.0211 v 0 c -0.169051,0.12369 -0.346258,0.0913 -0.498237,-0.0487 -0.160653,-0.16924 -0.279858,-0.36618 -0.356555,-0.58744 -0.09183,-0.2641 -0.163328,-0.53533 -0.184817,-0.8152 -0.01318,-0.2165 -0.03178,-0.43691 0.06953,-0.63608 0.120187,-0.12236 0.286798,-0.10237 0.335852,0.0649 0.0342,0.1508 0.01455,0.30711 -0.01127,0.45792 -0.05649,0.26012 -0.146679,0.51286 -0.280998,0.74339 -0.131241,0.21204 -0.279844,0.41441 -0.482438,0.56436 -0.191522,0.13064 -0.398148,0.23832 -0.629857,0.27519 -0.215114,0.0202 -0.419767,-0.004 -0.59092,-0.14844 -0.155131,-0.15521 -0.24602,-0.33574 -0.218962,-0.5612 0.08825,-0.33275 0.232654,-0.6179 0.496182,-0.85023 0.358095,-0.31347 0.760827,-0.56368 1.201322,-0.74647 0.257209,-0.0746 0.362743,0.28913 0.105531,0.36375 z"
       inkscape:connector-curvature="0" />
    <path
       style="opacity:1;fill:#000000;fill-opacity:1;stroke:none;stroke-width:0.52916664;stroke-linecap:round;stroke-miterlimit:4;stroke-dasharray:none;stroke-opacity:1"
       id="path5848"
       d="m 89.09942,287.76473 c -0.04741,0.47316 -0.06913,0.94846 -0.06447,1.42388 0.007,0.35909 0.04972,0.71622 0.09147,1.07258 0.02238,0.23805 0.06886,0.47201 0.113485,0.70645 0.0024,0.0971 0.05455,0.20308 0.02228,0.29881 -0.0048,0.007 -0.0095,0.0145 -0.01429,0.0217 0.05933,0.0432 -0.0019,0.1271 -0.06109,0.0839 v 0 c -0.01349,-10e-6 -0.02696,-2e-5 -0.04044,-4e-5 -0.116102,-0.0407 -0.1593,-0.16356 -0.20733,-0.26748 -0.08248,-0.23729 -0.128503,-0.48531 -0.16488,-0.73342 -0.04724,-0.36712 -0.0887,-0.73565 -0.100566,-1.10585 -0.0061,-0.48904 0.01672,-0.97767 0.06848,-1.46415 -0.02577,-0.25268 0.331584,-0.28912 0.357349,-0.0364 z"
       inkscape:connector-curvature="0" />
    <path
       style="opacity:1;fill:#000000;fill-opacity:1;stroke:none;stroke-width:0.52916664;stroke-linecap:round;stroke-miterlimit:4;stroke-dasharray:none;stroke-opacity:1"
       id="path5850"
       d="m 88.057409,289.7658 c 0.423455,0.021 0.847119,0.021 1.270074,-0.008 0.253394,-0.0247 0.503586,-0.0591 0.756197,-0.0161 0.03718,0.0123 0.07437,0.0246 0.111557,0.037 0.01458,-0.003 0.01939,0.0172 0.0048,0.0206 v 0 c -0.02872,0.0353 -0.05744,0.0705 -0.08616,0.10581 -0.229891,0.17931 -0.496649,0.23584 -0.785542,0.24748 -0.434639,0.0261 -0.869953,0.0228 -1.304867,0.002 -0.275249,-0.024 -0.241332,-0.41325 0.03392,-0.38926 z"
       inkscape:connector-curvature="0" />
  </g>
</svg>
