<?xml version="1.0" encoding="UTF-8" standalone="no"?>
<!-- Created with Inkscape (http://www.inkscape.org/) -->

<svg
   xmlns:dc="http://purl.org/dc/elements/1.1/"
   xmlns:cc="http://creativecommons.org/ns#"
   xmlns:rdf="http://www.w3.org/1999/02/22-rdf-syntax-ns#"
   xmlns:svg="http://www.w3.org/2000/svg"
   xmlns="http://www.w3.org/2000/svg"
   xmlns:sodipodi="http://sodipodi.sourceforge.net/DTD/sodipodi-0.dtd"
   xmlns:inkscape="http://www.inkscape.org/namespaces/inkscape"
   width="152.39999mm"
   height="33mm"
   viewBox="0 0 152.39999 33"
   version="1.1"
   id="svg8"
   inkscape:version="0.92.1 unknown"
   sodipodi:docname="slice-category.svg">
  <defs
     id="defs2" />
  <sodipodi:namedview
     id="base"
     pagecolor="#ffffff"
     bordercolor="#666666"
     borderopacity="1.0"
     inkscape:pageopacity="0.0"
     inkscape:pageshadow="2"
     inkscape:zoom="1.979899"
     inkscape:cx="300.13888"
     inkscape:cy="105.51323"
     inkscape:document-units="mm"
     inkscape:current-layer="layer1"
     showgrid="false" />
  <metadata
     id="metadata5">
    <rdf:RDF>
      <cc:Work
         rdf:about="">
        <dc:format>image/svg+xml</dc:format>
        <dc:type
           rdf:resource="http://purl.org/dc/dcmitype/StillImage" />
        <dc:title></dc:title>
      </cc:Work>
    </rdf:RDF>
  </metadata>
  <g
     inkscape:label="Layer 1"
     inkscape:groupmode="layer"
     id="layer1"
     transform="translate(0,-264)">
    <path
       style="opacity:1;fill:#000000;fill-opacity:1;stroke:none;stroke-width:0.52916664;stroke-linecap:round;stroke-miterlimit:4;stroke-dasharray:none;stroke-opacity:1"
       id="path5204"
       d="m 49.979262,272.64558 c 0.206168,0.58821 0.499351,1.1392 0.80318,1.68147 0.260506,0.44969 0.541432,0.88705 0.815813,1.3283 0.127736,0.12039 0.203258,0.52814 0.35809,0.58748 0.01069,0.003 0.0058,0.0186 -0.0049,0.0151 v 0 c -0.04492,-0.0174 -0.09453,-0.0209 -0.139226,-0.0389 -0.175239,-0.0706 -0.300808,-0.23535 -0.418772,-0.37295 -0.314315,-0.42283 -0.601872,-0.8644 -0.862904,-1.32222 -0.313188,-0.55671 -0.614709,-1.12331 -0.827866,-1.72721 -0.106854,-0.19557 0.16972,-0.34668 0.276575,-0.15111 z"
       inkscape:connector-curvature="0" />
    <path
       style="opacity:1;fill:#000000;fill-opacity:1;stroke:none;stroke-width:0.52916664;stroke-linecap:round;stroke-miterlimit:4;stroke-dasharray:none;stroke-opacity:1"
       id="path5206"
       d="m 51.71064,272.75496 c -0.368914,0.44371 -0.687695,0.92548 -0.99128,1.41526 -0.304448,0.49841 -0.573535,1.01711 -0.832287,1.54034 -0.150381,0.27425 -0.247147,0.58507 -0.455626,0.82322 -0.0011,0.0176 -0.0021,0.0351 -0.0032,0.0527 0.0039,0.0105 -0.01098,0.016 -0.0149,0.006 v 0 c -0.0068,-0.0243 -0.01352,-0.0485 -0.02029,-0.0728 -0.103447,-0.35281 0.08357,-0.6975 0.22144,-1.01649 0.259551,-0.53488 0.538996,-1.0605 0.850612,-1.56707 0.314722,-0.49925 0.642181,-0.99181 1.027493,-1.4403 0.183608,-0.15415 0.401603,0.10551 0.217996,0.25966 z"
       inkscape:connector-curvature="0" />
    <path
       style="opacity:1;fill:#000000;fill-opacity:1;stroke:none;stroke-width:0.52916664;stroke-linecap:round;stroke-miterlimit:4;stroke-dasharray:none;stroke-opacity:1"
       id="path5222"
       d="m 55.047819,275.81284 c 0.264525,0.32868 0.533056,0.65413 0.806341,0.97557 0.191371,0.228 0.39651,0.44382 0.604166,0.65691 0.244755,0.25324 0.491101,0.50493 0.742518,0.75157 0.312076,0.30888 0.637244,0.6037 0.967521,0.89285 0.400219,0.34797 0.806987,0.6883 1.212998,1.02947 0.434819,0.37362 0.887193,0.72548 1.34743,1.06699 0.434594,0.32165 0.878308,0.63084 1.302115,0.96676 0.06823,0.0459 0.13647,0.0918 0.204703,0.13778 0.0097,0.006 0.0016,0.0194 -0.008,0.0137 v 0 c -0.07305,-0.038 -0.146103,-0.076 -0.219152,-0.11402 -0.495694,-0.22671 -0.959239,-0.51185 -1.398804,-0.83425 -0.466206,-0.34011 -0.921303,-0.69491 -1.359342,-1.07083 -0.407318,-0.34186 -0.814348,-0.68413 -1.216279,-1.03233 -0.332838,-0.29166 -0.66108,-0.58867 -0.973987,-0.90183 -0.250065,-0.24976 -0.498453,-0.50116 -0.744365,-0.75503 -0.209238,-0.21745 -0.414234,-0.43853 -0.607536,-0.67046 -0.273138,-0.32285 -0.540523,-0.65047 -0.808604,-0.97753 -0.09569,-0.10485 0.0526,-0.24018 0.148286,-0.13532 z"
       inkscape:connector-curvature="0" />
    <path
       style="opacity:1;fill:#000000;fill-opacity:1;stroke:none;stroke-width:0.52916664;stroke-linecap:round;stroke-miterlimit:4;stroke-dasharray:none;stroke-opacity:1"
       id="path5224"
       d="m 62.33723,281.42865 c 0.198302,0.38201 0.42105,0.75017 0.663445,1.1056 0.08751,0.12314 0.175564,0.24703 0.283363,0.3535 0.0043,0.005 0.01733,0.009 0.01283,0.0138 -0.299368,0.29363 -0.216326,0.20194 -0.526209,0.0648 -0.198128,-0.0889 -0.406884,-0.14714 -0.61821,-0.19437 -0.144451,-0.0315 -0.29157,-0.046 -0.439089,-0.051 -0.117676,0.0113 -0.03543,-0.1298 -0.09486,-0.0446 0.004,0.0105 -0.0108,0.0162 -0.01482,0.006 v 0 c -0.130469,-0.10352 0.0024,-0.23121 0.121147,-0.24744 0.169839,-0.0171 0.339117,0.008 0.505373,0.043 0.227441,0.0513 0.450427,0.12034 0.663675,0.2155 0.0347,0.0155 0.313481,0.14761 0.312712,0.15174 -0.0181,0.0971 -0.081,0.18009 -0.12151,0.27013 -0.0028,-0.003 -0.0056,-0.007 -0.0084,-0.01 -0.108616,-0.12348 -0.214765,-0.24924 -0.30734,-0.38549 -0.24747,-0.36304 -0.472405,-0.74027 -0.679833,-1.12763 -0.115457,-0.17515 0.132246,-0.33843 0.247703,-0.16328 z"
       inkscape:connector-curvature="0" />
    <path
       style="opacity:1;fill:#000000;fill-opacity:1;stroke:none;stroke-width:0.52916664;stroke-linecap:round;stroke-miterlimit:4;stroke-dasharray:none;stroke-opacity:1"
       id="path5230"
       d="m 65.355625,283.64392 c -0.110178,0.48962 -0.217752,0.97975 -0.334338,1.46791 -0.08056,0.343 -0.170812,0.68361 -0.25464,1.0258 -0.03306,0.13867 -0.06364,0.27806 -0.105037,0.41456 -0.346295,0.0152 -0.128625,-0.26446 -0.07829,-0.40346 0.105347,-0.26348 0.178869,-0.53784 0.248722,-0.81237 0.0858,-0.3532 0.173805,-0.70561 0.27881,-1.05364 0.08437,-0.27816 0.194421,-0.54566 0.336624,-0.79882 0.08889,-0.14092 0.191249,-0.207 0.350425,-0.13054 0.134596,0.13972 0.176998,0.34141 0.225232,0.52358 0.07062,0.29759 0.127312,0.5983 0.180067,0.8995 0.05295,0.31197 0.104566,0.62417 0.156239,0.93636 0.04329,0.27757 0.09159,0.55426 0.143841,0.83027 0.02661,0.13847 0.06596,0.27364 0.08778,0.41297 0.0136,0.0495 1.06e-4,0.079 0.06026,0.0722 0.01122,-4.5e-4 0.01185,0.0154 5.29e-4,0.0159 v 0 c -0.06141,0.008 -0.104825,0.0497 -0.168243,0.02 -0.157266,-0.0865 -0.203695,-0.2541 -0.247224,-0.4191 -0.06618,-0.27732 -0.112406,-0.55845 -0.156927,-0.83996 -0.05077,-0.31229 -0.102254,-0.62448 -0.155001,-0.93644 -0.05005,-0.29501 -0.105376,-0.5892 -0.171413,-0.88109 -0.03396,-0.13462 -0.07532,-0.2706 -0.119121,-0.40009 0.104061,0.0146 0.08245,-0.0425 0.0088,0.0845 -0.108797,0.19968 -0.188828,0.41355 -0.259728,0.62977 -0.107709,0.3434 -0.194173,0.69257 -0.277543,1.04258 -0.07264,0.28353 -0.145386,0.56777 -0.252095,0.84087 -0.0083,0.02 -0.179861,0.42661 -0.203277,0.42884 -0.08877,0.008 -0.17727,-0.0228 -0.263837,-0.0442 -0.0067,-0.002 0.0013,-0.0137 0.0021,-0.0205 0.02387,-0.14011 0.05537,-0.27882 0.08658,-0.41743 0.08138,-0.3425 0.172563,-0.68257 0.256053,-1.02456 0.117157,-0.48745 0.227549,-0.97642 0.33352,-1.46643 0.0021,-0.20583 0.293336,-0.20266 0.291092,0.003 z"
       inkscape:connector-curvature="0" />
    <path
       style="opacity:1;fill:#000000;fill-opacity:1;stroke:none;stroke-width:0.52916664;stroke-linecap:round;stroke-miterlimit:4;stroke-dasharray:none;stroke-opacity:1"
       id="path5232"
       d="m 64.811605,285.48187 c 0.440997,0.0101 0.883049,-0.0222 1.322636,0.0217 0.153702,0.0253 0.224189,0.0972 0.380018,0.0931 0.01122,10e-5 0.01109,0.016 -1.29e-4,0.0159 v 0 c -0.146656,0.0176 -0.246034,0.10126 -0.391994,0.1311 -0.441605,0.0633 -0.888754,0.04 -1.333653,0.0464 -0.21789,-0.0163 -0.194768,-0.32449 0.02312,-0.30814 z"
       inkscape:connector-curvature="0" />
    <path
       style="opacity:1;fill:#000000;fill-opacity:1;stroke:none;stroke-width:0.52916664;stroke-linecap:round;stroke-miterlimit:4;stroke-dasharray:none;stroke-opacity:1"
       id="path5240"
       d="m 73.93728,271.07423 c 0.117623,0.45604 0.236344,0.9118 0.356415,1.3672 0.06051,0.23634 0.12733,0.47092 0.195225,0.7052 0.04349,0.10184 0.02043,0.21717 0.07318,0.31396 0.01035,0.004 0.0042,0.019 -0.0061,0.0147 v 0 c -0.157533,0.0246 -0.269505,-0.0443 -0.341302,-0.18629 -0.113448,-0.22768 -0.182806,-0.4726 -0.246552,-0.71817 -0.118856,-0.45623 -0.235135,-0.91313 -0.356693,-1.36865 -0.09044,-0.2304 0.235395,-0.3583 0.325837,-0.1279 z"
       inkscape:connector-curvature="0" />
    <path
       style="opacity:1;fill:#000000;fill-opacity:1;stroke:none;stroke-width:0.52916664;stroke-linecap:round;stroke-miterlimit:4;stroke-dasharray:none;stroke-opacity:1"
       id="path5242"
       d="m 75.771752,271.09467 c -0.173918,0.48094 -0.365926,0.95497 -0.557982,1.42886 -0.14977,0.37743 -0.308324,0.75117 -0.478557,1.1198 -0.152937,0.32887 -0.316852,0.65245 -0.486643,0.97288 -0.135546,0.24412 -0.268605,0.49017 -0.423564,0.72265 -0.06623,0.0908 -0.04924,0.0442 -0.06425,0.13449 0.0026,0.0109 -0.01286,0.0146 -0.01545,0.004 v 0 c -0.02714,-0.0894 -0.01058,-0.0413 -0.05174,-0.14351 -0.02474,-0.2826 0.09146,-0.54416 0.208082,-0.79631 0.154403,-0.32329 0.315865,-0.6431 0.470437,-0.96629 0.170156,-0.36521 0.330526,-0.73477 0.484344,-1.10716 0.197694,-0.47081 0.398462,-0.94045 0.581064,-1.41741 0.03418,-0.23635 0.368443,-0.18801 0.334262,0.0484 z"
       inkscape:connector-curvature="0" />
    <path
       style="opacity:1;fill:#000000;fill-opacity:1;stroke:none;stroke-width:0.52916664;stroke-linecap:round;stroke-miterlimit:4;stroke-dasharray:none;stroke-opacity:1"
       id="path5248"
       d="m 72.550927,276.15022 c -0.264002,0.45283 -0.532588,0.9027 -0.825059,1.33778 -0.292899,0.42555 -0.623691,0.82308 -0.954852,1.21896 -0.351475,0.41933 -0.701497,0.83986 -1.049514,1.26207 -0.328494,0.39419 -0.657035,0.78836 -0.975784,1.19049 -0.183528,0.23965 -0.370244,0.4794 -0.508024,0.74905 -0.04216,0.0927 -0.0684,0.19542 -0.09423,0.29536 -0.03159,0.14712 -0.111755,0.27345 -0.195313,0.39587 -0.06881,0.0779 -0.03868,0.0371 -0.09128,0.12155 -0.0067,0.009 -0.01945,-4e-4 -0.01275,-0.009 v 0 c 0.01363,-0.0781 0.01196,-0.0376 0.0028,-0.12161 0.0021,-0.125 0.0024,-0.25026 0.01826,-0.37453 0.01524,-0.18181 0.03635,-0.35725 0.12955,-0.51979 0.148093,-0.2846 0.34503,-0.53876 0.542399,-0.7906 0.322056,-0.40263 0.652663,-0.7983 0.987456,-1.19039 0.355786,-0.41504 0.708999,-0.83228 1.065493,-1.24672 0.32911,-0.38506 0.658088,-0.77162 0.947968,-1.18768 0.2643,-0.39342 0.510976,-0.79796 0.753306,-1.20522 0.05292,-0.18357 0.312531,-0.10873 0.259609,0.0748 z"
       inkscape:connector-curvature="0" />
    <path
       style="opacity:1;fill:#000000;fill-opacity:1;stroke:none;stroke-width:0.52916664;stroke-linecap:round;stroke-miterlimit:4;stroke-dasharray:none;stroke-opacity:1"
       id="path5250"
       d="m 67.803947,281.47317 c -0.02819,0.40884 -0.06579,0.81694 -0.111046,1.22422 -0.02296,0.0259 -0.01381,0.37982 -0.04953,0.29992 0.0088,-0.0563 -0.0568,-0.0312 -0.07259,-0.0578 -7.94e-4,-10e-4 0.182295,-0.11098 0.185552,-0.11301 0.21472,-0.13898 0.433962,-0.27046 0.657786,-0.39419 0.205692,-0.11641 0.418325,-0.21496 0.649658,-0.26546 0.101028,-0.0314 0.199895,-0.0298 0.303572,-0.0216 0.0109,-0.003 0.01463,0.0128 0.0037,0.0154 v 0 c -0.0779,0.0732 -0.157257,0.14277 -0.250415,0.19668 -0.189666,0.1356 -0.392136,0.24972 -0.597151,0.36046 -0.220218,0.12389 -0.43534,0.25617 -0.648189,0.39231 -0.155062,0.0924 -0.31872,0.20654 -0.481666,0.0666 -0.07443,-0.14269 -0.02877,-0.29464 -0.01273,-0.44905 0.04705,-0.40227 0.08625,-0.80547 0.112295,-1.20968 -0.0317,-0.21973 0.279048,-0.26456 0.310745,-0.0448 z"
       inkscape:connector-curvature="0" />
    <path
       style="opacity:1;fill:#000000;fill-opacity:1;stroke:none;stroke-width:0.52916664;stroke-linecap:round;stroke-miterlimit:4;stroke-dasharray:none;stroke-opacity:1"
       id="path5252"
       d="m 59.16822,273.78028 c 0.537776,-0.29943 1.101955,-0.5437 1.677537,-0.75957 0.638673,-0.22848 1.295922,-0.39892 1.953266,-0.56374 0.704834,-0.18195 1.420661,-0.31065 2.141926,-0.40522 0.70544,-0.0872 1.415799,-0.11987 2.126139,-0.12087 0.473136,0.002 0.945256,0.0393 1.409081,0.13331 0.17373,0.0497 0.376724,0.0818 0.509579,0.21525 0.01926,0.048 0.0054,0.0325 0.03116,0.0543 0.01101,0.002 0.0078,0.0178 -0.0032,0.0156 v 0 c -0.03766,0.0111 -0.01582,0.003 -0.06288,0.0318 -0.179129,0.0292 -0.357606,-0.047 -0.534189,-0.0666 -0.452787,-0.0768 -0.910262,-0.12071 -1.370055,-0.11706 -0.700799,0.002 -1.401455,0.0332 -2.09723,0.1217 -0.712549,0.0946 -1.419831,0.22282 -2.115931,0.40405 -0.64856,0.16418 -1.296903,0.33439 -1.927146,0.56055 -0.565263,0.21294 -1.119375,0.45433 -1.646012,0.75181 -0.180417,0.0651 -0.272503,-0.19003 -0.09209,-0.25514 z"
       inkscape:connector-curvature="0" />
    <path
       style="opacity:1;fill:#000000;fill-opacity:1;stroke:none;stroke-width:0.52916664;stroke-linecap:round;stroke-miterlimit:4;stroke-dasharray:none;stroke-opacity:1"
       id="path5254"
       d="m 68.686272,271.24253 c 0.437359,0.14107 0.876112,0.2775 1.311616,0.42424 0.222425,0.0688 0.435798,0.16257 0.65424,0.24202 0.312148,0.14819 0.06322,0.36274 -0.121282,0.47255 -0.28334,0.1639 -0.579575,0.30388 -0.875146,0.44395 -0.228735,0.0954 -0.441032,0.23 -0.674257,0.31446 -0.107733,0.0466 -0.03057,-0.0102 -0.07919,-0.0369 -0.01545,-0.008 -0.04114,0.007 -0.04749,0.0232 -0.0048,0.0125 0.01807,0.0197 0.0271,0.0296 0.0084,0.007 -0.0021,0.0193 -0.01056,0.0119 v 0 c -0.0324,-0.0284 -0.09186,-0.0325 -0.106656,-0.073 -0.03155,-0.0862 0.04266,-0.18649 0.09484,-0.24308 0.196395,-0.18018 0.449382,-0.27501 0.68571,-0.39114 0.288645,-0.13515 0.579033,-0.26663 0.866982,-0.40319 0.03477,-0.0184 0.10854,-0.0967 0.102954,-0.0578 -0.0061,0.0423 -0.04645,0.0771 -0.0453,0.11981 0.0011,0.0364 0.07803,0.12113 0.06639,0.0866 -0.0031,-0.009 -0.01421,-0.0136 -0.02133,-0.0203 -0.184856,-0.12233 -0.415663,-0.16136 -0.616844,-0.24829 -0.4343,-0.14875 -0.87199,-0.28717 -1.310127,-0.42415 -0.191304,-0.0696 -0.09294,-0.3401 0.09836,-0.27055 z"
       inkscape:connector-curvature="0" />
    <path
       style="opacity:1;fill:#000000;fill-opacity:1;stroke:none;stroke-width:0.52916664;stroke-linecap:round;stroke-miterlimit:4;stroke-dasharray:none;stroke-opacity:1"
       id="path5256"
       d="m 64.485112,274.40899 c -0.311452,0.41127 -0.621464,0.82358 -0.947351,1.22358 -0.212837,0.25851 -0.439547,0.50621 -0.694606,0.72366 -0.146807,0.1492 -0.403148,0.16261 -0.360283,-0.1525 0.04504,-0.19589 0.120597,-0.38328 0.192585,-0.57047 0.07272,-0.19688 0.152659,-0.39114 0.267687,-0.56734 0.0794,-0.11057 0.181509,-0.1901 0.310552,-0.23173 0.141907,-0.0279 0.263967,0.0376 0.380124,0.11067 0.14755,0.094 0.274042,0.21433 0.395939,0.3387 0.146812,0.15416 0.286117,0.31521 0.42882,0.47313 0.09629,0.10964 0.201055,0.21277 0.281586,0.33501 0.02437,0.0434 0.0547,0.0822 0.08648,0.12028 0.01103,0.002 0.0081,0.0177 -0.0029,0.0156 v 0 c -0.06162,0.0293 -0.116618,0.0482 -0.186529,0.037 -0.167203,-0.0407 -0.282273,-0.16169 -0.393766,-0.28742 -0.141766,-0.15548 -0.279469,-0.31467 -0.42341,-0.46818 -0.106077,-0.11282 -0.216786,-0.22237 -0.344093,-0.31146 -0.05054,-0.0346 -0.106971,-0.081 -0.170926,-0.0823 -0.0753,0.0198 -0.12418,0.0869 -0.165577,0.14843 -0.07544,0.12835 -0.13454,0.26399 -0.184491,0.40436 -0.06456,0.17158 -0.132733,0.34274 -0.178033,0.52066 -0.0028,0.0142 0.0059,0.0451 -0.0083,0.0425 -0.06137,-0.0112 -0.113004,-0.0532 -0.171347,-0.0752 -0.006,-0.002 -0.01704,0.009 -0.0191,0.003 -0.0063,-0.0189 0.112152,-0.0641 0.10133,-0.0841 0.240819,-0.20954 0.456978,-0.44461 0.659194,-0.69144 0.321992,-0.39922 0.633381,-0.80681 0.93817,-1.21932 0.173003,-0.14725 0.381254,0.0974 0.208253,0.24467 z"
       inkscape:connector-curvature="0" />
    <path
       style="opacity:1;fill:#000000;fill-opacity:1;stroke:none;stroke-width:0.52916664;stroke-linecap:round;stroke-miterlimit:4;stroke-dasharray:none;stroke-opacity:1"
       id="path5258"
       d="m 65.862705,275.43924 c -0.01598,0.41 -0.135401,0.80943 -0.168482,1.21572 0.0024,0.011 -0.01326,0.0142 -0.01553,0.003 v 0 c -0.04932,-0.39353 -0.144505,-0.7823 -0.09922,-1.1845 -0.02434,-0.20029 0.258895,-0.23472 0.283245,-0.0344 z"
       inkscape:connector-curvature="0" />
    <path
       style="opacity:1;fill:#000000;fill-opacity:1;stroke:none;stroke-width:0.52916664;stroke-linecap:round;stroke-miterlimit:4;stroke-dasharray:none;stroke-opacity:1"
       id="path5260"
       d="m 65.067179,278.4827 c 0.0282,0.36104 -0.04908,0.72232 -0.03515,1.08205 0.0041,0.0104 -0.01066,0.0163 -0.01476,0.006 v 0 c -0.138975,-0.3242 -0.219305,-0.66281 -0.246012,-1.0157 -0.05103,-0.20925 0.244901,-0.28142 0.295928,-0.0722 z"
       inkscape:connector-curvature="0" />
    <path
       style="opacity:1;fill:#000000;fill-opacity:1;stroke:none;stroke-width:0.52916664;stroke-linecap:round;stroke-miterlimit:4;stroke-dasharray:none;stroke-opacity:1"
       id="path5262"
       d="m 65.969808,278.32399 c -0.07525,0.49667 -0.124024,0.99697 -0.160838,1.49782 -0.0089,0.21107 -0.03818,0.41992 -0.08226,0.6262 0.0042,0.0104 -0.01048,0.0164 -0.01471,0.006 v 0 c -0.137329,-0.17141 -0.19127,-0.36264 -0.191312,-0.58392 0.0016,-0.51259 0.06531,-1.02047 0.146203,-1.52619 -0.01405,-0.21419 0.288857,-0.23407 0.302911,-0.0199 z"
       inkscape:connector-curvature="0" />
    <path
       style="opacity:1;fill:#000000;fill-opacity:1;stroke:none;stroke-width:0.52916664;stroke-linecap:round;stroke-miterlimit:4;stroke-dasharray:none;stroke-opacity:1"
       id="path5264"
       d="m 50.736518,281.28971 c 0.398939,0.0935 0.79961,0.0992 1.184735,-0.0444 0.259792,-0.12743 0.419965,-0.35224 0.548026,-0.60267 0.09562,-0.19653 0.123222,-0.40595 0.120455,-0.62196 -0.01188,-0.12683 -0.02318,-0.26437 -0.101712,-0.36991 -0.04763,-0.031 7.94e-4,-4.5e-4 -0.0016,0.0191 -0.0675,0.13818 -0.11253,0.28522 -0.151672,0.43353 -0.0882,0.32773 -0.154369,0.66075 -0.225759,0.99239 -0.08513,0.40029 -0.167158,0.80126 -0.236199,1.20465 -0.05243,0.31223 -0.09006,0.62659 -0.121774,0.94151 0.02185,0.11444 -0.07745,0.22525 -0.07325,0.33377 0.0093,0.006 2.65e-4,0.0194 -0.009,0.0131 v 0 c -0.138459,-0.0228 -0.172397,-0.16999 -0.185812,-0.29132 -0.01767,-0.32673 0.01569,-0.65158 0.07328,-0.97338 0.06892,-0.40883 0.149035,-0.81554 0.242758,-1.21946 0.07531,-0.33763 0.147053,-0.67628 0.238329,-1.01007 0.06853,-0.23526 0.123386,-0.4963 0.296661,-0.67994 0.131908,-0.0864 0.265282,-0.0832 0.371965,0.0419 0.104674,0.14788 0.146619,0.32099 0.159792,0.50054 0.0118,0.30257 -0.03928,0.59814 -0.17681,0.87113 -0.163454,0.30112 -0.370832,0.56238 -0.693216,0.70401 -0.433719,0.15776 -0.881214,0.16086 -1.330653,0.056 -0.21108,-0.0504 -0.139801,-0.34891 0.07128,-0.29851 z"
       inkscape:connector-curvature="0" />
    <path
       style="opacity:1;fill:#000000;fill-opacity:1;stroke:none;stroke-width:0.52916664;stroke-linecap:round;stroke-miterlimit:4;stroke-dasharray:none;stroke-opacity:1"
       id="path5266"
       d="m 50.852905,282.59216 c 0.419225,-0.026 0.836788,-0.0728 1.255025,-0.11071 0.174733,-0.0276 0.328779,0.0639 0.496866,0.0256 0.01109,-0.002 0.01349,0.014 0.0024,0.0157 v 0 c -0.172839,0.0393 -0.293585,0.18495 -0.476888,0.2102 -0.420029,0.0883 -0.845129,0.1444 -1.274003,0.16684 -0.217549,0.002 -0.220935,-0.30526 -0.0034,-0.30765 z"
       inkscape:connector-curvature="0" />
    <path
       style="opacity:1;fill:#000000;fill-opacity:1;stroke:none;stroke-width:0.52916664;stroke-linecap:round;stroke-miterlimit:4;stroke-dasharray:none;stroke-opacity:1"
       id="path5268"
       d="m 53.81082,282.97248 c 7.94e-4,0.44036 -0.0021,0.8808 -0.03264,1.32023 0.04821,0.18396 -0.132768,0.39564 -0.109903,0.56024 0.0044,0.0103 -0.01024,0.0165 -0.01463,0.006 v 0 c -0.04434,-0.14957 0.01839,0.0244 -0.08769,-0.13588 -0.0706,-0.10663 -0.06921,-0.24696 -0.0816,-0.36797 -0.01897,-0.43564 -0.007,-0.87151 -0.0109,-1.30741 -0.05331,-0.23854 0.284038,-0.31393 0.337343,-0.0754 z"
       inkscape:connector-curvature="0" />
    <path
       style="opacity:1;fill:#000000;fill-opacity:1;stroke:none;stroke-width:0.52916664;stroke-linecap:round;stroke-miterlimit:4;stroke-dasharray:none;stroke-opacity:1"
       id="path5270"
       d="m 73.306936,279.08691 c 0.437518,-0.0696 0.861984,-0.19155 1.248188,-0.41007 0.225933,-0.13765 0.362514,-0.33574 0.447384,-0.58066 0.05505,-0.20245 0.06682,-0.41057 0.05365,-0.61889 -0.01458,-0.0986 -0.02564,-0.20942 -0.09139,-0.28781 0.06741,0.0504 -0.0078,0.0938 -0.0495,0.15421 -0.135109,0.21315 -0.222687,0.45056 -0.308115,0.68662 -0.125127,0.3724 -0.230167,0.7511 -0.343498,1.12716 -0.144576,0.47145 -0.30742,0.93702 -0.472231,1.40169 -0.114126,0.3113 -0.220988,0.62503 -0.317796,0.94211 -0.01225,0.0209 -0.08671,0.14342 -0.07076,0.15462 0.01106,-0.002 0.01378,0.0137 0.0028,0.0156 v 0 c -0.173773,0.0926 -0.180391,-0.18694 -0.154234,-0.28458 0.06042,-0.33801 0.189632,-0.65715 0.303432,-0.97979 0.163148,-0.46199 0.326689,-0.92406 0.469104,-1.39297 0.11608,-0.38 0.223763,-0.76282 0.355938,-1.13769 0.09615,-0.25416 0.194557,-0.51097 0.352164,-0.73465 0.102814,-0.13012 0.232904,-0.26633 0.405553,-0.16031 0.11313,0.11657 0.136586,0.27779 0.148891,0.43488 0.01619,0.27394 0.0019,0.54881 -0.09014,0.8101 -0.113017,0.28142 -0.287219,0.50907 -0.551259,0.66753 -0.407244,0.22865 -0.851268,0.36805 -1.309362,0.4565 -0.186415,0.0203 -0.215181,-0.2433 -0.02876,-0.26364 z"
       inkscape:connector-curvature="0" />
    <path
       style="opacity:1;fill:#000000;fill-opacity:1;stroke:none;stroke-width:0.52916664;stroke-linecap:round;stroke-miterlimit:4;stroke-dasharray:none;stroke-opacity:1"
       id="path5272"
       d="m 73.362245,279.99615 c 0.404667,-0.0876 0.811744,-0.16347 1.226762,-0.16195 0.130654,0.003 0.239977,0.0468 0.369879,0.0432 0.01122,-2.9e-4 0.01162,0.0156 5.29e-4,0.0159 v 0 c -0.130564,0.0186 -0.231333,0.0804 -0.358163,0.11727 -0.394732,0.11215 -0.799278,0.18118 -1.199447,0.27081 -0.201676,0.0279 -0.241109,-0.25733 -0.03943,-0.28522 z"
       inkscape:connector-curvature="0" />
    <path
       style="opacity:1;fill:#000000;fill-opacity:1;stroke:none;stroke-width:0.52916664;stroke-linecap:round;stroke-miterlimit:4;stroke-dasharray:none;stroke-opacity:1"
       id="path5276"
       d="m 75.193347,280.99567 c 0.174614,-0.33822 0.356521,-0.67492 0.60008,-0.96899 0.08814,-0.0997 0.183015,-0.19453 0.316542,-0.22233 0.100277,-2.1e-4 0.1695,0.0513 0.218827,0.13425 0.05104,0.13514 0.03456,0.28132 0.01553,0.42108 -0.04141,0.24488 -0.148276,0.46773 -0.264211,0.68451 -0.144356,0.25224 -0.32114,0.48377 -0.498702,0.71313 -0.19167,0.23969 -0.396076,0.46889 -0.600768,0.69745 -0.111125,0.11372 -0.213101,0.24362 -0.352227,0.32469 -0.288584,0.0794 -0.235802,-0.2714 -0.208616,-0.41768 0.02413,-0.10385 0.0681,-0.19951 0.128214,-0.28706 0.06016,-0.087 0.147106,-0.1215 0.248915,-0.13214 0.114888,-4.3e-4 0.225846,0.0332 0.335426,0.064 0.151923,0.0434 0.300175,0.0983 0.449133,0.15066 0.164192,0.0576 0.330065,0.11033 0.495106,0.16547 0.126122,0.0267 0.222782,0.11881 0.347277,0.14136 0.01114,-10e-4 0.01302,0.0144 0.0019,0.0158 v 0 c -0.135668,0.0712 -0.251664,0.14383 -0.413023,0.10785 -0.179361,-0.0329 -0.351623,-0.0915 -0.523039,-0.153 -0.144838,-0.0515 -0.28898,-0.10504 -0.434967,-0.15327 -0.08144,-0.0256 -0.163306,-0.0563 -0.249214,-0.0617 -0.03427,-1.1e-4 -0.04454,0.007 -0.06228,0.0391 -0.03869,0.0687 -0.06222,0.14393 -0.07782,0.22114 0.0057,-0.064 -0.01971,0.25537 -0.15566,0.0448 0.114038,-0.0786 0.2026,-0.18926 0.299657,-0.28645 0.20306,-0.22276 0.405138,-0.44687 0.592526,-0.68313 0.169495,-0.21918 0.337511,-0.44158 0.471422,-0.68482 0.08163,-0.1573 0.161499,-0.31871 0.205337,-0.49102 0.02029,-0.10216 0.02947,-0.20425 0.03143,-0.30815 0.0059,-0.0181 -0.0047,-0.032 0.01162,-0.0447 -0.08003,0.004 -0.143838,0.10458 -0.199837,0.15413 -0.234942,0.28463 -0.41084,0.61053 -0.576001,0.93928 -0.08793,0.10786 -0.240471,-0.0165 -0.152535,-0.12436 z"
       inkscape:connector-curvature="0" />
    <path
       style="opacity:1;fill:#000000;fill-opacity:1;stroke:none;stroke-width:0.52916664;stroke-linecap:round;stroke-miterlimit:4;stroke-dasharray:none;stroke-opacity:1"
       id="path5278"
       d="m 85.607332,275.28868 c 0.410672,0.15723 0.832483,0.20618 1.263654,0.12752 0.32257,-0.0786 0.59891,-0.25048 0.84637,-0.466 0.19766,-0.17664 0.32203,-0.39951 0.40959,-0.6455 0.0696,-0.21891 0.071,-0.44137 -0.002,-0.6582 -0.037,-0.0921 -0.0869,-0.18781 -0.19304,-0.20314 -0.084,-5.6e-4 -0.131,0.0557 -0.17276,0.12087 -0.0876,0.17517 -0.13128,0.37079 -0.1759,0.56099 -0.0663,0.34038 -0.12317,0.68245 -0.18972,1.02279 -0.0838,0.42137 -0.18027,0.84011 -0.27954,1.25807 -0.0845,0.34878 -0.17315,0.69655 -0.25846,1.04514 -0.0458,0.16299 -0.0652,0.3349 -0.133939,0.49061 -0.03252,0.067 -0.07859,0.11751 -0.143456,0.15279 4.77e-4,0.0112 -0.01539,0.0119 -0.01586,6.7e-4 v 0 c -0.05778,-0.0354 -0.07427,-0.0894 -0.07693,-0.15604 0.0021,-0.16576 0.04421,-0.32878 0.07349,-0.49105 0.07891,-0.35074 0.171705,-0.69804 0.255975,-1.04751 0.0995,-0.4166 0.19826,-0.83341 0.29155,-1.25146 0.0731,-0.34327 0.14121,-0.68756 0.2192,-1.02975 0.0625,-0.26056 0.12382,-0.53141 0.29634,-0.74462 0.10632,-0.0984 0.22435,-0.16034 0.37311,-0.13134 0.15881,0.0529 0.25435,0.16694 0.30406,0.32685 0.064,0.24898 0.073,0.50302 1e-4,0.75223 -0.0988,0.29997 -0.25362,0.57182 -0.48693,0.78849 -0.26878,0.24015 -0.56948,0.43629 -0.92499,0.52055 -0.464062,0.0829 -0.918036,0.0296 -1.360821,-0.13602 -0.146327,-0.0569 -0.06579,-0.26389 0.08054,-0.20694 z"
       inkscape:connector-curvature="0" />
    <path
       style="opacity:1;fill:#000000;fill-opacity:1;stroke:none;stroke-width:0.52916664;stroke-linecap:round;stroke-miterlimit:4;stroke-dasharray:none;stroke-opacity:1"
       id="path5280"
       d="m 86.108613,276.40715 c 0.428818,0.009 0.857793,0.007 1.286403,0.0247 0.15152,0.0153 0.31529,0.009 0.4598,0.0662 0.0293,0.0117 0.0526,0.0386 0.0836,0.0446 0.0245,0.005 0.0489,-0.01 0.0734,-0.0143 0.0112,-10e-4 0.0126,0.0148 0.001,0.0158 v 0 c -0.14521,0.028 -0.004,-0.0109 -0.1583,0.0792 -0.14366,0.0838 -0.32107,0.0837 -0.48084,0.0974 -0.43017,0.0127 -0.860355,8.2e-4 -1.290585,-0.003 -0.219484,-0.0177 -0.194415,-0.32812 0.02507,-0.3104 z"
       inkscape:connector-curvature="0" />
    <path
       style="opacity:1;fill:#000000;fill-opacity:1;stroke:none;stroke-width:0.52916664;stroke-linecap:round;stroke-miterlimit:4;stroke-dasharray:none;stroke-opacity:1"
       id="path5282"
       d="m 88.428516,277.53731 c -0.0537,0.30764 -0.10131,0.61633 -0.15823,0.92339 -0.0324,0.1558 0.004,0.18156 -0.28927,0.034 -0.0381,-0.0192 0.0289,-0.0804 0.0435,-0.12046 0.0622,-0.17938 0.1432,-0.35138 0.23384,-0.51795 0.0771,-0.1439 0.17461,-0.27483 0.29369,-0.38639 0.0895,-0.0866 0.18177,-0.11984 0.30244,-0.0856 0.10694,0.0548 0.17976,0.15059 0.24835,0.24602 0.0887,0.14003 0.17493,0.28134 0.25708,0.42531 0.0876,0.15499 0.19277,0.29855 0.30681,0.4349 0.0751,0.0856 0.15888,0.16393 0.22021,0.2605 0.0305,0.0437 -0.0154,0.12649 0.0279,0.15223 0.011,0.002 0.008,0.0177 -0.003,0.0156 v 0 c -0.0637,0.009 -0.11208,0.0702 -0.18421,0.0446 -0.11989,-0.053 -0.21,-0.14697 -0.29536,-0.24451 -0.12697,-0.14753 -0.24222,-0.305 -0.33867,-0.47434 -0.0796,-0.13907 -0.14442,-0.28517 -0.228,-0.42201 -0.0363,-0.0588 -0.0815,-0.11563 -0.12051,-0.16966 0.0693,-10e-4 -0.0146,0.0118 -0.0342,0.052 -0.0939,0.10375 -0.17281,0.21878 -0.23658,0.3436 -0.0596,0.11653 -0.1193,0.2328 -0.16106,0.3573 -0.0143,0.0397 -0.003,0.1061 -0.0429,0.1191 -0.36866,0.11941 -0.32008,0.12015 -0.29356,-0.0553 0.0557,-0.30504 0.099,-0.61219 0.14925,-0.91815 -0.0101,-0.21383 0.29233,-0.22807 0.3024,-0.0142 z"
       inkscape:connector-curvature="0" />
    <path
       style="opacity:1;fill:#000000;fill-opacity:1;stroke:none;stroke-width:0.52916664;stroke-linecap:round;stroke-miterlimit:4;stroke-dasharray:none;stroke-opacity:1"
       id="path5284"
       d="m 91.841196,276.55935 c 0.42992,-0.0514 0.85763,-0.11999 1.28979,-0.1499 0.23016,-0.0239 0.43987,0.0107 0.64569,0.11238 0.0112,8.4e-4 0.01,0.0167 -10e-4,0.0158 v 0 c -0.20289,0.0956 -0.41225,0.16349 -0.63606,0.19141 -0.4281,0.0751 -0.85861,0.13425 -1.28972,0.18933 -0.25389,0.006 -0.26238,-0.35304 -0.009,-0.35905 z"
       inkscape:connector-curvature="0" />
    <path
       style="opacity:1;fill:#000000;fill-opacity:1;stroke:none;stroke-width:0.52916664;stroke-linecap:round;stroke-miterlimit:4;stroke-dasharray:none;stroke-opacity:1"
       id="path5286"
       d="m 96.987016,276.0459 c -0.32138,0.27248 -0.61101,0.57853 -0.83102,0.93854 -0.0812,0.16165 -0.1336,0.33117 -0.12927,0.51254 0.009,0.0932 0.0472,0.17651 0.11635,0.23932 0.0705,0.05 0.151,0.0252 0.22686,0.002 0.14452,-0.0513 0.26111,-0.14861 0.36708,-0.25638 0.11559,-0.13069 0.21597,-0.27779 0.28049,-0.4406 0.0761,-0.17161 0.12133,-0.35318 0.12677,-0.54067 -0.003,-0.10939 -0.0256,-0.21542 -0.096,-0.30104 -0.0315,-0.0367 -0.0733,-0.056 -0.11765,-0.0716 0.27853,0.0267 0.0651,-0.19609 0.17434,-0.0309 0.0667,0.0806 0.16163,0.12943 0.25352,0.1755 0.11251,0.057 0.2306,0.0926 0.35564,0.10581 0.1385,0.007 0.25893,-0.0533 0.37668,-0.11845 0.1841,-0.11412 0.34136,-0.26279 0.4894,-0.41942 0.1448,-0.15314 0.24714,-0.33471 0.33462,-0.52435 0.0885,-0.19711 0.12805,-0.40945 0.16189,-0.62132 0.0296,-0.19768 0.0498,-0.39644 0.0624,-0.59588 0.003,-0.0681 0.007,-0.13631 0.005,-0.20452 0.0864,0.031 0.18734,0.0358 0.25905,0.093 0.002,0.002 -0.15352,0.48192 -0.16768,0.5237 -0.10732,0.31595 -0.23381,0.6249 -0.35779,0.93455 -0.18552,0.46066 -0.37676,0.91898 -0.56481,1.3786 -0.16636,0.41175 -0.32954,0.82666 -0.41816,1.26294 -0.0244,0.17888 -0.0146,0.36421 0.10543,0.50674 0.11455,0.0858 0.2327,0.024 0.33836,-0.044 0.15742,-0.12302 0.25036,-0.29569 0.32884,-0.47458 0.0771,-0.19224 0.0929,-0.39716 0.0894,-0.60195 -10e-4,-0.14419 -0.0289,-0.28427 -0.0778,-0.41933 -0.0183,-0.0519 -0.0505,-0.095 -0.0848,-0.13704 -0.0401,-0.0636 0.0944,-0.0812 0.14282,-0.108 0.0292,0.0292 0.0546,0.0616 0.0828,0.0917 0.0251,0.0244 0.0559,0.0417 0.0851,0.0606 0.0609,0.0428 0.12894,0.0697 0.20016,0.0896 0.11338,0.0292 0.22649,0.0148 0.34019,-7.4e-4 0.16651,-0.0248 0.32771,-0.074 0.48497,-0.13286 0.164164,-0.0649 0.316524,-0.15454 0.463334,-0.25164 0.12948,-0.0877 0.2477,-0.19015 0.36352,-0.29481 0.0647,-0.0568 0.12856,-0.12904 0.16946,-0.19705 0.0511,-0.0888 0.0935,-0.18222 0.1321,-0.27703 0.0371,-0.0926 0.0727,-0.18609 0.0962,-0.28317 0.0222,-0.1098 -0.0217,-0.0977 0.10867,0.0446 -0.06,0.0621 -0.0693,0.11073 -0.10419,0.19346 -0.0759,0.20365 -0.14895,0.40823 -0.22693,0.61111 -0.12871,0.32465 -0.24682,0.65306 -0.35505,0.98505 -0.13316,0.4165 -0.25076,0.83755 -0.36109,1.26059 -0.0901,0.36612 -0.18145,0.73189 -0.280754,1.09565 -0.0576,0.22289 -0.13179,0.43606 -0.25321,0.63166 -0.11062,0.12475 -0.24698,0.12268 -0.39154,0.0648 -0.17102,-0.0889 -0.27371,-0.24586 -0.35811,-0.41284 -0.0951,-0.20128 -0.11975,-0.41915 -0.11598,-0.63891 0.012,-0.25072 0.11483,-0.47252 0.25704,-0.67519 0.15585,-0.20491 0.34956,-0.37496 0.54798,-0.53704 0.22255,-0.17557 0.471334,-0.31144 0.724854,-0.436 0.21349,-0.10489 0.43602,-0.18835 0.66173,-0.26242 0.15692,-0.0475 0.31213,-0.0999 0.46477,-0.15971 0.1212,-0.0474 0.23033,-0.11749 0.33447,-0.19445 0.12374,-0.0922 0.23255,-0.2008 0.33524,-0.31539 0.12212,-0.13873 0.2269,-0.29099 0.31262,-0.45451 0.0717,-0.14666 0.11843,-0.30171 0.15266,-0.46073 0.0239,-0.13161 0.0417,-0.26618 0.028,-0.3999 -0.024,-0.0688 -0.009,-0.0168 0.0423,-5.5e-4 -0.0678,0.0638 -0.12514,0.13694 -0.17855,0.21353 -0.10131,0.14827 -0.17656,0.31023 -0.24205,0.47671 -0.09,0.23438 -0.14352,0.48027 -0.18398,0.72738 -0.0304,0.18846 -0.0377,0.37871 0.008,0.56472 0.0267,0.0818 0.0654,0.14788 0.15619,0.15207 0.14915,-0.0176 0.2756,-0.10555 0.39629,-0.18829 0.18587,-0.13585 0.34395,-0.3032 0.49361,-0.47692 0.14789,-0.17751 0.27029,-0.37422 0.38645,-0.57338 0.0813,-0.15059 0.16224,-0.30103 0.25287,-0.44624 0.0588,-0.0977 0.12639,-0.15629 0.24368,-0.14481 0.097,0.0376 0.16383,0.12099 0.23537,0.1931 0.0617,0.0615 0.12181,0.12569 0.19533,0.17327 0.0475,0.0223 0.0479,-7.7e-4 -0.002,0.006 -0.0414,0.11186 -0.0202,-0.0822 -0.0265,-0.12636 -0.0167,-0.10199 -0.056,-0.19658 -0.11374,-0.28182 -0.032,-0.038 -0.068,-0.0704 -0.1179,-0.0677 -0.0839,0.0526 -0.14737,0.13033 -0.21077,0.20494 -0.11169,0.14255 -0.20444,0.30001 -0.28034,0.46431 -0.094,0.18881 -0.1572,0.38995 -0.20723,0.5942 -0.0244,0.12073 -0.0586,0.25079 -0.0135,0.37047 0.0407,0.0673 0.11901,0.0702 0.19008,0.0748 0.18123,-0.0107 0.35251,-0.0786 0.51807,-0.14818 0.24535,-0.11029 0.45491,-0.27782 0.6544,-0.45512 0.20796,-0.18848 0.37921,-0.41012 0.52631,-0.64798 0.13693,-0.22764 0.23983,-0.47236 0.33431,-0.71991 0.11871,-0.31267 0.21091,-0.63412 0.29793,-0.95674 0.0604,-0.23598 0.13301,-0.46851 0.19823,-0.70312 0.039,-0.1345 0.0179,-0.21492 0.25679,-0.007 0.003,0.003 -0.0302,0.17274 -0.0304,0.17387 -0.0459,0.23113 -0.11707,0.45641 -0.18572,0.68156 -0.10086,0.32315 -0.20082,0.64654 -0.295,0.9717 -0.0985,0.33777 -0.17897,0.68033 -0.23397,1.02781 -0.035,0.24007 -0.0434,0.48272 -0.0213,0.72419 0.008,0.10104 0.0389,0.19701 0.0681,0.29321 0.0185,0.0251 -0.017,0.002 -0.0326,-5.8e-4 0.004,-0.0271 0.047,-0.0684 0.0697,-0.0947 0.035,-0.0401 0.0539,-0.0899 0.078,-0.13654 0.0185,-0.0362 0.0356,-0.0709 0.0611,-0.10258 0.0257,-0.0288 0.0545,-0.0554 0.0839,-0.0805 0.0417,-0.0342 0.09,-0.0589 0.13427,-0.0894 0.0316,-0.0262 0.0651,-0.05 0.0973,-0.0754 0.0217,-0.0222 0.0546,-0.03 0.0737,-0.053 0.0352,-0.0407 0.0729,-0.0793 0.10951,-0.11882 0.074,-0.0847 0.15837,-0.15868 0.24244,-0.23299 0.0904,-0.0774 0.16974,-0.16711 0.24404,-0.25985 0.0699,-0.0868 0.13454,-0.17762 0.19375,-0.27206 0.0138,-0.0121 0.17136,-0.29761 0.12052,-0.21243 0.0192,-0.0389 0.0296,-0.0795 0.032,-0.1224 0.005,0.0617 0.062,0.10307 0.12047,0.10692 0.1841,-0.1673 0.10606,-0.0814 0.1388,0.0388 0.0368,0.1069 0.0835,0.21013 0.12639,0.31466 0.0556,0.13008 0.10069,0.264 0.1314,0.40205 0.0445,0.19002 -0.0233,0.32954 -0.12606,0.4852 -0.11979,0.13349 -0.27792,0.22146 -0.43386,0.30569 -0.12146,0.0616 -0.24943,0.1096 -0.38037,0.14665 -0.20329,0.0938 -0.20715,-0.3338 0.0732,-0.32664 0.15147,0.0133 0.30268,0.0135 0.45422,0.003 0.24841,-0.0289 0.49066,-0.0886 0.73146,-0.15419 0.33299,-0.0889 0.64858,-0.22454 0.94851,-0.39276 0.29971,-0.17652 0.56598,-0.40055 0.80867,-0.64824 0.15413,-0.15466 0.27242,-0.33303 0.35936,-0.53138 0.0684,-0.15892 0.0699,-0.32179 0.0393,-0.48877 -0.0242,-0.093 -0.0682,-0.18368 -0.15716,-0.22832 -0.034,-0.0145 -0.0691,-0.009 -0.10107,-10e-4 0.0808,-0.13466 -0.013,-10e-4 -0.0247,0.053 -0.0136,0.0931 -0.0263,0.0541 0.0279,0.11992 0.008,0.008 -0.004,0.0191 -0.0115,0.011 v 0 c -0.0586,-0.0668 -0.0215,-0.0401 -0.11595,-0.0728 -0.15118,-0.12547 -0.15519,-0.28052 0.009,-0.41297 0.13077,-0.0739 0.2629,-0.0766 0.39846,-0.007 0.15857,0.10046 0.24658,0.24594 0.28634,0.42962 0.0433,0.21789 0.0525,0.4362 -0.0269,0.64825 -0.11229,0.28589 -0.28953,0.53419 -0.50545,0.75167 -0.26574,0.25921 -0.55239,0.49687 -0.87579,0.68179 -0.32092,0.17724 -0.65679,0.32261 -1.01023,0.42278 -0.25841,0.0724 -0.52069,0.14274 -0.79013,0.1552 -0.15966,0.009 -0.31911,0.009 -0.47868,-0.003 -0.21594,-0.007 -0.28588,-0.33848 -0.0995,-0.36887 0.11386,-0.0365 0.22814,-0.0721 0.3375,-0.12101 0.12251,-0.0529 0.25022,-0.10744 0.34059,-0.20924 -0.0322,0.0898 0.076,-0.0895 0.0433,-0.14839 -0.0216,-0.12389 -0.0635,-0.24294 -0.11268,-0.35848 -0.0458,-0.11168 -0.0969,-0.22111 -0.13973,-0.334 -0.066,-0.20072 -0.0524,-0.28865 0.11329,-0.46545 0.11246,-0.003 0.2269,0.0574 0.21778,0.18199 -0.0143,0.0679 -0.0369,0.13341 -0.069,0.19514 -0.0626,0.12285 -0.12953,0.24317 -0.20648,0.35779 -0.0665,0.10074 -0.13757,0.19838 -0.21456,0.29143 -0.085,0.0991 -0.17295,0.19596 -0.27266,0.28068 -0.0782,0.0695 -0.15338,0.14199 -0.22248,0.22063 -0.0446,0.0481 -0.0889,0.0976 -0.14083,0.13793 -0.0286,0.018 -0.0588,0.0331 -0.0865,0.0524 -0.0372,0.0244 -0.0742,0.0492 -0.11188,0.0728 -0.0372,0.0223 -0.076,0.0429 -0.10912,0.0711 -0.0175,0.0149 -0.0357,0.0293 -0.0483,0.0487 -0.0136,0.0238 -0.0285,0.0476 -0.0409,0.0724 -0.0324,0.0606 -0.0675,0.11941 -0.11489,0.16985 -0.0475,0.0536 -0.0948,0.11028 -0.16342,0.13683 -0.0926,0.0184 -0.16482,-0.009 -0.22956,-0.0784 -0.0901,-0.10532 -0.12843,-0.23974 -0.15286,-0.37417 -0.0363,-0.26279 -0.0299,-0.52846 0.006,-0.79125 0.0538,-0.36025 0.13437,-0.71496 0.23719,-1.0645 0.0979,-0.32867 0.20846,-0.65305 0.32266,-0.97639 0.0723,-0.21836 0.14899,-0.43555 0.21056,-0.65723 0.006,-0.0274 0.0125,-0.0548 0.0185,-0.0823 0.006,-0.026 -0.007,-0.0651 0.0161,-0.078 0.35169,-0.19567 0.25555,-0.10472 0.2138,0.0159 -0.0807,0.22738 -0.14693,0.4594 -0.20753,0.69289 -0.086,0.32554 -0.16869,0.65222 -0.27081,0.97319 -0.10265,0.30408 -0.22932,0.60017 -0.40051,0.87273 -0.16228,0.25209 -0.34714,0.48826 -0.57322,0.6871 -0.21913,0.18921 -0.45004,0.36642 -0.71863,0.48049 -0.19828,0.0815 -0.40485,0.1576 -0.62244,0.15322 -0.15233,-0.0178 -0.28728,-0.0677 -0.36436,-0.20998 -0.0649,-0.16036 -0.0504,-0.32384 -0.0117,-0.49036 0.0513,-0.21935 0.11973,-0.43449 0.21844,-0.63757 0.10605,-0.2109 0.21422,-0.42264 0.36895,-0.60306 0.10213,-0.11468 0.21112,-0.2378 0.37365,-0.25218 0.11774,0.0101 0.20809,0.0626 0.27439,0.16236 0.0706,0.10872 0.11778,0.23025 0.14176,0.35783 0.02,0.12433 0.0326,0.24026 -0.0374,0.3521 -0.0792,0.0675 -0.15824,0.0657 -0.24952,0.0197 -0.0913,-0.05 -0.16682,-0.12008 -0.23837,-0.19516 -0.0426,-0.0428 -0.10624,-0.0997 -0.1343,-0.14142 0.0508,-0.0189 -0.0442,0.0473 -0.0441,0.0773 -0.0867,0.14696 -0.16348,0.29939 -0.24822,0.44745 -0.12335,0.20736 -0.25311,0.41125 -0.40652,0.59805 -0.15876,0.18975 -0.32527,0.37424 -0.52586,0.52129 -0.16526,0.11576 -0.3419,0.22898 -0.55212,0.21788 -0.17177,-0.0353 -0.28312,-0.13347 -0.34175,-0.3011 -0.0624,-0.21452 -0.0655,-0.43364 -0.0306,-0.65427 0.0414,-0.26434 0.0988,-0.52593 0.20049,-0.77453 0.0908,-0.21646 0.19706,-0.42708 0.33675,-0.61665 0.0808,-0.10314 0.16616,-0.21373 0.29225,-0.2624 0.12437,-0.0109 0.18715,0.0539 0.1984,0.17499 0.0111,0.15007 -0.006,0.30019 -0.0275,0.44864 -0.0375,0.21327 -0.0835,0.4263 -0.18917,0.61788 -0.0968,0.17546 -0.21008,0.34067 -0.34518,0.4892 -0.11335,0.12254 -0.23346,0.23882 -0.36953,0.3363 -0.11898,0.0846 -0.2449,0.1588 -0.38216,0.21002 -0.15609,0.0598 -0.3153,0.11058 -0.47487,0.1603 -0.21691,0.0718 -0.43068,0.15295 -0.63564,0.25452 -0.23967,0.11929 -0.475114,0.24944 -0.683314,0.4194 -0.1832,0.15157 -0.36142,0.31192 -0.50098,0.50602 -0.0938,0.14373 -0.17401,0.29191 -0.18249,0.46848 -0.009,0.18769 0.008,0.37426 0.0857,0.54802 0.0593,0.12499 0.12892,0.24862 0.25275,0.31988 0.056,0.0274 0.0916,0.0296 0.12998,-0.0254 0.0626,-0.0944 0.13957,-0.31521 0.17846,-0.46382 0.10203,-0.36229 0.19316,-0.72741 0.28273,-1.09296 0.110924,-0.42791 0.228004,-0.85448 0.369364,-1.27351 0.1146,-0.334 0.2387,-0.66451 0.37042,-0.99214 0.0798,-0.20354 0.15453,-0.4088 0.22745,-0.61486 0.0527,-0.13508 0.10869,-0.27752 0.23467,-0.36039 0.21443,0.0572 0.2188,0.0266 0.15134,0.17255 -0.0388,0.0957 -0.0652,0.19609 -0.1051,0.29146 -0.0388,0.1013 -0.0819,0.20087 -0.13102,0.29768 -0.0669,0.1155 -0.14363,0.22005 -0.24778,0.30554 -0.12143,0.10962 -0.24751,0.21466 -0.38429,0.30482 -0.15689,0.10231 -0.31921,0.1975 -0.495744,0.26225 -0.16995,0.0609 -0.34386,0.1143 -0.52393,0.1348 -0.12891,0.007 -0.26079,-1.3e-4 -0.38726,-0.0272 -0.0836,-0.0244 -0.16417,-0.0564 -0.23499,-0.10829 -0.0386,-0.0257 -0.0778,-0.0513 -0.10959,-0.0855 -0.0259,-0.0304 -0.0494,-0.0627 -0.0755,-0.093 0.0362,-0.11928 0.0168,-0.22672 0.10811,-0.1567 0.0595,0.0556 0.10067,0.12527 0.12957,0.20116 0.0534,0.15399 0.0861,0.31385 0.0899,0.47729 0.002,0.22886 -0.0158,0.45757 -0.0969,0.67403 -0.10102,0.24318 -0.2357,0.4731 -0.45077,0.63242 -0.18672,0.11181 -0.38047,0.15877 -0.56903,0.0195 -0.19392,-0.17828 -0.24741,-0.40566 -0.21562,-0.66547 0.0679,-0.45707 0.23109,-0.88858 0.40553,-1.31481 0.18731,-0.45913 0.37752,-0.91709 0.56165,-1.37752 0.1229,-0.30619 0.24672,-0.61227 0.35436,-0.92425 0.0474,-0.14011 0.0959,-0.27997 0.13923,-0.42142 0.009,-0.0296 -0.001,-0.0746 0.0264,-0.0891 0.0948,-0.0501 0.20626,-0.0589 0.30939,-0.0883 -0.0111,0.0528 -0.0202,0.13373 -0.0266,0.1948 -0.0224,0.20392 -0.043,0.40807 -0.0715,0.61125 -0.0351,0.23066 -0.0759,0.4619 -0.16871,0.67765 -0.11128,0.24926 -0.25311,0.4837 -0.44241,0.68201 -0.16417,0.171 -0.33967,0.3328 -0.54535,0.45322 -0.15772,0.0836 -0.32059,0.14906 -0.50311,0.1334 -0.15081,-0.0157 -0.29503,-0.0568 -0.43133,-0.12422 -0.12736,-0.0625 -0.2525,-0.13285 -0.34496,-0.24337 -0.10017,-0.14667 -0.15924,-0.45335 0.13008,-0.41344 0.0952,0.0273 0.176,0.0819 0.23664,0.16095 0.0963,0.13378 0.14371,0.28692 0.13701,0.45295 -0.0132,0.21335 -0.0643,0.42084 -0.14729,0.61812 -0.10083,0.21636 -0.21166,0.42785 -0.38221,0.59884 -0.13384,0.12956 -0.27935,0.2459 -0.45975,0.30323 -0.14922,0.04 -0.29445,0.0512 -0.42839,-0.0406 -0.12286,-0.0994 -0.20306,-0.22812 -0.22874,-0.38614 -0.0231,-0.28044 0.0612,-0.53842 0.20823,-0.77745 0.24328,-0.37243 0.55143,-0.69153 0.89479,-0.97398 0.16848,-0.0933 0.30042,0.14498 0.13193,0.23827 z"
       inkscape:connector-curvature="0" />
    <path
       style="opacity:1;fill:#000000;fill-opacity:1;stroke:none;stroke-width:0.52916664;stroke-linecap:round;stroke-miterlimit:4;stroke-dasharray:none;stroke-opacity:1"
       id="path5288"
       d="m 103.39089,274.48238 c 0.68115,-0.13035 1.36488,-0.24609 2.05026,-0.35178 0.76091,-0.11165 1.52654,-0.18587 2.29231,-0.25449 0.58049,-0.0525 1.16221,-0.0936 1.74489,-0.11036 0.29372,-0.003 0.58686,-0.0148 0.86027,0.10251 0.0112,-7.6e-4 0.0123,0.0151 10e-4,0.0158 v 0 c -0.26575,0.21259 -0.54352,0.22683 -0.8723,0.2736 -0.57827,0.0656 -1.15934,0.10186 -1.73888,0.15427 -0.75845,0.0702 -1.51669,0.14399 -2.27122,0.24955 -0.68202,0.0939 -1.36304,0.19493 -2.0432,0.30145 -0.26911,0.0164 -0.29234,-0.36416 -0.0232,-0.38059 z"
       inkscape:connector-curvature="0" />
    <path
       style="opacity:1;fill:#000000;fill-opacity:1;stroke:none;stroke-width:0.52916664;stroke-linecap:round;stroke-miterlimit:4;stroke-dasharray:none;stroke-opacity:1"
       id="path5290"
       d="m 88.832706,280.29521 c -0.29032,0.36986 -0.59111,0.73113 -0.90597,1.08032 -0.24037,0.2578 -0.48206,0.51475 -0.73716,0.7581 -0.15446,0.14479 -0.32025,0.27682 -0.504647,0.38116 -0.132768,0.0685 -0.254765,0.0695 -0.38109,-0.009 -0.111821,-0.10293 -0.160901,-0.24852 -0.204737,-0.38987 -0.05039,-0.17479 -0.07928,-0.35434 -0.09542,-0.53522 -0.01757,-0.1809 0.007,-0.35711 0.06323,-0.52881 0.06251,-0.16981 0.178298,-0.30417 0.318524,-0.41417 0.1201,-0.0902 0.260525,-0.1407 0.40385,-0.1799 0.16442,-0.0448 0.32885,-0.0378 0.49225,0.004 0.17293,0.0532 0.30039,0.1741 0.4149,0.30841 0.12578,0.15404 0.22029,0.32908 0.30441,0.50833 0.0769,0.17991 0.15336,0.35978 0.23981,0.53534 0.0764,0.1497 0.16393,0.29301 0.23917,0.44332 0.0395,0.0734 0.0428,0.12779 0.1194,0.16532 0.01,0.005 0.003,0.0192 -0.007,0.0142 v 0 c -0.075,-0.0369 -0.14533,-0.0211 -0.22123,-0.0594 -0.17427,-0.0924 -0.28645,-0.23754 -0.37272,-0.41376 -0.0892,-0.17746 -0.16783,-0.3596 -0.24319,-0.54335 -0.0734,-0.16235 -0.15442,-0.32226 -0.26127,-0.46557 -0.0801,-0.1018 -0.16715,-0.19889 -0.293,-0.24279 -0.12511,-0.0359 -0.25125,-0.0409 -0.37799,-0.007 -0.115726,0.032 -0.228447,0.0737 -0.322278,0.15122 -0.08115,0.0695 -0.14115,0.13172 -0.185457,0.22618 -0.05625,0.13979 -0.07651,0.28622 -0.06317,0.43678 0.01516,0.16521 0.04085,0.32917 0.0887,0.48844 0.02928,0.0926 0.06029,0.18613 0.117369,0.26601 0.04071,0.0126 0.08554,-0.0129 0.124957,-0.0364 0.164689,-0.0994 0.314049,-0.22093 0.453759,-0.35301 0.25005,-0.24044 0.48928,-0.49201 0.72445,-0.74696 0.3098,-0.34574 0.6071,-0.70243 0.89049,-1.07021 0.16075,-0.12816 0.342,0.0992 0.18125,0.22734 z"
       inkscape:connector-curvature="0" />
    <path
       style="opacity:1;fill:#000000;fill-opacity:1;stroke:none;stroke-width:0.52916664;stroke-linecap:round;stroke-miterlimit:4;stroke-dasharray:none;stroke-opacity:1"
       id="path5292"
       d="m 89.782176,281.92587 c -0.1108,0.3918 -0.2317,0.78056 -0.3649,1.16531 -0.0386,0.11142 -0.0798,0.22215 -0.12919,0.32926 -0.0859,-0.0357 -0.18244,-0.0523 -0.25772,-0.10699 -7.9e-4,-6.4e-4 0.10789,-0.23138 0.16039,-0.34244 0.0818,-0.18237 0.18115,-0.35518 0.28682,-0.52449 0.0721,-0.11161 0.16713,-0.20031 0.27796,-0.27184 0.10513,-0.0658 0.20994,-0.0686 0.32038,-0.0168 0.11297,0.0721 0.17765,0.18568 0.23174,0.30448 0.0673,0.15792 0.11096,0.32432 0.15078,0.49087 0.0465,0.14209 0.0389,0.29409 0.0712,0.438 -0.0109,0.0698 -0.0295,0.13492 -0.0365,0.20541 0.008,0.008 -0.004,0.019 -0.0117,0.0107 v 0 c -0.0818,-0.0177 -0.15559,-0.0339 -0.21154,-0.10245 -0.054,-0.14224 -0.10716,-0.28273 -0.12827,-0.4348 -0.0341,-0.15142 -0.0729,-0.30192 -0.12545,-0.44811 -0.0269,-0.0686 -0.0546,-0.13679 -0.0949,-0.19852 -0.0174,5e-4 -0.0355,0.006 -0.0498,0.0157 -0.0802,0.0582 -0.14118,0.13658 -0.19392,0.21991 -0.0714,0.11403 -0.14127,0.24379 -0.2,0.37058 -0.0447,0.094 -0.0874,0.1889 -0.13197,0.28294 -0.01,0.0206 -0.007,0.057 -0.0293,0.062 -0.10347,0.0234 -0.21186,0.0109 -0.3178,0.0164 0.0304,-0.11505 0.0941,-0.22001 0.12667,-0.33451 0.13471,-0.379 0.25767,-0.76204 0.36386,-1.15009 0.0138,-0.20731 0.30701,-0.18773 0.29317,0.0196 z"
       inkscape:connector-curvature="0" />
    <path
       style="opacity:1;fill:#000000;fill-opacity:1;stroke:none;stroke-width:0.52916664;stroke-linecap:round;stroke-miterlimit:4;stroke-dasharray:none;stroke-opacity:1"
       id="path5294"
       d="m 92.913186,280.95237 c 0.45472,-0.0473 0.90977,-0.0762 1.35765,0.028 0.0524,-0.006 0.10486,-0.0113 0.15729,-0.0169 0.0112,2e-4 0.0109,0.0161 -2.7e-4,0.0159 v 0 c -0.0525,0.006 -0.105,0.0112 -0.15751,0.0169 -0.43503,0.17681 -0.89888,0.21949 -1.36401,0.25694 -0.21269,-0.005 -0.20583,-0.30565 0.007,-0.3008 z"
       inkscape:connector-curvature="0" />
    <path
       style="opacity:1;fill:#000000;fill-opacity:1;stroke:none;stroke-width:0.52916664;stroke-linecap:round;stroke-miterlimit:4;stroke-dasharray:none;stroke-opacity:1"
       id="path5296"
       d="m 94.923726,282.8891 c 0.38308,-0.34715 0.76304,-0.69761 1.12638,-1.06547 0.35147,-0.35109 0.6387,-0.75542 0.91525,-1.16584 0.23426,-0.35717 0.47025,-0.71329 0.72359,-1.0573 0.13749,-0.16907 0.18279,-0.36872 0.3742,-0.0409 0.0102,0.0174 -0.0339,0.23176 -0.0358,0.24141 -0.0732,0.3105 -0.16429,0.61643 -0.24803,0.92419 -0.0956,0.36565 -0.19838,0.7293 -0.30086,1.09306 -0.0851,0.28852 -0.15144,0.5818 -0.20003,0.87853 -0.0174,0.10513 -0.0286,0.21106 -0.0397,0.31699 -0.22785,0.23589 -0.22415,-0.049 -0.25379,-0.13297 -0.0656,-0.14518 -0.16728,-0.26939 -0.2695,-0.39001 -0.1413,-0.16786 -0.30004,-0.31858 -0.46948,-0.45745 -0.14068,-0.12195 -0.3021,-0.20624 -0.4771,-0.26582 -0.0719,-0.0231 -0.15808,-0.0328 -0.21084,-0.0856 0.10467,-0.1243 0.051,-0.13222 0.14742,-0.0693 0.0105,0.004 0.005,0.0188 -0.006,0.0148 v 0 c -0.1289,-0.009 -0.0696,0.019 -0.10645,-0.16598 0.0987,-0.0152 0.18896,4e-4 0.28278,0.0373 0.20274,0.0711 0.38929,0.17303 0.55034,0.31719 0.17252,0.1562 0.34127,0.31795 0.48421,0.50235 0.10953,0.14431 0.22237,0.28925 0.29156,0.45831 0.0826,0.23093 0.0962,0.22324 -0.19031,0.33814 -0.0142,0.006 -0.001,-0.0532 -0.0149,-0.0433 -0.0233,-0.12248 -0.002,-0.24666 0.0152,-0.3687 0.0483,-0.30596 0.11463,-0.60844 0.20236,-0.90569 0.10313,-0.36352 0.20867,-0.72634 0.30663,-1.09131 0.085,-0.30296 0.17327,-0.60511 0.25088,-0.91006 0.008,-0.0366 0.0168,-0.073 0.0238,-0.10973 0.006,-0.0297 -0.0136,-0.0777 0.0142,-0.0894 0.34511,-0.14591 0.1439,0.0506 0.10783,0.098 -0.25322,0.33869 -0.48522,0.69205 -0.71271,1.04841 -0.30247,0.46212 -0.61543,0.9207 -1.00523,1.31501 -0.36666,0.36949 -0.75131,0.71978 -1.13319,1.07338 -0.17124,0.10113 -0.31425,-0.14105 -0.14301,-0.24218 z"
       inkscape:connector-curvature="0" />
    <path
       style="opacity:1;fill:#000000;fill-opacity:1;stroke:none;stroke-width:0.52916664;stroke-linecap:round;stroke-miterlimit:4;stroke-dasharray:none;stroke-opacity:1"
       id="path5328"
       d="m 97.732046,283.31162 c 0.35806,-0.22967 0.6997,-0.48452 1.003,-0.78317 0.19005,-0.1967 0.32164,-0.43719 0.44317,-0.67975 0.13181,-0.28831 0.23772,-0.58749 0.33973,-0.88734 0.0561,-0.17474 0.11052,-0.35005 0.16431,-0.52553 0.22451,-0.43373 0.3001,0.0307 0.29231,0.18326 -0.004,0.0645 -0.0141,0.12847 -0.0232,0.19242 -0.0119,0.0828 -0.0405,0.16173 -0.0668,0.24074 -0.0332,0.0986 -0.0647,0.19779 -0.0971,0.29668 -0.029,0.0903 -0.0626,0.17897 -0.0964,0.26756 -0.0231,0.0585 -0.0431,0.11794 -0.0569,0.1793 -0.002,0.0498 -0.0227,-0.002 -0.0424,-0.0213 0.0154,-0.0144 0.10715,-0.0278 0.14627,-0.0384 0.0949,-0.0287 0.18938,-0.0584 0.285014,-0.0845 0.19876,-0.0777 0.23519,0.14121 0.1671,0.2936 -0.0513,0.0909 -0.11575,0.17333 -0.17146,0.26157 -0.0622,0.0976 -0.116244,0.19995 -0.166524,0.3041 -0.0464,0.0933 -0.0735,0.1934 -0.0966,0.29442 -0.0171,0.0783 -0.0266,0.15786 -0.0226,0.23798 0.005,0.0652 0.0199,0.12887 0.0421,0.19026 0.0174,0.0414 0.0409,0.0806 0.0703,0.11466 0.0147,0.0136 0.034,0.0189 0.0526,0.0249 0.002,-0.0176 0.0421,-0.0217 0.0605,-0.0299 0.0879,-0.0426 0.171394,-0.0936 0.255504,-0.14304 0.1155,-0.0663 0.22418,-0.14297 0.3307,-0.22266 0.15232,-0.11529 0.29698,-0.23997 0.43249,-0.37455 0.15177,-0.15352 0.28977,-0.31983 0.42194,-0.49028 0.1336,-0.17043 0.24348,-0.35707 0.34679,-0.54685 0.0563,-0.10291 0.10772,-0.2083 0.16005,-0.31323 0.0293,-0.0594 0.0487,-0.12307 0.0703,-0.18557 0.0219,-0.0645 0.0416,-0.12968 0.062,-0.19464 0.0166,-0.0571 0.0402,-0.1111 0.072,-0.16124 0.0232,-0.0375 0.0404,-0.0783 0.0604,-0.11746 0.0182,-0.0369 0.0367,-0.0735 0.0507,-0.11227 -0.006,0.009 0.17186,0.13935 0.0288,0.12354 -0.0256,-0.0689 -0.0609,-0.13489 -0.0768,-0.20664 -0.007,-0.0313 0.10945,-0.1565 0.11966,-0.15907 0.0268,-0.007 -0.0354,0.0426 -0.053,0.0639 0.009,-0.0139 0.007,-0.0226 0.006,-0.0399 0.001,-0.0368 0.005,-0.0733 0.009,-0.10984 -0.012,-0.15766 0.29199,-0.007 0.21097,0.10566 -0.0266,0.0365 -0.0476,0.0764 -0.0657,0.11773 -0.0328,0.0787 -0.0545,0.16151 -0.0788,0.24309 -0.0336,0.10929 -0.0677,0.21843 -0.10365,0.32698 -0.0308,0.0909 -0.0647,0.181 -0.0877,0.2743 -0.0117,0.0521 -0.0193,0.10539 -0.0192,0.15885 0.006,0.0294 -0.0101,-0.003 -0.0158,-0.0105 -0.004,-0.0165 0.0654,-0.0122 0.0846,-0.0141 0.082,-0.008 0.16436,-0.0117 0.24678,-0.0132 0.0617,6.9e-4 0.12253,0.0111 0.18269,0.024 0.0329,0.007 0.0648,0.0178 0.0971,0.0269 0.013,0.003 0.0248,0.004 0.0377,0.003 0.12984,0.23106 0.0364,0.31178 -0.16123,0.34301 -0.0259,0.0631 0.056,-0.0452 0.007,0.0186 -0.0524,0.0796 -0.0927,0.16632 -0.13412,0.25193 -0.0414,0.0865 -0.0832,0.17266 -0.11354,0.2637 -0.0206,0.0667 -0.0339,0.13549 -0.0452,0.2043 -0.0127,0.0796 -0.0173,0.16016 -0.0208,0.24061 -0.002,0.0778 -0.004,0.15562 -0.01,0.23323 -0.002,0.0373 -0.006,0.0747 -0.004,0.11211 0.003,0.0144 1.4e-4,-0.005 1.9e-4,-0.006 0.0436,0.006 0.0876,0.007 0.13152,0.0102 0.0636,0.003 0.12618,0.0128 0.18857,0.0247 0.0507,0.0109 0.10093,0.007 0.15062,-0.006 0.0776,-0.028 0.15464,-0.0576 0.23262,-0.0847 0.0689,-0.0222 0.12853,-0.061 0.18665,-0.10285 0.091,-0.0711 0.17142,-0.15409 0.2508,-0.23763 0.0935,-0.10199 0.18118,-0.20902 0.27338,-0.31214 0.11322,-0.13861 0.24311,-0.2552 0.40505,-0.33188 0.10665,-0.0476 0.22527,-0.0494 0.32528,-0.1087 0.0106,-0.004 0.0158,0.0114 0.005,0.015 v 0 c -0.10236,0.0606 -0.17932,0.15772 -0.25636,0.24741 -0.0778,0.10033 -0.15694,0.19992 -0.23449,0.3002 -0.12065,0.14403 -0.24359,0.28642 -0.37129,0.42426 -0.0913,0.0932 -0.18536,0.18484 -0.29303,0.25927 -0.0763,0.0498 -0.15694,0.0909 -0.24335,0.12043 -0.0888,0.0325 -0.17577,0.0719 -0.26885,0.0911 -0.079,0.0116 -0.15815,0.0133 -0.23658,-0.004 -0.0534,-0.01 -0.10732,-0.0156 -0.16159,-0.018 -0.0669,-0.004 -0.13498,-0.007 -0.19854,-0.0303 -0.0736,-0.0331 -0.12892,-0.0845 -0.15152,-0.16419 -0.0132,-0.0585 -0.0126,-0.1164 -0.006,-0.1759 0.005,-0.0751 0.0101,-0.15032 0.0114,-0.22567 0.003,-0.0897 0.008,-0.1792 0.0195,-0.26825 0.0123,-0.0797 0.0272,-0.15922 0.0475,-0.2373 0.0301,-0.10329 0.0721,-0.20143 0.12063,-0.29744 0.0448,-0.0967 0.0907,-0.19312 0.14408,-0.28541 0.057,-0.0919 0.12631,-0.17656 0.23753,-0.19491 0.13885,-0.0173 -0.24991,0.0541 0.13995,0.1713 -0.0216,-0.004 -0.0433,-0.002 -0.0652,-0.005 -0.0358,-0.004 -0.0714,-0.008 -0.10679,-0.0145 -0.0456,-0.007 -0.0918,-0.008 -0.13782,-0.006 -0.0788,0.003 -0.15697,0.013 -0.23552,0.0194 -0.078,0.005 -0.15751,0.008 -0.22752,-0.0327 -0.0558,-0.0409 -0.095,-0.093 -0.1018,-0.16408 -0.007,-0.0761 2.1e-4,-0.15218 0.014,-0.22728 0.0224,-0.10174 0.0548,-0.20058 0.0905,-0.29841 0.0379,-0.10564 0.0704,-0.21313 0.10456,-0.32 0.0289,-0.0887 0.0524,-0.17922 0.0849,-0.26676 0.0233,-0.0569 0.0488,-0.11238 0.0834,-0.16345 0.0636,-0.0926 0.39837,-0.0736 0.30319,0.0123 -0.006,0.0189 -0.009,0.0437 -0.009,0.0663 -0.001,0.0388 0.002,0.0794 -0.0122,0.1171 -0.0857,0.13256 -0.0298,0.15675 -0.20189,-10e-4 0.0627,-0.0161 0.24181,0.0578 0.19106,0.16727 -0.0159,0.0493 -0.0348,0.0975 -0.0592,0.14331 -0.022,0.0439 -0.0438,0.0879 -0.0643,0.13252 -0.0202,0.0353 -0.0489,0.0646 -0.0573,0.10606 -0.019,0.0684 -0.0379,0.13688 -0.0586,0.20483 -0.0244,0.0715 -0.0459,0.1441 -0.0748,0.21395 -0.0522,0.10821 -0.10689,0.2153 -0.16334,0.32131 -0.10664,0.20045 -0.21902,0.39814 -0.35505,0.58052 -0.16265,0.21967 -0.33406,0.43355 -0.52911,0.62564 -0.14541,0.14064 -0.29461,0.27728 -0.45857,0.39636 -0.11357,0.0834 -0.23057,0.16158 -0.35215,0.23292 -0.0983,0.058 -0.19687,0.11829 -0.30512,0.15597 -0.0726,0.0204 -0.146074,0.0366 -0.220054,0.0114 -0.0615,-0.0242 -0.11931,-0.0563 -0.16183,-0.10848 -0.0422,-0.056 -0.0782,-0.1167 -0.10491,-0.18162 -0.0305,-0.0815 -0.0522,-0.16594 -0.0615,-0.25268 -0.01,-0.10237 -0.003,-0.2043 0.018,-0.30514 0.0243,-0.11897 0.0523,-0.23778 0.10684,-0.34718 0.0527,-0.11286 0.10844,-0.22432 0.17436,-0.33017 0.0524,-0.0838 0.10482,-0.16759 0.16681,-0.24482 0.104894,-0.15264 0.276944,0.0408 0.131004,0.0431 -0.0965,0.0285 -0.192014,0.0602 -0.288834,0.0876 -0.10111,0.026 -0.20602,0.0509 -0.30717,0.0115 -0.0765,-0.0538 -0.11462,-0.11667 -0.10947,-0.21183 0.007,-0.0813 0.0305,-0.15926 0.0602,-0.23511 0.033,-0.0851 0.0657,-0.17042 0.095,-0.25688 0.0337,-0.0991 0.0639,-0.19927 0.0984,-0.29808 0.0233,-0.0669 0.0484,-0.13341 0.0664,-0.20197 0.0108,-0.0559 0.0181,-0.11234 0.0264,-0.1686 0.0153,-0.19527 -0.0389,-0.12056 0.27538,-0.20156 0.0101,-0.003 -0.0946,0.0594 -0.013,0.0286 -0.0594,0.17499 -0.10974,0.35288 -0.16869,0.52802 -0.10321,0.30854 -0.20781,0.61731 -0.3401,0.91488 -0.14481,0.31641 -0.31418,0.61837 -0.56942,0.86128 -0.32046,0.30255 -0.67487,0.56401 -1.04407,0.80433 -0.18879,0.0741 -0.29365,-0.19284 -0.10487,-0.26699 z"
       inkscape:connector-curvature="0" />
    <path
       style="opacity:1;fill:#000000;fill-opacity:1;stroke:none;stroke-width:0.52916664;stroke-linecap:round;stroke-miterlimit:4;stroke-dasharray:none;stroke-opacity:1"
       id="path5330"
       d="m 105.1395,281.52532 c -0.38678,0.18083 -0.75248,0.40214 -1.05021,0.71013 -0.11737,0.14692 -0.19295,0.30996 -0.23473,0.49201 -0.02,0.10834 -0.0308,0.21932 -0.009,0.32796 0.009,0.035 0.022,0.0578 0.0578,0.0652 0.0712,0.006 0.13703,-0.0243 0.20096,-0.0511 0.13274,-0.0675 0.25228,-0.15623 0.36495,-0.2529 0.10804,-0.0915 0.20024,-0.19812 0.2878,-0.30823 0.0965,-0.12104 0.17747,-0.25278 0.24861,-0.38995 0.0748,-0.14564 0.12333,-0.30253 0.17121,-0.45852 0.0333,-0.10791 0.0564,-0.21839 0.0717,-0.33016 0.004,-0.063 0.005,-0.0317 0.0322,4e-4 0.0405,0.0155 0.081,0.031 0.12153,0.0466 -0.004,0.006 -0.0162,0.0214 -0.0111,0.0169 0.0722,-0.0637 0.036,-0.046 0.0215,-0.0145 -0.0148,0.0431 -0.006,0.0908 0.003,0.13429 0.0179,0.0743 0.044,0.14634 0.0819,0.21271 0.024,0.0409 0.054,0.0774 0.0912,0.10684 0.0382,0.0173 0.0805,0.0187 0.12175,0.0215 0.11296,0.009 0.22306,-0.0161 0.3322,-0.0413 0.14549,-0.0348 0.27735,-0.10094 0.39971,-0.1854 0.10347,-0.0689 0.18623,-0.15972 0.26265,-0.25334 0.0793,-0.0989 0.14374,-0.20813 0.20698,-0.31764 0.1062,-0.17555 0.0327,-0.19375 0.2197,0.0782 -0.0826,0.0994 -0.15115,0.21194 -0.21626,0.32445 -0.10224,0.18148 -0.18574,0.37264 -0.27139,0.56228 -0.0865,0.1851 -0.1575,0.37667 -0.2163,0.57219 -0.0209,0.0809 -0.0467,0.1644 -0.0359,0.24884 -0.009,5.5e-4 0.0123,-0.0168 0.0212,-0.0167 0.083,0.002 0.16368,-0.0168 0.24325,-0.0382 0.12574,-0.0393 0.23405,-0.11449 0.34014,-0.19015 0.14085,-0.0991 0.2626,-0.22025 0.37676,-0.34837 0.0985,-0.11808 0.19113,-0.2409 0.27981,-0.36647 0.0754,-0.10788 0.14374,-0.22023 0.20603,-0.33609 0.0208,-0.0408 0.04,-0.0825 0.0571,-0.12503 0.30268,0.19899 0.20417,0.14353 0.0577,0.36578 -0.0814,0.12536 -0.14878,0.25845 -0.2073,0.39577 -0.0464,0.11445 -0.0784,0.23363 -0.092,0.35629 -0.009,0.0775 0.001,0.15172 0.0294,0.22382 0.0155,0.0339 0.0302,0.0728 0.0654,0.0883 0.0445,0.01 0.0879,0.009 0.13158,-0.004 0.10947,-0.0421 0.19937,-0.12154 0.28737,-0.19672 0.13263,-0.11142 0.233,-0.25087 0.32806,-0.39396 0.12678,-0.20011 0.22306,-0.41712 0.31791,-0.63356 0.0837,-0.18931 0.16125,-0.38118 0.23227,-0.57557 0.078,-0.22753 -0.002,-0.18829 0.33754,-0.0794 -0.009,0.0905 -0.0179,0.18106 -0.0263,0.27165 -0.0112,0.0959 -0.0212,0.19189 -0.0268,0.28832 -0.002,0.0387 -0.003,0.0811 0.0173,0.11031 0.0598,0.0136 0.12038,0.003 0.17993,-0.006 0.18659,-0.0397 0.35908,-0.12337 0.52838,-0.20852 0.2379,-0.12415 0.45271,-0.28412 0.65311,-0.46138 0.1565,-0.14306 0.28782,-0.30934 0.39965,-0.48889 0.0511,-0.0903 0.0995,-0.18374 0.12936,-0.28353 0.16852,0.64671 0.36702,-0.23244 0.22991,0.25803 -0.0407,0.16115 -0.0586,0.32672 -0.0732,0.4919 -0.0158,0.19429 -0.0291,0.38876 -0.0453,0.58301 -0.0129,0.18406 -0.0474,0.36448 -0.10085,0.54078 -0.0581,0.18257 -0.16169,0.33388 -0.32517,0.43744 -0.15352,0.087 -0.3272,0.10971 -0.49964,0.12778 -0.17301,0.0176 -0.34666,0.0106 -0.51832,-0.0151 -0.30277,-0.0673 -0.22539,-0.0557 -0.002,-0.39856 0.18541,0.002 0.37001,0.017 0.55552,0.0152 0.24251,-0.002 0.48016,-0.0498 0.71378,-0.11083 0.2519,-0.0653 0.48398,-0.18001 0.70623,-0.31268 0.20833,-0.12352 0.38408,-0.2874 0.55106,-0.46041 0.18684,-0.19672 0.3408,-0.41991 0.4678,-0.65893 0.0851,-0.17912 0.16252,-0.3673 0.18584,-0.5657 -0.0102,-0.0826 0.002,-0.0281 0.0216,0.009 -0.10651,0.0511 -0.21331,0.10298 -0.31857,0.15727 -0.0708,0.0233 -0.12247,0.0249 -0.20572,0.0637 -0.002,0.011 -0.0179,0.008 -0.0155,-0.003 v 0 c -0.0548,-0.14354 -0.001,-0.23105 0.10423,-0.34014 0.13899,-0.1279 0.29681,-0.23327 0.49157,-0.2422 0.19068,0.0289 0.30329,0.14887 0.29097,0.34768 -0.0262,0.23519 -0.10772,0.45911 -0.2068,0.67306 -0.13594,0.26648 -0.29831,0.51707 -0.50164,0.73791 -0.22415,0.24007 -0.47113,0.45609 -0.75608,0.62182 -0.24892,0.13922 -0.50762,0.25922 -0.78654,0.32538 -0.25736,0.062 -0.51859,0.11036 -0.78447,0.10922 -0.18122,-8.2e-4 -0.36188,-0.014 -0.54305,-0.0148 0.043,-0.34991 -0.0675,-0.33875 0.12036,-0.29921 0.14708,0.0228 0.29628,0.0279 0.44488,0.0194 0.12569,-0.0104 0.25582,-0.0236 0.36629,-0.0898 0.0274,-0.0212 0.0811,-0.0478 0.1275,-0.1782 0.0549,-0.15507 0.0871,-0.31571 0.0996,-0.4799 0.018,-0.19447 0.0296,-0.38945 0.0452,-0.58412 0.0156,-0.17995 0.0327,-0.3604 0.0741,-0.53663 0.006,-0.0235 0.0376,-0.2032 0.0647,-0.20977 0.2919,-0.071 0.37041,-0.1194 0.32787,0.0436 -0.0514,0.10685 -0.0957,0.2173 -0.15678,0.31934 -0.14574,0.246 -0.32681,0.46559 -0.54451,0.65243 -0.2193,0.18524 -0.4512,0.35602 -0.70915,0.48435 -0.19473,0.096 -0.39536,0.18639 -0.61186,0.21917 -0.1366,0.0132 -0.27346,0.0121 -0.38277,-0.0831 -0.0735,-0.0829 -0.10551,-0.17547 -0.10013,-0.28699 0.002,-0.10227 0.013,-0.20402 0.0259,-0.30546 0.0103,-0.09 0.0178,-0.18033 0.0281,-0.27035 0.37322,-0.0825 0.31365,-0.12202 0.24115,0.1131 -0.0722,0.19972 -0.15259,0.39623 -0.23696,0.59112 -0.10069,0.22753 -0.19872,0.45747 -0.32887,0.67021 -0.13086,0.20508 -0.28089,0.39833 -0.46858,0.55504 -0.12304,0.1002 -0.25222,0.20052 -0.41147,0.23258 -0.10183,0.0117 -0.20371,0.008 -0.29639,-0.041 -0.0797,-0.0528 -0.13728,-0.12146 -0.17386,-0.21064 -0.0428,-0.10918 -0.0671,-0.22121 -0.0546,-0.33936 0.0147,-0.14607 0.0468,-0.28905 0.1006,-0.42603 0.0615,-0.1515 0.13491,-0.29773 0.22401,-0.43511 0.15823,-0.25221 0.10179,-0.25261 0.47105,-0.20362 -0.0241,0.0423 -0.0444,0.0865 -0.0667,0.12971 -0.063,0.12551 -0.13729,0.24478 -0.21483,0.36176 -0.11625,0.17128 -0.2362,0.34066 -0.37199,0.4972 -0.12654,0.14028 -0.26346,0.27074 -0.41822,0.37996 -0.12988,0.0922 -0.26464,0.1811 -0.41955,0.22504 -0.10953,0.0296 -0.2217,0.0496 -0.33559,0.0373 -0.11721,-0.0171 -0.21195,-0.0696 -0.2472,-0.18999 -0.0263,-0.12349 -0.0115,-0.24523 0.0252,-0.36578 0.0599,-0.20884 0.13568,-0.41201 0.22973,-0.60807 0.092,-0.19496 0.17953,-0.39236 0.28427,-0.58095 0.0979,-0.17199 0.19988,-0.34234 0.34493,-0.4798 0.33373,0.10476 0.2976,0.0444 0.18452,0.24655 -0.0696,0.11818 -0.13545,0.23905 -0.21921,0.34818 -0.11754,0.15185 -0.25252,0.28821 -0.41301,0.39488 -0.14805,0.0929 -0.30399,0.17171 -0.4745,0.21467 -0.13538,0.0354 -0.27334,0.0613 -0.41392,0.046 -0.0904,-0.01 -0.17919,-0.0274 -0.2528,-0.0847 -0.06,-0.0496 -0.11162,-0.10802 -0.15147,-0.17523 -0.0505,-0.089 -0.0888,-0.1838 -0.1134,-0.28336 -0.0192,-0.0895 -0.0329,-0.17669 -0.004,-0.26593 0.0529,-0.16921 0.14465,-0.24395 0.3339,-0.21884 0.0554,0.0568 0.0809,0.12138 0.07,0.20144 -0.0108,0.12484 -0.0372,0.24744 -0.0681,0.36875 -0.0435,0.17169 -0.0949,0.34204 -0.16203,0.50607 -0.0715,0.15639 -0.15189,0.30842 -0.25801,0.44461 -0.1286,0.16889 -0.27133,0.32651 -0.43403,0.46336 -0.1373,0.11153 -0.27903,0.22183 -0.44415,0.28923 -0.13185,0.0492 -0.26837,0.08 -0.40584,0.032 -0.11468,-0.0519 -0.20405,-0.12961 -0.24302,-0.25334 -0.0393,-0.1493 -0.0445,-0.30112 -0.0179,-0.45374 0.0577,-0.30176 0.18441,-0.56257 0.40684,-0.78106 0.33576,-0.31588 0.7274,-0.55566 1.14558,-0.74875 0.24057,-0.0597 0.32506,0.28048 0.0845,0.34022 z"
       inkscape:connector-curvature="0" />
  </g>
</svg>
