<?xml version="1.0" encoding="UTF-8" standalone="no"?>
<!-- Created with Inkscape (http://www.inkscape.org/) -->

<svg
   xmlns:dc="http://purl.org/dc/elements/1.1/"
   xmlns:cc="http://creativecommons.org/ns#"
   xmlns:rdf="http://www.w3.org/1999/02/22-rdf-syntax-ns#"
   xmlns:svg="http://www.w3.org/2000/svg"
   xmlns="http://www.w3.org/2000/svg"
   xmlns:sodipodi="http://sodipodi.sourceforge.net/DTD/sodipodi-0.dtd"
   xmlns:inkscape="http://www.inkscape.org/namespaces/inkscape"
   width="150mm"
   height="45mm"
   viewBox="0 0 150 45"
   version="1.1"
   id="svg8"
   inkscape:version="0.92.1 unknown"
   sodipodi:docname="commutivity-requires-equiv-morphisms.svg">
  <defs
     id="defs2" />
  <sodipodi:namedview
     id="base"
     pagecolor="#ffffff"
     bordercolor="#666666"
     borderopacity="1.0"
     inkscape:pageopacity="0.0"
     inkscape:pageshadow="2"
     inkscape:zoom="1.4"
     inkscape:cx="145.45967"
     inkscape:cy="81.621312"
     inkscape:document-units="mm"
     inkscape:current-layer="layer1"
     showgrid="false" />
  <metadata
     id="metadata5">
    <rdf:RDF>
      <cc:Work
         rdf:about="">
        <dc:format>image/svg+xml</dc:format>
        <dc:type
           rdf:resource="http://purl.org/dc/dcmitype/StillImage" />
        <dc:title></dc:title>
      </cc:Work>
    </rdf:RDF>
  </metadata>
  <g
     inkscape:label="Layer 1"
     inkscape:groupmode="layer"
     id="layer1"
     transform="translate(0,-252)">
    <g
       id="g4581"
       transform="translate(14.561338,-2.7790179)">
      <path
         inkscape:connector-curvature="0"
         d="m 39.731354,270.04531 c -0.130087,0.65263 -0.226674,1.31121 -0.314013,1.97071 -0.05848,0.44302 -0.102774,0.88758 -0.132929,1.33338 -0.01217,0.0884 -0.0069,0.32559 -0.0048,0.36141 -0.09208,-0.0825 0.11996,-0.0951 0.182655,-0.11593 0.224528,-0.0808 0.452843,-0.15016 0.679045,-0.22596 0.221581,-0.0794 0.444162,-0.15463 0.671489,-0.21584 0.232757,-0.0551 0.463677,-0.1167 0.694486,-0.17932 0.188537,-0.0527 0.380593,-0.0908 0.574956,-0.11345 0.113369,-0.0137 0.228457,-0.0267 0.338045,0.0114 0.05978,0.0251 0.09928,0.0724 0.138215,0.1219 0.01495,-7.9e-4 0.01606,0.0204 0.0011,0.0211 v 0 c -0.03925,0.0573 -0.08483,0.10618 -0.145328,0.14195 -0.09435,0.0512 -0.200763,0.0697 -0.30403,0.0955 -0.180877,0.0436 -0.362905,0.0824 -0.542647,0.13059 -0.230349,0.0634 -0.461783,0.12217 -0.693777,0.1792 -0.220697,0.0609 -0.435859,0.13864 -0.652495,0.21238 -0.226983,0.0752 -0.454927,0.14748 -0.680331,0.22738 -0.200376,0.0629 -0.407426,0.13011 -0.580789,-0.0304 -0.109233,-0.17513 -0.08847,-0.37136 -0.07813,-0.57168 0.02766,-0.45453 0.07907,-0.9072 0.137594,-1.3587 0.08931,-0.66709 0.192066,-1.33252 0.317103,-1.99391 -0.0013,-0.27904 0.393361,-0.28081 0.394616,-0.002 z"
         id="path4488"
         style="opacity:1;fill:#000000;fill-opacity:0.72254902;stroke:none;stroke-width:0.52916664;stroke-linecap:round;stroke-miterlimit:4;stroke-dasharray:none;stroke-opacity:1" />
      <path
         inkscape:connector-curvature="0"
         d="m 39.836275,270.00732 c 0.498657,-0.18086 1.002911,-0.34507 1.513729,-0.48788 0.306935,-0.0815 0.617754,-0.14814 0.934024,-0.17875 0.175868,-0.0158 0.35215,-0.0143 0.525531,0.0201 0.05908,0.0121 0.09508,0.0349 0.135236,0.0777 0.01498,-2.6e-4 0.01535,0.0209 2.65e-4,0.0212 v 0 c -0.03346,0.0523 -0.06917,0.0903 -0.125703,0.1196 -0.163897,0.082 -0.339577,0.12648 -0.519716,0.15788 -0.297675,0.0603 -0.5959,0.1191 -0.889614,0.19699 -0.502814,0.13928 -0.99818,0.30357 -1.487644,0.48423 -0.290642,0.061 -0.376872,-0.35006 -0.08623,-0.41103 z"
         id="path4490"
         style="opacity:1;fill:#000000;fill-opacity:0.72254902;stroke:none;stroke-width:0.52916664;stroke-linecap:round;stroke-miterlimit:4;stroke-dasharray:none;stroke-opacity:1" />
      <path
         inkscape:connector-curvature="0"
         d="m 39.816206,271.87391 c 0.516197,-0.12953 1.029293,-0.27018 1.555485,-0.35308 0.241203,-0.0389 0.463003,-0.004 0.686335,0.0857 0.01495,8.7e-4 0.01371,0.022 -0.0013,0.0211 v 0 c -0.211106,0.0976 -0.426532,0.18552 -0.652142,0.24444 -0.511927,0.13448 -1.025917,0.26084 -1.538005,0.3947 -0.277847,0.0357 -0.328274,-0.35728 -0.05043,-0.39293 z"
         id="path4492"
         style="opacity:1;fill:#000000;fill-opacity:0.72254902;stroke:none;stroke-width:0.52916664;stroke-linecap:round;stroke-miterlimit:4;stroke-dasharray:none;stroke-opacity:1" />
      <path
         inkscape:connector-curvature="0"
         d="m 44.683063,271.2877 c 0.506132,-0.0223 1.012354,-0.0417 1.518796,-0.0553 0.318568,-0.006 0.637037,0.008 0.955492,0.0141 0.328266,0.007 0.656648,0.004 0.984837,-0.005 0.380479,-0.0122 0.760582,-0.0335 1.140362,-0.0592 0.448358,-0.0292 0.894385,-0.0813 1.338914,-0.14551 0.423206,-0.0626 0.847415,-0.11802 1.271024,-0.1778 0.369557,-0.0507 0.738256,-0.10718 1.107178,-0.1622 0.309874,-0.0475 0.620522,-0.0894 0.931764,-0.12678 0.209513,-0.0241 0.418701,-0.0514 0.629635,-0.0583 0.100602,3.4e-4 0.206517,-0.002 0.298545,0.0443 0.03815,0.0244 0.03644,0.0592 0.04239,0.0994 0.01461,0.003 0.01005,0.0239 -0.0046,0.0207 v 0 c -0.02006,0.0336 -0.03123,0.0696 -0.07089,0.0851 -0.08844,0.0284 -0.183153,0.0237 -0.274479,0.0358 -0.205899,0.0195 -0.410763,0.0478 -0.61613,0.0721 -0.308861,0.038 -0.616834,0.0822 -0.924552,0.12847 -0.369583,0.0561 -0.739135,0.11235 -1.109554,0.16268 -0.42337,0.0594 -0.847392,0.11413 -1.270082,0.17832 -0.450921,0.0624 -0.902822,0.11714 -1.357355,0.14584 -0.383572,0.0261 -0.767498,0.0474 -1.151813,0.059 -0.332087,0.008 -0.664379,0.012 -0.99649,0.003 -0.314007,-0.0101 -0.62798,-0.028 -0.942292,-0.0207 -0.504748,0.0106 -1.009425,0.0275 -1.513499,0.0561 -0.207997,-0.009 -0.195228,-0.30318 0.01275,-0.29415 z"
         id="path4498"
         style="opacity:1;fill:#000000;fill-opacity:0.72254902;stroke:none;stroke-width:0.52916664;stroke-linecap:round;stroke-miterlimit:4;stroke-dasharray:none;stroke-opacity:1" />
      <path
         inkscape:connector-curvature="0"
         d="m 53.165062,269.65961 c 0.487749,0.0953 0.971883,0.20754 1.43981,0.37606 0.266983,0.0981 0.507735,0.24138 0.701569,0.44966 0.09522,0.11969 0.174768,0.24625 0.18683,0.40075 -0.02895,0.21834 -0.214789,0.33698 -0.385712,0.44366 -0.223462,0.13382 -0.462031,0.23993 -0.702157,0.33976 -0.2302,0.0991 -0.468569,0.1763 -0.708104,0.24901 -0.07834,0.0211 -0.159287,0.0642 -0.240451,0.0512 0.01333,-0.0887 -0.01072,-0.24548 0.05993,-0.0984 0.01246,0.008 7.93e-4,0.0259 -0.01172,0.0176 v 0 c -0.12871,-0.0165 -0.198099,-0.10742 -0.136975,-0.27211 0.0605,-0.0752 0.173622,-0.0908 0.258371,-0.12318 0.228849,-0.0705 0.457184,-0.1432 0.680162,-0.23084 0.225258,-0.0881 0.449177,-0.18019 0.665527,-0.28871 0.08565,-0.0471 0.233159,-0.19039 0.197469,-0.067 0.05647,-0.0657 -0.02334,-0.15998 -0.06406,-0.22275 -0.161965,-0.18561 -0.374388,-0.30345 -0.604292,-0.38846 -0.456801,-0.16489 -0.929445,-0.27431 -1.406668,-0.36266 -0.193559,-0.0498 -0.12309,-0.32356 0.07047,-0.27373 z"
         id="path4500"
         style="opacity:1;fill:#000000;fill-opacity:0.72254902;stroke:none;stroke-width:0.52916664;stroke-linecap:round;stroke-miterlimit:4;stroke-dasharray:none;stroke-opacity:1" />
      <path
         inkscape:connector-curvature="0"
         d="m 56.850303,272.51801 c 0.251883,-0.55669 0.521465,-1.10509 0.791406,-1.65317 0.215101,-0.42912 0.430091,-0.85832 0.632238,-1.29373 0.178284,-0.38326 0.345905,-0.77135 0.516424,-1.1581 0.124722,-0.28644 0.244618,-0.57498 0.370144,-0.86107 0.17643,-0.3616 0.06823,-0.3858 0.494625,-0.0969 -0.0016,0.16677 0.01524,0.33288 0.02845,0.49892 0.02215,0.3242 0.03384,0.64903 0.05044,0.97355 0.02498,0.45273 0.05075,0.9054 0.08534,1.35751 0.0358,0.42753 0.07083,0.85514 0.108585,1.2825 0.02252,0.24706 0.05267,0.49343 0.09611,0.73771 0.01786,0.0781 0.0217,0.15916 0.05565,0.23239 0.04097,0.0452 0.01709,0.0205 0.07302,0.0727 0.01495,-7.7e-4 0.01606,0.0204 0.0011,0.0211 v 0 c -0.08664,0.0774 -0.03789,0.0526 -0.143899,0.0787 -0.16663,-0.007 -0.274429,-0.0993 -0.33723,-0.25272 -0.09144,-0.25153 -0.118198,-0.51935 -0.146937,-0.78401 -0.04101,-0.42949 -0.07198,-0.85989 -0.111056,-1.28957 -0.03396,-0.45551 -0.06119,-0.91145 -0.08724,-1.36747 -0.01662,-0.32238 -0.02635,-0.64507 -0.04481,-0.96735 -0.01315,-0.17557 -0.0285,-0.35138 -0.02849,-0.52756 0.328676,0.0635 0.272529,0.14486 0.383069,-0.0386 0.02761,-0.0458 -0.09766,0.18997 -0.06832,0.14523 -0.128561,0.28368 -0.246391,0.57209 -0.372539,0.85684 -0.170026,0.38956 -0.339415,0.77941 -0.51685,1.16569 -0.203708,0.43766 -0.417444,0.87038 -0.637051,1.30029 -0.272579,0.54307 -0.545131,1.08639 -0.798615,1.63872 -0.05063,0.27828 -0.444175,0.20668 -0.39355,-0.0716 z"
         id="path4502"
         style="opacity:1;fill:#000000;fill-opacity:0.72254902;stroke:none;stroke-width:0.52916664;stroke-linecap:round;stroke-miterlimit:4;stroke-dasharray:none;stroke-opacity:1" />
      <path
         inkscape:connector-curvature="0"
         d="m 57.51083,270.82379 c 0.4968,-0.19565 1.004353,-0.36145 1.520645,-0.49702 0.364318,-0.0959 0.735899,-0.15943 1.111253,-0.18914 0.244096,-0.0236 0.476353,0.0278 0.706813,0.101 0.01497,-6e-5 0.01505,0.0211 8.2e-5,0.0212 v 0 c -0.220906,0.1153 -0.447985,0.21196 -0.696793,0.24917 -0.35622,0.0653 -0.71595,0.11467 -1.066102,0.20949 -0.50361,0.13179 -0.99962,0.29077 -1.484307,0.48122 -0.265801,0.0648 -0.357391,-0.31113 -0.09159,-0.37589 z"
         id="path4504"
         style="opacity:1;fill:#000000;fill-opacity:0.72254902;stroke:none;stroke-width:0.52916664;stroke-linecap:round;stroke-miterlimit:4;stroke-dasharray:none;stroke-opacity:1" />
      <path
         inkscape:connector-curvature="0"
         d="m 63.829935,267.52538 c 0.543795,-0.17453 1.094126,-0.32693 1.650391,-0.45599 0.485103,-0.10843 0.978813,-0.1683 1.471658,-0.22827 0.526843,-0.0579 1.052898,-0.12178 1.578006,-0.19367 0.50437,-0.0758 1.00923,-0.14828 1.51398,-0.22149 0.49883,-0.0692 0.993585,-0.16314 1.489605,-0.24933 0.40646,-0.0721 0.816395,-0.12149 1.226828,-0.1643 0.269589,-0.0213 0.538181,-0.0566 0.808418,-0.0686 0.111633,0.002 0.246655,-0.0221 0.340635,0.0515 0.0073,0.006 0.01463,0.0117 0.02196,0.0175 0.0149,-10e-4 0.01696,0.0196 0.0021,0.0211 v 0 c -0.0076,0.009 -0.01521,0.0184 -0.02283,0.0276 -0.08705,0.0905 -0.223023,0.10035 -0.339511,0.12818 -0.267226,0.0494 -0.536236,0.0879 -0.805741,0.12257 -0.405744,0.0531 -0.80714,0.13175 -1.20927,0.20702 -0.498457,0.0951 -0.996437,0.19437 -1.499259,0.26415 -0.50506,0.0742 -1.01011,0.14837 -1.515097,0.22302 -0.526938,0.0745 -1.055674,0.13451 -1.584327,0.19544 -0.482267,0.0576 -0.965105,0.11921 -1.439545,0.2253 -0.547484,0.12535 -1.090282,0.27162 -1.622976,0.45029 -0.24898,0.046 -0.313973,-0.30616 -0.06499,-0.35211 z"
         id="path4506"
         style="opacity:1;fill:#000000;fill-opacity:0.72254902;stroke:none;stroke-width:0.52916664;stroke-linecap:round;stroke-miterlimit:4;stroke-dasharray:none;stroke-opacity:1" />
      <path
         inkscape:connector-curvature="0"
         d="m 72.001112,265.34915 c 0.506886,0.12868 1.020701,0.22606 1.537406,0.30522 0.313153,0.0459 0.625473,0.0972 0.927788,0.19227 0.146418,0.0525 0.277919,0.10685 0.360103,0.24156 0.02891,0.25973 -0.230468,0.39347 -0.411964,0.52752 -0.267435,0.19263 -0.537398,0.38171 -0.80673,0.57168 -0.173271,0.10912 -0.319,0.26226 -0.497766,0.3626 -0.06477,0.0235 -0.0031,-0.0995 -0.08868,-0.002 0.01061,0.0106 -0.0043,0.0256 -0.01495,0.015 v 0 c -0.160991,-0.0294 -0.117054,-0.1371 -0.06335,-0.26194 0.126077,-0.19188 0.333285,-0.31068 0.511884,-0.44812 0.267414,-0.1892 0.536853,-0.37563 0.800685,-0.56983 0.02708,-0.0202 0.143436,-0.10643 0.176405,-0.13262 0.02909,-0.0231 0.09094,-0.11125 0.08237,-0.0751 -0.03583,0.15114 -0.06403,0.0329 -0.01744,0.154 0.09808,0.0978 -0.08281,-0.0841 -0.143341,-0.0674 -0.28907,-0.0906 -0.589976,-0.13095 -0.88832,-0.17888 -0.523031,-0.0849 -1.043519,-0.18381 -1.558419,-0.3097 -0.229148,-0.0667 -0.134816,-0.39077 0.09433,-0.32406 z"
         id="path4508"
         style="opacity:1;fill:#000000;fill-opacity:0.72254902;stroke:none;stroke-width:0.52916664;stroke-linecap:round;stroke-miterlimit:4;stroke-dasharray:none;stroke-opacity:1" />
      <path
         inkscape:connector-curvature="0"
         d="m 64.089642,271.48614 c 0.598725,-0.13374 1.20224,-0.24401 1.807961,-0.34059 0.528185,-0.0871 1.061109,-0.13703 1.594432,-0.17904 0.505857,-0.0394 1.012349,-0.0695 1.518542,-0.10404 0.544467,-0.0355 1.087752,-0.0862 1.631304,-0.13318 0.487312,-0.0415 0.974969,-0.0788 1.462294,-0.12016 0.369739,-0.0351 0.739492,-0.0706 1.108355,-0.11405 0.257003,-0.037 0.515369,-0.0622 0.773285,-0.0915 0.16252,-0.0214 0.323146,-0.0541 0.485936,-0.0736 0.08007,-0.0124 0.157152,-0.01 0.235191,0.01 0.06105,0.0173 0.09729,0.0639 0.132683,0.11312 0.01384,0.006 0.0058,0.0253 -0.008,0.0196 v 0 c -0.0466,0.0103 -0.09389,0.019 -0.138956,0.0349 -0.06449,0.0267 -0.128693,0.054 -0.196096,0.0732 -0.164528,0.0527 -0.332388,0.0926 -0.503923,0.11513 -0.258082,0.0343 -0.516564,0.0655 -0.774038,0.10438 -0.371404,0.0485 -0.743432,0.0917 -1.115875,0.13145 -0.486974,0.051 -0.974342,0.0978 -1.461863,0.14328 -0.545751,0.0552 -1.091964,0.10655 -1.639236,0.1444 -0.505101,0.0336 -1.01046,0.0637 -1.515031,0.10476 -0.525291,0.0418 -1.050176,0.0915 -1.570575,0.17629 -0.599823,0.0965 -1.197721,0.20483 -1.790681,0.33777 -0.248854,0.0252 -0.284538,-0.3267 -0.03568,-0.35193 z"
         id="path4510"
         style="opacity:1;fill:#000000;fill-opacity:0.72254902;stroke:none;stroke-width:0.52916664;stroke-linecap:round;stroke-miterlimit:4;stroke-dasharray:none;stroke-opacity:1" />
      <path
         inkscape:connector-curvature="0"
         d="m 73.298599,269.55782 c 0.436478,0.141 0.872541,0.28603 1.283073,0.49227 0.181296,0.0963 0.355418,0.20863 0.453671,0.39313 0.07868,0.22375 -0.06384,0.4075 -0.217882,0.55608 -0.220707,0.18915 -0.471183,0.33929 -0.722434,0.48366 -0.299183,0.17047 -0.599559,0.33882 -0.904473,0.49884 -0.123409,0.0476 -0.278805,0.20752 -0.420116,0.14302 -0.0044,-0.005 -0.0088,-0.009 -0.01326,-0.0137 -0.09668,0.0582 -0.178933,-0.0786 -0.08225,-0.13672 v 0 c 0.0058,-0.0139 0.01156,-0.0277 0.01736,-0.0416 0.06734,-0.1591 0.239318,-0.21603 0.382125,-0.29435 0.301799,-0.15836 0.601279,-0.3212 0.900909,-0.48362 0.232544,-0.12907 0.466804,-0.26014 0.666808,-0.4376 0.105301,-0.1005 0.06892,-0.0417 0.128638,-0.12693 -0.02201,-0.14001 -0.227577,-0.20862 -0.324927,-0.27874 -0.397764,-0.2017 -0.822288,-0.34099 -1.247257,-0.47349 -0.198207,-0.0707 -0.09819,-0.35103 0.100021,-0.28031 z"
         id="path4512"
         style="opacity:1;fill:#000000;fill-opacity:0.72254902;stroke:none;stroke-width:0.52916664;stroke-linecap:round;stroke-miterlimit:4;stroke-dasharray:none;stroke-opacity:1" />
      <path
         inkscape:connector-curvature="0"
         d="m 78.767172,267.39606 c -0.117465,0.60684 -0.208929,1.2182 -0.286409,1.8313 -0.05005,0.38033 -0.07814,0.76283 -0.103278,1.14543 0.0056,0.11332 -0.02143,0.21983 -0.05444,0.31582 0.01381,-0.002 0.02765,-0.004 0.04147,-0.006 0.01392,-0.006 0.0217,0.0142 0.0078,0.0197 v 0 c -0.01722,0.0166 -0.03443,0.0331 -0.05165,0.0497 -0.213823,0.0779 -0.235833,-0.17607 -0.243355,-0.33498 5.29e-4,-0.39098 0.04556,-0.78016 0.09201,-1.16791 0.07609,-0.61929 0.172979,-1.2357 0.284271,-1.84964 -0.0024,-0.22174 0.31116,-0.22517 0.313586,-0.003 z"
         id="path4514"
         style="opacity:1;fill:#000000;fill-opacity:0.72254902;stroke:none;stroke-width:0.52916664;stroke-linecap:round;stroke-miterlimit:4;stroke-dasharray:none;stroke-opacity:1" />
      <path
         inkscape:connector-curvature="0"
         d="m 78.089709,267.85467 c 0.292515,-0.50255 0.698944,-0.89551 1.18872,-1.20058 0.36513,-0.21059 0.768077,-0.32536 1.179806,-0.39956 0.296,-0.0522 0.593474,-0.0559 0.888368,-8e-5 0.245649,0.0604 0.423386,0.21092 0.563427,0.41473 0.132853,0.22492 0.113406,0.44588 0.01217,0.67651 -0.178591,0.3205 -0.479012,0.52455 -0.77905,0.72024 -0.309348,0.1914 -0.637265,0.34896 -0.972645,0.48863 -0.150331,0.0546 -0.300731,0.13236 -0.464185,0.12538 -0.526741,-0.27021 0.282958,-0.38179 0.35283,-0.38795 0.200916,-0.0205 0.398504,-2.9e-4 0.592426,0.053 0.189727,0.0597 0.362148,0.15464 0.510936,0.28583 0.157076,0.15495 0.239112,0.35425 0.289227,0.56508 0.05655,0.26422 -0.0099,0.49515 -0.12687,0.73028 -0.162034,0.2419 -0.415772,0.35407 -0.680469,0.44748 -0.434329,0.1386 -0.890434,0.1823 -1.342737,0.21636 -0.411424,0.0309 -0.824264,0.007 -1.227814,-0.0773 -0.240581,-0.0615 -0.421471,-0.18717 -0.371205,-0.45368 0.09669,-0.19475 0.27152,-0.24342 0.462528,-0.31304 0.01357,-0.006 0.02249,0.0129 0.0089,0.0192 v 0 c -0.07308,0.0855 -0.1884,0.19285 -0.208765,0.31196 -0.0019,0.0104 0.01529,-0.0144 0.02294,-0.0216 -0.01257,-0.0744 0.15058,0.0435 0.194,0.0322 0.372907,0.0748 0.75287,0.0933 1.13275,0.0848 0.423717,-0.0159 0.850255,-0.0453 1.26215,-0.15269 0.196911,-0.0609 0.398796,-0.13592 0.518321,-0.31444 0.08202,-0.11777 0.11719,-0.26127 0.09263,-0.41477 -0.03175,-0.16447 -0.08741,-0.32245 -0.203385,-0.44759 -0.119939,-0.10952 -0.261538,-0.18724 -0.417338,-0.23452 -0.167011,-0.0458 -0.337968,-0.0549 -0.510379,-0.037 -0.642919,0.0608 0.282676,0.0655 -0.32621,-0.18485 0.123838,-0.0363 0.244422,-0.0845 0.364887,-0.13049 0.321395,-0.1322 0.635167,-0.284 0.92937,-0.46982 0.219334,-0.1469 0.429792,-0.30292 0.594117,-0.51212 0.08308,-0.13686 0.121065,-0.26647 0.04287,-0.417 -0.09192,-0.14963 -0.221306,-0.24622 -0.39479,-0.28551 -0.261263,-0.0474 -0.526468,-0.0344 -0.787575,0.0115 -0.376679,0.0712 -0.745956,0.17843 -1.079011,0.37404 -0.405079,0.25705 -0.75267,0.57648 -1.008795,0.98699 -0.0634,0.21366 -0.365569,0.124 -0.302167,-0.0897 z"
         id="path4516"
         style="opacity:1;fill:#000000;fill-opacity:0.72254902;stroke:none;stroke-width:0.52916664;stroke-linecap:round;stroke-miterlimit:4;stroke-dasharray:none;stroke-opacity:1" />
      <path
         inkscape:connector-curvature="0"
         d="m 67.797171,274.29744 c 0.47674,-0.16415 0.930709,-0.38433 1.344351,-0.67239 0.240469,-0.17998 0.452395,-0.39878 0.575863,-0.67563 0.09583,-0.20797 0.136067,-0.42951 0.105648,-0.65617 -0.02125,-0.0647 -0.04673,-0.16212 -0.119684,-0.17671 -0.0538,0.0658 -0.09878,0.13771 -0.139362,0.213 -0.0914,0.18819 -0.158517,0.38595 -0.220474,0.58537 -0.09276,0.32161 -0.166246,0.64831 -0.243655,0.97383 -0.09765,0.41638 -0.22792,0.82322 -0.38077,1.22232 -0.144037,0.36851 -0.31292,0.72643 -0.479698,1.08498 -0.07752,0.16863 -0.138236,0.34425 -0.211611,0.51457 -0.02724,0.0514 -0.048,0.12786 -0.107074,0.15135 0.02737,0.086 -0.09426,0.1247 -0.121624,0.0387 v 0 c -0.05642,-0.0579 -0.06174,-0.12688 -0.05084,-0.20558 0.04229,-0.24444 0.151892,-0.46991 0.252699,-0.69453 0.144187,-0.30804 0.289922,-0.61553 0.417012,-0.93118 0.157417,-0.38687 0.295365,-0.78104 0.393314,-1.18763 0.0838,-0.33016 0.164018,-0.66138 0.257315,-0.98902 0.08125,-0.25848 0.169206,-0.51675 0.304046,-0.75305 0.09573,-0.15086 0.209426,-0.30073 0.407895,-0.28134 0.1686,0.0556 0.255992,0.1854 0.286845,0.35881 0.0453,0.26875 0.0085,0.53307 -0.09992,0.78408 -0.173252,0.34312 -0.388843,0.6484 -0.707607,0.87378 -0.43257,0.30094 -0.904579,0.53283 -1.402702,0.7059 -0.20044,0.0424 -0.2604,-0.24107 -0.05996,-0.28346 z"
         id="path4518"
         style="opacity:1;fill:#000000;fill-opacity:0.72254902;stroke:none;stroke-width:0.52916664;stroke-linecap:round;stroke-miterlimit:4;stroke-dasharray:none;stroke-opacity:1" />
      <path
         inkscape:connector-curvature="0"
         d="m 67.780979,275.31543 c 0.497554,-0.13004 0.993034,-0.27074 1.498393,-0.36761 0.219726,-0.0473 0.440066,-0.007 0.65972,-0.0379 0.01471,-0.003 0.01871,0.0179 0.004,0.0208 v 0 c -0.208894,0.10862 -0.389311,0.26595 -0.618744,0.33603 -0.48876,0.1604 -0.992905,0.26594 -1.487662,0.40592 -0.252603,0.0394 -0.308319,-0.31784 -0.05572,-0.35723 z"
         id="path4520"
         style="opacity:1;fill:#000000;fill-opacity:0.72254902;stroke:none;stroke-width:0.52916664;stroke-linecap:round;stroke-miterlimit:4;stroke-dasharray:none;stroke-opacity:1" />
      <path
         inkscape:connector-curvature="0"
         d="m 68.903881,261.58777 c -0.523759,-0.14495 -1.047488,-0.10045 -1.549464,0.092 -0.252592,0.11384 -0.473794,0.28019 -0.603731,0.52083 -0.06342,0.15504 -0.0019,0.24693 0.133112,0.32331 0.24367,0.1011 0.503317,0.0729 0.755184,0.0247 0.299217,-0.0735 0.5646,-0.22836 0.809024,-0.41126 0.181626,-0.13995 0.331439,-0.31256 0.453729,-0.50543 0.02855,-0.0627 0.0451,-0.0607 0.04426,-0.1489 -0.0284,-0.009 0.05144,0.0362 0.0575,0.0387 0.05777,0.004 0.02564,0.031 0.0042,0.0689 -0.01757,0.0326 -0.06944,0.19163 -0.106704,0.32509 -0.06855,0.26112 -0.113501,0.52771 -0.158438,0.79369 -0.05354,0.31553 -0.13005,0.62631 -0.216246,0.9343 -0.09039,0.30276 -0.2003,0.60025 -0.352314,0.87775 -0.128487,0.21387 -0.320585,0.32562 -0.555069,0.38914 -0.283131,0.0606 -0.564023,0.005 -0.836764,-0.0749 -0.267994,-0.0774 -0.512958,-0.20193 -0.706622,-0.40377 -0.213091,-0.26051 -0.124159,-0.54434 0.134876,-0.73568 0.263406,-0.16131 0.570601,-0.20399 0.861711,-0.28867 0.01455,-0.003 0.01945,0.0171 0.0049,0.0206 v 0 c -0.266367,0.11907 -0.51035,0.28743 -0.688634,0.52265 -0.04406,0.0782 -0.08209,0.0453 -0.02,0.15198 0.153998,0.14657 0.349713,0.23346 0.548224,0.30407 0.209773,0.0632 0.425638,0.11143 0.646234,0.0878 0.149927,-0.028 0.263187,-0.0885 0.348211,-0.22115 0.124997,-0.2003 0.206073,-0.42093 0.273378,-0.6475 0.08851,-0.29661 0.161623,-0.59769 0.216236,-0.90247 0.0482,-0.27476 0.08969,-0.55103 0.156723,-0.82209 0.05159,-0.19709 0.100047,-0.39911 0.219535,-0.56847 0.06882,-0.0865 0.147561,-0.15854 0.264991,-0.15652 0.116438,0.0288 0.189868,0.0954 0.212228,0.21695 0.0177,0.17085 -0.04631,0.31999 -0.145304,0.45966 -0.149471,0.208 -0.321397,0.39729 -0.528421,0.55017 -0.278937,0.1979 -0.578035,0.36746 -0.914754,0.44448 -0.312174,0.0605 -0.638199,0.0886 -0.939099,-0.0368 -0.256908,-0.14647 -0.405543,-0.35792 -0.339087,-0.66489 0.179427,-0.40576 0.460663,-0.68595 0.878684,-0.85699 0.575437,-0.20018 1.167881,-0.24804 1.763209,-0.0902 0.274892,0.0887 0.149426,0.47747 -0.125465,0.38876 z"
         id="path4522"
         style="opacity:1;fill:#000000;fill-opacity:0.72254902;stroke:none;stroke-width:0.52916664;stroke-linecap:round;stroke-miterlimit:4;stroke-dasharray:none;stroke-opacity:1" />
      <path
         inkscape:connector-curvature="0"
         d="m 48.340573,267.29648 c 0.374851,-0.0508 0.767935,-0.083 1.105032,-0.26814 0.130403,-0.10442 0.105974,-0.11567 0.114231,-0.23456 -0.0027,-0.13221 -0.04458,-0.25974 -0.09802,-0.37945 -0.03248,-0.0718 -0.07548,-0.13497 -0.143433,-0.17404 -0.05576,-0.0141 -0.112342,-0.0122 -0.168371,-0.001 -0.103901,0.0257 -0.190759,0.0891 -0.27048,0.1579 -0.13543,0.11827 -0.245531,0.26152 -0.35246,0.40511 -0.115528,0.171 -0.225621,0.34941 -0.298294,0.54352 -0.105349,0.2289 -0.17327,0.47012 -0.223062,0.71628 -0.03929,0.2044 -0.06211,0.41115 -0.06808,0.61909 -0.0051,0.14826 0.01984,0.29081 0.07463,0.42795 0.04734,0.0908 0.13639,0.14504 0.219329,0.20012 0.134438,0.0786 0.28453,0.0845 0.435459,0.0721 0.210162,-0.0254 0.402516,-0.11607 0.592707,-0.2033 0.217342,-0.11555 0.458938,-0.15516 0.65115,-0.30877 0.01281,-0.008 0.02376,0.0103 0.01098,0.0181 v 0 c -0.192709,0.1888 -0.309007,0.44499 -0.545113,0.59356 -0.21766,0.14517 -0.449916,0.25454 -0.71419,0.27909 -0.221284,0.0105 -0.437256,-0.0134 -0.630677,-0.13104 -0.133275,-0.0892 -0.266946,-0.18336 -0.343558,-0.32889 -0.08074,-0.17483 -0.124053,-0.35951 -0.123815,-0.55304 5.29e-4,-0.2271 0.02215,-0.45299 0.06267,-0.67657 0.04997,-0.26937 0.11716,-0.53512 0.228851,-0.78642 0.120055,-0.26817 0.24588,-0.53497 0.428966,-0.76727 0.126265,-0.16176 0.257215,-0.32241 0.42046,-0.44877 0.12989,-0.0936 0.26906,-0.17249 0.430136,-0.19573 0.126124,-0.0122 0.252106,-0.007 0.366631,0.0536 0.120692,0.0813 0.202131,0.19147 0.253312,0.32832 0.05684,0.15878 0.110474,0.32055 0.119597,0.49035 -0.0021,0.25002 -0.104148,0.4588 -0.328682,0.58147 -0.374658,0.17947 -0.789733,0.22933 -1.197932,0.28234 -0.22025,0.006 -0.228204,-0.30586 -0.008,-0.31149 z"
         id="path4528"
         style="opacity:1;fill:#000000;fill-opacity:0.72254902;stroke:none;stroke-width:0.52916664;stroke-linecap:round;stroke-miterlimit:4;stroke-dasharray:none;stroke-opacity:1" />
    </g>
    <g
       id="g4619"
       transform="translate(11.106388)">
      <path
         inkscape:connector-curvature="0"
         d="m 26.932285,281.98967 c 0.48369,0.0908 0.975284,0.12785 1.465072,0.0769 0.292217,-0.0392 0.560078,-0.15311 0.796449,-0.32645 0.15299,-0.12349 0.283244,-0.27211 0.376542,-0.44518 0.03216,-0.0693 0.04505,-0.16638 0.03004,-0.29088 -0.01775,-0.11932 -0.06898,-0.22661 -0.126738,-0.33085 -0.04129,-0.0688 -0.07421,-0.14378 -0.126085,-0.20567 0.0078,0.004 -0.02572,-0.0232 -0.02222,-0.0209 0.0403,0.0264 0.146931,0.0457 0.149614,0.0463 -0.03864,0.0881 -0.07518,0.17729 -0.107598,0.26749 -0.08867,0.22461 -0.153765,0.45756 -0.217239,0.69025 -0.09248,0.34596 -0.174164,0.69463 -0.259482,1.04239 -0.102084,0.42263 -0.218612,0.84162 -0.334589,1.2606 -0.104413,0.38541 -0.210876,0.77024 -0.311761,1.15659 -0.04723,0.19304 -0.0999,0.38492 -0.139161,0.57981 -0.01164,0.16235 -0.07681,0.32457 -0.258839,0.35801 -0.133845,0.008 -0.232841,-0.0443 -0.324178,-0.13643 -0.100618,-0.0933 -0.06853,-0.21903 -0.10732,-0.33212 -0.007,-0.0132 0.0118,-0.0231 0.01876,-0.01 v 0 c 0.02973,0.0883 0.106497,0.11803 0.197649,0.12422 0.05465,-5.3e-4 0.111662,2.6e-4 0.165084,-0.004 -0.158978,0.26932 -0.07573,0.14716 -0.07024,0.0187 0.03761,-0.20243 0.09306,-0.40081 0.142613,-0.60051 0.100481,-0.38886 0.207261,-0.77599 0.31411,-1.16313 0.11465,-0.41708 0.231238,-0.83369 0.335728,-1.25346 0.08618,-0.35127 0.168026,-0.70367 0.262223,-1.05292 0.06737,-0.24211 0.134916,-0.48475 0.224176,-0.71992 0.06932,-0.17589 0.13153,-0.3632 0.251828,-0.51223 0.114324,-0.10218 0.262911,-0.10808 0.349617,0.017 0.05918,0.076 0.105535,0.16042 0.151496,0.24484 0.07741,0.13329 0.146039,0.27139 0.174302,0.42453 0.03992,0.22662 0.01677,0.43818 -0.104733,0.64108 -0.125225,0.20398 -0.276161,0.38871 -0.471572,0.53025 -0.286438,0.19831 -0.59672,0.34248 -0.94747,0.38171 -0.520692,0.0503 -1.041353,0.0148 -1.555999,-0.0792 -0.266263,-0.0565 -0.186338,-0.43307 0.07992,-0.37655 z"
         id="path4524"
         style="opacity:1;fill:#000000;fill-opacity:0.72254902;stroke:none;stroke-width:0.52916664;stroke-linecap:round;stroke-miterlimit:4;stroke-dasharray:none;stroke-opacity:1" />
      <path
         inkscape:connector-curvature="0"
         d="m 27.790332,283.34062 c 0.442044,-0.0463 0.88284,-0.10846 1.32752,-0.12167 0.21962,-0.0163 0.429189,0.0554 0.644909,0.073 0.01492,-10e-4 0.01667,0.0199 0.0019,0.0211 v 0 c -0.209286,0.0853 -0.402035,0.21146 -0.629293,0.2502 -0.437817,0.0922 -0.883581,0.13473 -1.327518,0.18669 -0.289459,0.0123 -0.306819,-0.39708 -0.01736,-0.40935 z"
         id="path4526"
         style="opacity:1;fill:#000000;fill-opacity:0.72254902;stroke:none;stroke-width:0.52916664;stroke-linecap:round;stroke-miterlimit:4;stroke-dasharray:none;stroke-opacity:1" />
      <path
         inkscape:connector-curvature="0"
         d="m 32.658377,282.91992 c -0.31604,0.34706 -0.597758,0.7221 -0.838058,1.12503 -0.09228,0.16679 -0.1379,0.27553 -0.175082,0.39838 -0.0011,0.0204 -0.0122,0.039 -0.01979,0.058 0.04667,0.0363 0.09956,0.053 0.157837,0.0559 0.116996,-0.008 0.218025,-0.0652 0.309682,-0.13413 0.137956,-0.11848 0.233576,-0.2735 0.320693,-0.43087 0.07694,-0.14419 0.13334,-0.29729 0.16777,-0.45687 0.01548,-0.0935 0.01963,-0.18974 -0.03075,-0.273 -0.01873,-0.0318 -0.04298,-0.045 -0.07724,-0.0513 -0.02622,-0.005 -0.05437,-0.007 -0.07935,-0.005 0.01619,0.003 -0.02302,0.0199 -0.02696,0.0228 0.0049,-0.0745 -0.09251,0.0492 -0.114255,0.0706 0.0019,0.0149 -0.01929,0.0173 -0.02103,0.002 v 0 c -0.06105,-0.0749 -0.08418,-0.11834 -0.05102,-0.21912 0.01865,-0.10346 0.07394,-0.18093 0.180422,-0.2077 0.07165,-0.0116 0.14256,-0.009 0.212539,0.0121 0.110406,0.0362 0.197559,0.10301 0.250545,0.20876 0.05543,0.14162 0.05825,0.28661 0.02835,0.43552 -0.04764,0.22518 -0.131056,0.43967 -0.243639,0.64069 -0.106979,0.18149 -0.226005,0.35837 -0.391549,0.49217 -0.132607,0.0961 -0.273833,0.17796 -0.438658,0.20234 -0.125508,0.0124 -0.242218,-0.004 -0.353108,-0.068 -0.119398,-0.0811 -0.180255,-0.191 -0.175662,-0.33764 0.02503,-0.25554 0.150469,-0.48364 0.276823,-0.70274 0.258448,-0.41672 0.557628,-0.80514 0.88601,-1.16942 0.233725,-0.17358 0.479198,0.15696 0.245473,0.33053 z"
         id="path4530"
         style="opacity:1;fill:#000000;fill-opacity:0.72254902;stroke:none;stroke-width:0.52916664;stroke-linecap:round;stroke-miterlimit:4;stroke-dasharray:none;stroke-opacity:1" />
      <path
         inkscape:connector-curvature="0"
         d="m 35.268396,283.12045 c 0.449278,-0.0574 0.897781,-0.1221 1.343464,-0.20299 0.177824,-0.0329 0.354875,-0.0734 0.520375,-0.14754 0.04448,-0.0214 0.103499,-0.0523 0.111675,-0.0826 -0.09439,0.0372 -0.01688,0.15406 -0.05842,0.0393 -0.04813,-0.0967 -0.127188,-0.17375 -0.19812,-0.25375 -0.08983,-0.0997 -0.182732,-0.19659 -0.283927,-0.28486 -0.04113,-0.0399 -0.08619,-0.0692 -0.139893,-0.0865 -0.02569,10e-5 -0.04553,0.0212 -0.06665,0.0359 -0.103079,0.0747 -0.191214,0.16674 -0.278096,0.25909 -0.151921,0.16118 -0.297706,0.32774 -0.43462,0.50183 -0.14337,0.18094 -0.276016,0.36948 -0.382765,0.57433 -0.06629,0.13567 -0.110223,0.28201 -0.131794,0.43213 -0.01455,0.13479 0.02066,0.2581 0.08871,0.37302 0.07704,0.11795 0.19155,0.18479 0.318834,0.23621 0.169071,0.06 0.347649,0.0658 0.524742,0.0554 0.228542,-0.0247 0.446546,-0.10219 0.659059,-0.18613 0.268531,-0.10811 0.535488,-0.22009 0.802658,-0.33151 0.199629,-0.0837 0.403834,-0.15525 0.606484,-0.23109 0.01378,-0.006 0.02204,0.0137 0.0083,0.0195 v 0 c -0.170582,0.15208 -0.339527,0.30638 -0.52673,0.43831 -0.249952,0.1793 -0.505817,0.35156 -0.789911,0.47313 -0.246269,0.10105 -0.496938,0.19951 -0.765982,0.2144 -0.226729,0.008 -0.453334,-0.006 -0.668335,-0.0858 -0.18969,-0.0802 -0.358502,-0.18823 -0.478025,-0.36064 -0.112787,-0.17376 -0.182121,-0.3639 -0.172834,-0.57434 0.01982,-0.26197 0.102981,-0.50934 0.23005,-0.73984 0.124687,-0.21619 0.26766,-0.42029 0.426058,-0.6133 0.146783,-0.17822 0.299906,-0.351 0.459473,-0.51791 0.113496,-0.11518 0.230309,-0.23043 0.373108,-0.30919 0.105886,-0.0479 0.215164,-0.0743 0.329144,-0.0362 0.09525,0.0364 0.179253,0.0911 0.252838,0.16214 0.104402,0.10086 0.208307,0.20219 0.304282,0.31126 0.09301,0.10543 0.194262,0.20656 0.260059,0.33232 0.06764,0.14718 0.09332,0.30004 -0.01971,0.43872 -0.0724,0.0718 -0.161186,0.1198 -0.253346,0.16237 -0.189942,0.0818 -0.389451,0.13589 -0.593029,0.17198 -0.450763,0.081 -0.904359,0.14423 -1.357826,0.20796 -0.279482,0.0136 -0.298738,-0.38163 -0.01926,-0.39525 z"
         id="path4534"
         style="opacity:1;fill:#000000;fill-opacity:0.72254902;stroke:none;stroke-width:0.52916664;stroke-linecap:round;stroke-miterlimit:4;stroke-dasharray:none;stroke-opacity:1" />
      <path
         inkscape:connector-curvature="0"
         d="m 43.645951,282.95547 c 0.579255,-0.097 1.156359,-0.20628 1.735079,-0.30635 0.339323,-0.058 0.677394,-0.1237 1.018003,-0.17384 0.198027,-0.0291 0.396695,-0.0527 0.597051,-0.0499 0.119946,0.003 0.224274,0.0315 0.308004,0.11892 0.01495,5.3e-4 0.0141,0.0217 -7.94e-4,0.0211 v 0 c -0.0806,0.0907 -0.175733,0.15017 -0.294709,0.18031 -0.192153,0.0501 -0.388784,0.0797 -0.584745,0.11066 -0.33796,0.0549 -0.675073,0.11486 -1.012592,0.17243 -0.578358,0.0994 -1.155692,0.20465 -1.73333,0.30815 -0.269783,0.0226 -0.301702,-0.35896 -0.03192,-0.38153 z"
         id="path4536"
         style="opacity:1;fill:#000000;fill-opacity:0.72254902;stroke:none;stroke-width:0.52916664;stroke-linecap:round;stroke-miterlimit:4;stroke-dasharray:none;stroke-opacity:1" />
      <path
         inkscape:connector-curvature="0"
         d="m 44.155525,284.35199 c 0.486849,-0.10672 0.973328,-0.21513 1.458005,-0.33135 0.299273,-0.0772 0.598998,-0.15192 0.903999,-0.20262 0.265441,-0.0386 0.53417,-0.0421 0.801214,-0.0224 0.219591,0.0255 0.433433,0.0858 0.631775,0.18242 0.01479,0.002 0.01164,0.0232 -0.0031,0.0209 v 0 c -0.210777,0.0508 -0.427008,0.0741 -0.641445,0.10559 -0.252235,0.0305 -0.50524,0.0558 -0.756258,0.0956 -0.297927,0.0533 -0.591127,0.12779 -0.884833,0.20041 -0.487641,0.11204 -0.975725,0.22212 -1.465152,0.32613 -0.264924,0.0312 -0.309073,-0.34344 -0.04415,-0.37466 z"
         id="path4538"
         style="opacity:1;fill:#000000;fill-opacity:0.72254902;stroke:none;stroke-width:0.52916664;stroke-linecap:round;stroke-miterlimit:4;stroke-dasharray:none;stroke-opacity:1" />
      <path
         inkscape:connector-curvature="0"
         d="m 52.737494,282.34556 c -0.435993,0.0151 -0.863965,0.0956 -1.260808,0.27782 -0.14814,0.0808 -0.30403,0.174 -0.356957,0.34314 0.03081,-0.12173 -0.003,0.10198 0.01169,0.15475 0.03919,0.0942 0.123452,0.14617 0.209487,0.19263 0.139655,0.0635 0.292134,0.0836 0.44342,0.0968 0.156369,0.016 0.30883,-0.0101 0.456846,-0.0589 0.143706,-0.0487 0.263586,-0.14127 0.379357,-0.23629 0.104074,-0.0893 0.187788,-0.19621 0.254743,-0.31521 0.03855,-0.099 0.04005,-0.0703 0.05069,-0.17327 0.0046,-0.0219 -0.0024,-0.0439 -0.0085,-0.062 0.260226,0.17314 0.202949,0.12677 0.160946,0.31864 -0.04497,0.19703 -0.0868,0.39467 -0.124822,0.59317 -0.05529,0.30734 -0.09936,0.61654 -0.147344,0.92506 -0.04876,0.36553 -0.119668,0.72686 -0.208912,1.08448 -0.08868,0.34035 -0.220441,0.66521 -0.389848,0.97268 -0.131979,0.22777 -0.302786,0.42702 -0.506553,0.59271 -0.163319,0.12973 -0.349448,0.17321 -0.553598,0.16489 -0.226126,-0.0217 -0.423638,-0.12758 -0.605954,-0.2563 -0.205568,-0.15722 -0.356076,-0.36628 -0.482211,-0.5893 -0.145013,-0.24305 -0.132289,-0.44685 -0.04756,-0.70751 0.141647,-0.23016 0.376309,-0.35197 0.617617,-0.45301 0.193558,-0.0871 0.399782,-0.1097 0.607287,-0.13721 0.01471,-0.003 0.01865,0.018 0.004,0.0208 v 0 c -0.186357,0.0837 -0.365067,0.18424 -0.532495,0.30178 -0.159237,0.12764 -0.330981,0.26249 -0.386813,0.46844 0.0029,-0.0122 0.0122,-0.0488 0.0087,-0.0367 -0.03097,0.10855 0.006,0.20762 0.05745,0.30444 0.09753,0.18279 0.210376,0.35932 0.373116,0.49147 0.127585,0.0984 0.262588,0.18849 0.424042,0.21853 0.128352,0.0129 0.238308,-0.0184 0.344049,-0.0953 0.178924,-0.13559 0.324022,-0.30506 0.431966,-0.50268 0.130088,-0.24271 0.236469,-0.49691 0.313029,-0.76175 0.09283,-0.34772 0.161655,-0.70065 0.209846,-1.0574 0.04764,-0.312 0.09211,-0.62454 0.146055,-0.93553 0.03715,-0.20181 0.07637,-0.40343 0.12763,-0.60222 0.01585,-0.0703 0.09587,-0.40756 0.154186,-0.41838 0.09986,-0.0186 0.2031,0.004 0.304649,0.005 -5.29e-4,0.0425 -0.0061,0.0847 -0.0094,0.12707 -0.0186,0.13645 -0.06425,0.26681 -0.134724,0.38555 -0.08539,0.13685 -0.189354,0.26034 -0.310433,0.36731 -0.136712,0.11851 -0.282829,0.22666 -0.452143,0.29444 -0.182571,0.0663 -0.368544,0.11506 -0.565082,0.10062 -0.19051,-0.0127 -0.383897,-0.0304 -0.56158,-0.10565 -0.158282,-0.0765 -0.299075,-0.17585 -0.382694,-0.33567 -0.08924,-0.20194 -0.07998,-0.38948 0.01511,-0.59107 0.127183,-0.21811 0.319754,-0.365 0.548598,-0.47028 0.438999,-0.1896 0.907462,-0.27653 1.384921,-0.29667 0.279856,0.008 0.268963,0.40347 -0.0109,0.39577 z"
         id="path4540"
         style="opacity:1;fill:#000000;fill-opacity:0.72254902;stroke:none;stroke-width:0.52916664;stroke-linecap:round;stroke-miterlimit:4;stroke-dasharray:none;stroke-opacity:1" />
      <path
         inkscape:connector-curvature="0"
         d="m 55.732887,282.12925 c -0.237953,0.32173 -0.479202,0.64986 -0.621763,1.02675 -0.0098,0.0605 -0.02957,0.12529 0.01027,0.17973 0.05632,0.0528 0.127273,0.0834 0.200449,0.10467 0.08946,0.0123 0.171121,-0.009 0.246644,-0.0559 0.08334,-0.0682 0.126751,-0.16693 0.1641,-0.26516 0.03969,-0.1201 0.06752,-0.24327 0.08731,-0.36806 0.0117,-0.0939 0.01445,-0.19016 -0.02058,-0.2793 -0.02611,-0.0445 -0.06662,-0.0766 -0.112469,-0.0988 -0.03949,-0.0159 -0.08362,-0.0145 -0.125566,-0.0181 -0.05463,-0.004 -0.05418,-0.0323 -0.07069,-0.0727 -0.0053,-0.01 -0.0105,-0.02 -0.01577,-0.03 -0.0019,0.002 -0.0038,0.003 -0.0058,0.004 -0.01116,0.01 -0.02527,-0.006 -0.01407,-0.0158 v 0 c 0.0019,-0.004 0.0037,-0.007 0.0055,-0.0109 -6.6e-5,-0.0148 -1.32e-4,-0.0297 -1.99e-4,-0.0445 0.01863,-0.056 0.06444,-0.0884 0.123251,-0.0933 0.08346,-10e-4 0.16591,0.008 0.238215,0.054 0.08242,0.0597 0.147638,0.13159 0.173347,0.23296 0.03074,0.11878 0.02912,0.23795 0.0114,0.35917 -0.02524,0.16667 -0.06056,0.3324 -0.12247,0.48975 -0.05335,0.12904 -0.120211,0.25168 -0.236736,0.33455 -0.10962,0.0694 -0.231193,0.10867 -0.361919,0.10999 -0.133564,-0.002 -0.266139,-0.021 -0.374322,-0.10622 -0.179797,-0.17861 -0.17373,-0.38546 -0.08111,-0.61492 0.168463,-0.39489 0.418158,-0.7467 0.67355,-1.08975 0.189179,-0.16221 0.418586,0.10533 0.229404,0.26754 z"
         id="path4542"
         style="opacity:1;fill:#000000;fill-opacity:0.72254902;stroke:none;stroke-width:0.52916664;stroke-linecap:round;stroke-miterlimit:4;stroke-dasharray:none;stroke-opacity:1" />
      <path
         inkscape:connector-curvature="0"
         d="m 58.176132,282.38061 c 0.32657,-0.20734 0.659027,-0.41146 0.945697,-0.67312 5.29e-4,0.0251 0.08501,-0.13263 0.08238,-0.12854 -0.04155,0.0646 -0.01789,0.0824 -0.03022,0.0318 -0.02267,-0.0729 -0.06741,-0.13297 -0.121555,-0.18543 -0.03605,-0.0338 -0.07093,-0.0635 -0.119747,-0.0721 -0.04165,-0.007 -0.07217,-0.003 -0.107514,0.0187 -0.06553,0.0407 -0.122602,0.0896 -0.174926,0.14596 -0.08818,0.0878 -0.158139,0.19015 -0.222449,0.29601 -0.108704,0.17243 -0.215447,0.34585 -0.314431,0.52405 -0.10823,0.19804 -0.207491,0.4011 -0.290766,0.6109 -0.05551,0.14069 -0.09547,0.28713 -0.124997,0.43584 -0.02627,0.1267 -0.02334,0.2527 5.29e-4,0.37901 0.02265,0.11745 0.07375,0.2256 0.127167,0.33162 0.05851,0.11302 0.127698,0.21965 0.206962,0.31908 0.075,0.0942 0.171193,0.16286 0.27786,0.2164 0.12111,0.0608 0.245266,0.07 0.377005,0.05 0.235333,-0.0557 0.448093,-0.17595 0.656066,-0.29528 0.314044,-0.1961 0.61015,-0.41904 0.913903,-0.6304 0.355663,-0.21681 0.708159,-0.46078 1.101508,-0.60116 0.01333,-0.007 0.02296,0.012 0.0096,0.0188 v 0 c -0.273055,0.33735 -0.617087,0.61427 -0.940289,0.90298 -0.299794,0.24024 -0.606388,0.47421 -0.936636,0.6715 -0.246321,0.1383 -0.500864,0.27409 -0.782209,0.32326 -0.196648,0.0199 -0.385611,0.004 -0.564427,-0.0877 -0.146487,-0.0749 -0.282702,-0.16503 -0.391695,-0.29028 -0.09766,-0.11418 -0.181935,-0.2385 -0.253079,-0.37098 -0.07148,-0.13173 -0.137297,-0.26828 -0.172413,-0.41473 -0.03682,-0.16583 -0.05611,-0.33341 -0.02511,-0.50239 0.03762,-0.23857 0.105265,-0.46974 0.203544,-0.69098 0.096,-0.21899 0.202353,-0.43321 0.324056,-0.6392 0.10762,-0.18108 0.220181,-0.35931 0.338442,-0.53363 0.08701,-0.11698 0.178245,-0.23074 0.291275,-0.3241 0.0882,-0.0716 0.181567,-0.13734 0.289941,-0.17489 0.09799,-0.0267 0.195476,-0.0318 0.292393,0.004 0.0844,0.0356 0.155716,0.0879 0.218094,0.15521 0.07554,0.0854 0.139014,0.18051 0.1783,0.28832 0.05937,0.18983 -0.0222,0.34014 -0.167,0.46452 -0.305549,0.25989 -0.64729,0.47207 -0.985052,0.68697 -0.183647,0.0779 -0.293856,-0.18179 -0.110207,-0.25972 z"
         id="path4544"
         style="opacity:1;fill:#000000;fill-opacity:0.72254902;stroke:none;stroke-width:0.52916664;stroke-linecap:round;stroke-miterlimit:4;stroke-dasharray:none;stroke-opacity:1" />
      <path
         inkscape:connector-curvature="0"
         d="m 64.598222,284.21647 c 0.418855,-0.31759 0.826106,-0.65031 1.207744,-1.01192 0.261296,-0.24846 0.468604,-0.54084 0.649115,-0.85093 0.141252,-0.2542 0.249233,-0.52443 0.355728,-0.79443 0.08682,-0.21592 0.159503,-0.43713 0.24412,-0.65388 0.02887,-0.0656 0.06214,-0.14347 0.08074,-0.20697 0.08448,0.04 0.19656,0.0457 0.253434,0.11994 0.01567,0.0204 -0.154536,0.2892 -0.178357,0.32924 -0.07923,0.14457 -0.152494,0.29229 -0.227186,0.43923 -0.06325,0.12933 -0.115627,0.26541 -0.166255,0.40186 -0.04544,0.124 -0.08881,0.24887 -0.124311,0.37611 -0.01137,0.0371 -0.01695,0.0769 -0.01277,0.11323 0.03236,0.0422 0.0832,0.0526 0.132705,0.0639 0.07158,0.0133 0.144429,0.0176 0.217106,0.019 0.02073,0.004 0.06045,-0.0113 0.06831,-0.0141 0.143036,0.34719 0.02431,0.26872 -0.05319,0.43915 -0.07179,0.16567 0.0091,-0.0267 -0.05317,0.1256 -0.03982,0.11865 -0.08256,0.23629 -0.126738,0.35337 -0.05575,0.14748 -0.119399,0.29179 -0.178846,0.43778 -0.05178,0.12744 -0.09882,0.25672 -0.141951,0.38733 -0.03269,0.0897 -0.05665,0.18168 -0.07286,0.27566 -0.006,0.0416 -0.0055,0.0847 -0.005,0.12627 0.0075,0.0136 0.01896,0.0117 0.03471,0.014 0.112084,0.005 0.223299,-0.0225 0.331348,-0.049 0.226625,-0.0589 0.439558,-0.15749 0.647347,-0.26347 0.251748,-0.12595 0.485072,-0.28315 0.708989,-0.45277 0.221935,-0.16351 0.416974,-0.35756 0.594544,-0.56748 0.13292,-0.16998 0.256963,-0.35159 0.334811,-0.55417 0.05054,-0.12391 0.09691,-0.25167 0.109218,-0.38572 0.0023,-0.0326 -6.81e-4,-0.0648 -0.01356,-0.0941 -0.02082,-0.006 0.01051,0.0111 0.01703,0.0142 -0.03538,0.0205 -0.06468,0.0462 -0.09326,0.0763 -0.09176,0.1048 -0.182457,0.21017 -0.267577,0.32051 -0.114294,0.14611 -0.213148,0.30209 -0.303874,0.46357 -0.09635,0.18212 -0.175443,0.37242 -0.249069,0.56461 -0.05276,0.14564 -0.10618,0.29271 -0.119696,0.44796 -0.0016,0.0642 0.0082,0.12714 0.05196,0.17603 0.07246,0.0546 0.170042,0.0466 0.255224,0.0387 0.220916,-0.0374 0.414581,-0.15528 0.60336,-0.26933 0.298467,-0.18529 0.565479,-0.41298 0.82206,-0.65143 0.270897,-0.25545 0.507825,-0.54206 0.725404,-0.84334 0.148851,-0.22038 0.278572,-0.45268 0.428326,-0.67245 0.06772,-0.10037 0.145657,-0.18894 0.251198,-0.2491 0.104538,-0.0475 0.192758,-3.8e-4 0.263878,0.0767 0.05742,0.0676 0.09315,0.14974 0.132615,0.22834 0.03357,0.0683 0.07478,0.1322 0.114085,0.19722 0.120285,0.10623 -0.164084,0.22566 -0.259784,0.1268 -0.04977,-0.039 -0.111663,-0.0272 -0.170109,-0.0188 -0.159609,0.0427 -0.293994,0.1495 -0.422025,0.24948 -0.238622,0.20092 -0.453565,0.42842 -0.656286,0.66498 -0.151319,0.20191 -0.313854,0.41409 -0.393559,0.65736 -0.01,0.0501 -0.09255,0.19024 -0.02784,0.22864 0.119761,0.0218 0.236752,-0.0221 0.347884,-0.0616 0.223834,-0.0822 0.42676,-0.20643 0.625984,-0.33526 0.257504,-0.15503 0.482436,-0.35122 0.691635,-0.56532 0.200524,-0.20206 0.366052,-0.43234 0.511177,-0.67619 0.08095,-0.1339 0.150052,-0.27182 0.189713,-0.42311 -0.0064,-0.10438 0.200627,-0.008 0.03642,0.13584 -0.157783,0.16023 -0.294008,0.33976 -0.426612,0.52084 -0.24577,0.34922 -0.469591,0.71304 -0.703144,1.07038 -0.308523,0.46042 -0.597611,0.93319 -0.884971,1.40695 -0.289221,0.47932 -0.563188,0.9674 -0.799499,1.47504 -0.138078,0.32077 -0.235404,0.65733 -0.309126,0.99819 -0.02005,0.11965 -0.05542,0.24614 -0.02428,0.36644 0.02073,-0.0327 0.09458,-0.06 0.132863,-0.0826 0.238038,-0.14587 0.430389,-0.35001 0.617861,-0.55385 0.276987,-0.30188 0.51192,-0.63849 0.740567,-0.97745 0.207773,-0.30545 0.39063,-0.62643 0.551151,-0.95889 0.09516,-0.20313 0.160985,-0.41864 0.192918,-0.64054 0.01079,-0.11479 -0.0018,-0.22735 -0.06338,-0.32606 -0.03062,-0.0411 -0.06829,-0.0456 -0.116237,-0.0449 -0.01079,-0.004 -0.10266,-0.003 -0.05224,0.008 0.05039,-0.0481 0.02298,-0.0647 0.0185,-0.0112 0.03454,0.0538 0.09697,0.0572 0.155618,0.0645 0.134233,0.0109 0.262665,-0.0379 0.384308,-0.0888 0.205051,-0.10333 0.392202,-0.23668 0.578245,-0.37017 0.263822,-0.18673 0.510501,-0.39565 0.750853,-0.61131 0.230706,-0.20911 0.439777,-0.43981 0.640718,-0.67717 0.07712,-0.0991 0.1655,-0.19542 0.213774,-0.31312 0.0091,0.0221 -5.2e-5,-0.0397 0.0024,-0.03 0.0742,0.28926 0.05934,0.18889 -0.08163,0.37218 -0.09079,0.13224 -0.172354,0.27082 -0.240837,0.41591 -0.10871,0.22137 -0.1926,0.45364 -0.270355,0.68732 -0.04385,0.159 -0.105488,0.31867 -0.108491,0.4854 0.0025,0.0704 0.02945,0.10616 0.09821,0.10974 0.134151,-0.009 0.25534,-0.0766 0.37262,-0.13686 0.200459,-0.10507 0.396734,-0.21559 0.580878,-0.34738 0.214708,-0.15543 0.393895,-0.35004 0.558804,-0.55588 0.138507,-0.18174 0.263478,-0.37302 0.373376,-0.57327 0.06173,-0.11811 0.122,-0.23786 0.16602,-0.36386 0.03527,-0.1174 -0.05851,-0.20584 0.10643,0.0387 -0.09199,0.0949 -0.155752,0.21233 -0.220038,0.32669 -0.06688,0.13542 -0.126853,0.27449 -0.180404,0.41588 -0.05886,0.15972 -0.09189,0.3266 -0.105725,0.49582 -0.007,0.11856 1.32e-4,0.23828 0.03111,0.35315 0.01298,0.0568 0.0269,0.10724 0.07597,0.1393 0.07796,0.0238 0.162735,0.0143 0.242412,0.006 0.16357,-0.0199 0.30729,-0.10001 0.44411,-0.18676 0.210812,-0.13274 0.376704,-0.31899 0.537234,-0.50647 0.178589,-0.21102 0.331307,-0.44186 0.488977,-0.66844 0.115562,-0.16419 0.228859,-0.32968 0.334388,-0.5005 0.03848,-0.0708 0.08354,-0.13814 0.121511,-0.20923 0.003,0.013 0.0068,-0.0289 0.01011,-0.0216 0.164563,0.37203 0.169684,0.23061 0.02339,0.40519 -0.06934,0.0887 -0.120223,0.18931 -0.172165,0.28864 -0.06951,0.14477 -0.123279,0.29855 -0.176514,0.45084 -0.06007,0.17225 -0.111099,0.34748 -0.15298,0.525 -0.0247,0.10469 -0.04284,0.21142 -0.03802,0.31924 -3.3e-5,0.0246 0.0087,0.0485 0.01611,0.0706 0.07086,0.017 0.143078,0.004 0.21364,-0.008 0.162902,-0.0411 0.312733,-0.11798 0.45501,-0.20548 0.204961,-0.141 0.386099,-0.31364 0.561683,-0.48901 0.195063,-0.20303 0.376172,-0.41902 0.552135,-0.63865 0.159515,-0.20092 0.310212,-0.40867 0.454497,-0.62074 0.07058,-0.10442 0.15069,-0.21468 0.20017,-0.32559 0.01465,-0.0314 0.02141,-0.0635 0.01027,-0.0903 0.159093,0.15618 0.13335,0.0911 0.105777,0.23888 -0.01913,0.11138 -0.05402,0.21901 -0.08491,0.32745 -0.01086,0.0429 -0.02939,0.10943 -0.04115,0.14118 -0.09276,-0.0771 -0.04625,-0.16807 0.007,0.18511 -0.02822,0.0344 -0.01444,0.0203 -0.03984,0.0437 -0.142928,0.0907 -0.271211,-0.11144 -0.128284,-0.20214 v 0 c 5.96e-4,-7.4e-4 8.78e-4,-9.2e-4 0.0015,-0.002 0.0067,-0.007 0.01331,-0.0146 0.01997,-0.0219 0.114938,0.13378 0.201133,0.19525 -0.02634,0.11439 -0.0078,-0.003 -0.02533,-0.0401 -0.02714,-0.0436 -0.02442,-0.0763 -0.0094,-0.15072 0.0126,-0.22652 0.02863,-0.10399 0.06398,-0.20623 0.08528,-0.3121 0.03965,-0.19886 0.04233,-0.33217 0.303686,-0.27249 -0.0173,0.0477 -0.0251,0.098 -0.04199,0.14593 -0.06795,0.14759 -0.158255,0.28154 -0.250604,0.41501 -0.145649,0.21558 -0.295008,0.42865 -0.453133,0.63532 -0.174149,0.23295 -0.340936,0.47275 -0.54102,0.68475 -0.18422,0.18721 -0.371877,0.37323 -0.588731,0.52308 -0.162318,0.10887 -0.33155,0.21325 -0.521722,0.26545 -0.12213,0.0253 -0.24414,0.0391 -0.364219,-0.005 -0.09911,-0.048 -0.166759,-0.12094 -0.196865,-0.22893 -0.0299,-0.13995 -0.01772,-0.28042 0.01363,-0.41956 0.04102,-0.18808 0.09283,-0.37359 0.155065,-0.55579 0.07529,-0.21861 0.14731,-0.43923 0.263195,-0.64078 0.06584,-0.11797 0.136377,-0.23395 0.235629,-0.3274 0.155451,-0.14615 0.168516,-0.13479 0.348922,0.0988 -0.04802,0.06 -0.08623,0.12695 -0.127057,0.192 -0.110502,0.17139 -0.226751,0.33888 -0.343855,0.50579 -0.16194,0.23314 -0.322954,0.4677 -0.507881,0.68354 -0.179122,0.20299 -0.366835,0.40045 -0.600699,0.54152 -0.170944,0.10115 -0.348993,0.19174 -0.550342,0.20938 -0.131868,0.009 -0.267321,0.0124 -0.388385,-0.0492 -0.09869,-0.0673 -0.163448,-0.1551 -0.188733,-0.27368 -0.03156,-0.13903 -0.05502,-0.28039 -0.04667,-0.4236 0.01131,-0.19215 0.04261,-0.38212 0.107388,-0.56414 0.07324,-0.1967 0.156543,-0.39003 0.267939,-0.56867 0.08403,-0.12595 0.176672,-0.24669 0.293729,-0.34413 0.292408,0.0578 0.236848,0.007 0.168593,0.18748 -0.06124,0.15403 -0.141548,0.30009 -0.218954,0.44637 -0.116556,0.20403 -0.245924,0.40036 -0.390874,0.58549 -0.173437,0.21371 -0.363916,0.4131 -0.583549,0.58029 -0.18879,0.13768 -0.385544,0.26438 -0.593292,0.37185 -0.143212,0.0731 -0.291168,0.1467 -0.45512,0.15284 -0.146309,-0.0158 -0.238996,-0.091 -0.27712,-0.23633 -0.03105,-0.1914 0.01971,-0.37644 0.07533,-0.55949 0.07832,-0.24428 0.16591,-0.48587 0.275167,-0.71823 0.09685,-0.1896 0.198077,-0.37907 0.343481,-0.53689 0.156764,-0.16805 0.114254,-0.2101 0.361945,-0.0634 0.0094,0.006 -0.04438,0.0135 -0.02598,0.0202 -0.08543,0.0997 -0.15617,0.21138 -0.245876,0.30768 -0.206222,0.23951 -0.42056,0.4727 -0.656053,0.68399 -0.242816,0.22067 -0.492296,0.43403 -0.759871,0.62451 -0.193098,0.13839 -0.386256,0.28347 -0.606329,0.37647 -0.144007,0.0627 -0.291018,0.12697 -0.450901,0.12878 -0.115936,-0.006 -0.22921,-0.0323 -0.309659,-0.12242 -0.08066,-0.106 -0.08741,-0.23395 0.01238,-0.33864 0.06746,-0.0505 0.143483,-0.0676 0.227311,-0.0634 0.12447,0.007 0.233903,0.0461 0.308408,0.15203 0.09052,0.14454 0.124863,0.30527 0.10576,0.47574 -0.03835,0.28698 -0.131356,0.56078 -0.260059,0.82021 -0.168577,0.33892 -0.360566,0.66543 -0.573465,0.97854 -0.236431,0.34574 -0.479301,0.68812 -0.760643,0.99938 -0.202604,0.2211 -0.413541,0.43769 -0.662036,0.60801 -0.155356,0.0924 -0.326149,0.15488 -0.472572,0.009 -0.107257,-0.16214 -0.09957,-0.35449 -0.0714,-0.54131 0.08013,-0.41841 0.201869,-0.82791 0.381234,-1.21534 0.244972,-0.51393 0.524848,-1.00965 0.820415,-1.49614 0.290722,-0.47464 0.592245,-0.9425 0.90809,-1.40089 0.24083,-0.35525 0.480372,-0.7118 0.735865,-1.05674 0.147847,-0.19262 0.298071,-0.38636 0.485849,-0.54238 0.15771,-0.11092 0.413652,-0.13147 0.323884,0.11974 -0.07784,0.19069 -0.167173,0.3766 -0.274711,0.5525 -0.156041,0.25284 -0.336551,0.48839 -0.545838,0.70001 -0.220496,0.22323 -0.454366,0.43223 -0.705956,0.62021 -0.21141,0.14833 -0.429865,0.29013 -0.672818,0.38176 -0.187358,0.0629 -0.38578,0.11582 -0.572297,0.0211 -0.165572,-0.1362 -0.171217,-0.31149 -0.103549,-0.50742 0.128165,-0.30957 0.285381,-0.60358 0.510515,-0.85534 0.216775,-0.24485 0.448969,-0.47557 0.708764,-0.67525 0.16424,-0.12101 0.335095,-0.24422 0.541367,-0.27734 0.135432,-0.0142 0.260613,-0.002 0.365799,0.0944 0.143177,0.15038 -0.06686,0.45642 -0.144499,0.24113 -0.04597,-0.0673 -0.09901,-0.13007 -0.136564,-0.20296 -0.03493,-0.0615 -0.06235,-0.12728 -0.101757,-0.1861 0.02049,-0.003 0.04129,-0.0124 0.06183,-0.009 -0.05777,0.0637 -0.104826,0.13664 -0.153692,0.20731 -0.148251,0.22466 -0.280408,0.45967 -0.43682,0.67898 -0.23088,0.31187 -0.481411,0.60825 -0.764999,0.87406 -0.270401,0.25158 -0.550872,0.49391 -0.865661,0.68919 -0.227488,0.13614 -0.463039,0.26865 -0.731912,0.29603 -0.173484,0.007 -0.342335,-0.0108 -0.478238,-0.13038 -0.09611,-0.10362 -0.151585,-0.22391 -0.157616,-0.36698 0.0045,-0.18561 0.05467,-0.36189 0.118679,-0.53555 0.09568,-0.25919 0.205655,-0.51375 0.339211,-0.75586 0.100901,-0.17191 0.213742,-0.33609 0.339416,-0.49098 0.09899,-0.11943 0.203156,-0.23619 0.319676,-0.33883 0.07078,-0.052 0.146202,-0.0976 0.234695,-0.11041 0.0854,-0.003 0.156035,0.0216 0.215056,0.0852 0.06484,0.0763 0.09581,0.16496 0.09813,0.26556 -0.0067,0.16422 -0.05084,0.3213 -0.11332,0.47307 -0.117811,0.2672 -0.250075,0.52739 -0.440076,0.75198 -0.190635,0.22641 -0.394187,0.44192 -0.629947,0.62251 -0.236592,0.18152 -0.485922,0.34586 -0.751659,0.48205 -0.229383,0.11598 -0.464659,0.22135 -0.715274,0.283 -0.15282,0.0343 -0.310778,0.0685 -0.467392,0.0393 -0.100447,-0.0272 -0.187177,-0.0716 -0.242843,-0.16349 -0.04858,-0.0904 -0.06328,-0.1859 -0.0544,-0.28815 0.01071,-0.11383 0.03522,-0.22601 0.07353,-0.33387 0.04543,-0.13708 0.09285,-0.27337 0.146799,-0.40738 0.05887,-0.14374 0.12003,-0.28647 0.180206,-0.42967 0.04439,-0.11725 0.09008,-0.23401 0.132603,-0.35196 0.04099,-0.12038 0.096,-0.23739 0.168036,-0.34236 0.181975,-0.21141 0.185496,-0.17605 0.330855,0.12176 -0.04621,0.005 -0.09266,0.009 -0.139111,0.0116 -0.08984,10e-4 -0.179691,-0.002 -0.268632,-0.0154 -0.121029,-0.0229 -0.236133,-0.0601 -0.317805,-0.15836 -0.07149,-0.10169 -0.100175,-0.20774 -0.07606,-0.33183 0.0312,-0.13867 0.07639,-0.27346 0.12483,-0.40697 0.07253,-0.20238 0.152547,-0.40231 0.254016,-0.59222 0.07963,-0.15126 0.160129,-0.30255 0.253916,-0.44562 0.146611,-0.22342 0.0779,-0.18189 0.438048,-0.18017 -0.03763,0.0686 -0.07232,0.13873 -0.101952,0.2113 -0.08896,0.21459 -0.158444,0.43653 -0.24542,0.65194 -0.125252,0.32016 -0.253567,0.64059 -0.425987,0.93897 -0.193699,0.32569 -0.420159,0.62886 -0.698941,0.88778 -0.39127,0.36129 -0.806196,0.69499 -1.22716,1.02097 -0.159284,0.0831 -0.276833,-0.14215 -0.117547,-0.22527 z"
         id="path4548"
         style="opacity:1;fill:#000000;fill-opacity:0.72254902;stroke:none;stroke-width:0.52916664;stroke-linecap:round;stroke-miterlimit:4;stroke-dasharray:none;stroke-opacity:1" />
      <path
         inkscape:connector-curvature="0"
         d="m 78.367521,282.76288 c 0.297842,-0.29443 0.598682,-0.58596 0.904907,-0.87167 0.122072,-0.10791 0.236103,-0.22431 0.354754,-0.33582 0.05777,-0.0541 0.110146,-0.11345 0.166493,-0.1689 0.04129,-0.036 0.06196,-0.0867 0.09229,-0.13093 0.04506,-0.0607 0.08584,-0.12449 0.127696,-0.18748 0.03423,-0.0488 0.07008,-0.0967 0.104762,-0.14512 0.206823,-0.10277 0.130091,0.20525 0.109476,0.28189 -0.04722,0.10649 -0.119088,0.19295 -0.195793,0.2788 -0.08407,0.0921 -0.160143,0.19107 -0.229166,0.29479 -0.07182,0.10662 -0.144332,0.21297 -0.208096,0.32467 -0.06837,0.12082 -0.135533,0.24221 -0.204979,0.36241 0.04353,-0.10124 -0.152991,0.27707 -0.09802,0.16839 0.02614,-0.0517 0.03346,-0.0629 0.01379,-0.0303 -0.01424,-0.0344 -0.02346,-0.0707 -0.03785,-0.10499 0.06203,-6.3e-4 0.123754,-0.009 0.185444,-0.0153 0.0775,-0.0123 0.156038,-0.0142 0.234074,-0.0214 0.04896,-0.003 0.09687,-0.009 0.14364,-0.0231 0.08829,-0.0238 0.02367,0.0958 0.02476,0.2184 -0.06871,0.0319 -0.131418,0.0735 -0.194805,0.11441 -0.05425,0.025 -0.09963,0.0595 -0.137253,0.1056 -0.04735,0.0556 -0.08227,0.1213 -0.114898,0.18636 -0.05946,0.11049 -0.115145,0.22297 -0.165765,0.33778 -0.07047,0.17106 -0.140933,0.3421 -0.215073,0.51161 -0.0671,0.13567 -0.128236,0.27197 -0.169844,0.41753 -0.03958,0.1299 -0.08209,0.2588 -0.126358,0.38716 -0.02104,0.0267 -0.01715,0.13814 -0.04761,0.0716 -0.02486,-0.0227 0.02223,-7e-5 0.02928,0.002 0.04803,0.0152 0.09827,0.0136 0.148035,0.0132 0.119974,-0.003 0.237957,-0.0216 0.353786,-0.052 0.151831,-0.0462 0.299479,-0.10608 0.442027,-0.17563 0.144463,-0.074 0.279209,-0.16558 0.408889,-0.26284 0.13225,-0.10435 0.254622,-0.22034 0.370694,-0.34223 0.111842,-0.12315 0.209257,-0.25845 0.31005,-0.39057 0.114405,-0.15509 0.222294,-0.31458 0.325157,-0.4775 0.05859,-0.1128 0.153504,-0.20228 0.216439,-0.31172 0.02513,-0.0608 -0.02063,0.0402 0.0051,-0.0195 -0.008,-0.0191 -0.02361,-0.0204 -0.04101,-0.0264 -0.02002,2.7e-4 -0.02755,0.005 -0.04146,0.0188 -0.06,0.0472 -0.117981,0.0967 -0.175253,0.14715 -0.08849,0.0702 -0.163424,0.1541 -0.235964,0.24003 -0.06517,0.0715 -0.123168,0.16242 -0.159884,0.24165 -0.06578,0.13468 -0.116792,0.27591 -0.171169,0.41542 -0.05699,0.1339 -0.09731,0.27368 -0.138196,0.41307 -0.03713,0.13272 -0.07278,0.26591 -0.0981,0.40143 -0.01121,0.0699 -0.01833,0.14138 -0.0079,0.21127 0.02643,0.034 0.07448,0.0359 0.11536,0.0402 0.14731,8.8e-4 0.289392,-0.0535 0.426411,-0.10221 0.22054,-0.0782 0.43565,-0.17057 0.645702,-0.27343 0.257511,-0.1256 0.475785,-0.30957 0.684267,-0.50292 0.225729,-0.21055 0.403808,-0.46122 0.565649,-0.72217 0.150513,-0.2448 0.265945,-0.50784 0.369623,-0.77515 0.06528,-0.17853 0.138903,-0.35636 0.179411,-0.5427 0.02113,-0.11394 -0.0045,-0.17423 0.214174,0.0267 0.03312,0.0304 -0.02445,0.0866 -0.03558,0.13017 -0.03284,0.13249 -0.05558,0.26718 -0.07389,0.40236 -0.0199,0.16513 -0.03603,0.33079 -0.0438,0.49694 -0.0041,0.20429 -0.01938,0.4077 -0.046,0.61021 -0.02147,0.2281 -0.09289,0.43516 -0.220985,0.62526 -0.122925,0.16116 -0.291692,0.27424 -0.461665,0.38002 -0.139452,0.0889 -0.290047,0.15838 -0.429848,0.24646 -0.05405,0.0414 -0.118195,0.0733 -0.16477,0.12252 0.05652,-0.004 0.02173,-0.14813 0.05888,-0.0476 0.0313,0.0335 0.08069,0.035 0.123695,0.0401 0.15598,0.0128 0.303869,-0.0442 0.446517,-0.0997 0.280986,-0.12132 0.543642,-0.27895 0.801482,-0.44262 0.350079,-0.22823 0.676705,-0.48876 0.991248,-0.76318 0.351256,-0.30783 0.649193,-0.66557 0.917766,-1.04593 0.190169,-0.27347 0.329534,-0.5739 0.417056,-0.89456 0.01211,-0.0803 0.05855,-0.24654 -0.05159,-0.28196 -0.1798,-0.0227 -0.358108,0.0412 -0.524659,0.10078 -0.210484,0.13211 -0.50969,0.15924 -0.690874,0.32612 -0.01233,0.008 -0.02428,-0.009 -0.01195,-0.0175 v 0 c 0.208841,-0.24432 -0.09897,0.12798 0.13315,-0.20579 0.120963,-0.17395 0.315026,-0.28822 0.494105,-0.39093 0.246442,-0.11694 0.509723,-0.22357 0.779673,-0.11653 0.217582,0.14509 0.259484,0.35031 0.206051,0.60084 -0.104244,0.40594 -0.294301,0.78025 -0.534371,1.12338 -0.284899,0.39462 -0.600447,0.76537 -0.969505,1.0848 -0.326618,0.28165 -0.666195,0.54735 -1.031088,0.7783 -0.274917,0.16961 -0.554876,0.33336 -0.854999,0.455 -0.18762,0.067 -0.380872,0.12424 -0.582282,0.0937 -0.122607,-0.0235 -0.237448,-0.0635 -0.311525,-0.17091 -0.06735,-0.12044 -0.09441,-0.28344 0.02402,-0.38539 0.06746,-0.0572 0.139299,-0.10967 0.214616,-0.15597 0.141658,-0.0835 0.289342,-0.15622 0.431075,-0.23969 0.141111,-0.0859 0.282306,-0.1758 0.382915,-0.30999 0.08499,-0.11841 0.152045,-0.24175 0.166065,-0.3945 0.02896,-0.1962 0.04969,-0.39323 0.05392,-0.59169 0.009,-0.17294 0.02783,-0.34391 0.05428,-0.51501 0.01892,-0.14242 0.04058,-0.28458 0.07434,-0.42436 0.0016,-0.006 0.03429,-0.1425 0.03795,-0.14427 0.350779,-0.16961 0.268261,-0.107 0.225693,0.006 -0.06311,0.18501 -0.116831,0.37332 -0.185377,0.55656 -0.112007,0.31457 -0.242516,0.62273 -0.415012,0.90957 -0.172244,0.27444 -0.36363,0.53635 -0.601417,0.7586 -0.222169,0.20589 -0.45844,0.39608 -0.729072,0.53561 -0.216138,0.11482 -0.435961,0.22285 -0.667946,0.30243 -0.170736,0.0582 -0.345363,0.12168 -0.528788,0.10694 -0.124066,-0.0178 -0.242553,-0.0529 -0.311811,-0.16663 -0.0478,-0.10711 -0.0554,-0.21832 -0.03967,-0.33452 0.02143,-0.14588 0.05939,-0.2883 0.09864,-0.43029 0.0424,-0.14846 0.09438,-0.2939 0.155038,-0.43591 0.06112,-0.14603 0.11477,-0.29523 0.183575,-0.43791 0.07656,-0.13967 0.158625,-0.27388 0.273978,-0.38568 0.0835,-0.0855 0.170939,-0.16692 0.264175,-0.2418 0.07596,-0.0646 0.15212,-0.13347 0.24578,-0.1711 0.07444,-0.0192 0.149737,-0.0214 0.209211,0.0347 0.03794,0.0372 0.0713,0.0789 0.09375,0.12754 0.0283,0.0852 0.006,0.16136 -0.04642,0.23572 -0.07399,0.10051 -0.155808,0.19547 -0.217133,0.30497 -0.103567,0.16655 -0.209135,0.33183 -0.313468,0.4979 -0.09158,0.1538 -0.184771,0.30737 -0.306535,0.43983 -0.120168,0.13603 -0.252652,0.26039 -0.394512,0.3737 -0.140481,0.10933 -0.28559,0.21431 -0.44652,0.29189 -0.157532,0.0754 -0.31989,0.14151 -0.488394,0.18838 -0.135019,0.032 -0.2725,0.0546 -0.411711,0.0543 -0.07191,-2.3e-4 -0.144345,-0.004 -0.213417,-0.0256 -0.06687,-0.0208 -0.129705,-0.0476 -0.173425,-0.10544 -0.04818,-0.0884 -0.04586,-0.16906 -0.0089,-0.26234 0.04489,-0.12893 0.09031,-0.25764 0.130187,-0.38825 0.06115,-0.14726 0.123151,-0.29453 0.197534,-0.43573 0.07985,-0.16594 0.153288,-0.33462 0.221671,-0.50563 0.0677,-0.15939 0.146142,-0.31369 0.228504,-0.46601 0.04532,-0.0798 0.09476,-0.15697 0.161911,-0.22048 0.05702,-0.0532 0.120248,-0.0979 0.192737,-0.12781 0.06822,-0.0334 0.140069,-0.0561 0.210635,-0.0836 0.103971,0.11826 0.19089,0.133 0.0876,0.18011 -0.05595,0.0215 -0.113994,0.0358 -0.172219,0.0496 -0.07799,0.02 -0.15555,0.0418 -0.234337,0.0585 -0.08084,0.0183 -0.162033,0.0405 -0.245735,0.036 -0.123603,-0.0128 -0.247413,-0.0877 -0.221613,-0.23086 0.03468,-0.11128 0.106193,-0.20756 0.161807,-0.3088 0.07125,-0.12113 0.141169,-0.24308 0.216585,-0.36171 0.07313,-0.11122 0.148486,-0.22093 0.225896,-0.32921 0.08061,-0.10827 0.16422,-0.21445 0.260951,-0.30901 0.02432,-0.0247 0.175957,-0.20593 0.112574,-0.0978 0.09434,-0.12128 0.04266,-0.14185 0.275856,-0.0678 -0.03291,0.0462 -0.06339,0.0946 -0.09439,0.14224 -0.03994,0.0649 -0.07799,0.13091 -0.120214,0.19439 -0.03298,0.0568 -0.06961,0.11066 -0.117272,0.15656 -0.05463,0.0623 -0.108055,0.12586 -0.169769,0.18152 -0.117511,0.11383 -0.234539,0.22814 -0.357573,0.3361 -0.305238,0.28269 -0.60725,0.56901 -0.898954,0.86572 -0.137322,0.0917 -0.267057,-0.10245 -0.129734,-0.19421 z"
         id="path4550"
         style="opacity:1;fill:#000000;fill-opacity:0.72254902;stroke:none;stroke-width:0.52916664;stroke-linecap:round;stroke-miterlimit:4;stroke-dasharray:none;stroke-opacity:1" />
      <path
         inkscape:connector-curvature="0"
         d="m 78.077234,280.42509 c -0.277854,0.26251 -0.555371,0.52802 -0.793547,0.82782 -0.146468,0.19406 0.02977,0.0648 -0.06879,-0.0568 -0.01775,-0.0218 0.06803,-0.004 0.0883,-0.004 0.09787,-0.005 0.195394,-0.014 0.293285,-0.0181 0.115879,0.002 0.230643,-0.0119 0.344797,-0.0303 0.05023,-0.006 0.09951,-0.0184 0.145443,-0.0397 -0.146093,0.16214 -0.108564,0.11407 -0.214366,0.006 -0.05868,-0.064 -0.125833,-0.12071 -0.193469,-0.17527 -0.04366,-0.0375 -0.0949,-0.0589 -0.149516,-0.0745 -0.0386,-0.007 -0.03885,-0.0219 -0.04084,-0.0555 -2.7e-4,-0.006 -3.06e-4,-0.0115 -6.09e-4,-0.0172 -0.127167,0.0346 -0.176085,-0.14525 -0.04892,-0.17984 v 0 c 0.0033,-0.008 0.0065,-0.0146 0.0098,-0.0218 0.0452,-0.0593 0.119237,-0.064 0.188416,-0.0498 0.09315,0.0284 0.181491,0.0683 0.254824,0.13405 0.07515,0.0694 0.147206,0.14171 0.205472,0.22642 0.130676,0.17912 0.182876,0.24757 0.02794,0.47116 -0.0544,0.006 -0.107863,0.0177 -0.160682,0.032 -0.119076,0.0295 -0.238819,0.0558 -0.358641,0.082 -0.110364,0.0242 -0.221917,0.0492 -0.335044,0.0547 -0.09798,-0.003 -0.196185,-0.0101 -0.279115,-0.0683 -0.164029,-0.1673 -0.07316,-0.3437 0.05996,-0.50563 0.249866,-0.31055 0.540003,-0.58495 0.826888,-0.86075 0.22816,-0.14034 0.426626,0.18233 0.198465,0.32267 z"
         id="path4552"
         style="opacity:1;fill:#000000;fill-opacity:0.72254902;stroke:none;stroke-width:0.52916664;stroke-linecap:round;stroke-miterlimit:4;stroke-dasharray:none;stroke-opacity:1" />
      <path
         inkscape:connector-curvature="0"
         d="m 92.755874,281.40929 c -0.49409,0.17589 -0.96794,0.40151 -1.41898,0.66822 -0.23621,0.14261 -0.44844,0.31424 -0.59285,0.55107 -0.0198,0.0489 -0.0473,0.16264 -0.0304,0.24633 0.031,0.0949 0.10877,0.14156 0.19502,0.17972 0.14221,0.054 0.2923,0.0627 0.44257,0.0593 0.17589,-0.0105 0.32781,-0.0857 0.47215,-0.18066 0.18312,-0.12451 0.32169,-0.29282 0.43889,-0.47813 0.0934,-0.15371 0.1441,-0.32704 0.17941,-0.5023 0.0234,-0.13511 0.0318,-0.27246 0.0241,-0.4093 -0.0484,-0.22743 0.12905,0.1465 0.24182,0.0118 -0.058,0.12536 -0.0836,0.26382 -0.11639,0.39744 -0.0558,0.21335 -0.1089,0.4274 -0.16478,0.64073 -0.0782,0.28376 -0.15214,0.56832 -0.21563,0.85575 -0.0679,0.3521 -0.15352,0.70017 -0.2458,1.04654 -0.0948,0.36561 -0.21064,0.72486 -0.35103,1.0754 -0.1338,0.33291 -0.30981,0.64323 -0.52907,0.92647 -0.18453,0.22024 -0.41571,0.36471 -0.69097,0.4386 -0.27831,0.0576 -0.54268,-0.005 -0.79273,-0.12781 -0.2661,-0.15123 -0.43176,-0.39375 -0.54957,-0.6688 -0.13031,-0.33841 -0.0218,-0.61515 0.1545,-0.90813 0.20364,-0.2311 0.47999,-0.33186 0.77321,-0.39264 0.30272,-0.0507 0.6099,-0.0386 0.91521,-0.0296 0.18051,0.001 0.3591,0.0261 0.53935,0.0305 0.015,2.7e-4 0.0144,0.0215 -5.3e-4,0.0212 v 0 c -0.18182,0.0271 -0.36038,0.0714 -0.54328,0.0925 -0.29034,0.0409 -0.58309,0.0848 -0.86062,0.18284 -0.20696,0.0855 -0.41578,0.18702 -0.5337,0.38742 -0.0333,0.0693 -0.0886,0.25669 -0.0324,0.3889 0.0714,0.18762 0.17345,0.36172 0.34545,0.474 0.16403,0.084 0.33583,0.14856 0.5229,0.11353 0.20224,-0.0478 0.37414,-0.1504 0.51613,-0.30369 0.17872,-0.20054 0.31265,-0.4327 0.41722,-0.67988 0.14386,-0.33679 0.25694,-0.68476 0.35053,-1.03882 0.0931,-0.34081 0.17793,-0.68382 0.24514,-1.03078 0.0603,-0.2934 0.13631,-0.58264 0.21499,-0.87156 0.057,-0.21328 0.11284,-0.42687 0.17188,-0.63958 0.0436,-0.15672 0.0772,-0.31688 0.13521,-0.46909 0.0302,-0.0475 0.0369,-0.12583 0.0907,-0.14247 0.32118,-0.0993 0.3125,-0.01 0.31361,0.15775 5.3e-4,0.15634 -0.002,0.31277 -0.0271,0.46757 -0.0462,0.26382 -0.12976,0.51545 -0.28369,0.73828 -0.14598,0.20909 -0.31623,0.39831 -0.53085,0.53967 -0.18828,0.11586 -0.38645,0.20606 -0.61061,0.2207 -0.19556,0.0101 -0.39332,-0.004 -0.57697,-0.0776 -0.16871,-0.08 -0.30639,-0.18848 -0.37146,-0.37023 -0.0606,-0.23052 -0.0122,-0.43236 0.12057,-0.63172 0.18591,-0.26043 0.42962,-0.46048 0.70826,-0.61782 0.46961,-0.2683 0.96062,-0.49511 1.47012,-0.67764 0.23765,-0.0498 0.30815,0.28624 0.0705,0.33609 z"
         id="path4554"
         style="opacity:1;fill:#000000;fill-opacity:0.72254902;stroke:none;stroke-width:0.52916664;stroke-linecap:round;stroke-miterlimit:4;stroke-dasharray:none;stroke-opacity:1" />
      <path
         inkscape:connector-curvature="0"
         d="m 94.360684,281.74397 c 0.51129,-0.10603 1.02002,-0.22404 1.53126,-0.3302 0.22319,-0.0453 0.45228,-0.0949 0.67837,-0.0448 0.0985,-7.9e-4 0.14048,0.0989 0.21367,0.13128 0.0142,0.005 0.008,0.0248 -0.007,0.0201 v 0 c -0.0719,-0.008 -0.13908,0.0992 -0.22168,0.0947 -0.20601,0.0667 -0.42097,0.10179 -0.63014,0.15678 -0.50828,0.11787 -1.01864,0.22636 -1.52754,0.34147 -0.26113,0.0264 -0.29845,-0.34291 -0.0373,-0.3693 z"
         id="path4556"
         style="opacity:1;fill:#000000;fill-opacity:0.72254902;stroke:none;stroke-width:0.52916664;stroke-linecap:round;stroke-miterlimit:4;stroke-dasharray:none;stroke-opacity:1" />
      <path
         inkscape:connector-curvature="0"
         d="m 94.677484,282.44497 c 0.44072,-0.0808 0.88182,-0.16034 1.32503,-0.22635 0.19798,-0.0311 0.39907,-0.05 0.58994,0.0206 0.0799,0.0461 0.0404,0.0257 0.1183,0.062 0.0149,5.3e-4 0.0141,0.0217 -8e-4,0.0211 v 0 c -0.0811,0.0445 -0.0401,0.02 -0.12272,0.0744 -0.17797,0.0896 -0.37361,0.12848 -0.5701,0.15491 -0.43957,0.0693 -0.87846,0.14318 -1.31524,0.22841 -0.23695,0.0172 -0.26131,-0.31787 -0.0243,-0.3351 z"
         id="path4558"
         style="opacity:1;fill:#000000;fill-opacity:0.72254902;stroke:none;stroke-width:0.52916664;stroke-linecap:round;stroke-miterlimit:4;stroke-dasharray:none;stroke-opacity:1" />
      <path
         inkscape:connector-curvature="0"
         d="m 98.858244,280.99224 c 0.46353,-0.0935 0.92032,-0.22123 1.338236,-0.44539 0.17744,-0.11646 0.37827,-0.26145 0.45405,-0.4709 0.0921,-0.17327 0.12328,-0.36282 0.13521,-0.55603 0.003,-0.12606 -0.002,-0.2546 -0.0491,-0.37284 -0.005,-0.0236 -0.0567,-0.073 -0.0147,-0.028 0.0692,0.0292 0.13457,-0.0206 0.0613,0.0617 -0.0896,0.12002 -0.16993,0.24673 -0.25076,0.37276 -0.12582,0.2162 -0.25871,0.42827 -0.38599,0.64372 -0.197706,0.33881 -0.374286,0.68925 -0.550186,1.03969 -0.1956,0.38218 -0.37107,0.77392 -0.53225,1.1717 -0.12699,0.31961 -0.24443,0.64334 -0.34111,0.97346 -0.0564,0.20795 -0.10488,0.41801 -0.15271,0.62808 -0.0288,0.11823 -0.0645,0.2357 -0.12426,0.34218 -0.0305,0.0365 -0.0143,0.0195 -0.0485,0.0511 0.0146,0.0222 -0.0169,0.0429 -0.0315,0.0206 v 0 c -0.058,-0.0161 -0.0328,-0.002 -0.0765,-0.0401 -0.0715,-0.10418 -0.0836,-0.2322 -0.0784,-0.35589 0.015,-0.22791 0.0566,-0.45199 0.1178,-0.67216 0.0971,-0.34232 0.21487,-0.67759 0.34585,-1.00847 0.16245,-0.40792 0.34228,-0.80827 0.53918,-1.20081 0.18083,-0.3563 0.36097,-0.71322 0.56084,-1.05937 0.16208,-0.27411 0.334826,-0.542 0.511396,-0.80695 0.0929,-0.13355 0.18986,-0.26555 0.30382,-0.38213 0.0746,-0.0771 0.16102,-0.13553 0.2724,-0.0877 0.0797,0.0413 0.12615,0.10334 0.1584,0.18633 0.0629,0.15417 0.0829,0.31909 0.0774,0.48515 -0.009,0.2316 -0.0419,0.46114 -0.1439,0.6723 -0.16382,0.28982 -0.35799,0.53333 -0.66232,0.68796 -0.445046,0.22257 -0.922966,0.35762 -1.409356,0.45849 -0.21809,0.0172 -0.24249,-0.29118 -0.0244,-0.30843 z"
         id="path4560"
         style="opacity:1;fill:#000000;fill-opacity:0.72254902;stroke:none;stroke-width:0.52916664;stroke-linecap:round;stroke-miterlimit:4;stroke-dasharray:none;stroke-opacity:1" />
      <path
         inkscape:connector-curvature="0"
         d="m 98.175804,282.34973 c 0.49882,-0.0788 0.99573,-0.17062 1.4964,-0.23712 0.23305,-0.0772 0.462926,0.0483 0.689106,0.0212 0.0146,-0.003 0.0195,0.0171 0.005,0.0206 v 0 c -0.21764,0.15321 -0.388306,0.34077 -0.675556,0.36311 -0.49634,0.0914 -0.99698,0.15815 -1.4935,0.24885 -0.29461,0.0151 -0.31597,-0.40153 -0.0214,-0.41664 z"
         id="path4562"
         style="opacity:1;fill:#000000;fill-opacity:0.72254902;stroke:none;stroke-width:0.52916664;stroke-linecap:round;stroke-miterlimit:4;stroke-dasharray:none;stroke-opacity:1" />
    </g>
  </g>
</svg>
