<?xml version="1.0" encoding="UTF-8" standalone="no"?>
<!-- Created with Inkscape (http://www.inkscape.org/) -->

<svg
   xmlns:dc="http://purl.org/dc/elements/1.1/"
   xmlns:cc="http://creativecommons.org/ns#"
   xmlns:rdf="http://www.w3.org/1999/02/22-rdf-syntax-ns#"
   xmlns:svg="http://www.w3.org/2000/svg"
   xmlns="http://www.w3.org/2000/svg"
   xmlns:sodipodi="http://sodipodi.sourceforge.net/DTD/sodipodi-0.dtd"
   xmlns:inkscape="http://www.inkscape.org/namespaces/inkscape"
   width="150mm"
   height="45mm"
   viewBox="0 0 150 45"
   version="1.1"
   id="svg8"
   inkscape:version="0.92.1 unknown"
   sodipodi:docname="diagram-category-1.svg">
  <defs
     id="defs2" />
  <sodipodi:namedview
     id="base"
     pagecolor="#ffffff"
     bordercolor="#666666"
     borderopacity="1.0"
     inkscape:pageopacity="0.0"
     inkscape:pageshadow="2"
     inkscape:zoom="1.4"
     inkscape:cx="145.45967"
     inkscape:cy="81.621312"
     inkscape:document-units="mm"
     inkscape:current-layer="layer1"
     showgrid="false" />
  <metadata
     id="metadata5">
    <rdf:RDF>
      <cc:Work
         rdf:about="">
        <dc:format>image/svg+xml</dc:format>
        <dc:type
           rdf:resource="http://purl.org/dc/dcmitype/StillImage" />
        <dc:title />
      </cc:Work>
    </rdf:RDF>
  </metadata>
  <g
     inkscape:label="Layer 1"
     inkscape:groupmode="layer"
     id="layer1"
     transform="translate(0,-252)">
    <path
       style="opacity:1;fill:#000000;fill-opacity:0.72254902;stroke:none;stroke-width:0.52916664;stroke-linecap:round;stroke-miterlimit:4;stroke-dasharray:none;stroke-opacity:1"
       id="path4482"
       d="m 30.453312,263.8731 c -0.226273,0.30009 -0.443499,0.60684 -0.626942,0.93514 -0.05314,0.0424 -0.0483,0.24409 -0.09864,0.15709 -0.01468,-0.0388 0.06726,-0.0367 0.09776,-0.0427 0.07274,4.5e-4 0.114327,-0.0348 0.168033,-0.075 0.07773,-0.0663 0.06449,-0.0765 0.03329,-0.0389 0.01885,-0.0684 -0.01,-0.13707 -0.03277,-0.20086 -0.03808,-0.1 -0.09261,-0.19215 -0.148984,-0.28266 -0.03092,-0.0591 -0.08106,-0.0994 -0.129685,-0.14256 -0.05603,-0.043 -0.07288,-0.0845 -0.07798,-0.15114 0.03463,-0.0262 0.01619,-0.0131 0.05555,-0.0388 -0.06665,-0.0969 0.07035,-0.19112 0.136997,-0.0942 v 0 c 0.04402,-0.0179 0.02227,-0.0109 0.06505,-0.0216 0.014,-0.0446 0.04174,-0.003 0.06136,0.0168 0.07482,0.0628 0.145692,0.13004 0.192693,0.2172 0.0671,0.11239 0.123435,0.23118 0.169543,0.3537 0.03583,0.12216 0.06509,0.24656 0.0415,0.37436 -0.03527,0.13482 -0.11762,0.23525 -0.232323,0.30973 -0.08442,0.0554 -0.174551,0.0921 -0.275276,0.10588 -0.129011,0.0282 -0.253592,0.0472 -0.364527,-0.0443 -0.13033,-0.15781 -0.0874,-0.31427 -0.0067,-0.48974 0.199025,-0.40562 0.483095,-0.76096 0.742904,-1.12842 0.198756,-0.16204 0.427923,0.11904 0.229167,0.28109 z"
       inkscape:connector-curvature="0" />
    <path
       style="opacity:1;fill:#000000;fill-opacity:0.72254902;stroke:none;stroke-width:0.52916664;stroke-linecap:round;stroke-miterlimit:4;stroke-dasharray:none;stroke-opacity:1"
       id="path4484"
       d="m 31.015728,264.37006 c 0.525391,-0.0362 1.051104,-0.0526 1.577669,-0.0572 0.470622,-0.003 0.941223,0.002 1.411822,0.006 0.497621,0.008 0.995153,0.0171 1.492846,0.0182 0.597477,-4e-5 1.194953,-0.001 1.792428,-0.003 0.703988,-0.003 1.407968,-0.0108 2.111825,-0.0248 0.734909,-0.0181 1.469874,-0.0307 2.204993,-0.0348 0.709073,9.5e-4 1.418121,0.005 2.127201,0.006 0.662915,0.002 1.325797,1.6e-4 1.988681,-0.007 0.599563,-0.007 1.198912,-0.0226 1.798253,-0.0395 0.486393,-0.008 0.972639,-0.0209 1.459122,-0.0183 0.27041,0.017 0.542075,0.007 0.812265,0.0267 0.07274,0.0144 0.132268,0.0615 0.201534,0.077 0.03967,-4.8e-4 0.07559,0.005 0.111567,0.0228 0.02852,0.0175 0.05382,0.0389 0.07613,0.0637 0.0199,0.0226 0.02652,0.052 0.03237,0.0785 0.0118,0.009 -0.0013,0.0259 -0.01304,0.0167 v 0 c -0.02328,0.005 -0.0519,0.0103 -0.07842,0.006 -0.02561,10e-4 -0.05132,8.2e-4 -0.07701,-4.7e-4 -0.02996,-5.1e-4 -0.06003,-0.002 -0.08978,-0.005 -0.06902,-0.0152 -0.127774,-0.0488 -0.19098,-0.078 -0.267201,-0.0187 -0.535169,-0.0115 -0.802599,-9e-4 -0.48555,0.008 -0.971218,0.0154 -1.456229,0.0416 -0.60083,0.0208 -1.20177,0.0401 -1.80294,0.0474 -0.664012,0.007 -1.328061,0.008 -1.992108,0.009 -0.708991,6.3e-4 -1.417945,-0.006 -2.126931,-0.005 -0.733572,0.003 -1.466968,0.0174 -2.200298,0.0363 -0.705349,0.014 -1.410786,0.0218 -2.116267,0.0251 -0.597674,0.002 -1.195353,0.003 -1.793029,0.005 -0.498263,-8.9e-4 -0.996342,-0.011 -1.49455,-0.0174 -0.46936,-0.006 -0.938737,-0.007 -1.408118,-0.01 -0.522527,0.002 -1.045241,0.0107 -1.567489,0.0251 -0.147443,-0.008 -0.136362,-0.21635 0.01108,-0.20851 z"
       inkscape:connector-curvature="0" />
    <path
       style="opacity:1;fill:#000000;fill-opacity:0.72254902;stroke:none;stroke-width:0.52916664;stroke-linecap:round;stroke-miterlimit:4;stroke-dasharray:none;stroke-opacity:1"
       id="path4490"
       d="m 49.044569,263.03436 c 0.371705,0.29613 0.731679,0.60658 1.079547,0.9303 0.168926,0.16816 0.344559,0.3286 0.53309,0.47438 0.09267,0.0766 0.199012,0.13104 0.307015,0.18196 0.019,0.0272 0.155575,0.0354 0.06731,0.0259 -0.01892,0.35298 -0.146431,0.10415 -0.168161,0.16749 -0.05317,-0.0111 -0.105103,-0.01 -0.157726,0.004 -0.114221,0.0239 -0.218392,0.0754 -0.322249,0.12658 -0.184243,0.093 -0.361545,0.19842 -0.539039,0.30357 -0.227098,0.13996 -0.468796,0.25384 -0.706864,0.37348 -0.123515,0.0494 -0.258274,0.16491 -0.39964,0.13642 -0.03554,-0.0271 -0.02162,-0.0111 -0.04312,-0.0466 -0.144087,0.0276 -0.183093,-0.17619 -0.03901,-0.20377 v 0 c 0.0015,-0.043 -0.0014,-0.0212 0.0093,-0.0655 0.07675,-0.11567 0.24377,-0.14 0.353166,-0.21348 0.23168,-0.11631 0.466577,-0.22674 0.690036,-0.35869 0.188134,-0.10701 0.375615,-0.21586 0.574807,-0.30148 0.133146,-0.0547 0.268973,-0.10528 0.412427,-0.12473 0.101701,-0.01 0.199967,-0.005 0.296802,0.0308 0.25953,0.10603 0.244948,0.27215 0.09137,0.51094 -0.0928,0.006 -0.179707,-0.0134 -0.266038,-0.0486 -0.133295,-0.052 -0.263816,-0.10929 -0.379696,-0.19513 -0.205573,-0.14409 -0.394959,-0.30759 -0.571577,-0.48619 -0.340684,-0.31857 -0.691092,-0.62677 -1.059079,-0.9137 -0.217925,-0.16781 0.01939,-0.476 0.237319,-0.30819 z"
       inkscape:connector-curvature="0" />
    <path
       style="opacity:1;fill:#000000;fill-opacity:0.72254902;stroke:none;stroke-width:0.52916664;stroke-linecap:round;stroke-miterlimit:4;stroke-dasharray:none;stroke-opacity:1"
       id="path4492"
       d="m 52.664065,264.4855 c -0.337835,0.15517 -0.704847,0.29106 -0.976566,0.55374 -0.08784,0.13069 -0.0318,0.0409 -0.0061,0.0227 0.01471,-0.0104 0.0029,0.038 0.01384,0.0523 0.07038,0.08 0.156358,0.14292 0.245893,0.19953 0.06761,0.0394 0.141703,0.0722 0.221298,0.0637 0.06389,-0.0168 0.112022,-0.0634 0.149347,-0.11578 1.77e-4,-0.0211 0.02312,-0.047 0.04341,-0.16699 0.0093,-0.1073 -0.01415,-0.21402 -0.05915,-0.31106 -0.04107,-0.0744 -0.09714,-0.13903 -0.172852,-0.1786 -0.06603,-0.0222 -0.13348,6.6e-4 -0.195257,0.0263 -0.166733,0.13357 0.0029,-0.0768 -0.07493,0.0404 -0.03743,0.10971 0.0019,0.22169 0.09921,0.27636 0.01294,0.008 0.0024,0.0258 -0.01066,0.0183 v 0 c -0.141132,-0.0799 -0.30565,-0.0712 -0.362141,-0.26006 -0.02553,-0.20528 0.0942,-0.35953 0.286488,-0.42693 0.148738,-0.0446 0.298572,-0.0586 0.442217,0.0136 0.129704,0.0779 0.232722,0.18106 0.2961,0.32063 0.06338,0.14794 0.09927,0.30552 0.09104,0.46747 -0.02019,0.17061 -0.07249,0.32952 -0.192664,0.45881 -0.104498,0.10054 -0.221658,0.17743 -0.371661,0.18197 -0.133008,-0.005 -0.257542,-0.0397 -0.373245,-0.10698 -0.125521,-0.0721 -0.244422,-0.15678 -0.342304,-0.26439 -0.168712,-0.22452 -0.118179,-0.44478 0.08754,-0.63885 0.317045,-0.26507 0.697351,-0.43525 1.074224,-0.59813 0.262998,-0.0615 0.349954,0.31044 0.08696,0.37193 z"
       inkscape:connector-curvature="0" />
    <path
       style="opacity:1;fill:#000000;fill-opacity:0.72254902;stroke:none;stroke-width:0.52916664;stroke-linecap:round;stroke-miterlimit:4;stroke-dasharray:none;stroke-opacity:1"
       id="path4494"
       d="m 24.948297,263.52803 c 0.373118,0.30164 0.668908,0.66528 0.834606,1.11622 0.08175,0.26476 0.04893,0.53132 -0.01225,0.79527 -0.03232,0.16452 -0.09544,0.29963 -0.189922,0.43576 -0.422722,0.19201 -0.246942,-0.40427 -0.205954,-0.52645 0.06521,-0.20362 0.128641,-0.40772 0.197463,-0.61016 0.08995,-0.26223 0.210185,-0.51207 0.348256,-0.75198 0.119036,-0.20642 0.275042,-0.38724 0.448923,-0.54893 0.133851,-0.11755 0.242599,-0.13853 0.393467,-0.0303 0.07862,0.12541 0.0828,0.27901 0.09568,0.42286 0.01252,0.19796 0.01534,0.39637 0.02115,0.59461 0.0022,0.18884 4.77e-4,0.37771 -0.0045,0.56649 -0.0031,0.0913 -0.01085,0.18247 -0.01354,0.27383 -0.0316,-0.14856 0.01871,0.0367 -0.332062,-0.0924 -0.01806,-0.007 0.01807,-0.034 0.02688,-0.0511 0.0304,-0.0591 0.05946,-0.11875 0.09014,-0.17768 0.09262,-0.17971 0.189721,-0.35718 0.291066,-0.53212 0.152334,-0.27578 0.33907,-0.52745 0.539257,-0.76967 0.127738,-0.13791 0.262652,-0.27257 0.422199,-0.37356 0.1199,-0.0681 0.234253,-0.0358 0.314183,0.0725 0.06096,0.0989 0.07551,0.21479 0.08929,0.32778 0.02043,0.20108 0.0044,0.40266 -0.01429,0.60311 -0.02461,0.27888 -0.08257,0.55316 -0.13792,0.82714 -0.05805,0.28262 -0.102938,0.56756 -0.126694,0.85512 -0.01657,0.12827 0.01189,0.24962 0.03835,0.37334 0.04149,0.0928 0.01079,0.0516 0.09673,0.12017 0.01449,0.004 0.0092,0.0242 -0.0053,0.0205 v 0 c -0.145533,0.0288 -0.07144,0.0207 -0.222341,0.0238 -0.222468,-0.0814 -0.285154,-0.27783 -0.279381,-0.50382 0.01511,-0.30185 0.06335,-0.60034 0.123632,-0.89629 0.05225,-0.26612 0.112554,-0.53105 0.148651,-0.80003 0.02178,-0.18321 0.04051,-0.36724 0.04123,-0.55194 -0.0019,-0.0731 -0.0029,-0.14744 -0.02328,-0.21827 0.03062,0.018 0.136075,0.0208 0.08763,0.0497 -0.127836,0.10421 -0.245513,0.22063 -0.352884,0.3458 -0.15995,0.17804 -0.277984,0.38923 -0.398925,0.59426 -0.09383,0.1715 -0.186943,0.34333 -0.273141,0.51883 -0.04356,0.0925 -0.369036,0.82002 -0.522453,0.26056 0.01162,-0.0847 0.01821,-0.17002 0.02291,-0.25541 0.007,-0.18305 0.0096,-0.36621 0.0082,-0.54941 -0.0034,-0.1933 -0.0082,-0.38667 -0.01646,-0.57981 -0.0034,-0.0521 -0.04092,-0.26974 -0.0061,-0.25691 0.10809,0.0564 0.189052,0.005 0.06887,0.10606 -0.105864,0.10674 -0.205305,0.21203 -0.284307,0.34042 -0.132036,0.21782 -0.245013,0.44736 -0.330399,0.68763 -0.06735,0.20222 -0.132293,0.40514 -0.193675,0.60926 -0.08933,0.27833 -0.0017,0.30652 -0.390038,0.17714 -0.127946,0.20582 0.05316,-0.084 0.04512,-0.15422 0.05818,-0.20385 0.101528,-0.41231 0.04953,-0.62304 -0.129733,-0.4041 -0.40238,-0.72192 -0.730013,-0.98674 -0.196573,-0.15728 0.02585,-0.43528 0.222425,-0.278 z"
       inkscape:connector-curvature="0" />
    <path
       style="opacity:1;fill:#000000;fill-opacity:0.72254902;stroke:none;stroke-width:0.52916664;stroke-linecap:round;stroke-miterlimit:4;stroke-dasharray:none;stroke-opacity:1"
       id="path4496"
       d="m 26.410285,281.38638 c -0.0504,0.66597 -0.135145,1.32868 -0.230142,1.98955 -0.08506,0.543 -0.181525,1.0842 -0.279828,1.62494 -0.04733,0.24984 -0.089,0.50149 -0.162336,0.74538 -0.0039,0.0165 -0.0079,0.033 -0.01178,0.0495 0.0086,0.0122 -0.0087,0.0245 -0.01729,0.0122 v 0 c -0.01787,-0.009 -0.03574,-0.0183 -0.0536,-0.0274 -0.172191,-0.2055 -0.107526,-0.50923 -0.09768,-0.75496 0.0562,-0.54349 0.14153,-1.08318 0.221764,-1.62352 0.09507,-0.65365 0.181654,-1.30876 0.229186,-1.96788 -0.03382,-0.28406 0.367899,-0.33189 0.40172,-0.0478 z"
       inkscape:connector-curvature="0" />
    <path
       style="opacity:1;fill:#000000;fill-opacity:0.72254902;stroke:none;stroke-width:0.52916664;stroke-linecap:round;stroke-miterlimit:4;stroke-dasharray:none;stroke-opacity:1"
       id="path4498"
       d="m 26.241788,281.2145 c 0.382421,-0.20758 0.765798,-0.4234 1.189249,-0.53357 0.301022,-0.0577 0.520537,0.0694 0.712021,0.28929 0.188638,0.24968 0.258976,0.54963 0.299149,0.85368 0.04543,0.35706 -0.06086,0.67668 -0.20873,0.99496 -0.146131,0.27746 -0.366679,0.48571 -0.638848,0.63515 -0.266267,0.12915 -0.540341,0.15114 -0.82042,0.0632 -0.374036,-0.17728 -0.291079,-0.39725 -0.266986,-0.73509 -0.0031,-0.0147 0.01765,-0.019 0.02072,-0.004 v 0 c 0.0054,0.0413 -0.0026,0.0868 0.01617,0.12406 0.05696,0.11338 0.243498,0.18109 0.344714,0.24429 0.194954,0.0468 0.390822,0.0255 0.57498,-0.0555 0.21979,-0.114 0.39097,-0.27831 0.518629,-0.49206 0.151241,-0.19328 0.180511,-0.45716 0.175851,-0.69408 -0.02608,-0.25788 -0.07347,-0.51665 -0.22547,-0.7333 -0.123365,-0.15642 -0.253934,-0.25306 -0.463159,-0.21232 -0.402892,0.1044 -0.768224,0.31099 -1.131111,0.50964 -0.179635,0.0684 -0.276391,-0.18563 -0.09676,-0.25405 z"
       inkscape:connector-curvature="0" />
    <path
       style="opacity:1;fill:#000000;fill-opacity:0.72254902;stroke:none;stroke-width:0.52916664;stroke-linecap:round;stroke-miterlimit:4;stroke-dasharray:none;stroke-opacity:1"
       id="path4500"
       d="m 54.67796,263.29828 c 0.15821,0.48467 0.228743,0.98724 0.219366,1.49565 -0.0093,0.25572 -0.06677,0.50482 -0.134736,0.75026 -0.01976,0.0689 -0.03791,0.13831 -0.05666,0.20752 -0.469553,-0.11442 -0.360593,-0.0855 -0.173823,-0.38454 0.125679,-0.19845 0.253621,-0.39544 0.379219,-0.59394 0.157141,-0.24827 0.314018,-0.49676 0.465111,-0.74876 0.106662,-0.18529 0.20945,-0.37284 0.32139,-0.55503 0.0699,-0.11863 0.135442,-0.21986 0.265038,-0.26847 0.08204,-0.0166 0.157985,0.016 0.228539,0.054 0.08752,0.0295 0.159941,0.0872 0.227775,0.14835 0.116689,0.0999 0.193968,0.2314 0.258405,0.36866 0.103113,0.21734 0.113543,0.45317 0.109006,0.68917 -0.01752,0.31139 -0.07307,0.61872 -0.121039,0.9264 -0.04322,0.27822 -0.07458,0.55803 -0.103445,0.83804 -0.0065,0.095 -0.03325,0.1928 -0.0064,0.28579 0.08418,0.096 0.199022,0.12775 0.317029,0.0983 0.01487,-0.002 0.0172,0.0194 0.0024,0.021 v 0 c -0.176606,0.0435 -0.309978,0.19299 -0.504497,0.10289 -0.159964,-0.11732 -0.203128,-0.27766 -0.191394,-0.47224 0.01431,-0.28978 0.04572,-0.57817 0.09093,-0.8648 0.0459,-0.29494 0.09871,-0.58934 0.124016,-0.88699 0.01008,-0.18557 0.0181,-0.37267 -0.05728,-0.54729 -0.04385,-0.0992 -0.09103,-0.19832 -0.171484,-0.27364 -0.04743,-0.0449 -0.0961,-0.0828 -0.158962,-0.10414 -0.06057,-0.0302 -0.0241,-0.006 0.02537,-0.009 0.07164,-0.0276 0.116954,-0.0919 0.02766,0.0206 -0.119687,0.17194 -0.216244,0.3586 -0.322101,0.53906 -0.15017,0.2563 -0.309719,0.50682 -0.467384,0.75855 -0.126222,0.19739 -0.251973,0.39506 -0.378201,0.59243 -0.176845,0.27368 -0.117538,0.30307 -0.563581,0.2624 0.01191,-0.0787 0.02852,-0.15669 0.05092,-0.23311 0.06197,-0.22069 0.123602,-0.44273 0.138808,-0.67266 0.02064,-0.47088 -0.04132,-0.93782 -0.189889,-1.38645 -0.111493,-0.2475 0.238517,-0.40517 0.350009,-0.15768 z"
       inkscape:connector-curvature="0" />
    <path
       style="opacity:1;fill:#000000;fill-opacity:0.72254902;stroke:none;stroke-width:0.52916664;stroke-linecap:round;stroke-miterlimit:4;stroke-dasharray:none;stroke-opacity:1"
       id="path4502"
       d="m 29.993092,281.43184 c -0.133857,0.35019 -0.283414,0.69965 -0.348682,1.07072 -0.0027,0.0539 -0.0264,0.12081 0.03049,0.14207 0.0503,0.0141 0.0824,0.005 0.119003,-0.0273 0.06749,-0.16345 -0.01362,0.0583 0.03733,-0.12462 0.02699,-0.14434 0.0085,-0.29211 -0.01847,-0.43492 -0.04862,-0.19812 -0.107654,-0.39328 -0.171807,-0.58685 -0.03286,-0.10975 -0.0764,-0.21475 -0.136331,-0.31222 -0.06892,-0.11063 -0.0575,-0.0711 0.09725,-0.12822 -0.0013,0.0149 -0.02239,0.0131 -0.02109,-0.002 v 0 c 0.197979,-0.23086 0.154436,-0.2706 0.259441,-0.11367 0.07879,0.12177 0.133305,0.25563 0.173199,0.395 0.06151,0.20931 0.117234,0.42055 0.159909,0.63457 0.03101,0.18734 0.05034,0.37719 0.0167,0.5659 -0.04179,0.17703 -0.121103,0.35033 -0.286735,0.44154 -0.126556,0.0553 -0.255892,0.063 -0.385585,0.0101 -0.176332,-0.0916 -0.252057,-0.24532 -0.240885,-0.44435 0.04435,-0.39825 0.197637,-0.77111 0.332262,-1.1457 0.04232,-0.27152 0.42632,-0.21168 0.384,0.0598 z"
       inkscape:connector-curvature="0" />
    <path
       style="opacity:1;fill:#000000;fill-opacity:0.72254902;stroke:none;stroke-width:0.52916664;stroke-linecap:round;stroke-miterlimit:4;stroke-dasharray:none;stroke-opacity:1"
       id="path4504"
       d="m 30.56146,281.93056 c 0.507792,-0.008 1.014442,-0.046 1.522185,-0.0527 0.324073,0.007 0.647852,0.0308 0.971103,0.0548 0.348852,0.0298 0.695991,0.0735 1.04536,0.0978 0.403614,0.0264 0.808189,0.0297 1.212504,0.0326 0.474229,0.003 0.947922,-0.02 1.421305,-0.0452 0.475836,-0.0283 0.951368,-0.0611 1.427261,-0.0885 0.449352,-0.0217 0.899084,-0.033 1.348479,-0.0539 0.456227,-0.0256 0.912928,-0.0407 1.369776,-0.0486 0.489983,0.002 0.978863,-0.0251 1.467189,-0.0624 0.47,-0.0435 0.940387,-0.081 1.4117,-0.10662 0.375658,-0.0211 0.751772,-0.0301 1.127942,-0.0347 0.292115,-5.3e-4 0.584167,-5.3e-4 0.87618,-0.009 0.288372,-0.0143 0.576978,-0.0177 0.865646,-0.0177 0.28207,-7.9e-4 0.564103,0.009 0.845727,0.0243 0.210722,0.01 0.420416,0.0336 0.629191,0.063 0.08016,0.008 0.158744,0.0286 0.239307,0.0326 0.03875,-0.002 0.07145,0.0102 0.101898,0.0319 0.0104,0.0117 0.0091,0.0243 0.01169,0.0384 0.131877,0.0819 0.01601,0.26843 -0.11587,0.1865 v 0 c -0.0016,0.01 -0.0035,0.02 -0.005,0.0301 -0.01156,0.0124 0.0067,0.0209 -0.03586,0.0137 -0.0876,-0.005 -0.173741,-0.0225 -0.260704,-0.0334 -0.201493,-0.0275 -0.403742,-0.0495 -0.606995,-0.0587 -0.277442,-0.0127 -0.555018,-0.0247 -0.832837,-0.0222 -0.286547,2.7e-4 -0.572938,0.006 -0.859224,0.0185 -0.293078,0.007 -0.586104,0.007 -0.879251,0.008 -0.372948,0.003 -0.745845,0.0122 -1.118289,0.0326 -0.469419,0.0266 -0.93806,0.0626 -1.40624,0.10593 -0.492729,0.038 -0.986307,0.0617 -1.480641,0.0623 -0.454534,0.009 -0.909009,0.0233 -1.362917,0.0497 -0.448605,0.0206 -0.897565,0.031 -1.34605,0.0541 -0.476183,0.0271 -0.952049,0.0588 -1.428066,0.0887 -0.478446,0.0263 -0.957329,0.05 -1.436675,0.0461 -0.409755,-10e-4 -0.819797,-0.007 -1.228792,-0.034 -0.348944,-0.0258 -0.695798,-0.0674 -1.042792,-0.11174 -0.316209,-0.024 -0.632615,-0.0508 -0.949645,-0.0597 -0.506072,0.003 -1.011415,0.0362 -1.517325,0.0483 -0.19887,-0.0132 -0.180185,-0.29446 0.01869,-0.28125 z"
       inkscape:connector-curvature="0" />
    <path
       style="opacity:1;fill:#000000;fill-opacity:0.72254902;stroke:none;stroke-width:0.52916664;stroke-linecap:round;stroke-miterlimit:4;stroke-dasharray:none;stroke-opacity:1"
       id="path4506"
       d="m 46.975446,280.82143 c 0.439398,0.14475 0.870442,0.31474 1.285641,0.51889 0.181482,0.0942 0.349716,0.21267 0.495977,0.35549 0.0815,0.0832 0.132378,0.17779 0.148382,0.29251 -0.0065,0.18918 -0.153192,0.31629 -0.286417,0.43212 -0.175011,0.14474 -0.364805,0.26998 -0.555258,0.39315 -0.139217,0.0836 -0.273974,0.17623 -0.418019,0.25149 -0.08477,0.0782 -0.115906,-0.0615 -0.180584,-0.0252 -0.0019,0.0148 -0.02292,0.0121 -0.02099,-0.003 v 0 c -0.05812,-0.11212 -0.0097,-0.21489 0.07683,-0.29052 0.130969,-0.0958 0.277624,-0.16837 0.412288,-0.25882 0.180326,-0.11355 0.365284,-0.22183 0.531157,-0.35631 0.108034,-0.0893 0.05933,-0.0539 0.140301,-0.096 0.02152,-0.0391 -0.02541,-0.0877 -0.05342,-0.12066 -0.125486,-0.12522 -0.275491,-0.22359 -0.431188,-0.30709 -0.403807,-0.19948 -0.823342,-0.36626 -1.252866,-0.50192 -0.201108,-0.0765 -0.09294,-0.3609 0.108171,-0.28441 z"
       inkscape:connector-curvature="0" />
    <path
       style="opacity:1;fill:#000000;fill-opacity:0.72254902;stroke:none;stroke-width:0.52916664;stroke-linecap:round;stroke-miterlimit:4;stroke-dasharray:none;stroke-opacity:1"
       id="path4508"
       d="m 50.19858,281.01697 c -0.249507,0.28439 -0.466858,0.5931 -0.630876,0.93399 -0.03417,0.0622 -0.05632,0.16676 -0.06636,0.22547 -0.03718,-0.0378 0.0088,-0.0281 0.04251,-0.0318 0.06839,-0.007 0.135131,-0.02 0.194789,-0.0552 0.07213,-0.0726 0.04668,-0.0605 0.06418,-0.0937 0.04119,-0.089 0.05418,-0.1869 0.05345,-0.28412 -0.0031,-0.0864 -0.02604,-0.16679 -0.07283,-0.23902 -0.01256,-0.0214 -0.0347,-0.0387 -0.0583,-0.0464 -0.03726,0.009 -0.06511,0.006 -0.09556,-0.0164 0.104437,-0.21936 0.08024,-0.1579 0.173579,-0.0457 0.01372,0.006 0.0053,0.0254 -0.0085,0.0194 v 0 c -0.200013,0.007 -0.191766,-0.003 -0.184685,-0.26516 0.04611,-0.0398 0.09553,-0.0511 0.157358,-0.0473 0.135026,0.0145 0.235173,0.0835 0.299422,0.20439 0.0668,0.12012 0.109177,0.24844 0.105365,0.38775 -0.003,0.13412 -0.02207,0.26783 -0.0673,0.39473 -0.05921,0.1369 -0.140885,0.25876 -0.27635,0.32741 -0.08925,0.0393 -0.18279,0.0609 -0.279287,0.0744 -0.120762,0.0172 -0.232557,0.008 -0.317985,-0.0905 -0.0964,-0.15463 -0.0699,-0.3203 -0.0071,-0.48562 0.180682,-0.42942 0.460323,-0.80385 0.755652,-1.16132 0.208349,-0.1547 0.427133,0.13995 0.218784,0.29465 z"
       inkscape:connector-curvature="0" />
    <path
       style="opacity:1;fill:#000000;fill-opacity:0.72254902;stroke:none;stroke-width:0.52916664;stroke-linecap:round;stroke-miterlimit:4;stroke-dasharray:none;stroke-opacity:1"
       id="path4510"
       d="m 53.142538,280.60802 c -0.47044,0.21423 -0.935273,0.44405 -1.34094,0.76718 -0.188534,0.15304 -0.314129,0.34486 -0.402019,0.56675 -0.03337,0.11493 -0.0721,0.2523 -5.29e-4,0.35986 0.0937,0.086 0.222994,0.0692 0.33905,0.0541 0.234834,-0.0401 0.446771,-0.14995 0.650868,-0.26766 0.232267,-0.13531 0.446487,-0.29733 0.644519,-0.4785 0.130707,-0.14352 0.310809,-0.27984 0.384802,-0.46614 0.08057,-0.13939 0.127887,-0.2923 0.15919,-0.4492 0.01815,-0.0191 7.93e-4,-0.16589 0.01815,-0.10397 0.19907,0.11463 0.133958,0.11655 0.03852,0.26022 -0.08222,0.11357 -0.137467,0.21639 -0.208793,0.35125 -0.124526,0.23923 -0.243412,0.48134 -0.355674,0.72656 -0.135679,0.32159 -0.25223,0.65073 -0.37501,0.97735 -0.117832,0.31186 -0.231519,0.62528 -0.338945,0.94088 -0.08439,0.25878 -0.166793,0.51817 -0.251761,0.77677 -0.05869,0.17772 -0.116414,0.35574 -0.176255,0.53308 -0.02294,0.0577 -0.0408,0.11736 -0.06294,0.17521 -0.327827,-0.28978 -0.260868,-0.22976 -0.05815,-0.50093 0.07928,-0.10731 0.13267,-0.20841 0.199376,-0.32192 0.108162,-0.1945 0.222952,-0.38505 0.348134,-0.56906 0.09639,-0.16263 0.22198,-0.2926 0.382638,-0.3908 0.224062,-0.1227 0.474892,-0.13849 0.724402,-0.14937 0.328568,-0.004 0.656881,-0.003 0.98511,-0.02 0.351629,-0.0207 0.696788,-0.0805 1.04947,-0.0603 0.285782,0.0592 0.140716,0.0484 0.43529,0.031 0.0149,-10e-4 0.01693,0.0196 0.0021,0.0211 v 0 c -0.294164,0.11486 -0.150533,0.0477 -0.430568,0.2021 -0.347606,0.1155 -0.709583,0.14907 -1.074676,0.16487 -0.328811,0.0126 -0.65758,0.0107 -0.986573,0.008 -0.197387,0.006 -0.403207,0.0107 -0.582089,0.10472 -0.124251,0.0829 -0.207891,0.20112 -0.285776,0.32723 -0.08563,0.13776 -0.173977,0.2739 -0.249651,0.41753 -0.09229,0.16762 -0.183406,0.33675 -0.297399,0.49097 -0.183666,0.26266 -0.084,0.31597 -0.505071,0.15986 0.01524,-0.0434 0.02991,-0.087 0.04433,-0.13066 0.06123,-0.17591 0.113614,-0.3547 0.171627,-0.53167 0.08588,-0.25932 0.168918,-0.51953 0.252077,-0.77973 0.108786,-0.31922 0.222662,-0.63667 0.342071,-0.95208 0.125498,-0.33215 0.242726,-0.66756 0.379037,-0.99547 0.111247,-0.25443 0.234627,-0.50273 0.370025,-0.74525 0.09898,-0.18314 0.206026,-0.36175 0.336122,-0.52494 0.144891,-0.18166 0.219027,-0.27037 0.47091,-0.15365 0.03131,0.0881 0.02379,0.1741 0.0026,0.26494 -0.03725,0.18373 -0.08614,0.36553 -0.175905,0.53157 -0.145569,0.24066 -0.312074,0.46244 -0.526508,0.64744 -0.214847,0.19078 -0.440068,0.37015 -0.687634,0.51726 -0.237976,0.13847 -0.486201,0.26186 -0.762127,0.30153 -0.22924,0.0223 -0.452421,0.005 -0.618569,-0.17418 -0.132199,-0.18981 -0.153405,-0.40025 -0.102804,-0.62524 0.105508,-0.35226 0.327673,-0.64111 0.612331,-0.87137 0.435853,-0.32683 0.920964,-0.57153 1.416187,-0.79608 0.267737,-0.0689 0.36517,0.30974 0.09743,0.37864 z"
       inkscape:connector-curvature="0" />
    <path
       style="opacity:1;fill:#000000;fill-opacity:0.72254902;stroke:none;stroke-width:0.52916664;stroke-linecap:round;stroke-miterlimit:4;stroke-dasharray:none;stroke-opacity:1"
       id="path4516"
       d="m 66.585914,271.40697 c 0.794977,-0.0739 1.592696,-0.10844 2.390388,-0.13571 0.700927,-0.022 1.402099,-0.025 2.103202,-0.013 0.514586,0.002 1.024523,0.0688 1.533639,0.13588 0.233797,0.016 0.445278,0.11641 0.671846,0.15935 0.01466,0.003 0.01029,0.0238 -0.0044,0.0207 v 0 c -0.236445,-0.006 -0.467442,0.0572 -0.705702,0.0482 -0.5135,0.009 -1.02684,0.004 -1.540107,-0.0146 -0.696648,-0.008 -1.393376,-9.8e-4 -2.089785,0.0194 -0.790985,0.025 -1.582172,0.0604 -2.369722,0.14123 -0.255662,-0.007 -0.245057,-0.36906 0.01061,-0.36156 z"
       inkscape:connector-curvature="0" />
    <path
       style="opacity:1;fill:#000000;fill-opacity:0.72254902;stroke:none;stroke-width:0.52916664;stroke-linecap:round;stroke-miterlimit:4;stroke-dasharray:none;stroke-opacity:1"
       id="path4524"
       d="m 66.097636,272.92899 c 0.605676,-0.0252 1.210662,-0.0639 1.816023,-0.0955 0.513715,-0.0207 1.026522,-0.0566 1.539372,-0.0919 0.47634,-0.0291 0.953215,-0.049 1.430102,-0.0666 0.382241,-0.0125 0.764659,-0.0172 1.14708,-0.0183 0.247343,-0.002 0.494647,0.005 0.74176,0.0148 0.164393,0.006 0.328046,0.017 0.48868,0.0534 0.115085,0.0159 0.194302,0.10436 0.29437,0.14997 0.01497,3.4e-4 0.0145,0.0215 -5.29e-4,0.0212 v 0 c -0.112774,0.0684 -0.221618,0.13039 -0.359289,0.1193 -0.155948,-0.002 -0.311756,0.003 -0.46768,0.006 -0.245726,0.003 -0.49144,0.006 -0.737192,0.006 -0.379291,0.003 -0.75863,0.006 -1.137735,0.0195 -0.474054,0.0161 -0.948029,0.0364 -1.421445,0.066 -0.514353,0.0339 -1.028973,0.0639 -1.544182,0.0815 -0.606621,0.0238 -1.212911,0.0556 -1.819683,0.0753 -0.240863,-0.0214 -0.210574,-0.36205 0.03029,-0.34063 z"
       inkscape:connector-curvature="0" />
    <path
       style="opacity:1;fill:#000000;fill-opacity:0.72254902;stroke:none;stroke-width:0.52916664;stroke-linecap:round;stroke-miterlimit:4;stroke-dasharray:none;stroke-opacity:1"
       id="path4526"
       d="m 72.480407,269.97337 c 0.266777,0.4493 0.556062,0.88484 0.907047,1.27274 0.246523,0.26731 0.553445,0.45456 0.87774,0.61102 0.247747,0.11237 0.500073,0.21512 0.75756,0.303 0.131664,0.0377 0.259175,0.0821 0.382598,0.14155 -0.02061,-0.002 0.03158,0.008 0.0241,0.004 -0.148666,-0.0651 -0.0635,0.0387 -0.182406,0.32663 -0.05273,-0.0136 -0.105405,0.009 -0.15767,0.0213 -0.145077,0.0373 -0.281787,0.0998 -0.419614,0.15721 -0.304355,0.12233 -0.603999,0.25558 -0.903909,0.38835 -0.385641,0.16638 -0.770559,0.33396 -1.151676,0.51056 -0.301318,0.14138 -0.592508,0.30166 -0.867222,0.48954 -0.0011,-0.0278 -0.285731,0.25062 -0.285461,0.24328 7.93e-4,-0.0233 0.01921,-0.0424 0.02882,-0.0636 -0.09453,-0.007 -0.187243,0.0916 -0.05793,0.13428 0.01392,0.006 0.0061,0.0252 -0.0078,0.0197 v 0 c -0.165563,-0.0572 -0.321514,-0.0195 -0.305445,-0.2726 0.112477,-0.20825 0.241948,-0.37226 0.450582,-0.49485 0.295238,-0.19379 0.60682,-0.3608 0.927841,-0.50798 0.38539,-0.17713 0.777915,-0.33772 1.173184,-0.49147 0.307144,-0.11942 0.612936,-0.24225 0.919647,-0.3627 0.159326,-0.0573 0.319301,-0.1192 0.486963,-0.14705 0.112638,-0.0156 0.221347,-0.0234 0.328821,0.0245 -0.0082,0.35667 0.08535,0.45885 -0.175361,0.35603 -0.114442,-0.0493 -0.236762,-0.0698 -0.355324,-0.10704 -0.275183,-0.0831 -0.543677,-0.1884 -0.80649,-0.30456 -0.368094,-0.17449 -0.712507,-0.39055 -0.989857,-0.69389 -0.362876,-0.40752 -0.663754,-0.86118 -0.943168,-1.32929 -0.161917,-0.24355 0.182513,-0.47253 0.344427,-0.22898 z"
       inkscape:connector-curvature="0" />
    <path
       style="opacity:1;fill:#000000;fill-opacity:0.72254902;stroke:none;stroke-width:0.52916664;stroke-linecap:round;stroke-miterlimit:4;stroke-dasharray:none;stroke-opacity:1"
       id="path4528"
       d="m 67.766424,276.38752 c 0.608541,-0.0195 1.216639,-0.051 1.824053,-0.0926 0.436131,-0.0301 0.872244,-0.0599 1.308809,-0.0829 0.178049,0.0114 0.381746,-0.0526 0.550034,0.0251 0.05282,0.0283 0.07362,0.0815 0.10767,0.12695 0.01429,0.004 0.008,0.0247 -0.0063,0.0202 v 0 c -0.04442,0.0282 -0.06079,0.0722 -0.0936,0.11263 -0.167941,0.11602 -0.384765,0.096 -0.57976,0.11256 -0.433779,0.0227 -0.867206,0.0508 -1.300649,0.0792 -0.61123,0.0411 -1.223153,0.0692 -1.835246,0.0939 -0.279315,-0.0177 -0.254325,-0.41268 0.02498,-0.39501 z"
       inkscape:connector-curvature="0" />
    <path
       style="opacity:1;fill:#000000;fill-opacity:0.72254902;stroke:none;stroke-width:0.52916664;stroke-linecap:round;stroke-miterlimit:4;stroke-dasharray:none;stroke-opacity:1"
       id="path4530"
       d="m 70.295888,276.79256 c -0.08614,0.49747 -0.138972,0.99981 -0.170257,1.50349 -0.01749,0.3245 -0.02241,0.64953 -0.0492,0.97347 -0.01564,0.21847 -0.05919,0.43249 -0.133893,0.63816 -0.0654,0.19521 -0.201157,0.3365 -0.366228,0.45057 -0.199596,0.12857 -0.433478,0.1514 -0.664308,0.16776 -0.331827,0.0198 -0.65133,-0.0637 -0.962253,-0.16942 -0.286633,-0.11062 -0.555008,-0.25851 -0.783902,-0.46397 -0.161861,-0.17059 -0.228827,-0.36246 -0.06804,-0.55433 0.09292,-0.0996 0.197618,-0.0871 0.3141,-0.13248 0.01423,-0.005 0.0208,0.0155 0.0066,0.0201 v 0 c -0.04117,0.0282 -0.170434,0.0967 -0.110324,0.16857 0.02891,0.0519 0.118751,0.0776 0.155385,0.13038 0.202787,0.15778 0.420708,0.29186 0.662614,0.38222 0.263292,0.0946 0.533929,0.16791 0.815346,0.17778 0.164737,0.003 0.334885,1e-5 0.485155,-0.0762 0.146024,-0.0937 0.07266,-0.0337 0.156036,-0.15508 0.0727,-0.17678 0.119263,-0.36122 0.132773,-0.55262 0.02676,-0.32165 0.03015,-0.6443 0.04788,-0.96648 0.03029,-0.51526 0.08505,-1.02844 0.165053,-1.53848 -0.0024,-0.25984 0.365014,-0.26332 0.367477,-0.003 z"
       inkscape:connector-curvature="0" />
    <path
       style="opacity:1;fill:#000000;fill-opacity:0.72254902;stroke:none;stroke-width:0.52916664;stroke-linecap:round;stroke-miterlimit:4;stroke-dasharray:none;stroke-opacity:1"
       id="path4536"
       d="m 88.751835,270.916 c -0.03727,0.35457 -0.09493,0.72746 0.0048,1.07678 0.04658,0.11125 0.10873,0.10667 0.209169,0.0733 0.119755,-0.0454 0.217831,-0.12173 0.29728,-0.22076 0.05043,-0.081 0.05458,-0.10305 0.04031,-0.20468 -0.02402,-0.12298 -0.09917,-0.21968 -0.17962,-0.3116 -0.110413,-0.12497 -0.237993,-0.23251 -0.373245,-0.32936 -0.06307,-0.0593 -0.166523,-0.0829 -0.211124,-0.15987 -0.01109,-0.0425 0.05594,-0.0571 0.0894,-0.0778 0.0084,0.0124 -0.0092,0.0242 -0.01754,0.0118 v 0 c -0.01371,-0.22708 -0.05509,-0.15313 0.07132,-0.19415 0.101278,0.005 0.180084,0.0953 0.262192,0.14513 0.148767,0.11578 0.286631,0.24528 0.407223,0.3905 0.106124,0.13806 0.200805,0.28597 0.218495,0.46369 0.0019,0.17278 -0.04911,0.32902 -0.169487,0.45796 -0.114562,0.11288 -0.243649,0.20711 -0.398909,0.25618 -0.201785,0.051 -0.374457,0.004 -0.472054,-0.19419 -0.131744,-0.37451 -0.08662,-0.77348 -0.05494,-1.16212 -0.01476,-0.19569 0.261979,-0.21657 0.276743,-0.0209 z"
       inkscape:connector-curvature="0" />
    <path
       style="opacity:1;fill:#000000;fill-opacity:0.72254902;stroke:none;stroke-width:0.52916664;stroke-linecap:round;stroke-miterlimit:4;stroke-dasharray:none;stroke-opacity:1"
       id="path4538"
       d="m 109.57888,262.01089 c -0.32055,0.1812 -0.68848,0.35265 -0.88992,0.67544 0.005,-0.004 0.0142,-0.0173 0.0158,-0.0111 0.0221,0.0852 1e-4,0.0962 0.0832,0.16311 0.11991,0.0805 0.25878,0.11197 0.40086,0.11983 0.15471,0.006 0.29351,-0.0427 0.42205,-0.12438 0.10979,-0.0818 0.12394,-0.13145 0.14078,-0.23968 0.003,-0.10396 -0.0557,-0.18272 -0.12802,-0.25062 -0.0817,-0.0695 -0.18877,-0.0933 -0.2765,-0.15254 -0.0278,-0.0255 -0.0529,-0.0433 -0.0876,-0.0577 -0.0132,0.007 -0.0231,-0.0117 -0.01,-0.0187 v 0 c 0.0263,-0.072 0.055,-0.11607 0.13133,-0.14315 0.16999,-0.0379 0.32507,0.0258 0.45681,0.13545 0.13483,0.13317 0.22966,0.28509 0.21864,0.48208 -0.0403,0.21772 -0.158,0.39715 -0.34921,0.51268 -0.17384,0.0911 -0.35791,0.14854 -0.55666,0.14032 -0.18966,-0.009 -0.37708,-0.0472 -0.54687,-0.13562 -0.26323,-0.17273 -0.31887,-0.41181 -0.15517,-0.69038 0.25783,-0.35185 0.63865,-0.57359 1.01915,-0.77426 0.26106,-0.0787 0.37233,0.29052 0.11126,0.3692 z"
       inkscape:connector-curvature="0" />
    <path
       style="opacity:1;fill:#000000;fill-opacity:0.72254902;stroke:none;stroke-width:0.52916664;stroke-linecap:round;stroke-miterlimit:4;stroke-dasharray:none;stroke-opacity:1"
       id="path4540"
       d="m 109.35443,287.68615 c -0.2284,0.3159 -0.50334,0.61785 -0.65224,0.98337 -0.0669,0.15084 -0.0815,0.29465 0.0144,0.43194 0.085,0.10409 0.20443,0.14051 0.33245,0.15831 0.12716,0.0143 0.22389,-0.0279 0.31133,-0.11672 0.0636,-0.0927 0.055,-0.18939 0.0464,-0.30673 -0.0151,-0.1632 -0.0781,-0.31441 -0.15199,-0.45876 -0.0557,-0.0981 -0.11968,-0.19081 -0.20865,-0.26104 -0.0185,-0.0171 -0.11724,-0.0548 -0.0402,-0.0518 0.0736,-0.14743 0.0361,-0.16802 0.10064,-0.0797 0.0111,0.01 -0.003,0.0257 -0.0142,0.0157 v 0 c -0.12047,-0.0897 -0.0568,-0.0186 -0.052,-0.28167 0.0983,0.003 0.17744,0.0206 0.25305,0.091 0.11749,0.10709 0.20952,0.2365 0.27091,0.38373 0.0776,0.18755 0.13319,0.38536 0.14199,0.58921 -0.0108,0.21037 -0.0656,0.41692 -0.23005,0.56155 -0.13818,0.10655 -0.29178,0.15799 -0.46811,0.1412 -0.18151,-0.0212 -0.36097,-0.062 -0.50265,-0.18538 -0.17852,-0.19902 -0.22413,-0.42999 -0.14147,-0.68792 0.1945,-0.43925 0.46653,-0.83016 0.76879,-1.20312 0.19572,-0.15668 0.41729,0.12011 0.22157,0.27678 z"
       inkscape:connector-curvature="0" />
    <path
       style="opacity:1;fill:#000000;fill-opacity:0.72254902;stroke:none;stroke-width:0.52916664;stroke-linecap:round;stroke-miterlimit:4;stroke-dasharray:none;stroke-opacity:1"
       id="path4542"
       d="m 90.527149,270.3969 c 0.52192,-0.25604 1.048523,-0.50222 1.579729,-0.73833 0.470718,-0.21039 0.948693,-0.40377 1.428155,-0.59315 0.51531,-0.19746 1.031282,-0.39317 1.546275,-0.59147 0.593749,-0.22939 1.182008,-0.47259 1.771851,-0.71176 0.566402,-0.22476 1.128422,-0.45994 1.684486,-0.70915 0.465336,-0.21387 0.924854,-0.44019 1.383604,-0.66779 0.350321,-0.17231 0.698521,-0.34891 1.049111,-0.52066 0.31512,-0.15045 0.63226,-0.29663 0.94915,-0.4433 0.30597,-0.14288 0.6163,-0.27604 0.92823,-0.4053 0.23906,-0.0967 0.47871,-0.19207 0.71726,-0.29006 0.20204,-0.0846 0.40605,-0.16429 0.60892,-0.24682 0.22778,-0.0958 0.45741,-0.18701 0.68758,-0.27692 0.22322,-0.0838 0.44216,-0.17832 0.66257,-0.2691 0.18891,-0.0728 0.3762,-0.14966 0.5638,-0.22572 0.19893,-0.0789 0.40066,-0.15014 0.60258,-0.22083 0.1871,-0.0699 0.37732,-0.13033 0.56841,-0.1881 0.15062,-0.0457 0.30213,-0.0889 0.45465,-0.1278 0.0725,-0.0195 0.14646,-0.0322 0.22058,-0.0433 0.007,-10e-4 0.0128,-0.004 0.0192,-0.005 0.14188,-0.0311 0.18591,0.16952 0.044,0.20065 v 0 c -0.0155,0.006 -0.0306,0.0124 -0.0469,0.0154 -0.069,0.0176 -0.1374,0.0373 -0.20546,0.0581 -0.1495,0.0451 -0.29753,0.0947 -0.44595,0.1432 -0.18769,0.0605 -0.3743,0.12409 -0.55934,0.19233 -0.19858,0.0705 -0.39691,0.14179 -0.59267,0.21986 -0.18702,0.0761 -0.37403,0.15228 -0.56217,0.22564 -0.22184,0.0902 -0.44166,0.18533 -0.66579,0.26981 -0.22913,0.0897 -0.45706,0.18209 -0.68366,0.278 -0.20249,0.0838 -0.40623,0.1647 -0.60877,0.24844 -0.23853,0.0972 -0.47797,0.19216 -0.71621,0.29006 -0.30925,0.12833 -0.61561,0.2635 -0.91763,0.40812 -0.3152,0.1485 -0.62824,0.30144 -0.93874,0.45955 -0.34929,0.17501 -0.69656,0.35401 -1.04473,0.53123 -0.460534,0.23265 -0.920488,0.46658 -1.388766,0.68345 -0.55702,0.25634 -1.120127,0.49869 -1.688772,0.72818 -0.589563,0.24421 -1.180457,0.48534 -1.775333,0.71636 -0.514451,0.19774 -1.029298,0.39444 -1.543704,0.59229 -0.475744,0.18736 -0.94924,0.38055 -1.416272,0.58884 -0.527196,0.23533 -1.05233,0.4757 -1.567468,0.7366 -0.21998,0.072 -0.321821,-0.23908 -0.101841,-0.31109 z"
       inkscape:connector-curvature="0" />
    <path
       style="opacity:1;fill:#000000;fill-opacity:0.72254902;stroke:none;stroke-width:0.52916664;stroke-linecap:round;stroke-miterlimit:4;stroke-dasharray:none;stroke-opacity:1"
       id="path4544"
       d="m 106.49027,263.05022 c 0.3915,0.0643 0.7817,0.13653 1.17095,0.21327 0.10742,0.0274 0.21848,0.0221 0.318,0.0715 0.12353,0.29328 -0.0464,0.4393 -0.23337,0.64339 -0.1492,0.15238 -0.29941,0.30378 -0.44096,0.46335 -0.11372,0.13587 -0.21488,0.28155 -0.30781,0.43222 0.0468,-0.0647 -0.0977,0.1419 -0.11854,0.1662 -0.0438,0.0168 -0.0833,0.0445 -0.0387,0.0857 0.014,0.005 0.006,0.0251 -0.007,0.0198 v 0 c -0.0886,-0.004 -0.15577,0.0108 -0.1988,-0.0857 -0.0412,-0.162 0.0252,-0.30674 0.10787,-0.44578 0.10061,-0.16882 0.21832,-0.32712 0.3489,-0.47402 0.14438,-0.15781 0.29539,-0.30915 0.44313,-0.46377 0.13508,-0.15179 0.10097,-0.22954 0.23993,-0.0622 0.10438,0.0374 -0.17132,-0.0574 -0.19187,-0.0438 -0.3866,-0.0779 -0.77376,-0.15392 -1.16379,-0.21286 -0.21732,-0.0514 -0.14468,-0.35869 0.0726,-0.30733 z"
       inkscape:connector-curvature="0" />
    <path
       style="opacity:1;fill:#000000;fill-opacity:0.72254902;stroke:none;stroke-width:0.52916664;stroke-linecap:round;stroke-miterlimit:4;stroke-dasharray:none;stroke-opacity:1"
       id="path4554"
       d="m 109.745,264.54417 c -0.0463,0.67656 -0.0508,1.35509 -0.0478,2.03294 0.006,0.68389 0.0115,1.36776 0.0127,2.05167 -0.002,0.62973 -0.003,1.25947 -0.007,1.8892 -0.003,0.62906 -0.0152,1.25804 -0.0291,1.88694 -0.0169,0.64331 -0.0314,1.28666 -0.0422,1.93009 -0.0161,0.63809 -0.009,1.27628 0.0101,1.91418 0.0182,0.62484 0.0463,1.24932 0.0773,1.87363 0.0289,0.53691 0.0448,1.07422 0.0412,1.61188 -0.007,0.45002 -0.028,0.89966 -0.0455,1.34935 -0.0111,0.38848 -0.0311,0.77655 -0.0581,1.16422 -0.0226,0.33834 -0.049,0.67638 -0.0798,1.01408 -0.0282,0.29737 -0.0648,0.59383 -0.0903,0.89145 -0.0171,0.24987 -0.031,0.49996 -0.044,0.75007 -0.009,0.15801 -0.0185,0.31595 -0.0243,0.47411 -0.004,0.11442 -0.005,0.22915 -0.0234,0.34237 -0.004,0.0387 -0.0172,0.074 -0.0405,0.10451 -0.007,0.006 -0.0165,0.0123 -0.0229,0.017 -2.7e-4,-5.3e-4 -5.3e-4,-7.9e-4 -8e-4,-10e-4 -0.0664,0.18112 -0.32255,0.0872 -0.25614,-0.0939 v 0 c -2.2e-4,-10e-4 -5.3e-4,-0.002 -7.9e-4,-0.003 -0.004,-0.0162 -0.007,-0.0325 -0.0124,-0.0483 -0.002,-0.0343 -0.009,-0.068 -0.003,-0.10261 0.0134,-0.17929 -0.005,0.13265 0.004,-0.13399 0.002,-0.16166 0.008,-0.32308 0.0203,-0.48435 0.013,-0.25379 0.0263,-0.50756 0.0418,-0.76121 0.0234,-0.29956 0.0598,-0.59774 0.0891,-0.89676 0.0314,-0.33581 0.0595,-0.67187 0.0813,-1.00846 0.0298,-0.38481 0.0484,-0.77021 0.0619,-1.15592 0.0162,-0.44768 0.0392,-0.89514 0.048,-1.34306 0.006,-0.53194 -0.007,-1.06377 -0.0346,-1.59505 -0.0316,-0.62732 -0.0597,-1.25479 -0.0782,-1.88265 -0.0215,-0.64335 -0.0275,-1.28708 -0.0131,-1.93069 0.0123,-0.645 0.0234,-1.29003 0.0412,-1.93491 0.014,-0.62793 0.0256,-1.25593 0.0294,-1.88401 0.004,-0.63023 0.005,-1.26049 0.008,-1.89074 10e-4,-0.6846 -0.008,-1.36915 -0.009,-2.05374 0.002,-0.68704 0.006,-1.3749 0.0639,-2.06001 -0.0232,-0.23529 0.3096,-0.26802 0.33275,-0.0327 z"
       inkscape:connector-curvature="0" />
    <path
       style="opacity:1;fill:#000000;fill-opacity:0.72254902;stroke:none;stroke-width:0.52916664;stroke-linecap:round;stroke-miterlimit:4;stroke-dasharray:none;stroke-opacity:1"
       id="path4556"
       d="m 108.76175,284.71085 c 0.08,0.46229 0.16106,0.92443 0.24472,1.38609 0.0317,0.16206 0.0591,0.3256 0.10999,0.48305 0.0153,0.0501 0.019,0.0165 -0.0172,0.005 -0.17453,-0.0546 -0.17617,0.0166 -0.13362,-0.0803 0.0523,-0.10933 0.0897,-0.22479 0.13253,-0.33797 0.0677,-0.18502 0.15148,-0.36336 0.23418,-0.54198 0.0667,-0.19388 0.181,-0.35597 0.30475,-0.51624 0.0577,-0.0819 0.1244,-0.15091 0.20046,-0.21524 0.009,-0.012 0.0259,5.3e-4 0.017,0.0126 v 0 c -0.008,0.11084 -0.0237,0.2178 -0.058,0.32421 -0.0578,0.19707 -0.11183,0.39515 -0.2006,0.58139 -0.0765,0.17424 -0.15575,0.34766 -0.21791,0.52773 -0.0449,0.12977 -0.0921,0.25976 -0.16099,0.37907 -0.0895,0.135 -0.31187,0.23266 -0.38672,0.0418 -0.0768,-0.16856 -0.10047,-0.35424 -0.1362,-0.53449 -0.0815,-0.46274 -0.15619,-0.92664 -0.23906,-1.38915 -0.0889,-0.21688 0.21778,-0.34265 0.30671,-0.12577 z"
       inkscape:connector-curvature="0" />
    <path
       style="opacity:1;fill:#000000;fill-opacity:0.72254902;stroke:none;stroke-width:0.52916664;stroke-linecap:round;stroke-miterlimit:4;stroke-dasharray:none;stroke-opacity:1"
       id="path4558"
       d="m 83.580829,272.58969 c 0.51241,-0.0128 1.023405,-0.0519 1.534715,-0.0851 0.280773,-0.0612 0.566801,0.016 0.844889,0.005 0.01482,-0.002 0.01775,0.0189 0.0029,0.021 v 0 c -0.272089,0.13337 -0.523184,0.29582 -0.840256,0.31547 -0.516683,0.0835 -1.038793,0.12179 -1.561269,0.14824 -0.28571,-0.0134 -0.266716,-0.41748 0.019,-0.40405 z"
       inkscape:connector-curvature="0" />
    <path
       style="opacity:1;fill:#000000;fill-opacity:0.72254902;stroke:none;stroke-width:0.52916664;stroke-linecap:round;stroke-miterlimit:4;stroke-dasharray:none;stroke-opacity:1"
       id="path4560"
       d="m 84.967399,272.65339 c -0.01916,0.54189 -0.02585,1.08405 -0.04882,1.62581 -0.01508,0.38304 -0.0425,0.76502 -0.109593,1.14263 -0.05472,0.27946 -0.158721,0.54558 -0.322019,0.77917 -0.13399,0.17639 -0.323895,0.24994 -0.536054,0.28066 -0.266935,0.0254 -0.50469,-0.0791 -0.728982,-0.21139 -0.203984,-0.13417 -0.378257,-0.30406 -0.518674,-0.50299 -0.109609,-0.1644 -0.12923,-0.33833 -0.07675,-0.52525 0.09047,-0.22566 0.266856,-0.28026 0.493348,-0.26975 0.03023,0.002 0.06046,0.005 0.09069,0.007 0.01484,-0.002 0.01765,0.019 0.0028,0.021 v 0 c -0.02556,0.0161 -0.0511,0.0323 -0.07665,0.0484 -0.05615,0.052 -0.111895,0.098 -0.146029,0.16801 -0.01437,0.0294 -0.05522,0.10857 -0.02543,0.0949 0.01937,-0.009 0.02056,-0.0373 0.03084,-0.056 -0.004,0.0736 0.04285,0.13891 0.07579,0.20381 0.103725,0.15572 0.23953,0.28454 0.39257,0.392 0.145474,0.0939 0.29862,0.17145 0.475367,0.17874 0.114993,-0.004 0.212547,-0.0274 0.28906,-0.12063 0.111339,-0.14268 0.180154,-0.29689 0.216471,-0.47798 0.07583,-0.36254 0.100047,-0.7316 0.117062,-1.10109 0.02706,-0.54063 0.03377,-1.08191 0.0479,-1.62299 -0.03859,-0.25249 0.318487,-0.30706 0.357074,-0.0546 z"
       inkscape:connector-curvature="0" />
    <path
       style="opacity:1;fill:#000000;fill-opacity:0.72254902;stroke:none;stroke-width:0.52916664;stroke-linecap:round;stroke-miterlimit:4;stroke-dasharray:none;stroke-opacity:1"
       id="path4564"
       d="m 85.958673,274.25992 c 0.25612,0.40685 0.439174,0.84458 0.494893,1.3227 0.02011,0.26959 -0.05521,0.52454 -0.146857,0.77398 -0.04605,0.11533 -0.07981,0.23489 -0.119846,0.35229 -0.04548,0.13154 -0.08141,0.22118 -0.334928,-0.0308 -0.01323,-0.0131 0.07976,-0.18713 0.09981,-0.22587 0.108,-0.18601 0.207547,-0.37656 0.30762,-0.5669 0.125727,-0.24028 0.263972,-0.47354 0.416264,-0.69786 0.109484,-0.15616 0.221768,-0.31159 0.369046,-0.4343 0.113652,-0.084 0.231317,-0.075 0.339534,0.01 0.08287,0.0914 0.117534,0.21281 0.155821,0.32744 0.0478,0.16361 0.07869,0.33169 0.10073,0.50053 0.01828,0.16762 0.01664,0.33679 0.01003,0.50504 -0.0082,0.0981 -0.0024,0.20055 -0.03033,0.29595 -0.271402,9.3e-4 -0.05488,-0.12942 -0.0011,-0.18046 0.11007,-0.12482 0.192141,-0.27084 0.272056,-0.41591 0.127156,-0.23168 0.244057,-0.46866 0.361256,-0.70545 0.10287,-0.21989 0.218689,-0.43335 0.334238,-0.64674 0.06698,-0.12413 0.141197,-0.24375 0.234619,-0.3496 0.09243,-0.1105 0.213186,-0.11461 0.293037,0.0319 0.06207,0.15226 0.0736,0.32086 0.08766,0.48317 0.02352,0.25795 -0.0028,0.51555 -0.03817,0.77094 -0.03693,0.25364 -0.101174,0.50205 -0.15816,0.75163 -0.0367,0.15142 -0.05518,0.30514 -0.04175,0.46042 0.01701,0.10536 0.05727,0.23868 0.172876,0.24536 0.01487,0.002 0.01238,0.0228 -0.0024,0.021 v 0 c -0.189253,-0.0125 -0.284054,0.0482 -0.40786,-0.15453 -0.08647,-0.18452 -0.07358,-0.37698 -0.0293,-0.5729 0.05546,-0.24476 0.117277,-0.48816 0.164097,-0.73478 0.03984,-0.23786 0.07412,-0.47876 0.06628,-0.72055 -0.007,-0.14411 -0.01897,-0.287 -0.04115,-0.42958 -0.0024,-0.042 0.182915,-0.0488 0.06808,0.0175 -0.08016,0.10178 -0.145804,0.2134 -0.207449,0.32718 -0.116255,0.21002 -0.227211,0.42304 -0.330922,0.63955 -0.118012,0.23888 -0.236056,0.47773 -0.361686,0.71275 -0.0879,0.16473 -0.171479,0.33556 -0.303564,0.47043 -0.101994,0.0992 -0.338852,0.26122 -0.422402,0.0212 -0.02008,-0.0946 -0.0011,-0.19379 -5.29e-4,-0.28926 0.0066,-0.15402 0.0092,-0.30847 -0.0013,-0.46237 -0.01786,-0.15208 -0.04447,-0.30302 -0.08259,-0.45141 -0.02275,-0.0721 -0.05376,-0.14699 -0.07066,-0.21849 0.02787,0.004 0.08981,-0.0107 0.03739,0.0217 -0.119965,0.11638 -0.216133,0.25428 -0.309327,0.39236 -0.142269,0.21927 -0.274662,0.44464 -0.394079,0.67726 -0.09866,0.18836 -0.199879,0.37526 -0.301458,0.56203 -0.0572,0.12319 -0.452437,0.2289 -0.362307,0.017 0.03756,-0.1233 0.07444,-0.24695 0.119883,-0.36763 0.0816,-0.20769 0.162795,-0.41803 0.158377,-0.64521 -0.02853,-0.43614 -0.203068,-0.83351 -0.433158,-1.20187 -0.147516,-0.19071 0.122195,-0.39933 0.269711,-0.20862 z"
       inkscape:connector-curvature="0" />
    <path
       style="opacity:1;fill:#000000;fill-opacity:0.72254902;stroke:none;stroke-width:0.52916664;stroke-linecap:round;stroke-miterlimit:4;stroke-dasharray:none;stroke-opacity:1"
       id="path4566"
       d="m 89.773166,260.80847 c 0.588055,0.0547 1.177867,0.0858 1.768179,0.10043 0.449281,0.0131 0.897974,-0.0129 1.344684,-0.0587 0.254457,-0.0403 0.512431,-0.0184 0.767418,-0.0372 0.01492,-10e-4 0.01672,0.0198 0.0019,0.0211 v 0 c -0.251568,0.0918 -0.492326,0.21504 -0.756459,0.2723 -0.458137,0.10681 -0.923468,0.16803 -1.395217,0.15354 -0.596829,-0.0123 -1.192718,-0.0451 -1.787663,-0.0944 -0.252433,-0.0405 -0.195183,-0.39747 0.05725,-0.35699 z"
       inkscape:connector-curvature="0" />
    <path
       style="opacity:1;fill:#000000;fill-opacity:0.72254902;stroke:none;stroke-width:0.52916664;stroke-linecap:round;stroke-miterlimit:4;stroke-dasharray:none;stroke-opacity:1"
       id="path4568"
       d="m 91.948591,261.47384 c -0.03805,0.55433 -0.06273,1.10944 -0.100584,1.66377 -0.02193,0.34947 -0.06636,0.69701 -0.135506,1.04019 -0.03702,0.17657 -0.08493,0.35132 -0.156498,0.51715 -0.09274,0.20538 -0.241113,0.25276 -0.451221,0.244 -0.251119,-0.0387 -0.487577,-0.13858 -0.721177,-0.23442 -0.291658,-0.12332 -0.565158,-0.28413 -0.819314,-0.47222 -0.17984,-0.13433 -0.310671,-0.29494 -0.341038,-0.5198 0.02519,-0.32482 0.301046,-0.36279 0.565452,-0.32663 0.04863,-0.007 0.09725,-0.014 0.145881,-0.021 0.01495,-9.3e-4 0.01624,0.0202 0.0013,0.0211 v 0 c -0.0479,0.01 -0.09581,0.0199 -0.143709,0.0298 -0.06708,0.0467 -0.138996,0.0871 -0.201073,0.14028 -0.02979,0.0255 -0.09313,0.12343 -0.06139,0.10039 0.01709,-0.0124 0.04085,-0.0796 0.02968,-0.0559 0.06567,0.10822 0.157003,0.19805 0.255547,0.27724 0.2324,0.17249 0.483114,0.31686 0.743488,0.44311 0.193714,0.0913 0.390133,0.18761 0.601567,0.22958 0.07739,0.0106 0.07967,-0.016 0.03607,0.0639 0.08204,-0.13308 0.119089,-0.28787 0.155591,-0.43834 0.07089,-0.32956 0.117628,-0.6635 0.140851,-0.99994 0.04087,-0.55331 0.06706,-1.10755 0.09915,-1.66142 -0.02886,-0.25238 0.328062,-0.2932 0.356926,-0.0408 z"
       inkscape:connector-curvature="0" />
    <path
       style="opacity:1;fill:#000000;fill-opacity:0.72254902;stroke:none;stroke-width:0.52916664;stroke-linecap:round;stroke-miterlimit:4;stroke-dasharray:none;stroke-opacity:1"
       id="path4570"
       d="m 94.605312,262.41477 c -0.225705,0.43528 -0.446085,0.8733 -0.670412,1.30928 -0.150857,0.30623 -0.320759,0.60204 -0.502091,0.89109 -0.09939,0.15769 -0.217782,0.30076 -0.350658,0.43096 -0.09807,0.0908 -0.213527,0.15593 -0.336939,0.20502 -0.130858,0.0463 -0.259122,0.0387 -0.388633,-0.005 -0.146714,-0.0619 -0.235215,-0.18085 -0.300067,-0.321 -0.06895,-0.16789 -0.08228,-0.34497 -0.06575,-0.52371 0.03818,-0.23819 0.16478,-0.4456 0.300712,-0.64023 0.112472,-0.15652 0.241327,-0.29945 0.377225,-0.43566 0.09914,-0.10129 0.217029,-0.17605 0.343722,-0.23727 0.103696,-0.0509 0.210836,-0.0822 0.326311,-0.0835 0.145881,0.004 0.252635,0.0912 0.348951,0.19113 0.131019,0.14727 0.211098,0.32793 0.286202,0.50783 0.07516,0.21171 0.153337,0.42193 0.238898,0.62967 0.07889,0.1929 0.164248,0.38284 0.252561,0.57157 0.06835,0.12397 0.119017,0.2547 0.164809,0.38817 0.02069,0.0901 -0.0061,0.0619 0.06916,0.0941 0.0146,0.003 0.01,0.0239 -0.0046,0.0207 v 0 c -0.100914,0.002 -0.04665,-0.004 -0.162171,0.0221 -0.183353,-0.041 -0.30199,-0.15548 -0.3893,-0.32045 -0.101602,-0.1914 -0.187105,-0.39037 -0.270216,-0.59039 -0.08625,-0.20886 -0.168053,-0.41909 -0.240932,-0.63304 -0.05647,-0.14505 -0.117494,-0.29146 -0.215821,-0.41387 -0.02856,-0.0321 -0.05832,-0.0786 -0.102193,-0.086 -0.06454,0.0102 -0.124372,0.0341 -0.181673,0.0661 -0.09239,0.0524 -0.176337,0.11612 -0.247952,0.19525 -0.118033,0.12647 -0.231124,0.25815 -0.32725,0.40233 -0.07928,0.12415 -0.12229,0.18028 -0.170682,0.32783 -0.02384,0.11899 -0.02037,0.23652 0.01894,0.35251 0.01976,0.0558 0.04183,0.11136 0.09448,0.14393 0.04959,0.0211 0.0997,0.0159 0.149502,-0.004 0.08277,-0.0354 0.158721,-0.0844 0.222428,-0.14849 0.114488,-0.11439 0.21369,-0.24232 0.301101,-0.37854 0.145648,-0.22945 0.285869,-0.46228 0.411004,-0.7038 0.229915,-0.43432 0.460777,-0.86813 0.688903,-1.3034 0.05571,-0.23508 0.388152,-0.1563 0.332446,0.0788 z"
       inkscape:connector-curvature="0" />
    <path
       style="opacity:1;fill:#000000;fill-opacity:0.72254902;stroke:none;stroke-width:0.52916664;stroke-linecap:round;stroke-miterlimit:4;stroke-dasharray:none;stroke-opacity:1"
       id="path4572"
       d="m 110.63938,256.15156 c 0.57589,-0.10291 1.15507,-0.18483 1.7369,-0.2452 0.34469,-0.036 0.69054,-0.0622 1.03701,-0.0444 0.18853,0.006 0.36822,0.0553 0.53864,0.13367 0.0901,0.0405 0.16205,0.10216 0.23272,0.16933 0.0138,0.006 0.006,0.0253 -0.008,0.0195 v 0 c -0.0935,0.007 -0.18626,0.0201 -0.27987,0.0267 -0.17104,0.0152 -0.34246,0.0261 -0.51342,0.0423 -0.33731,0.0396 -0.67498,0.0758 -1.01332,0.10549 -0.5718,0.0615 -1.14214,0.13908 -1.70683,0.24903 -0.32271,0.0168 -0.3464,-0.43962 -0.0237,-0.45638 z"
       inkscape:connector-curvature="0" />
    <path
       style="opacity:1;fill:#000000;fill-opacity:0.72254902;stroke:none;stroke-width:0.52916664;stroke-linecap:round;stroke-miterlimit:4;stroke-dasharray:none;stroke-opacity:1"
       id="path4574"
       d="m 112.5133,256.48218 c -0.17993,0.53174 -0.31476,1.07718 -0.41618,1.62893 -0.0611,0.34928 -0.0934,0.70253 -0.11938,1.05586 -0.0153,0.1908 -0.0269,0.38196 -0.0492,0.5721 -0.013,0.16816 -0.093,0.30952 -0.23986,0.39417 -0.1588,0.0714 -0.32069,0.035 -0.47499,-0.0276 -0.22901,-0.10798 -0.42257,-0.27038 -0.60955,-0.43804 -0.18773,-0.17253 -0.36069,-0.35998 -0.52043,-0.5585 -0.096,-0.10606 -0.15128,-0.22185 -0.17921,-0.3593 -0.0191,-0.32427 0.30796,-0.27828 0.51176,-0.23928 0.1384,0.0506 0.0675,0.0296 0.21284,0.0626 0.0147,0.003 0.0109,0.0235 -0.004,0.0208 v 0 c -0.14853,0.005 -0.0764,-0.007 -0.21656,0.0344 -0.414,0.12693 -0.13681,0.18888 -0.16115,-0.0372 0.0783,0.0375 0.12475,0.14426 0.18493,0.21274 0.14634,0.18201 0.30552,0.35365 0.4767,0.51263 0.15245,0.13936 0.30576,0.28313 0.48894,0.38166 0.0458,0.0192 0.0951,0.0495 0.146,0.0456 -0.0603,0.10544 -0.0198,0.0711 0.0116,-7.4e-4 0.0414,-0.17798 0.0367,-0.36382 0.0581,-0.54459 0.0284,-0.36398 0.0596,-0.72795 0.12248,-1.08798 0.10275,-0.56673 0.24245,-1.1258 0.42215,-1.67329 0.0318,-0.25087 0.38661,-0.20585 0.35478,0.045 z"
       inkscape:connector-curvature="0" />
    <path
       style="opacity:1;fill:#000000;fill-opacity:0.72254902;stroke:none;stroke-width:0.52916664;stroke-linecap:round;stroke-miterlimit:4;stroke-dasharray:none;stroke-opacity:1"
       id="path4576"
       d="m 113.08162,258.55397 c 0.064,0.43851 0.1042,0.88018 0.11322,1.32324 8e-5,0.10392 2.4e-4,0.20802 -0.002,0.31189 -0.12413,-0.0375 -0.2611,-0.046 -0.37241,-0.11257 -0.008,-0.005 0.1659,-0.46164 0.18344,-0.50583 0.10568,-0.26512 0.2248,-0.52428 0.3565,-0.77741 0.12628,-0.22819 0.25477,-0.46233 0.44003,-0.64869 0.12,-0.11847 0.23768,-0.17065 0.40413,-0.12842 0.15507,0.0808 0.20988,0.23966 0.26406,0.39504 0.0756,0.23362 0.12275,0.4751 0.16835,0.71599 0.0467,0.26739 0.0943,0.53459 0.14514,0.80122 0.0303,0.18654 0.0903,0.36608 0.128,0.55089 0.0127,0.10658 -0.0263,0.24201 0.0995,0.26406 0.0145,0.004 0.009,0.0242 -0.005,0.0205 v 0 c -0.15187,-0.0282 -0.28737,0.0386 -0.40199,-0.1166 -0.11814,-0.18002 -0.16421,-0.38698 -0.20319,-0.59674 -0.0497,-0.26748 -0.0991,-0.53497 -0.14531,-0.80309 -0.0396,-0.22575 -0.0844,-0.45148 -0.1508,-0.67107 -0.01,-0.0314 -0.0984,-0.20285 -0.0442,-0.18871 0.1044,0.0101 0.003,0.0187 -0.0373,0.0835 -0.0798,0.0964 -0.19638,0.26731 -0.27693,0.42257 -0.12956,0.24114 -0.2471,0.48854 -0.34649,0.74377 -0.0533,0.12783 -0.10535,0.25681 -0.15071,0.38774 -0.01,0.0288 2.1e-4,0.0767 -0.0285,0.0868 -0.13675,0.0481 -0.28571,0.0493 -0.42856,0.0739 0.0185,-0.0487 0.0235,-0.17739 0.0236,-0.24615 0.003,-0.42893 -0.031,-0.85714 -0.0926,-1.28164 -0.0737,-0.25507 0.287,-0.35932 0.36072,-0.10425 z"
       inkscape:connector-curvature="0" />
    <path
       style="opacity:1;fill:#000000;fill-opacity:0.72254902;stroke:none;stroke-width:0.52916664;stroke-linecap:round;stroke-miterlimit:4;stroke-dasharray:none;stroke-opacity:1"
       id="path4578"
       d="m 117.0632,257.46204 c 0.55934,-0.0616 1.11925,-0.11815 1.6792,-0.17405 0.302,-0.0275 0.60572,-0.0604 0.90919,-0.0415 0.12651,0.0104 0.27138,0.0368 0.32086,0.16813 -5.3e-4,0.018 -7.9e-4,0.036 -10e-4,0.0541 0.011,0.0102 -0.003,0.0257 -0.0144,0.0155 v 0 c -0.0123,0.007 -0.0246,0.0134 -0.037,0.0201 -0.0929,0.0436 -0.19458,0.0578 -0.29594,0.0688 -0.29602,0.036 -0.59432,0.0505 -0.89068,0.0837 -0.55813,0.0553 -1.11645,0.10947 -1.67337,0.17593 -0.26206,-0.002 -0.25864,-0.37304 0.003,-0.37062 z"
       inkscape:connector-curvature="0" />
    <path
       style="opacity:1;fill:#000000;fill-opacity:0.72254902;stroke:none;stroke-width:0.52916664;stroke-linecap:round;stroke-miterlimit:4;stroke-dasharray:none;stroke-opacity:1"
       id="path4580"
       d="m 116.72457,258.37932 c 0.52088,-0.0389 1.0427,-0.062 1.56489,-0.0719 0.31054,-0.006 0.62103,0.006 0.9308,0.0269 0.19228,0.0148 0.37993,0.0551 0.55078,0.14552 0.0148,0.002 0.0119,0.023 -0.003,0.021 v 0 c -0.18754,0.0735 -0.38506,0.11574 -0.58707,0.11964 -0.30603,7e-5 -0.61171,-0.0241 -0.9179,-0.016 -0.51727,0.01 -1.03434,0.0301 -1.55039,0.0681 -0.20729,-0.008 -0.19545,-0.30152 0.0119,-0.29315 z"
       inkscape:connector-curvature="0" />
    <path
       style="opacity:1;fill:#000000;fill-opacity:0.72254902;stroke:none;stroke-width:0.52916664;stroke-linecap:round;stroke-miterlimit:4;stroke-dasharray:none;stroke-opacity:1"
       id="path4582"
       d="m 121.05182,255.85058 c 0.48303,-0.0204 0.96603,-0.0454 1.44958,-0.0464 0.26198,6.8e-4 0.52308,0.0225 0.78371,0.0467 0.20228,0.0205 0.40563,0.0324 0.60573,0.0696 0.11378,0.009 0.20028,0.0874 0.31047,0.0658 0.0149,-6.9e-4 0.0159,0.0205 10e-4,0.0211 v 0 c -0.11987,0.0232 -0.20214,0.1267 -0.32828,0.14617 -0.21266,0.0569 -0.43102,0.0697 -0.65072,0.0615 -0.25521,-0.009 -0.50998,-0.0289 -0.76545,-0.0299 -0.47838,5.6e-4 -0.95635,0.0221 -1.43397,0.0479 -0.27032,-0.0198 -0.24238,-0.40205 0.0279,-0.38229 z"
       inkscape:connector-curvature="0" />
    <path
       style="opacity:1;fill:#000000;fill-opacity:0.72254902;stroke:none;stroke-width:0.52916664;stroke-linecap:round;stroke-miterlimit:4;stroke-dasharray:none;stroke-opacity:1"
       id="path4584"
       d="m 122.29382,256.75228 c -0.024,0.53955 -0.055,1.07882 -0.11246,1.61591 -0.0344,0.32399 -0.0888,0.64507 -0.16313,0.96216 -0.0388,0.20868 -0.1151,0.39203 -0.2352,0.56501 -0.10055,0.11978 -0.23747,0.15961 -0.38809,0.16623 -0.18687,-0.002 -0.3585,-0.0687 -0.52486,-0.14725 -0.20235,-0.1031 -0.38482,-0.23595 -0.549,-0.39204 -0.15471,-0.14803 -0.25513,-0.31981 -0.28132,-0.53236 0.005,-0.21339 0.14048,-0.41703 0.36286,-0.43698 0.0258,-0.0129 0.0517,-0.0259 0.0775,-0.0388 0.0143,-0.004 0.0204,0.016 0.006,0.0203 v 0 c -0.025,0.0128 -0.05,0.0257 -0.075,0.0385 -0.0506,0.10168 -0.0776,0.19453 -0.0356,0.30574 0.0493,0.12929 0.12434,0.24392 0.22354,0.34122 0.13932,0.13286 0.29407,0.24784 0.46345,0.34002 0.11353,0.061 0.23194,0.11956 0.36179,0.13401 0.0632,-6.4e-4 0.11667,-0.0114 0.16286,-0.0585 -0.0541,0.12183 0.18041,-0.28648 0.15702,-0.32493 0.089,-0.30358 0.13397,-0.61739 0.17358,-0.93074 0.0606,-0.53178 0.0945,-1.06599 0.11519,-1.60076 -0.0189,-0.18441 0.24185,-0.21121 0.26079,-0.0268 z"
       inkscape:connector-curvature="0" />
    <path
       style="opacity:1;fill:#000000;fill-opacity:0.72254902;stroke:none;stroke-width:0.52916664;stroke-linecap:round;stroke-miterlimit:4;stroke-dasharray:none;stroke-opacity:1"
       id="path4586"
       d="m 123.66122,259.0363 c -0.027,0.59039 -0.0459,1.18111 -0.0692,1.77165 -0.0166,0.4155 -0.0342,0.83095 -0.0519,1.2464 -0.007,0.17597 -0.009,0.35205 -0.0157,0.52802 -2.7e-4,0.008 0.007,0.024 -7.9e-4,0.0227 -0.0983,-0.0174 -0.20263,-0.0262 -0.29008,-0.0743 -0.0225,-0.0124 0.0142,-0.0494 0.0197,-0.0744 0.0216,-0.099 0.0291,-0.20034 0.0383,-0.30094 0.0237,-0.302 0.0415,-0.60441 0.06,-0.90676 0.0209,-0.42213 0.0606,-0.8426 0.11433,-1.26171 0.0505,-0.40136 0.13629,-0.79661 0.25622,-1.18269 0.077,-0.23297 0.17289,-0.46393 0.37759,-0.61199 0.17542,-0.0974 0.34914,-0.0714 0.52273,0.0113 0.19512,0.1147 0.32682,0.2998 0.44675,0.48653 0.0991,0.16062 0.17859,0.3321 0.2405,0.51017 0.078,0.1856 0.0412,0.28556 -0.0844,0.44049 -0.11179,0.0952 -0.25204,0.13342 -0.39172,0.16649 -0.10645,0.0241 -0.21296,0.048 -0.3215,0.0271 -0.0437,-0.008 -0.0734,-0.0669 -0.11457,-0.0519 -0.0121,0.009 -0.0246,-0.008 -0.0125,-0.0171 v 0 c 0.0242,-0.0704 0.012,-0.14098 0.08,-0.19368 0.0957,-0.0821 0.20754,-0.12352 0.33054,-0.1486 0.0829,-0.0222 0.16661,-0.0475 0.23506,-0.10159 -0.087,0.13103 0.002,0.10699 -0.0162,0.003 -0.0436,-0.1602 -0.11595,-0.30987 -0.20033,-0.45254 -0.0927,-0.14723 -0.19084,-0.29864 -0.34086,-0.39353 -0.0793,-0.0419 -0.16019,-0.0618 -0.23927,-0.006 -0.0574,0.0528 -0.16223,0.22307 -0.19739,0.3682 -0.1204,0.36926 -0.20614,0.74837 -0.25478,1.13399 -0.0543,0.41224 -0.0944,0.82575 -0.11283,1.24129 -0.017,0.30459 -0.0348,0.60917 -0.0581,0.91336 -0.0146,0.16758 -0.0232,0.79538 -0.40378,0.49911 -0.001,-0.17877 0.006,-0.35744 0.0132,-0.53604 0.0161,-0.41613 0.0389,-0.832 0.0551,-1.24814 0.0247,-0.59114 0.0471,-1.18238 0.0689,-1.77363 -0.0242,-0.22416 0.29284,-0.25834 0.31701,-0.0342 z"
       inkscape:connector-curvature="0" />
    <path
       style="opacity:1;fill:#000000;fill-opacity:0.72254902;stroke:none;stroke-width:0.52916664;stroke-linecap:round;stroke-miterlimit:4;stroke-dasharray:none;stroke-opacity:1"
       id="path4588"
       d="m 111.85933,271.80107 c 0.56623,-0.16227 1.14213,-0.28344 1.72496,-0.36653 0.45967,-0.0652 0.92393,-0.0701 1.38717,-0.0672 0.34037,10e-4 0.67932,0.0239 1.01494,0.0805 0.16417,0.0304 0.32446,0.0741 0.47819,0.1387 0.0149,10e-4 0.013,0.0224 -0.002,0.0211 v 0 c -0.16636,0.0697 -0.33795,0.11171 -0.51948,0.11767 -0.3366,0.0158 -0.67367,0.0122 -1.01052,0.008 -0.44811,-0.002 -0.89689,0.007 -1.34167,0.0677 -0.56833,0.0824 -1.13067,0.1997 -1.68359,0.35587 -0.25149,0.034 -0.29963,-0.32163 -0.0481,-0.35566 z"
       inkscape:connector-curvature="0" />
    <path
       style="opacity:1;fill:#000000;fill-opacity:0.72254902;stroke:none;stroke-width:0.52916664;stroke-linecap:round;stroke-miterlimit:4;stroke-dasharray:none;stroke-opacity:1"
       id="path4590"
       d="m 114.08264,271.98438 c 0.003,0.54799 0.007,1.09578 -0.0171,1.64336 -0.0152,0.33297 -0.0477,0.66479 -0.13054,0.98803 -0.06,0.22397 -0.166,0.42721 -0.34848,0.57348 -0.16866,0.10822 -0.35952,0.11603 -0.55307,0.10213 -0.24237,-0.0265 -0.45185,-0.14765 -0.65058,-0.28043 -0.22713,-0.15568 -0.40894,-0.35781 -0.56095,-0.58529 -0.11145,-0.17418 -0.18893,-0.36092 -0.19854,-0.56812 0.005,-0.24195 0.16805,-0.39797 0.4022,-0.41997 0.11189,-10e-4 0.21669,0.0226 0.32871,0.0256 0.015,-2.7e-4 0.0153,0.0209 2.6e-4,0.0212 v 0 c -0.10814,0.0322 -0.1929,0.0737 -0.27525,0.1535 -0.0273,0.0324 -0.1028,0.0776 -0.071,0.10562 0.0323,0.0284 0.0359,-0.0793 0.023,0.011 0.0348,0.13611 0.0984,0.26351 0.16723,0.38523 0.11848,0.18574 0.2676,0.34993 0.44385,0.48296 0.14634,0.0984 0.29771,0.19433 0.47218,0.23337 0.10011,0.0166 0.20439,0.0282 0.29592,-0.0254 0.0828,-0.0557 0.0991,-0.0754 0.15733,-0.24032 0.0924,-0.2979 0.11759,-0.60967 0.13732,-0.91969 0.0277,-0.54231 0.0282,-1.08518 0.0175,-1.62804 -0.0411,-0.2545 0.3188,-0.31265 0.35992,-0.0581 z"
       inkscape:connector-curvature="0" />
    <path
       style="opacity:1;fill:#000000;fill-opacity:0.72254902;stroke:none;stroke-width:0.52916664;stroke-linecap:round;stroke-miterlimit:4;stroke-dasharray:none;stroke-opacity:1"
       id="path4596"
       d="m 114.83036,277.23659 c 0.23887,-0.37263 0.45776,-0.75769 0.65038,-1.15617 0.109,-0.23704 0.18738,-0.48649 0.27264,-0.73268 0.0779,-0.23438 0.16769,-0.46408 0.26869,-0.68939 0.10261,-0.22304 0.21962,-0.43889 0.33976,-0.65284 0.0955,-0.17276 0.20095,-0.3397 0.31082,-0.5036 0.11973,-0.18157 0.26619,-0.3428 0.41094,-0.50434 0.12251,-0.14182 0.23361,-0.2929 0.34831,-0.44097 0.0595,-0.0764 0.1213,-0.15407 0.20503,-0.20507 0.0832,-0.046 0.16317,-0.0326 0.24254,0.0134 0.0561,0.0433 0.0991,0.10015 0.13766,0.15895 0.0719,0.12206 0.10216,0.26085 0.12761,0.39854 0.0288,0.16486 0.0414,0.33177 0.0413,0.49897 0.008,0.18493 -0.0516,0.30917 -0.16379,0.45197 -0.11746,0.0962 -0.26333,0.13377 -0.40921,0.16189 -0.14211,0.0231 -0.28616,0.0289 -0.42939,0.0155 -0.0778,-0.01 -0.15225,-0.0345 -0.22685,-0.0574 0.13149,-0.33926 0.15277,-0.34205 0.39584,-0.20906 0.12992,0.0759 0.2537,0.16104 0.36795,0.25886 0.12457,0.11446 0.22101,0.25304 0.30457,0.399 0.077,0.1414 0.11554,0.29475 0.12864,0.45404 0.006,0.16506 -0.0514,0.31743 -0.12415,0.46239 -0.0958,0.17728 -0.23271,0.29827 -0.40646,0.39306 -0.1504,0.087 -0.31463,0.13466 -0.48269,0.17292 -0.18982,0.0368 -0.37529,0.0247 -0.5599,-0.0283 -0.16478,-0.0547 -0.3043,-0.14523 -0.40421,-0.28741 -0.12387,-0.23594 0.0319,-0.26557 0.16465,-0.40412 0.0118,-0.009 0.0248,0.008 0.0129,0.0168 v 0 c -0.0631,0.1002 0.0649,0.0764 0.11882,0.10896 0.0784,0.0582 0.15575,0.1182 0.25027,0.14858 0.12594,0.0365 0.25456,0.061 0.3856,0.0363 0.13383,-0.0242 0.26651,-0.0615 0.38918,-0.12107 0.0254,-0.0149 0.26121,-0.20577 0.1857,-0.13714 0.0627,-0.0891 0.1164,-0.18618 0.129,-0.29615 0.003,-0.11531 -0.0254,-0.22663 -0.0753,-0.33058 -0.0617,-0.11948 -0.14077,-0.2305 -0.23754,-0.32431 -0.097,-0.0861 -0.2058,-0.15625 -0.31635,-0.22381 -0.0381,-0.0207 -0.77955,-0.38177 -0.12126,-0.42846 0.0626,0.012 0.12258,0.0343 0.18581,0.0433 0.11426,0.0119 0.22968,0.004 0.34307,-0.013 0.0828,-0.016 0.1742,-0.0346 0.23519,-0.0975 -0.082,0.12895 0.0495,-0.048 0.0252,-0.11978 0.006,-0.14846 -0.006,-0.29657 -0.0299,-0.44321 -0.0191,-0.10366 -0.036,-0.20927 -0.0843,-0.30426 -0.014,-0.0275 -0.0329,-0.05 -0.0533,-0.073 0.0386,0.0186 0.0753,0.0255 0.11749,0.0175 -0.0464,0.0609 -0.0969,0.11884 -0.14205,0.18082 -0.11748,0.15464 -0.2346,0.30977 -0.36249,0.4561 -0.0849,0.0988 -0.22098,0.26054 -0.27089,0.32889 -0.10685,0.15548 -0.20848,0.31453 -0.30338,0.47761 -0.1153,0.20656 -0.23166,0.41273 -0.33214,0.62709 -0.10069,0.21412 -0.18916,0.43307 -0.26235,0.65824 -0.0889,0.25713 -0.17217,0.51687 -0.28147,0.76624 -0.2224,0.46633 -0.48811,0.90982 -0.765,1.34564 -0.18941,0.17761 -0.44058,-0.0903 -0.25118,-0.26786 z"
       inkscape:connector-curvature="0" />
    <path
       style="opacity:1;fill:#000000;fill-opacity:0.72254902;stroke:none;stroke-width:0.52916664;stroke-linecap:round;stroke-miterlimit:4;stroke-dasharray:none;stroke-opacity:1"
       id="path4598"
       d="m 111.94696,286.66328 c 0.4873,-0.065 0.97337,-0.1395 1.46169,-0.19657 0.28159,-0.0341 0.56495,-0.0544 0.84864,-0.05 0.16867,0.005 0.33843,0.0195 0.48942,0.0993 0.0701,0.0439 0.0945,0.11095 0.1211,0.18441 0.0131,0.007 0.003,0.0257 -0.0101,0.0186 v 0 c -0.0613,0.0245 -0.10869,0.0739 -0.17558,0.0867 -0.14943,0.0251 -0.30136,0.0106 -0.4522,0.017 -0.27036,0.007 -0.54063,0.019 -0.80922,0.0526 -0.48421,0.0592 -0.96778,0.12383 -1.44995,0.19802 -0.29,0.0168 -0.31378,-0.39331 -0.0238,-0.41013 z"
       inkscape:connector-curvature="0" />
    <path
       style="opacity:1;fill:#000000;fill-opacity:0.72254902;stroke:none;stroke-width:0.52916664;stroke-linecap:round;stroke-miterlimit:4;stroke-dasharray:none;stroke-opacity:1"
       id="path4600"
       d="m 113.60666,286.82831 c -0.12391,0.47205 -0.22877,0.94875 -0.33309,1.42541 -0.0582,0.27116 -0.11966,0.542 -0.21185,0.80385 -0.0697,0.20652 -0.17602,0.37353 -0.35284,0.49972 -0.15327,0.10047 -0.32857,0.13623 -0.50789,0.15271 -0.21653,0.0209 -0.41329,-0.0524 -0.59998,-0.15395 -0.21259,-0.12435 -0.37581,-0.30771 -0.52435,-0.50056 -0.13923,-0.18907 -0.24762,-0.3979 -0.32001,-0.62098 -0.0621,-0.19968 -0.0364,-0.33492 0.0743,-0.5101 0.14697,-0.07 0.29084,0.007 0.44016,0.0214 0.0149,-5.3e-4 0.0156,0.0207 5.3e-4,0.0212 v 0 c -0.0738,0.0235 -0.25751,0.0967 -0.23054,0.20044 0.0869,-0.15968 0.0369,-0.0827 0.11465,0.0604 0.0713,0.18036 0.14711,0.36024 0.26309,0.5174 0.11406,0.15287 0.2375,0.30057 0.40031,0.40398 0.11952,0.0713 0.24297,0.12177 0.38461,0.12345 0.11056,-0.003 0.22496,-0.0148 0.32107,-0.0741 0.0733,-0.0581 0.10254,-0.12919 0.15003,-0.20695 0.004,-0.006 -0.003,0.0136 -0.005,0.0204 0.10158,-0.24212 0.1558,-0.49968 0.21395,-0.75489 0.10692,-0.48089 0.21558,-0.96139 0.33385,-1.43964 0.008,-0.27502 0.39662,-0.26413 0.38892,0.0109 z"
       inkscape:connector-curvature="0" />
    <path
       style="opacity:1;fill:#000000;fill-opacity:0.72254902;stroke:none;stroke-width:0.52916664;stroke-linecap:round;stroke-miterlimit:4;stroke-dasharray:none;stroke-opacity:1"
       id="path4602"
       d="m 115.33249,288.46493 c -0.44665,0.0109 -0.90095,0.0539 -1.31028,0.24326 -0.0929,0.0405 -0.1732,0.13258 -0.19769,0.23089 -0.0104,0.0796 0.024,0.13763 0.0877,0.18152 0.0916,0.0498 0.19063,0.0401 0.28881,0.0202 0.15771,-0.0407 0.29263,-0.13173 0.42326,-0.22529 0.14133,-0.1034 0.25347,-0.23465 0.34661,-0.38159 0.0343,-0.0632 0.0679,-0.12746 0.0914,-0.19541 0.0121,-0.0197 -5.3e-4,-0.08 0.0118,-0.0326 0.0359,0.0851 0.19687,0.027 0.14955,0.12748 -0.0726,0.10199 -0.12828,0.21532 -0.18581,0.32625 -0.12,0.21629 -0.22397,0.44049 -0.322,0.66739 -0.13602,0.3143 -0.25843,0.63412 -0.37895,0.95459 -0.15636,0.42687 -0.30959,0.85487 -0.48228,1.27548 -0.13049,0.32047 -0.27304,0.63585 -0.41532,0.95121 -0.0678,0.1467 -0.12647,0.29801 -0.20699,0.43849 -0.0955,0.20931 -0.33762,-0.15845 -0.21941,-0.33685 0.0868,-0.12568 0.19426,-0.23479 0.30374,-0.34057 0.15093,-0.13489 0.31841,-0.24909 0.49024,-0.35535 0.18786,-0.11035 0.38763,-0.19829 0.5899,-0.27842 0.19302,-0.0726 0.39376,-0.11989 0.59458,-0.1648 0.17542,-0.0499 0.36051,-0.0338 0.53043,0.0274 0.0259,-0.008 0.0518,-0.0158 0.0777,-0.0237 0.0147,-0.003 0.0188,0.0179 0.004,0.0208 v 0 c -0.0261,0.008 -0.0521,0.0159 -0.0782,0.0238 -0.13193,0.14164 -0.29433,0.25866 -0.48559,0.30308 -0.18552,0.045 -0.37243,0.0872 -0.55091,0.15626 -0.18581,0.0731 -0.36985,0.15265 -0.54178,0.25489 -0.1526,0.0954 -0.30177,0.19801 -0.43235,0.32264 -0.092,0.0925 -0.18202,0.18823 -0.24923,0.30089 -0.0923,0.15537 -0.41737,-0.01 -0.32998,-0.15916 0.0647,-0.14344 0.13248,-0.2855 0.1959,-0.42953 0.14065,-0.31132 0.28097,-0.62283 0.40986,-0.93927 0.14401,-0.36057 0.27849,-0.72465 0.4115,-1.08941 0.1434,-0.38636 0.2945,-0.76991 0.45807,-1.14822 0.10446,-0.2327 0.21499,-0.46229 0.33703,-0.68635 0.0704,-0.1288 0.1388,-0.26034 0.23587,-0.37169 0.10607,-0.1062 0.30166,-0.19012 0.39897,-0.0161 0.0312,0.074 0.0344,0.14993 0.0193,0.22893 -0.0337,0.15603 -0.11303,0.29729 -0.1996,0.42967 -0.11788,0.16883 -0.25684,0.31803 -0.42322,0.44073 -0.16408,0.12531 -0.34066,0.23566 -0.545,0.28072 -0.17631,0.0305 -0.354,0.031 -0.51775,-0.0514 -0.16875,-0.10597 -0.28361,-0.24892 -0.30382,-0.45377 0.003,-0.33183 0.20172,-0.56098 0.48801,-0.70255 0.46302,-0.18946 0.95804,-0.25131 1.45632,-0.26339 0.31034,0.0173 0.28578,0.45624 -0.0246,0.43888 z"
       inkscape:connector-curvature="0" />
    <path
       style="opacity:1;fill:#000000;fill-opacity:0.72254902;stroke:none;stroke-width:0.52916664;stroke-linecap:round;stroke-miterlimit:4;stroke-dasharray:none;stroke-opacity:1"
       id="path4604"
       d="m 77.327603,288.20148 c 0.245557,-0.40069 0.513545,-0.78699 0.812038,-1.14998 0.160903,-0.18136 0.323201,-0.36507 0.511347,-0.51903 0.135919,-0.10772 0.281178,-0.10569 0.38387,0.0584 0.05796,0.11404 0.07742,0.24293 0.10141,0.36738 0.02942,0.16888 0.05788,0.33733 0.106061,0.50204 0.05287,0.17629 0.126595,0.34404 0.230013,0.49627 0.09131,0.1287 0.212333,0.19277 0.366119,0.2093 0.194181,0.01 0.363366,-0.0737 0.525638,-0.16984 0.193841,-0.11877 0.329387,-0.29722 0.453133,-0.48348 0.126124,-0.18909 0.203568,-0.40147 0.271674,-0.61682 0.08066,-0.26382 0.125862,-0.53582 0.162629,-0.8086 0.02535,-0.21768 0.04434,-0.4362 0.04595,-0.65543 0.0099,-0.0372 -0.01905,-0.13183 -0.02312,-0.14431 0.01741,0.0287 0.08014,0.0344 0.04613,0.0648 -0.123182,0.0902 -0.226425,0.20666 -0.325821,0.32181 -0.250772,0.29361 -0.466278,0.61426 -0.673055,0.93961 -0.249092,0.39261 -0.444093,0.81525 -0.627595,1.2414 -0.198747,0.46338 -0.332168,0.94883 -0.424801,1.44333 -0.07841,0.42247 -0.07615,0.84629 0.01093,1.26584 0.07793,0.32899 0.245388,0.61107 0.479078,0.85134 0.193302,0.18006 0.422924,0.2572 0.682348,0.26111 0.253542,-0.0181 0.455863,-0.15383 0.64648,-0.30987 0.245533,-0.21428 0.455276,-0.46442 0.688094,-0.69127 0.153048,-0.11438 0.276299,-0.2204 0.381598,-0.37907 0.01029,-0.0109 0.02566,0.004 0.01535,0.0146 v 0 c -0.09285,0.18552 -0.14102,0.37633 -0.21074,0.57156 -0.163428,0.33126 -0.378849,0.63761 -0.663215,0.87703 -0.266655,0.2044 -0.557506,0.35909 -0.902497,0.36164 -0.352933,-0.0195 -0.67328,-0.13086 -0.935524,-0.37672 -0.28367,-0.29001 -0.494951,-0.6277 -0.595069,-1.02505 -0.10346,-0.46589 -0.116806,-0.93805 -0.03391,-1.40978 0.09371,-0.52124 0.226055,-1.03498 0.434126,-1.52353 0.215723,-0.51282 0.455811,-1.01649 0.76196,-1.48252 0.223018,-0.33626 0.458312,-0.6654 0.733634,-0.96149 0.133649,-0.13669 0.269658,-0.27814 0.441555,-0.36677 0.12455,-0.0485 0.247841,-0.0539 0.34906,0.0476 0.07816,0.10142 0.109302,0.21755 0.110265,0.34568 4.8e-5,0.23224 -0.0204,0.46351 -0.04586,0.69424 -0.03562,0.2899 -0.07994,0.57959 -0.162809,0.86033 -0.08977,0.30391 -0.206026,0.59948 -0.391004,0.85975 -0.157175,0.219 -0.330911,0.42205 -0.570666,0.55462 -0.22542,0.12252 -0.463167,0.21369 -0.724932,0.18839 -0.235199,-0.0398 -0.434057,-0.13884 -0.580001,-0.33398 -0.124783,-0.17652 -0.218266,-0.37008 -0.281935,-0.57706 -0.05611,-0.17633 -0.09123,-0.35677 -0.117456,-0.53987 -0.01593,-0.0986 -0.03259,-0.19757 -0.05519,-0.29468 0.01894,0.003 0.206867,-0.0149 0.08348,0.045 -0.16987,0.14936 -0.323199,0.31715 -0.470376,0.48853 -0.287504,0.35436 -0.547254,0.73014 -0.780375,1.12253 -0.166116,0.1683 -0.404125,-0.0666 -0.238009,-0.23492 z"
       inkscape:connector-curvature="0" />
    <path
       style="opacity:1;fill:#000000;fill-opacity:0.72254902;stroke:none;stroke-width:0.52916664;stroke-linecap:round;stroke-miterlimit:4;stroke-dasharray:none;stroke-opacity:1"
       id="path4608"
       d="m 83.717724,286.95756 c 0.428588,-0.398 0.844005,-0.80967 1.253569,-1.2271 0.371425,-0.38653 0.724112,-0.79039 1.080762,-1.19043 0.347607,-0.37884 0.684067,-0.76754 1.017257,-1.15904 0.258956,-0.30404 0.51172,-0.61326 0.769065,-0.91865 0.113471,-0.12781 0.220466,-0.26246 0.339473,-0.38527 0.505558,-0.24411 0.124529,0.36771 0.04186,0.47384 -0.09026,0.12587 -0.06297,0.0873 -0.130477,0.20756 -0.07375,0.14106 -0.136292,0.28765 -0.196234,0.43499 -0.104113,0.24123 -0.184115,0.49166 -0.256714,0.74384 -0.09765,0.36174 -0.182494,0.72673 -0.278974,1.08878 -0.0971,0.33603 -0.181142,0.67514 -0.247642,1.01851 -0.03834,0.20975 -0.06842,0.42107 -0.08744,0.63345 -0.01582,0.19 0.03743,0.14678 -0.221089,8e-4 0.0726,-0.0811 0.13285,-0.17334 0.195813,-0.26218 0.111593,-0.14633 0.210788,-0.30116 0.309282,-0.45643 0.169299,-0.25828 0.335769,-0.51837 0.502605,-0.77824 0.205391,-0.31597 0.403312,-0.63664 0.602073,-0.95679 0.308917,-0.51664 0.662813,-1.00239 1.040233,-1.4705 0.423291,-0.51626 0.898054,-0.98603 1.396272,-1.42917 0.323094,-0.27279 0.65618,-0.54648 1.052018,-0.70501 0.143806,-0.0502 0.266533,-0.052 0.399809,0.0183 0.01492,-0.001 0.01669,0.0199 0.0019,0.0211 v 0 c -0.08892,0.10481 -0.191741,0.18934 -0.310655,0.25957 -0.338069,0.21635 -0.673066,0.43798 -0.968698,0.71189 -0.48265,0.43648 -0.943742,0.89725 -1.349303,1.40747 -0.32802,0.41474 -0.639646,0.8423 -0.910934,1.29684 -0.230495,0.3739 -0.461203,0.74765 -0.698185,1.1175 -0.166257,0.25998 -0.333423,0.51936 -0.500166,0.77902 -0.101457,0.15952 -0.20719,0.31597 -0.319783,0.46789 -0.08027,0.1114 -0.15824,0.22681 -0.268756,0.3111 -0.346972,-0.0508 -0.337378,-0.006 -0.336886,-0.29648 0.01677,-0.22388 0.04837,-0.44629 0.08717,-0.66737 0.06465,-0.3523 0.148206,-0.70037 0.251576,-1.04345 0.09985,-0.36409 0.189389,-0.73075 0.286695,-1.0955 0.0769,-0.26484 0.158726,-0.52847 0.271941,-0.78052 0.06839,-0.15606 0.134718,-0.31335 0.215138,-0.46374 0.07506,-0.13616 0.161642,-0.2656 0.259871,-0.38621 0.174014,-0.21033 0.08663,-0.19637 0.34321,0.0714 -0.115697,0.11622 -0.218607,0.2447 -0.326911,0.36759 -0.256792,0.30583 -0.510845,0.61396 -0.769769,0.918 -0.33425,0.3926 -0.674171,0.78026 -1.020487,1.16228 -0.358754,0.40327 -0.713856,0.81025 -1.092927,1.1948 -0.413526,0.41774 -0.834946,0.82751 -1.261653,1.23178 -0.188336,0.11581 -0.352123,-0.15053 -0.163788,-0.26635 z"
       inkscape:connector-curvature="0" />
    <path
       style="opacity:1;fill:#000000;fill-opacity:0.72254902;stroke:none;stroke-width:0.52916664;stroke-linecap:round;stroke-miterlimit:4;stroke-dasharray:none;stroke-opacity:1"
       id="path4610"
       d="m 91.689731,279.93229 c 0.393382,-0.11992 0.788,-0.23765 1.193202,-0.31026 0.137316,-0.0215 0.271269,-0.0309 0.399346,0.0275 0.109482,0.0683 0.145584,0.17715 0.154535,0.29939 -0.0053,0.16819 -0.07667,0.3238 -0.144306,0.47483 -0.131831,0.27751 -0.266269,0.5538 -0.401868,0.82949 -0.140888,0.27699 -0.26021,0.56382 -0.372356,0.85336 -0.05688,0.17275 -0.111638,0.3176 -0.272198,0.40971 -0.01138,0.0136 -0.02278,0.0273 -0.03416,0.0409 0.0083,0.0124 -0.0093,0.0242 -0.0176,0.0117 v 0 c -0.02283,-0.007 -0.04569,-0.013 -0.06853,-0.0196 -0.191672,-0.1256 -0.124613,-0.31796 -0.06076,-0.50809 0.108175,-0.30499 0.233273,-0.60341 0.377137,-0.89343 0.136591,-0.27464 0.269015,-0.55134 0.408004,-0.82479 0.05672,-0.11098 0.114601,-0.22146 0.165944,-0.33495 0.0223,-0.0408 0.03325,-0.0289 0.07228,-0.0128 -0.06375,-0.007 -0.128461,-0.002 -0.192247,0.005 -0.392255,0.0627 -0.773821,0.17626 -1.152956,0.29273 -0.240821,0.0378 -0.29428,-0.30276 -0.05346,-0.34056 z"
       inkscape:connector-curvature="0" />
    <path
       style="opacity:1;fill:#000000;fill-opacity:0.72254902;stroke:none;stroke-width:0.52916664;stroke-linecap:round;stroke-miterlimit:4;stroke-dasharray:none;stroke-opacity:1"
       id="path4618"
       d="m 33.532669,288.40212 c 0.04176,0.40856 0.07895,0.8176 0.127002,1.22548 0.159641,0.329 -0.369207,0.28848 -0.336401,0.11282 0.01812,-0.16433 0.01856,-0.33017 0.01899,-0.49533 8.21e-4,-0.23961 -0.01918,-0.47852 -0.04069,-0.71694 -0.02671,-0.26597 -0.04719,-0.53259 -0.06444,-0.79933 -0.0071,-0.11198 -0.0131,-0.22415 -0.01278,-0.33638 0.478514,-0.18044 0.356878,-0.13962 0.643959,0.0895 0.147492,0.11254 0.307978,0.20659 0.468298,0.29939 0.163374,0.0962 0.333937,0.17883 0.507258,0.25532 0.114627,0.055 0.237515,0.0914 0.347257,0.15613 0.09242,0.0582 0.112191,0.1452 0.08791,0.24703 -0.0064,0.0145 -0.01288,0.0291 -0.01932,0.0436 0.0058,0.0138 -0.01366,0.022 -0.01949,0.008 v 0 c -0.01125,-7.9e-4 -0.02249,-0.002 -0.03374,-0.003 -0.06924,0.0283 -0.103728,0.088 -0.186921,0.0567 -0.122408,-0.0358 -0.23771,-0.0921 -0.354689,-0.14218 -0.183541,-0.0833 -0.365389,-0.1704 -0.538204,-0.27461 -0.174049,-0.10197 -0.349557,-0.20326 -0.508605,-0.32806 -0.03255,-0.0259 -0.290672,-0.23988 -0.284337,-0.24774 0.07824,-0.0971 0.19266,-0.1583 0.28899,-0.23745 0.01157,0.10909 0.01624,0.21882 0.0232,0.32827 0.01678,0.26323 0.03285,0.52654 0.06274,0.7887 0.02479,0.24868 0.04678,0.49808 0.04813,0.74817 -6.2e-5,0.18428 0.0014,0.36939 -0.01919,0.55275 -0.04863,0.31563 -0.406031,0.45399 -0.440782,0.0761 -0.0028,-0.03 -0.0057,-0.0599 -0.0085,-0.0899 -0.03814,-0.40958 -0.07605,-0.81916 -0.11835,-1.22833 -0.06317,-0.25651 0.29959,-0.34584 0.362758,-0.0893 z"
       inkscape:connector-curvature="0" />
    <path
       style="opacity:1;fill:#000000;fill-opacity:0.72254902;stroke:none;stroke-width:0.52916664;stroke-linecap:round;stroke-miterlimit:4;stroke-dasharray:none;stroke-opacity:1"
       id="path4624"
       d="m 34.44877,288.22879 c 0.190678,0.43212 0.400817,0.85563 0.649427,1.25742 0.159732,0.26166 0.364226,0.48537 0.603455,0.67514 0.266638,0.19811 0.578022,0.31276 0.891013,0.41394 0.391946,0.12384 0.799762,0.17727 1.207277,0.21742 0.342242,0.0279 0.685497,0.0405 1.028483,0.0555 0.227629,0.007 0.454677,0.0156 0.681021,0.0415 0.114992,0.0222 0.230796,0.0375 0.347052,0.0509 0.05663,0.004 0.110323,0.0176 0.163547,0.0366 0.0099,0.32049 0.04521,0.49005 -0.259232,0.43936 -0.02869,-0.0184 -0.06041,-0.0318 -0.09149,-0.0458 -0.08163,0.004 -0.163176,0.01 -0.244401,0.0197 -0.180856,0.0224 -0.360126,0.0553 -0.539498,0.0871 -0.256242,0.0472 -0.510582,0.10427 -0.762952,0.16888 -0.282572,0.0709 -0.561117,0.15622 -0.840325,0.23903 -0.263818,0.0783 -0.529416,0.15025 -0.798199,0.2094 -0.245436,0.0486 -0.489752,0.1018 -0.732377,0.16291 -0.190795,0.0533 -0.38086,0.10947 -0.568699,0.17245 -0.114681,0.0384 -0.223323,0.0918 -0.328764,0.15053 -0.06066,0.0396 -0.124483,0.0786 -0.170723,0.13537 -0.04617,0.0602 -0.104806,0.10932 -0.14872,0.17121 -0.04422,0.0718 0.07439,-0.1188 0.003,-0.004 -0.225895,-0.18693 -0.346163,-0.24294 -0.105045,-0.30312 0.09132,5.3e-4 0.180112,0.001 0.271089,-0.008 0.163199,-0.0127 0.324696,-0.0408 0.486293,-0.066 0.212359,-0.036 0.425266,-0.0678 0.638814,-0.0958 0.249665,-0.0316 0.498779,-0.0672 0.749226,-0.0921 0.302519,-0.029 0.606815,-0.0277 0.910385,-0.0272 0.3679,0.002 0.735763,0.008 1.103583,0.0153 0.474783,0.0251 0.950051,0.0223 1.425211,0.0149 0.500098,-0.0124 1.0003,-0.0142 1.500503,-0.0176 0.453582,-0.002 0.906994,-0.0152 1.360535,-0.0195 0.416301,-5.3e-4 0.83249,0.0104 1.248754,0.0145 0.326197,5.3e-4 0.652266,-0.0123 0.977283,-0.0397 0.266626,-0.0243 0.529363,-0.0756 0.790258,-0.13416 0.165801,-0.0363 0.330806,-0.076 0.496006,-0.11493 0.04925,-0.0163 0.09505,-0.011 0.144066,0.003 0.278746,0.0485 0.210153,0.44271 -0.06859,0.3942 v 0 c 0.05042,0.0269 0.0049,0.0167 -0.03075,0.0328 -0.167341,0.0425 -0.336478,0.0773 -0.504645,0.11632 -0.27731,0.0596 -0.556799,0.1116 -0.840293,0.13041 -0.334848,0.0241 -0.670822,0.033 -1.006509,0.0303 -0.41366,-0.004 -0.827175,-0.0172 -1.240883,-0.015 -0.454038,0.004 -0.90797,0.0172 -1.362055,0.0183 -0.498597,10e-4 -0.997216,0.004 -1.495691,0.0159 -0.480829,0.006 -0.961904,0.007 -1.442275,-0.0183 -0.363335,-0.0182 -0.726787,-0.0241 -1.090574,-0.0244 -0.292471,2.6e-4 -0.585512,0.001 -0.876889,0.0297 -0.247008,0.0243 -0.492756,0.0598 -0.739335,0.0881 -0.210604,0.0265 -0.4202,0.0599 -0.629799,0.0933 -0.169445,0.0264 -0.339261,0.0518 -0.51039,0.0645 -0.06615,0.005 -0.158958,0.008 -0.213273,0.002 -0.11367,-0.0575 -0.364469,-0.058 -0.335993,-0.1822 0.0342,-0.0814 0.07433,-0.16035 0.134735,-0.22643 0.05872,-0.0676 0.119117,-0.13408 0.182284,-0.19754 0.07861,-0.0679 0.161904,-0.12952 0.253788,-0.17865 0.125117,-0.0679 0.253999,-0.1279 0.38958,-0.1723 0.196461,-0.0644 0.394536,-0.12392 0.594117,-0.17797 0.244992,-0.062 0.49252,-0.11268 0.739738,-0.16492 0.261058,-0.0611 0.520056,-0.12997 0.776683,-0.20776 0.283846,-0.0861 0.568265,-0.17086 0.855989,-0.24319 0.260903,-0.0647 0.522587,-0.12631 0.787324,-0.17351 0.18746,-0.0345 0.375143,-0.0687 0.564569,-0.0907 0.118899,-0.012 0.240095,-0.0258 0.358834,-0.006 0.01987,0.005 0.219793,0.087 0.123493,0.0604 -0.231583,-0.024 -4.24e-4,0.0826 -0.03999,0.31618 -0.01509,-0.005 -0.0495,-0.0154 -0.08153,-0.0148 -0.115922,-0.0125 -0.230962,-0.0309 -0.346494,-0.0465 -0.218978,-0.0218 -0.439048,-0.0226 -0.658923,-0.0254 -0.350659,-0.007 -0.701677,-0.0123 -1.051429,-0.041 -0.433892,-0.0386 -0.866452,-0.0999 -1.283061,-0.23214 -0.352767,-0.11545 -0.702459,-0.24913 -1.000706,-0.47612 -0.269105,-0.21753 -0.504534,-0.46836 -0.680874,-0.76845 -0.2533,-0.41683 -0.470285,-0.8531 -0.668511,-1.2987 -0.137583,-0.2492 0.214845,-0.44377 0.352427,-0.19457 z"
       inkscape:connector-curvature="0" />
    <path
       style="opacity:1;fill:#000000;fill-opacity:0.72254902;stroke:none;stroke-width:0.52916664;stroke-linecap:round;stroke-miterlimit:4;stroke-dasharray:none;stroke-opacity:1"
       id="path4626"
       d="m 48.067731,291.95745 c -0.217295,-0.42659 -0.37361,-0.87452 -0.379558,-1.35545 0.02236,-0.36164 0.218519,-0.61862 0.533818,-0.78029 0.271259,-0.11665 0.561607,-0.1812 0.848603,-0.24645 0.259662,-0.0537 0.517554,-0.11391 0.765956,-0.20744 0.184356,-0.0686 0.35469,-0.16621 0.512699,-0.2824 0.122581,-0.0954 0.224597,-0.21299 0.31796,-0.33632 0.005,-0.0564 0.06438,-0.0932 0.09255,-0.14224 0.07375,-0.14545 0.05285,-0.0437 0.21652,0.15132 -0.05698,0.0661 -0.121852,0.124 -0.184262,0.18474 -0.03262,0.0188 -0.158805,0.19335 -0.09153,0.11752 -0.06396,0.10548 -0.125018,0.21279 -0.182716,0.32182 -0.07552,0.14505 -0.145368,0.29289 -0.212659,0.4419 -0.110022,0.25988 -0.206835,0.52494 -0.305083,0.7894 -0.145846,0.37457 -0.276728,0.75452 -0.400923,1.13673 -0.124447,0.39275 -0.253431,0.78403 -0.379984,1.1761 -0.105384,0.32601 -0.223687,0.64754 -0.34349,0.96846 -0.08616,0.23099 -0.183147,0.45771 -0.290759,0.67947 -0.07652,0.17326 -0.184938,0.3218 -0.319482,0.45257 -0.119168,0.11416 -0.269991,0.15796 -0.427167,0.19 -0.182549,0.0425 -0.360645,0.0342 -0.542681,-0.003 -0.188145,-0.0422 -0.329584,-0.13071 -0.446239,-0.28331 -0.122049,-0.20321 -0.125796,-0.43268 -0.09498,-0.66056 0.04255,-0.23448 0.161578,-0.44164 0.286972,-0.64057 0.14687,-0.23847 0.32222,-0.45714 0.497001,-0.67532 0.160354,-0.21159 0.341977,-0.40318 0.546217,-0.57239 0.219654,-0.17673 0.483147,-0.27403 0.747149,-0.36224 0.330049,-0.10717 0.664681,-0.19934 0.996894,-0.29945 0.300628,-0.0923 0.595619,-0.20076 0.883465,-0.32729 0.204533,-0.11437 0.405678,-0.20223 0.637146,-0.23988 0.0333,-0.017 0.06659,-0.034 0.0999,-0.051 0.01265,-0.008 0.02395,0.01 0.0113,0.0179 v 0 c -0.02212,0.0382 -0.04424,0.0764 -0.06635,0.11463 -0.126217,0.26788 -0.307652,0.42526 -0.588491,0.52532 -0.299572,0.12876 -0.607235,0.23719 -0.919927,0.32974 -0.328737,0.0984 -0.659697,0.18982 -0.985412,0.29805 -0.225951,0.0787 -0.451286,0.16529 -0.633296,0.32614 -0.18251,0.1621 -0.338796,0.34848 -0.485076,0.54365 -0.121084,0.1604 -0.243502,0.32003 -0.350224,0.4906 -0.09508,0.16311 -0.197189,0.32552 -0.245356,0.5101 -0.02553,0.13032 -0.03963,0.26531 0.01521,0.39075 0.04076,0.0863 0.136623,0.0964 0.218946,0.12822 0.126815,0.0365 0.251566,0.0376 0.381537,0.0114 0.08996,-0.0179 0.171863,-0.0443 0.235572,-0.11432 0.09725,-0.0994 0.10782,-0.1341 0.145661,-0.19201 0.107809,-0.20892 0.202324,-0.42386 0.287043,-0.64319 0.118862,-0.31677 0.239321,-0.63305 0.342676,-0.95535 0.128431,-0.39152 0.256828,-0.78305 0.381508,-1.17579 0.126232,-0.38855 0.256428,-0.7758 0.407474,-1.15557 0.105177,-0.27122 0.207145,-0.54415 0.329282,-0.80833 0.0732,-0.15523 0.150053,-0.3085 0.233418,-0.45858 0.06614,-0.11774 0.134278,-0.23439 0.20919,-0.34682 0.07699,-0.10421 0.155101,-0.20282 0.257498,-0.28334 0.059,-0.0487 0.119353,-0.096 0.175186,-0.1483 0.223342,0.0893 0.329694,0.0434 0.237913,0.16609 -0.04728,0.1144 -0.110927,0.21925 -0.189521,0.31551 -0.110892,0.14176 -0.230201,0.27728 -0.376037,0.38456 -0.17935,0.12566 -0.368911,0.23556 -0.572603,0.31743 -0.25918,0.10182 -0.526605,0.17531 -0.797994,0.23732 -0.258492,0.0685 -0.52138,0.13288 -0.7621,0.25229 -0.157033,0.0995 -0.228867,0.14509 -0.25976,0.36265 -0.01201,0.42423 0.14796,0.81842 0.336619,1.19227 0.157273,0.25118 -0.197954,0.4736 -0.355225,0.22241 z"
       inkscape:connector-curvature="0" />
    <path
       style="opacity:1;fill:#000000;fill-opacity:0.72254902;stroke:none;stroke-width:0.52916664;stroke-linecap:round;stroke-miterlimit:4;stroke-dasharray:none;stroke-opacity:1"
       id="path4643"
       d="m 66.325355,286.557 c 0.643562,7.9e-4 1.286401,-0.0305 1.927452,-0.0853 0.445993,-0.0392 0.88827,-0.10908 1.331072,-0.17337 0.241805,-0.0348 0.483526,-0.0723 0.726707,-0.0964 0.09825,-0.006 0.207031,-0.0214 0.296129,0.0302 0.06231,0.0664 0.02334,0.1046 0.01363,0.22126 5.3e-4,0.0149 -0.02069,0.0156 -0.02117,8e-4 v 0 c 2.64e-4,0.0661 0.01254,0.0842 -0.02498,0.12624 -0.07348,0.0525 -0.17059,0.0521 -0.256103,0.0679 -0.238538,0.0308 -0.477142,0.0611 -0.715058,0.0965 -0.450398,0.0654 -0.900996,0.13226 -1.354831,0.16922 -0.651126,0.0497 -1.303655,0.0805 -1.95689,0.0758 -0.305988,-0.0241 -0.271946,-0.45681 0.03404,-0.43273 z"
       inkscape:connector-curvature="0" />
    <path
       style="opacity:1;fill:#000000;fill-opacity:0.72254902;stroke:none;stroke-width:0.52916664;stroke-linecap:round;stroke-miterlimit:4;stroke-dasharray:none;stroke-opacity:1"
       id="path4645"
       d="m 68.288264,287.06137 c 0.07228,0.57852 0.117578,1.15984 0.147455,1.74195 0.02439,0.42072 0.02535,0.84193 -0.0031,1.26231 -0.02389,0.28721 -0.08711,0.56841 -0.176469,0.84182 -0.08733,0.27506 -0.245816,0.4586 -0.498009,0.58437 -0.255524,0.11671 -0.5265,0.12519 -0.799973,0.0891 -0.298188,-0.049 -0.558144,-0.19511 -0.799616,-0.36955 -0.184333,-0.14033 -0.340987,-0.30784 -0.428612,-0.52375 -0.07483,-0.21627 -0.02328,-0.42825 0.18266,-0.54876 0.184931,-0.0832 0.38426,-0.0762 0.581883,-0.0693 0.01492,-0.001 0.01646,0.02 0.0016,0.0211 v 0 c -0.160761,0.0634 -0.335878,0.12844 -0.44732,0.2671 -0.0488,0.11295 -0.02037,-0.0846 0.04446,0.0839 0.103407,0.12951 0.213056,0.25393 0.34656,0.35393 0.18465,0.13477 0.379581,0.25362 0.608311,0.29506 0.189251,0.027 0.381672,0.0338 0.562136,-0.0405 0.130496,-0.0661 0.183452,-0.12458 0.22142,-0.19715 0.105817,-0.23651 0.17286,-0.48492 0.19885,-0.74335 0.0404,-0.40613 0.03925,-0.81438 0.02341,-1.22198 -0.02363,-0.5765 -0.05968,-1.15251 -0.127923,-1.72569 -0.07111,-0.25624 0.291259,-0.35681 0.362373,-0.10057 z"
       inkscape:connector-curvature="0" />
    <path
       style="opacity:1;fill:#000000;fill-opacity:0.72254902;stroke:none;stroke-width:0.52916664;stroke-linecap:round;stroke-miterlimit:4;stroke-dasharray:none;stroke-opacity:1"
       id="path4647"
       d="m 70.397134,290.02724 c -0.31886,-0.32638 -0.61825,-0.67182 -0.851924,-1.06471 -0.149556,-0.25556 -0.153273,-0.45173 -0.01987,-0.70915 0.170641,-0.17855 0.414624,-0.23689 0.643539,-0.30446 0.318963,-0.0788 0.64077,-0.14574 0.960977,-0.21951 0.277759,-0.0676 0.549984,-0.15174 0.814162,-0.26078 0.110348,-0.0547 0.259356,-0.10389 0.310545,-0.22733 -0.0059,0.005 -0.02901,-0.11461 -0.0528,-0.15873 -0.03516,-0.0616 -0.08177,-0.11495 -0.135086,-0.16136 -0.01646,-0.0157 -0.04326,-0.0175 -0.05856,-0.0184 -0.02008,0.005 -0.01257,0.01 -0.01561,0.0226 0.0026,0.026 -0.06682,0.14605 -0.02474,0.0753 -0.04263,0.0839 -0.07139,0.17389 -0.09875,0.26366 -0.04432,0.157 -0.0734,0.31781 -0.107154,0.4773 -0.04731,0.23564 -0.100129,0.47008 -0.155538,0.70393 -0.07341,0.30237 -0.140155,0.6063 -0.212404,0.90895 -0.08987,0.36175 -0.199774,0.71807 -0.304615,1.07567 -0.09934,0.34649 -0.20701,0.69044 -0.319961,1.0327 -0.08993,0.26527 -0.168365,0.53425 -0.263512,0.79773 -0.07692,0.20332 -0.166266,0.4052 -0.320921,0.56092 -0.144179,0.11889 -0.324024,0.14726 -0.505245,0.14544 -0.213466,-0.0152 -0.401061,-0.10753 -0.57572,-0.22455 -0.162897,-0.11351 -0.281067,-0.26531 -0.366567,-0.44238 -0.08866,-0.20843 -0.02887,-0.40986 0.18139,-0.50329 0.208571,-0.0496 0.425008,-0.0284 0.632457,0.0151 0.01498,-1.3e-4 0.01516,0.021 1.8e-4,0.0212 v 0 c -0.174215,0.0693 -0.368683,0.11617 -0.512548,0.24137 -0.05953,0.0938 0.01863,-0.14815 0.02614,0.0157 0.06016,0.12254 0.1442,0.22917 0.254614,0.31087 0.120327,0.0836 0.247404,0.16197 0.396068,0.17938 0.09698,0.008 0.198231,0.0136 0.282725,-0.0432 0.09624,-0.0844 0.157555,-0.19343 0.204063,-0.31174 0.09968,-0.25876 0.174961,-0.52589 0.263512,-0.78853 0.113543,-0.3389 0.222311,-0.67941 0.320117,-1.02322 0.103023,-0.35459 0.213132,-0.70737 0.303606,-1.06543 0.07392,-0.30212 0.13956,-0.60616 0.213355,-0.90831 0.05607,-0.23243 0.108289,-0.46564 0.159538,-0.69917 0.03779,-0.1662 0.06966,-0.33397 0.1166,-0.49793 0.0315,-0.10442 0.06577,-0.20854 0.112569,-0.30726 0.04954,-0.091 0.09382,-0.18859 0.180676,-0.25038 0.05936,-0.031 0.119626,-0.0495 0.187182,-0.0372 0.06497,0.0147 0.124183,0.0441 0.169686,0.0941 0.06346,0.0696 0.118678,0.14769 0.156831,0.23408 0.05244,0.13808 0.07775,0.26397 -0.0028,0.39863 -0.100955,0.12796 -0.245081,0.20042 -0.392182,0.2652 -0.268911,0.1205 -0.545229,0.2241 -0.823322,0.3213 -0.310994,0.10752 -0.626959,0.19969 -0.93662,0.31121 -0.155855,0.0554 -0.34417,0.10317 -0.451908,0.2377 0.04643,-0.13979 -0.05172,0.0768 0.06594,0.23601 0.215392,0.37246 0.497144,0.69941 0.800283,1.00345 0.19623,0.1757 -0.05224,0.45321 -0.248473,0.27752 z"
       inkscape:connector-curvature="0" />
    <path
       style="opacity:1;fill:#000000;fill-opacity:0.72254902;stroke:none;stroke-width:0.52916664;stroke-linecap:round;stroke-miterlimit:4;stroke-dasharray:none;stroke-opacity:1"
       id="path4651"
       d="m 75.578453,287.73465 c -0.433647,0.0188 -0.862354,0.0942 -1.259303,0.27211 -0.202755,0.094 -0.344712,0.24765 -0.464756,0.43055 -0.08537,0.14224 -0.116126,0.22176 -0.176819,0.39349 -0.06246,0.1758 -0.09814,0.35851 -0.123108,0.54286 -0.02283,0.15209 -0.01992,0.30285 0.03178,0.44814 0.06621,0.14958 0.192516,0.2455 0.331714,0.32256 0.22072,0.11061 0.467889,0.13316 0.710527,0.14778 0.284338,0.0181 0.563108,-0.0338 0.83756,-0.1016 0.234739,-0.0605 0.460862,-0.14758 0.685469,-0.23756 0.120412,-0.0454 0.232522,-0.11197 0.354418,-0.15312 0.07852,-0.0186 0.134212,0.0257 0.197681,0.0633 0.01291,-0.008 0.0236,0.0107 0.01069,0.0183 v 0 c -0.0045,0.0872 -0.01426,0.1737 -0.07056,0.24455 -0.109514,0.10852 -0.246608,0.1812 -0.387771,0.24079 -0.240408,0.10012 -0.484089,0.19363 -0.73779,0.25492 -0.311002,0.0734 -0.627462,0.12576 -0.948407,0.10268 -0.297961,-0.0219 -0.597834,-0.0576 -0.865852,-0.2004 -0.210246,-0.12379 -0.397949,-0.2736 -0.503579,-0.50023 -0.07941,-0.19986 -0.109796,-0.40513 -0.08212,-0.61998 0.02529,-0.20843 0.056,-0.4173 0.125304,-0.61644 0.07566,-0.23949 0.179321,-0.46926 0.329991,-0.67197 0.171346,-0.22477 0.378655,-0.40528 0.642686,-0.51563 0.44282,-0.1732 0.90787,-0.25948 1.383186,-0.28009 0.293473,0.0148 0.272534,0.42984 -0.02093,0.41503 z"
       inkscape:connector-curvature="0" />
    <path
       style="opacity:1;fill:#000000;fill-opacity:0.72254902;stroke:none;stroke-width:0.52916664;stroke-linecap:round;stroke-miterlimit:4;stroke-dasharray:none;stroke-opacity:1"
       id="path4653"
       d="m 74.09767,291.57261 c 0.512853,-0.0563 1.024829,-0.12038 1.536015,-0.19016 0.355825,-0.0464 0.707361,-0.12027 1.064755,-0.15366 0.252206,-0.0365 0.494202,0.0825 0.73828,0.0306 0.0149,-0.002 0.01701,0.0195 0.0021,0.0211 v 0 c -0.254836,0.0542 -0.450794,0.25813 -0.712676,0.31241 -0.353139,0.096 -0.71529,0.14881 -1.077383,0.19924 -0.514276,0.0685 -1.029311,0.13092 -1.544834,0.18925 -0.289041,0.004 -0.295317,-0.40432 -0.0063,-0.40876 z"
       inkscape:connector-curvature="0" />
    <path
       style="opacity:1;fill:#000000;fill-opacity:0.72254902;stroke:none;stroke-width:0.52916664;stroke-linecap:round;stroke-miterlimit:4;stroke-dasharray:none;stroke-opacity:1"
       id="path4623"
       d="m 40.286532,259.28368 c -0.32231,0.41903 -0.639958,0.84159 -0.96176,1.26101 -0.165844,0.21782 -0.336212,0.43191 -0.527304,0.62814 -0.150839,0.15025 -0.315487,0.28455 -0.491395,0.40411 -0.130204,0.0813 -0.265441,0.15742 -0.410983,0.20755 -0.150095,0.0403 -0.270798,-0.0167 -0.378018,-0.11926 -0.105325,-0.1162 -0.163586,-0.25933 -0.211095,-0.40635 -0.05771,-0.1972 -0.06466,-0.40066 -0.04887,-0.60396 0.02199,-0.22673 0.09631,-0.44215 0.184071,-0.65072 0.0907,-0.21081 0.215802,-0.40356 0.372131,-0.57093 0.08565,-0.0831 0.180954,-0.14647 0.298659,-0.16821 0.13431,-0.009 0.240882,0.0652 0.341998,0.14373 0.159427,0.13498 0.268065,0.31372 0.37021,0.49303 0.127807,0.24315 0.237498,0.49532 0.34794,0.74668 0.106709,0.24197 0.21217,0.48443 0.321305,0.72532 0.08989,0.17338 0.17703,0.34367 0.233132,0.53112 0.0315,0.11756 -0.0046,0.0814 0.0913,0.12307 0.01368,0.006 0.0051,0.0254 -0.0086,0.0193 v 0 c -0.102261,-0.0449 -0.04384,-0.0309 -0.17812,-0.0276 -0.231079,-0.0679 -0.365284,-0.23187 -0.465923,-0.44695 -0.118012,-0.23978 -0.219192,-0.48719 -0.326811,-0.73174 -0.108849,-0.2422 -0.212802,-0.48668 -0.329888,-0.72512 -0.07872,-0.14754 -0.159869,-0.29712 -0.279408,-0.41628 -0.0195,-0.0175 -0.102766,-0.0697 -0.08277,-0.0758 -0.01815,0.0158 -0.08885,0.0713 -0.11521,0.10637 -0.08723,0.10636 -0.16646,0.21768 -0.226184,0.33813 -0.08041,0.17584 -0.148553,0.35776 -0.178541,0.54974 -0.0177,0.16317 -0.01937,0.32613 0.02133,0.48664 0.02784,0.1 0.06177,0.20012 0.126979,0.28263 0.02294,0.0297 0.0021,0.0308 0.03223,0.0217 0.116289,-0.0519 0.227621,-0.11444 0.333946,-0.18446 0.155827,-0.11316 0.302975,-0.23719 0.437581,-0.37522 0.180023,-0.19044 0.341207,-0.39718 0.501738,-0.60408 0.325461,-0.41757 0.643284,-0.84096 0.963453,-1.26258 0.212836,-0.17176 0.455737,0.12924 0.242901,0.30099 z"
       inkscape:connector-curvature="0" />
    <path
       style="opacity:1;fill:#000000;fill-opacity:0.72254902;stroke:none;stroke-width:0.52916664;stroke-linecap:round;stroke-miterlimit:4;stroke-dasharray:none;stroke-opacity:1"
       id="path4625"
       d="m 36.777096,279.68511 c 0.450847,-0.18985 0.81888,-0.48157 1.079979,-0.8935 0.170056,-0.31902 0.245766,-0.67474 0.325564,-1.02423 0.06942,-0.32666 0.135875,-0.65381 0.225238,-0.97571 0.06599,-0.23218 0.147431,-0.45917 0.276113,-0.66414 0.08261,-0.12505 0.185963,-0.23258 0.298591,-0.33052 0.107339,-0.0865 0.223403,-0.16134 0.337375,-0.23865 0.12115,-0.0827 0.253656,-0.14486 0.393039,-0.18936 0.09289,-0.0289 0.188537,-0.0446 0.285533,-0.0486 0.102208,-0.007 0.183827,0.0279 0.255114,0.0998 0.07744,0.10783 0.07241,0.23191 0.05265,0.357 -0.04543,0.22193 -0.169953,0.41008 -0.30684,0.58551 -0.154123,0.18419 -0.324689,0.35422 -0.500571,0.51754 -0.09097,0.0792 -0.168579,0.17538 -0.271028,0.24037 7.94e-4,-0.0102 -0.05571,0.0398 -0.05637,0.0199 -0.0099,-0.29447 -0.0079,-0.29313 0.20407,-0.34212 0.104145,-0.02 0.210587,-0.0169 0.31537,-0.005 0.100539,0.0127 0.195175,0.0489 0.286324,0.0916 0.108141,0.0515 0.186458,0.13331 0.251122,0.23201 0.08151,0.1337 0.112755,0.2809 0.132614,0.43403 0.03187,0.20533 -0.02408,0.383 -0.106005,0.56833 -0.08783,0.15833 -0.212336,0.28749 -0.345445,0.40788 -0.136065,0.12911 -0.299451,0.20493 -0.479537,0.24865 -0.184758,0.0355 -0.364296,0.002 -0.537911,-0.0622 -0.154752,-0.0635 -0.277164,-0.17029 -0.3611,-0.31378 -0.06044,-0.13623 -0.0037,-0.25022 0.06971,-0.36603 -7.2e-5,-0.015 0.02109,-0.0151 0.02117,-10e-5 v 0 c 0.02672,0.0865 0.103712,0.0773 0.171646,0.12282 0.07605,0.0645 0.15172,0.12889 0.246399,0.16515 0.108336,0.0425 0.222983,0.0689 0.339928,0.0533 0.129347,-0.0232 0.243883,-0.0828 0.34902,-0.1612 0.11067,-0.0823 0.216181,-0.17278 0.280593,-0.29758 -0.01455,0.10747 0.112769,-0.33815 0.0507,-0.27923 -0.0098,-0.11942 -0.0283,-0.24101 -0.05998,-0.35605 -0.02978,-0.0678 -0.07113,-0.12352 -0.137832,-0.15916 -0.06633,-0.0366 -0.137833,-0.064 -0.213196,-0.0743 -0.07925,-0.01 -0.160139,-0.0118 -0.23898,0.003 -0.189114,0.0477 -0.152485,0.075 -0.300326,-0.16033 0.08199,-0.0775 0.162441,-0.15677 0.246764,-0.23186 0.165621,-0.15641 0.328207,-0.31692 0.471911,-0.49409 0.08652,-0.11822 0.174384,-0.23896 0.215749,-0.38127 0.0155,-0.0609 0.0312,-0.12161 0.02003,-0.18472 -0.02082,-0.005 -0.04353,-0.0126 -0.06412,-0.006 -0.07613,0.0114 -0.151262,0.03 -0.223308,0.0573 -0.116065,0.0478 -0.226677,0.10754 -0.328996,0.18054 -0.104905,0.0715 -0.211738,0.1411 -0.30707,0.22534 -0.09139,0.0838 -0.173165,0.17771 -0.237821,0.28389 -0.08469,0.14607 -0.145497,0.30152 -0.190175,0.46481 -0.09182,0.31644 -0.156879,0.63915 -0.22448,0.96146 -0.09458,0.42841 -0.188055,0.86577 -0.414716,1.24741 -0.303072,0.44361 -0.713751,0.76444 -1.21067,0.97375 -0.213183,0.0607 -0.299029,-0.24078 -0.08585,-0.30149 z"
       inkscape:connector-curvature="0" />
  </g>
</svg>
