<?xml version="1.0" encoding="UTF-8" standalone="no"?>
<!-- Created with Inkscape (http://www.inkscape.org/) -->

<svg
   xmlns:dc="http://purl.org/dc/elements/1.1/"
   xmlns:cc="http://creativecommons.org/ns#"
   xmlns:rdf="http://www.w3.org/1999/02/22-rdf-syntax-ns#"
   xmlns:svg="http://www.w3.org/2000/svg"
   xmlns="http://www.w3.org/2000/svg"
   xmlns:sodipodi="http://sodipodi.sourceforge.net/DTD/sodipodi-0.dtd"
   xmlns:inkscape="http://www.inkscape.org/namespaces/inkscape"
   width="150mm"
   height="45mm"
   viewBox="0 0 150 45"
   version="1.1"
   id="svg8"
   inkscape:version="0.92.1 unknown"
   sodipodi:docname="induced-morphism-1.svg">
  <defs
     id="defs2" />
  <sodipodi:namedview
     id="base"
     pagecolor="#ffffff"
     bordercolor="#666666"
     borderopacity="1.0"
     inkscape:pageopacity="0.0"
     inkscape:pageshadow="2"
     inkscape:zoom="1.4"
     inkscape:cx="145.45967"
     inkscape:cy="81.621312"
     inkscape:document-units="mm"
     inkscape:current-layer="layer1"
     showgrid="false" />
  <metadata
     id="metadata5">
    <rdf:RDF>
      <cc:Work
         rdf:about="">
        <dc:format>image/svg+xml</dc:format>
        <dc:type
           rdf:resource="http://purl.org/dc/dcmitype/StillImage" />
        <dc:title></dc:title>
      </cc:Work>
    </rdf:RDF>
  </metadata>
  <g
     inkscape:label="Layer 1"
     inkscape:groupmode="layer"
     id="layer1"
     transform="translate(0,-252)">
    <path
       style="opacity:1;fill:#000000;fill-opacity:1;stroke:none;stroke-width:0.52916664;stroke-linecap:round;stroke-miterlimit:4;stroke-dasharray:none;stroke-opacity:1"
       id="path4484"
       d="m 50.121043,260.65255 c -0.44318,0.15875 -0.861597,0.37354 -1.270087,0.60539 -0.244269,0.13441 -0.447188,0.31499 -0.627089,0.52526 -0.160319,0.19221 -0.303961,0.39729 -0.446863,0.60251 -0.105058,0.15802 -0.194635,0.32551 -0.27672,0.49628 -0.08086,0.16162 -0.130812,0.33487 -0.176612,0.50889 -0.05478,0.21627 -0.114138,0.4313 -0.175302,0.64584 -0.06664,0.23831 -0.133115,0.47665 -0.202361,0.71422 -0.08969,0.31025 -0.172628,0.62236 -0.263906,0.93216 -0.10559,0.36544 -0.228677,0.72536 -0.367108,1.07958 -0.150972,0.39599 -0.371035,0.75546 -0.612261,1.10142 -0.222194,0.31833 -0.497877,0.58989 -0.782856,0.8509 -0.311395,0.27844 -0.636461,0.54093 -0.956038,0.80979 -0.379383,0.32154 -0.762713,0.63861 -1.15373,0.94593 -0.419201,0.32255 -0.84401,0.63731 -1.257966,0.96663 -0.357152,0.29348 -0.706976,0.59578 -1.038044,0.91849 -0.30791,0.31129 -0.601561,0.63624 -0.895723,0.96043 -0.337038,0.36858 -0.662277,0.74772 -0.973276,1.13849 -0.285705,0.3497 -0.546519,0.71798 -0.77529,1.10714 -0.159212,0.27238 -0.267115,0.56503 -0.336928,0.87138 -0.04696,0.21538 -0.02016,0.41271 0.105162,0.59313 0.176544,0.19788 0.426759,0.29311 0.670804,0.37859 0.347922,0.10398 0.700244,0.19215 1.049309,0.29232 0.340615,0.0945 0.661161,0.24023 0.963286,0.42193 0.242773,0.15173 0.455867,0.3423 0.65862,0.54288 0.20571,0.21224 0.410801,0.42506 0.62066,0.63321 0.23196,0.22681 0.481099,0.43509 0.73878,0.63185 0.242795,0.18464 0.513165,0.32516 0.793659,0.44229 0.277982,0.1091 0.57153,0.16732 0.864701,0.21794 0.291102,0.0469 0.583801,0.0821 0.877549,0.10705 0.31732,0.0273 0.635623,0.0195 0.952727,-0.005 0.366899,-0.0359 0.732498,-0.0837 1.098631,-0.12647 0.386614,-0.0476 0.77498,-0.0773 1.163587,-0.10258 0.400772,-0.0218 0.800806,-0.0498 1.197806,-0.10974 0.478176,-0.085 0.943075,-0.22843 1.402106,-0.38445 0.528545,-0.18528 1.044292,-0.40429 1.551953,-0.64024 0.482839,-0.22309 0.929966,-0.5094 1.352479,-0.83052 0.366641,-0.28924 0.698437,-0.61899 1.009438,-0.9665 0.278146,-0.31646 0.517711,-0.66349 0.748366,-1.01523 0.200012,-0.30442 0.375701,-0.6237 0.551945,-0.94217 0.204999,-0.36558 0.38698,-0.74285 0.558517,-1.12505 0.171005,-0.38983 0.306295,-0.79305 0.413686,-1.2046 0.09294,-0.3929 0.142846,-0.7942 0.169379,-1.19656 0.02793,-0.37438 -0.01434,-0.74559 -0.07726,-1.11387 -0.05737,-0.33769 -0.155953,-0.66522 -0.271658,-0.98689 -0.121989,-0.31268 -0.245277,-0.62483 -0.378084,-0.93309 -0.121875,-0.28304 -0.2666,-0.55507 -0.406279,-0.82948 -0.127902,-0.26218 -0.265946,-0.51901 -0.409966,-0.77262 -0.140319,-0.25113 -0.309311,-0.48295 -0.50256,-0.69551 -0.183248,-0.2052 -0.399783,-0.37486 -0.619546,-0.53854 -0.203221,-0.13971 -0.390287,-0.29715 -0.547246,-0.48751 -0.132593,-0.16783 -0.210288,-0.36256 -0.261456,-0.56799 -0.04629,-0.20732 -0.03551,-0.41953 -0.0213,-0.6296 0.01333,-0.16667 0.02082,-0.3337 0.02439,-0.50084 0.0074,-0.14427 -0.0076,-0.28753 -0.027,-0.43019 -0.01577,-0.12153 -0.04382,-0.24079 -0.08322,-0.35673 -0.04342,-0.10186 -0.09923,-0.19808 -0.150836,-0.29598 -0.07702,-0.13613 -0.141351,-0.27875 -0.205063,-0.42142 -0.05498,-0.11963 -0.121525,-0.23343 -0.189245,-0.34617 -0.05156,-0.0902 -0.114502,-0.17191 -0.184214,-0.2486 -0.05459,-0.0591 -0.119988,-0.10492 -0.189685,-0.14417 -0.07585,-0.0472 -0.160724,-0.0609 -0.245245,-0.0832 -0.135575,-0.0373 -0.244769,-0.1316 -0.355076,-0.21467 -0.09203,-0.0732 -0.193593,-0.13188 -0.295466,-0.18998 -0.09861,-0.0542 -0.189701,-0.1206 -0.285877,-0.17875 -0.06911,-0.041 -0.130759,-0.0937 -0.202599,-0.13002 -0.03693,-0.0156 -0.07658,-0.0222 -0.11562,-0.03 -0.04473,-0.003 -0.08896,-0.0111 -0.133599,-0.0156 -0.07452,-0.006 -0.13965,-0.0424 -0.197138,-0.0878 -0.06928,-0.0616 0.01736,0.003 -0.0642,-0.0467 0.05431,0.0324 -0.03146,0.003 -0.04469,-9e-4 -0.0464,-0.0187 -0.08521,-0.05 -0.130362,-0.0709 -0.03333,-0.004 -0.06662,-0.009 -0.100267,-0.011 -0.04923,-0.001 -0.09826,0.004 -0.14746,10e-4 -0.04332,-0.005 -0.05351,-0.012 -0.05129,-0.0569 -0.19254,0.007 -0.202628,-0.26516 -0.01008,-0.27229 v 0 c 0.02381,-0.0354 0.03576,-0.059 0.07935,-0.065 0.06534,-0.009 0.131701,-0.008 0.197291,-0.002 0.07009,0.009 0.140841,0.0205 0.205727,0.0496 0.02606,0.0125 0.107855,0.0513 0.09537,0.0563 0.02666,0.005 0.09316,0.0203 0.125481,0.0457 0.0324,0.0195 0.06487,0.0407 0.09033,0.0687 0.0084,0.004 -0.0045,0.0128 0.02331,0.0123 0.05214,0.007 0.104378,0.0145 0.156096,0.0242 0.06981,0.0149 0.1388,0.0348 0.202562,0.0676 0.07513,0.0419 0.142783,0.0945 0.214712,0.14149 0.09357,0.057 0.182589,0.12112 0.278196,0.17485 0.11343,0.0647 0.224759,0.13312 0.327753,0.21374 0.0777,0.0586 0.154075,0.13102 0.247621,0.16078 0.109154,0.0293 0.219125,0.0544 0.316764,0.11478 0.09793,0.0557 0.189675,0.12071 0.26655,0.20397 0.08371,0.0907 0.161745,0.18659 0.223411,0.29397 0.07621,0.12272 0.147836,0.24863 0.21023,0.37897 0.06179,0.13607 0.119518,0.27455 0.195088,0.40378 0.0594,0.11096 0.121587,0.22078 0.173784,0.33533 0.0496,0.13474 0.08511,0.2738 0.10559,0.41606 0.0222,0.15835 0.04369,0.31761 0.03711,0.47799 -0.0033,0.17187 -0.0085,0.34375 -0.02289,0.51512 -0.01376,0.17958 -0.03225,0.36159 2.62e-4,0.5403 0.03382,0.16118 0.09052,0.31269 0.191505,0.44502 0.138033,0.17278 0.308348,0.30884 0.488802,0.4358 0.238249,0.17744 0.473647,0.3617 0.669645,0.58661 0.193926,0.23801 0.377319,0.4852 0.524203,0.75565 0.143444,0.25951 0.276129,0.52447 0.405918,0.79105 0.139372,0.28172 0.283705,0.56157 0.401841,0.85313 0.127225,0.31644 0.258027,0.63169 0.370764,0.95369 0.115845,0.33667 0.217246,0.6784 0.277934,1.02989 0.06693,0.38634 0.103478,0.77783 0.07978,1.17027 -0.02649,0.41658 -0.07576,0.83214 -0.16973,1.23941 -0.118605,0.4703 -0.275071,0.92887 -0.474255,1.37163 -0.173321,0.38838 -0.35982,0.77056 -0.567917,1.14166 -0.179428,0.32347 -0.362048,0.64545 -0.565381,0.9547 -0.239088,0.36021 -0.488944,0.71437 -0.776046,1.03845 -0.324787,0.35474 -0.665189,0.69588 -1.04666,0.99047 -0.436663,0.32926 -0.899562,0.62065 -1.397384,0.84968 -0.515252,0.24033 -1.038619,0.46374 -1.575218,0.65249 -0.472593,0.16147 -0.952791,0.3064 -1.445609,0.39206 -0.403723,0.0596 -0.810424,0.0881 -1.217742,0.11116 -0.384408,0.0242 -0.768438,0.055 -1.150723,0.10283 -0.369266,0.0434 -0.738123,0.0905 -1.108067,0.12784 -0.330288,0.0251 -0.661747,0.0322 -0.992191,0.003 -0.300734,-0.0248 -0.600355,-0.0607 -0.898139,-0.1099 -0.311323,-0.0532 -0.622787,-0.11662 -0.917434,-0.23345 -0.300979,-0.12473 -0.589171,-0.27658 -0.849174,-0.47472 -0.266163,-0.20273 -0.523739,-0.41686 -0.762726,-0.6514 -0.211707,-0.20773 -0.41532,-0.42335 -0.620478,-0.63752 -0.185586,-0.1911 -0.382776,-0.37119 -0.607683,-0.5157 -0.282535,-0.17488 -0.582846,-0.31481 -0.904373,-0.40297 -0.352977,-0.10236 -0.709935,-0.18997 -1.061932,-0.29569 -0.290316,-0.10089 -0.583486,-0.21529 -0.794412,-0.44905 -0.172671,-0.2344 -0.23397,-0.4857 -0.180122,-0.77585 0.07758,-0.37959 0.218117,-0.741 0.417276,-1.07404 0.238031,-0.39684 0.509881,-0.77109 0.801995,-1.12997 0.316622,-0.39205 0.642576,-0.77631 0.983736,-1.14736 0.296861,-0.32965 0.59529,-0.65836 0.909376,-0.97179 0.339214,-0.3247 0.694056,-0.63255 1.059914,-0.92693 0.414134,-0.32932 0.84041,-0.64255 1.258111,-0.96726 0.386435,-0.30881 0.769798,-0.62167 1.14279,-0.94667 0.314151,-0.27368 0.624628,-0.55162 0.93027,-0.83479 0.267112,-0.25164 0.526537,-0.51218 0.7337,-0.81716 0.195851,-0.28547 0.378076,-0.5813 0.507652,-0.90359 0.138867,-0.34524 0.25807,-0.69771 0.362987,-1.05476 0.09136,-0.30906 0.174705,-0.6203 0.261113,-0.93077 0.06822,-0.23788 0.138546,-0.47514 0.20266,-0.71417 0.05975,-0.2123 0.118118,-0.42494 0.174315,-0.6382 0.04719,-0.19225 0.09931,-0.38428 0.182954,-0.56445 0.113454,-0.23322 0.230871,-0.46499 0.380204,-0.67791 0.147635,-0.21568 0.304184,-0.42554 0.473091,-0.62511 0.205835,-0.22766 0.440044,-0.42053 0.711851,-0.56622 0.422367,-0.2374 0.858919,-0.44702 1.313325,-0.61652 0.227793,-0.0496 0.297993,0.27251 0.0702,0.32215 z"
       inkscape:connector-curvature="0" />
    <path
       style="opacity:1;fill:#000000;fill-opacity:1;stroke:none;stroke-width:0.52916664;stroke-linecap:round;stroke-miterlimit:4;stroke-dasharray:none;stroke-opacity:1"
       id="path4486"
       d="m 102.65488,262.72206 c -0.44014,-0.16626 -0.89871,-0.26459 -1.36931,-0.23517 -0.33258,0.0384 -0.63788,0.17935 -0.93505,0.32508 -0.29816,0.14643 -0.576473,0.32748 -0.844792,0.52227 -0.253198,0.18852 -0.488966,0.39936 -0.716272,0.61805 -0.207439,0.20808 -0.390776,0.43792 -0.569905,0.67027 -0.180104,0.22631 -0.344511,0.46375 -0.498091,0.70855 -0.158004,0.24917 -0.277633,0.51778 -0.371785,0.79659 -0.09139,0.27779 -0.117673,0.56848 -0.134982,0.8585 -0.01183,0.31493 -0.0105,0.63009 -0.02043,0.94508 -0.0074,0.30199 -0.03131,0.6029 -0.07358,0.90192 -0.04919,0.31652 -0.153249,0.61915 -0.275124,0.91405 -0.149403,0.35263 -0.355399,0.67698 -0.578692,0.98678 -0.211846,0.28843 -0.456226,0.55023 -0.694862,0.81614 -0.229933,0.24967 -0.463208,0.49624 -0.697963,0.74138 -0.244684,0.25221 -0.480253,0.51299 -0.715446,0.77399 -0.233209,0.25902 -0.47888,0.50631 -0.713597,0.76392 -0.196173,0.21103 -0.365668,0.44323 -0.516732,0.68801 -0.110995,0.18785 -0.185983,0.39403 -0.248181,0.60242 -0.05375,0.19518 -0.08419,0.3955 -0.09231,0.59756 -0.0034,0.1247 0.02756,0.24101 0.08521,0.35041 0.08779,0.15397 0.212677,0.27994 0.340677,0.40043 0.206518,0.1811 0.433713,0.33656 0.660403,0.49092 0.283662,0.18995 0.572781,0.37157 0.865166,0.54774 0.308163,0.1874 0.633894,0.34251 0.959379,0.49679 0.358098,0.17381 0.717759,0.34441 1.075037,0.51989 0.385725,0.18601 0.748474,0.41284 1.104101,0.65016 0.333756,0.23809 0.680013,0.45628 1.038757,0.65442 0.360439,0.18845 0.730416,0.35811 1.100299,0.52706 0.359885,0.16164 0.726915,0.30624 1.102385,0.42724 0.36442,0.11945 0.74352,0.17318 1.1237,0.21 0.41373,0.0402 0.82918,0.0531 1.24463,0.0537 0.435,0.002 0.86777,-0.0432 1.29978,-0.0885 0.4207,-0.0434 0.84077,-0.0926 1.26077,-0.14217 0.39056,-0.0421 0.77097,-0.141 1.15068,-0.2375 0.35743,-0.0899 0.71097,-0.19368 1.06322,-0.30182 0.33305,-0.10248 0.66007,-0.22283 0.98056,-0.35938 0.32136,-0.13477 0.62329,-0.30988 0.91827,-0.49415 0.28142,-0.17644 0.51938,-0.40798 0.74661,-0.64773 0.20293,-0.21945 0.3823,-0.45894 0.55404,-0.70311 0.13959,-0.19995 0.27,-0.40608 0.40402,-0.60977 0.11762,-0.18198 0.23931,-0.36181 0.34642,-0.55032 0.10859,-0.18716 0.20759,-0.37968 0.29714,-0.57661 0.0596,-0.1315 0.10098,-0.26952 0.1276,-0.41116 0.0242,-0.1135 0.0304,-0.22642 0.008,-0.34029 -0.0537,-0.1578 -0.15953,-0.28913 -0.26086,-0.41871 -0.14253,-0.1904 -0.31289,-0.35639 -0.48358,-0.52101 -0.1819,-0.16509 -0.35748,-0.33684 -0.53501,-0.50655 -0.1602,-0.1541 -0.31097,-0.31743 -0.4603,-0.48194 -0.15039,-0.168 -0.29849,-0.33813 -0.43935,-0.51422 -0.13874,-0.18196 -0.27154,-0.36837 -0.40736,-0.55252 -0.14883,-0.19038 -0.27037,-0.39724 -0.36905,-0.61728 -0.10783,-0.24648 -0.14699,-0.5099 -0.15913,-0.77635 -0.005,-0.2803 0.0559,-0.55384 0.12654,-0.82316 0.073,-0.25723 0.15923,-0.51055 0.25071,-0.76174 0.0856,-0.23334 0.18601,-0.46052 0.28783,-0.68706 0.0842,-0.19934 0.18429,-0.39089 0.29374,-0.57733 0.10201,-0.17183 0.21821,-0.3345 0.325,-0.50329 0.0826,-0.12941 0.15418,-0.26493 0.20953,-0.40809 0.0564,-0.13696 0.0822,-0.28017 0.0865,-0.42746 0.002,-0.16571 -0.036,-0.32629 -0.0844,-0.48353 -0.062,-0.17802 -0.16575,-0.33464 -0.27647,-0.48543 -0.14137,-0.18572 -0.30641,-0.35139 -0.47545,-0.51164 -0.17591,-0.16708 -0.37168,-0.30945 -0.5741,-0.44212 -0.19019,-0.12475 -0.39195,-0.22963 -0.59304,-0.33527 -0.18227,-0.10371 -0.36433,-0.20796 -0.54409,-0.31598 -0.14982,-0.0894 -0.29582,-0.18508 -0.43665,-0.28805 -0.11748,-0.0923 -0.23004,-0.19067 -0.34386,-0.2874 -0.0967,-0.0801 -0.18522,-0.16938 -0.27829,-0.25356 -0.0794,-0.0702 -0.16641,-0.13057 -0.25727,-0.18475 -0.0866,-0.0505 -0.18212,-0.0823 -0.27733,-0.11225 -0.10664,-0.0318 -0.21414,-0.0605 -0.32164,-0.0892 -0.0973,-0.0309 -0.19767,-0.0494 -0.29847,-0.0643 -0.0897,-0.0131 -0.17839,-0.0324 -0.26813,-0.0453 -0.0731,-0.0107 -0.14592,-0.0219 -0.21791,-0.0388 -0.0595,-0.0158 -0.11813,-0.0346 -0.17825,-0.048 -0.0583,-0.0117 -0.11338,-0.0336 -0.16733,-0.0579 -0.0317,-0.0229 -0.061,-0.0226 -0.097,-0.0303 -0.062,-0.0126 -0.12306,-0.0283 -0.18536,-0.0395 -0.0676,-0.0113 -0.13446,-0.027 -0.20059,-0.045 -0.0662,-0.022 -0.13392,-0.0363 -0.20265,-0.0475 -0.0734,-0.01 -0.14594,-0.0242 -0.21827,-0.0397 -0.0513,-0.0111 -0.10332,-0.0184 -0.15467,-0.0296 -0.0369,-0.0109 -0.0748,-0.0167 -0.11243,-0.0243 -0.0387,-0.0107 -0.077,-0.0225 -0.11633,-0.0304 -0.041,-0.006 -0.0821,-0.0116 -0.12372,-0.0114 -0.0526,0.002 -0.10515,8.5e-4 -0.15733,-0.006 -0.0404,-0.0144 -0.0768,-0.0104 -0.11782,-0.007 -0.0566,0.0188 -0.11677,0.0122 -0.17511,0.008 -0.0474,0.006 -0.0946,0.0158 -0.14189,0.0242 -0.0808,0.0161 -0.16324,0.021 -0.24536,0.0253 -0.0676,0.004 -0.13456,0.005 -0.20191,-0.003 -0.0411,-0.006 -0.0794,-0.0158 -0.12075,-0.0132 -0.0387,0.0127 -0.0856,0.007 -0.12716,0.005 -0.0488,6.9e-4 -0.0781,-0.007 -0.11093,-0.0472 -0.0259,-0.10433 -0.01,-0.0547 -0.0469,-0.14925 -0.0147,-0.003 -0.011,-0.0235 0.004,-0.0208 v 0 c 0.0548,-0.0871 0.0299,-0.0399 0.0726,-0.14253 0.0356,-0.0539 0.0708,-0.0603 0.13544,-0.0531 0.0399,1.4e-4 0.0789,-0.005 0.11888,-0.005 0.0519,0.003 0.10187,0.0135 0.15296,0.0218 0.0484,0.005 0.0971,0.004 0.14568,0.001 0.0694,-0.004 0.13848,-0.0106 0.20673,-0.024 0.0733,-0.0116 0.14727,-0.025 0.22172,-0.0173 0.0439,0.003 0.0856,-0.008 0.1295,-0.0111 0.0606,-10e-4 0.12094,5.3e-4 0.18009,0.0156 0.0436,0.003 0.0872,0.003 0.13086,0.005 0.0599,0.004 0.11943,0.0116 0.17821,0.024 0.0377,0.009 0.0749,0.0196 0.1124,0.0293 0.0399,0.008 0.0798,0.0157 0.11881,0.0273 0.0512,0.0118 0.10294,0.0211 0.15426,0.0324 0.0669,0.0158 0.13501,0.026 0.20283,0.0373 0.0781,0.0139 0.15491,0.0326 0.23085,0.0555 0.0592,0.0145 0.1185,0.0289 0.17876,0.0385 0.0628,0.0116 0.12425,0.029 0.18716,0.0403 0.0589,0.0104 0.11632,0.0265 0.16847,0.0566 0.0355,0.016 0.0722,0.0289 0.1105,0.0364 0.0587,0.0152 0.11644,0.0333 0.17503,0.0488 0.064,0.0148 0.12924,0.0222 0.19394,0.0331 0.0904,0.0148 0.18021,0.0328 0.27071,0.0469 0.11263,0.0192 0.22489,0.0421 0.33292,0.0801 0.10998,0.0327 0.22017,0.0647 0.32984,0.0984 0.11886,0.0385 0.23725,0.0804 0.34391,0.14686 0.10612,0.0659 0.20861,0.13772 0.30157,0.22146 0.091,0.0824 0.1767,0.17057 0.27156,0.24868 0.1071,0.0928 0.21331,0.1869 0.3249,0.27428 0.13241,0.0985 0.27092,0.18837 0.41236,0.27338 0.17384,0.10583 0.35122,0.2059 0.52765,0.30732 0.2095,0.11015 0.41923,0.22061 0.61682,0.35147 0.21734,0.14282 0.42757,0.29676 0.61627,0.47651 0.18258,0.17264 0.36093,0.35092 0.51479,0.5502 0.13062,0.17773 0.2557,0.3615 0.33054,0.57083 0.0602,0.18687 0.10865,0.378 0.11157,0.57564 10e-4,0.18381 -0.0213,0.36497 -0.0866,0.53813 -0.0604,0.16259 -0.13055,0.32119 -0.22582,0.46692 -0.10373,0.16773 -0.21589,0.32968 -0.32138,0.49625 -0.10621,0.17436 -0.20381,0.35352 -0.28461,0.54124 -0.0974,0.22117 -0.20043,0.43994 -0.28412,0.66692 -0.0899,0.24171 -0.17589,0.48519 -0.24644,0.73335 -0.0672,0.23786 -0.12228,0.48105 -0.12763,0.72929 0.007,0.22693 0.0306,0.45292 0.12116,0.66388 0.0857,0.20025 0.19652,0.386 0.32985,0.55865 0.1329,0.17996 0.26261,0.36226 0.39697,0.54114 0.13689,0.17064 0.2788,0.33715 0.42471,0.50016 0.14547,0.15886 0.28964,0.31919 0.44546,0.46811 0.17659,0.17201 0.35212,0.34513 0.53391,0.51171 0.18053,0.17769 0.34959,0.36643 0.50037,0.5703 0.11781,0.16751 0.23997,0.3385 0.29945,0.53682 0.0328,0.14956 0.0327,0.29687 -0.002,0.44666 -0.0318,0.16072 -0.073,0.31953 -0.14086,0.46932 -0.0904,0.20654 -0.19467,0.40669 -0.30629,0.60254 -0.13665,0.23369 -0.2784,0.46421 -0.42729,0.69035 -0.13283,0.20941 -0.26482,0.41951 -0.4092,0.62126 -0.18152,0.25247 -0.36931,0.50113 -0.58339,0.7273 -0.24424,0.25248 -0.49915,0.49531 -0.7968,0.68513 -0.30553,0.19862 -0.62158,0.38142 -0.95751,0.52433 -0.32999,0.13918 -0.66586,0.26415 -1.00876,0.36803 -0.35661,0.10908 -0.71435,0.21434 -1.07554,0.30739 -0.39134,0.10198 -0.78474,0.19996 -1.18744,0.24566 -0.42114,0.0548 -0.8424,0.10902 -1.26503,0.1512 -0.4429,0.0472 -0.88639,0.0995 -1.33266,0.0951 -0.42543,-0.001 -0.8508,-0.0139 -1.27448,-0.0552 -0.40184,-0.0411 -0.80264,-0.0995 -1.18777,-0.22642 -0.38577,-0.12628 -0.7636,-0.27431 -1.133796,-0.44101 -0.376973,-0.17221 -0.753785,-0.34571 -1.121042,-0.53797 -0.36675,-0.20268 -0.720887,-0.42544 -1.062279,-0.66866 -0.342889,-0.23166 -0.694261,-0.45075 -1.067728,-0.63047 -0.356074,-0.17473 -0.714521,-0.34461 -1.071743,-0.51698 -0.334279,-0.15841 -0.668766,-0.3179 -0.984684,-0.51128 -0.29796,-0.17813 -0.591391,-0.36376 -0.879713,-0.55714 -0.240072,-0.16295 -0.48097,-0.3266 -0.699328,-0.5184 -0.152844,-0.14237 -0.301193,-0.29203 -0.406278,-0.47448 -0.08546,-0.15553 -0.142727,-0.31868 -0.143272,-0.49857 0.0035,-0.22873 0.0344,-0.45571 0.09013,-0.67775 0.08376,-0.29462 0.191233,-0.58076 0.362627,-0.83745 0.166947,-0.25477 0.350097,-0.49851 0.55965,-0.72022 0.23731,-0.25405 0.479618,-0.50343 0.713417,-0.76076 0.238696,-0.26255 0.476522,-0.526 0.724053,-0.78033 0.232733,-0.24391 0.463736,-0.48946 0.693402,-0.73625 0.235161,-0.25261 0.467,-0.50953 0.67524,-0.78506 0.176493,-0.24995 0.347009,-0.50462 0.469704,-0.78647 0.117695,-0.27149 0.22056,-0.55064 0.271423,-0.8433 0.04562,-0.28831 0.0689,-0.57909 0.07798,-0.87086 0.01008,-0.31702 0.01,-0.63414 0.01971,-0.95116 0.01503,-0.31436 0.04234,-0.6296 0.134601,-0.93227 0.09669,-0.30178 0.219536,-0.59339 0.388446,-0.86276 0.188949,-0.29844 0.390551,-0.58835 0.61465,-0.8617 0.193609,-0.23391 0.388573,-0.46824 0.607015,-0.67961 0.238128,-0.22521 0.485043,-0.4415 0.749761,-0.63527 0.281929,-0.19957 0.573241,-0.38614 0.884934,-0.53645 0.3299,-0.15936 0.66918,-0.30766 1.03805,-0.34414 0.50881,-0.0224 1.00369,0.0716 1.4811,0.25036 0.21223,0.09 0.0849,0.39017 -0.12733,0.30014 z"
       inkscape:connector-curvature="0" />
    <path
       style="opacity:1;fill:#000000;fill-opacity:1;stroke:none;stroke-width:0.52916664;stroke-linecap:round;stroke-miterlimit:4;stroke-dasharray:none;stroke-opacity:1"
       id="path4496"
       d="m 104.23166,283.18995 c -0.25242,0.64153 -0.51043,1.28061 -0.7852,1.9129 -0.19422,0.42916 -0.41026,0.84788 -0.61877,1.27014 -0.0127,0.0335 -0.23178,0.43957 -0.25263,0.43395 -0.0168,-0.005 -0.003,-0.0347 -0.005,-0.052 -0.05,0.0297 -0.096,-7.9e-4 -0.10102,0.0654 0.0147,0.003 0.0103,0.0238 -0.004,0.0207 v 0 c -0.10534,0.0433 -0.16336,-0.005 -0.20205,-0.10751 0.0381,-0.2304 0.0958,-0.44908 0.21088,-0.65582 0.20465,-0.41892 0.41994,-0.83275 0.61228,-1.25759 0.25202,-0.55731 0.48083,-1.12459 0.70642,-1.69302 0.0444,-0.31065 0.48377,-0.24778 0.43932,0.0629 z"
       inkscape:connector-curvature="0" />
    <path
       style="opacity:1;fill:#000000;fill-opacity:1;stroke:none;stroke-width:0.52916664;stroke-linecap:round;stroke-miterlimit:4;stroke-dasharray:none;stroke-opacity:1"
       id="path4498"
       d="m 103.56578,283.66095 c 0.48789,-0.23409 0.98964,-0.4376 1.50902,-0.58981 0.27924,-0.0789 0.56397,-0.11596 0.84941,-0.0571 0.18405,0.0564 0.29021,0.18674 0.34439,0.36531 0.0455,0.22838 -0.0602,0.42827 -0.18683,0.61192 -0.15205,0.20793 -0.35203,0.36948 -0.56018,0.51765 -0.21971,0.15402 -0.46678,0.25854 -0.71801,0.34854 -0.13422,0.0459 -0.27042,0.0869 -0.40906,0.11727 -0.16489,0.0558 -0.0963,-0.34561 0.0766,-0.32676 0.12675,0.0178 0.23948,0.0771 0.34896,0.13984 0.1603,0.0917 0.30707,0.20329 0.44606,0.32429 0.17535,0.15092 0.31663,0.33109 0.4313,0.53092 0.0989,0.19024 0.12601,0.39524 0.11887,0.6065 -0.0151,0.26789 -0.1149,0.51548 -0.25523,0.74092 -0.16256,0.2366 -0.39755,0.38796 -0.65261,0.50771 -0.32773,0.1518 -0.68602,0.18507 -1.04187,0.20134 -0.40098,0.0115 -0.79177,-0.0729 -1.16826,-0.20359 -0.25269,-0.0957 -0.48278,-0.23044 -0.64978,-0.44506 -0.1434,-0.21269 -0.0896,-0.45379 0.12822,-0.59268 0.10374,-0.0588 0.21405,-0.0749 0.33015,-0.087 0.0141,-0.005 0.0212,0.0149 0.007,0.0199 v 0 c -0.0696,0.0795 -0.1443,0.15651 -0.18869,0.25399 -0.0397,0.15164 -0.0171,-0.0262 0.0258,0.092 0.14759,0.13468 0.31797,0.24013 0.50502,0.31149 0.33112,0.11836 0.67503,0.18776 1.02737,0.1991 0.30728,0.002 0.61543,-0.0229 0.90619,-0.13039 0.20001,-0.0878 0.38788,-0.19523 0.51169,-0.38191 0.086,-0.13786 0.15803,-0.27257 0.17647,-0.43782 0.0136,-0.15881 0.0117,-0.31448 -0.0598,-0.46141 -0.088,-0.17618 -0.21201,-0.32769 -0.35926,-0.45857 -0.12502,-0.10922 -0.25584,-0.2113 -0.40086,-0.29309 -0.0746,-0.0433 -0.15059,-0.0876 -0.2374,-0.10002 -0.16382,-0.0167 -0.26134,-0.36439 -0.0753,-0.36973 0.12712,-0.0341 0.25792,-0.0544 0.38232,-0.0989 0.2268,-0.0782 0.44903,-0.16987 0.64396,-0.31286 0.17895,-0.13005 0.3505,-0.27304 0.47639,-0.45736 0.0474,-0.0755 0.10892,-0.14087 0.1131,-0.25409 -8e-4,-0.0883 -0.0306,-0.14996 -0.11609,-0.18526 -0.24013,-0.0647 -0.48634,-0.009 -0.72198,0.0523 -0.507,0.14503 -0.99541,0.34477 -1.46988,0.57453 -0.19248,0.0618 -0.27987,-0.21041 -0.0874,-0.2722 z"
       inkscape:connector-curvature="0" />
    <path
       style="opacity:1;fill:#000000;fill-opacity:1;stroke:none;stroke-width:0.52916664;stroke-linecap:round;stroke-miterlimit:4;stroke-dasharray:none;stroke-opacity:1"
       id="path4506"
       d="m 42.821472,287.20507 c 0.454301,-0.44033 0.90307,-0.88617 1.346005,-1.33792 0.343392,-0.34537 0.65428,-0.72056 0.978232,-1.08363 0.188823,-0.20052 0.363759,-0.41314 0.5416,-0.62319 0.06752,-0.0791 0.137391,-0.15635 0.217716,-0.22271 0.295828,-0.17637 0.328628,0.19038 0.334579,0.35528 0.006,0.1995 -0.01495,0.39807 -0.03359,0.59634 -0.02577,0.24514 -0.04373,0.4908 -0.05705,0.73689 -0.01304,0.23688 -0.01837,0.47395 -0.02215,0.71111 -0.0051,0.16534 0.0023,0.33039 0.01696,0.49503 0.0112,0.12197 0.02542,0.24363 0.04485,0.36457 0.01085,0.074 0.03254,0.1473 0.0336,0.22247 -0.0045,0.0393 0.01008,0.0887 -0.04254,0.0836 -0.06011,0.0108 -0.0514,0.0686 -0.04845,0.11556 0.0028,0.004 0.0056,0.008 0.0085,0.0123 0.01234,0.008 3.43e-4,0.0259 -0.01198,0.0174 v 0 c -0.003,-2.6e-4 -0.006,-7.9e-4 -0.009,-10e-4 -0.0361,0.0585 -0.09638,0.0787 -0.162953,0.0568 -0.0542,-0.0331 -0.0965,-0.0673 -0.119901,-0.12834 -0.02761,-0.0749 -0.03753,-0.1546 -0.05426,-0.23237 -0.0238,-0.13 -0.04068,-0.26096 -0.05362,-0.39248 -0.01642,-0.17776 -0.03274,-0.35576 -0.02477,-0.53459 0.0034,-0.24152 0.01075,-0.48307 0.02437,-0.72423 0.01257,-0.25325 0.03361,-0.50605 0.0637,-0.75784 0.021,-0.18807 0.04374,-0.37606 0.05628,-0.56493 0.01413,-0.31533 -0.05039,-0.0296 0.263954,-0.10739 -0.06264,0.066 -0.125985,0.13137 -0.183528,0.20204 -0.179808,0.21132 -0.361265,0.42112 -0.548696,0.6258 -0.325127,0.36824 -0.645472,0.74112 -0.991544,1.09021 -0.445172,0.45164 -0.897118,0.89641 -1.349017,1.34129 -0.223429,0.15364 -0.440705,-0.16234 -0.217276,-0.31597 z"
       inkscape:connector-curvature="0" />
    <path
       style="opacity:1;fill:#000000;fill-opacity:1;stroke:none;stroke-width:0.52916664;stroke-linecap:round;stroke-miterlimit:4;stroke-dasharray:none;stroke-opacity:1"
       id="path4508"
       d="m 44.106445,286.44928 c 0.465525,-0.11126 0.929532,-0.22895 1.389775,-0.36043 0.239749,-0.0718 0.476214,-0.15362 0.716157,-0.2248 0.136378,-0.0425 0.276315,-0.0594 0.417621,-0.039 0.131453,0.0288 0.255326,0.0792 0.380085,0.12806 0.01495,5.3e-4 0.01431,0.0216 -5.29e-4,0.0212 v 0 c -0.122479,0.0559 -0.243573,0.11473 -0.363128,0.17663 -0.114641,0.0528 -0.235362,0.09 -0.354804,0.1304 -0.240427,0.0743 -0.478993,0.15451 -0.720758,0.22445 -0.465241,0.12847 -0.934252,0.24252 -1.403811,0.35404 -0.290243,0.0428 -0.350745,-0.36768 -0.0605,-0.41047 z"
       inkscape:connector-curvature="0" />
    <path
       style="opacity:1;fill:#000000;fill-opacity:1;stroke:none;stroke-width:0.52916664;stroke-linecap:round;stroke-miterlimit:4;stroke-dasharray:none;stroke-opacity:1"
       id="path4510"
       d="m 47.99981,271.0278 c -0.03739,0.58238 -0.04718,1.16551 -0.03804,1.74884 0.01161,0.42072 0.02508,0.84142 0.05932,1.26098 0.01834,0.15591 0.03023,0.31346 0.06146,0.46756 -0.0065,0.008 -0.04656,-0.0336 -0.05468,-0.04 0.28743,0.21086 -0.01079,0.61735 -0.298212,0.40648 v 0 c -0.05309,-0.0424 -0.09563,-0.0881 -0.119337,-0.15353 -0.05466,-0.17496 -0.06885,-0.35872 -0.08903,-0.5401 -0.039,-0.43006 -0.05234,-0.86172 -0.06341,-1.29329 -0.01212,-0.5944 -0.0021,-1.18852 0.0329,-1.78215 -0.05291,-0.35994 0.456125,-0.43477 0.509037,-0.0748 z"
       inkscape:connector-curvature="0" />
    <path
       style="opacity:1;fill:#000000;fill-opacity:1;stroke:none;stroke-width:0.52916664;stroke-linecap:round;stroke-miterlimit:4;stroke-dasharray:none;stroke-opacity:1"
       id="path4512"
       d="m 48.016907,270.7206 c 0.500258,-0.0687 1.001281,-0.1311 1.503408,-0.18441 0.242596,-0.0239 0.485849,-0.0405 0.728165,-0.0672 0.115506,-0.0146 0.231031,-0.0247 0.347398,-0.0187 0.07884,0.009 0.154064,0.0346 0.230938,0.0529 0.02246,0.006 0.04556,0.0116 0.0688,0.0114 -1.93e-4,-0.0111 -0.01572,7.4e-4 -0.02307,-0.002 -0.009,-0.003 0.01886,-0.0196 0.02548,-0.0128 0.09278,0.0953 0.182078,0.19386 0.273119,0.29078 -0.03037,0.14689 0.008,0.29954 0.0318,0.44489 0.05141,0.29147 0.09416,0.58439 0.136131,0.87734 0.04223,0.27989 0.08663,0.55942 0.125555,0.83979 0.02535,0.19125 0.05821,0.38132 0.09224,0.57118 0.01968,0.10992 0.0402,0.21971 0.05939,0.32973 0.0075,0.039 0.01206,0.0794 0.01527,0.11824 0.02162,0.0526 0.04353,0.10502 0.06216,0.15878 0.02066,0.0567 0.04806,0.10967 0.06398,0.16834 0.03911,0.29927 -0.288573,0.31247 -0.473663,0.27723 -0.0956,-0.0134 -0.192143,-0.0182 -0.28844,-0.0239 -0.1767,-0.0105 -0.353769,-0.012 -0.530728,-0.0117 -0.239242,-0.004 -0.47784,0.007 -0.715894,0.0298 -0.234659,0.0237 -0.468373,0.0546 -0.699971,0.0992 -0.165481,0.0342 -0.329213,0.0766 -0.490447,0.12706 -0.05101,0.0139 -0.100897,0.0308 -0.150315,0.0492 0.01304,-0.007 -0.02957,0.004 -0.04401,0.008 -0.0069,-0.004 -0.02077,-0.0489 -0.03876,-0.0772 -0.164627,0.10106 -0.307547,-0.13176 -0.14292,-0.23282 v 0 c -0.01966,-0.0658 -0.0066,-0.0972 0.05137,-0.1334 0.07379,-0.0297 -0.04569,0.0111 0.03349,-0.0254 0.06365,-0.0282 0.129831,-0.0483 0.196935,-0.0668 0.176284,-0.0513 0.35524,-0.0926 0.535363,-0.12799 0.244901,-0.0437 0.491762,-0.075 0.739561,-0.0971 0.251595,-0.0191 0.503475,-0.0291 0.755816,-0.0187 0.185296,0.005 0.370962,0.007 0.555517,0.0255 0.107582,0.0121 0.215921,0.019 0.322299,0.0401 0.297723,0.0515 -0.133791,-0.0414 -0.04222,0.28782 0.03879,0.0301 -0.02574,-0.0681 -0.02869,-0.0878 -0.01593,-0.0449 -0.02934,-0.0901 -0.05139,-0.13258 -0.03009,-0.0603 -0.0522,-0.12247 -0.06249,-0.18945 -0.02294,-0.11032 -0.04287,-0.22121 -0.0645,-0.33179 -0.03604,-0.19592 -0.07171,-0.39193 -0.09718,-0.58957 -0.03854,-0.28028 -0.08328,-0.55958 -0.124481,-0.83946 -0.04357,-0.29109 -0.08348,-0.5828 -0.136244,-0.87243 -0.033,-0.19807 -0.08026,-0.39882 -0.0558,-0.60056 0.274024,0.13345 0.430972,0.1358 0.215146,0.17252 -0.06786,0.004 -0.134014,-0.002 -0.200536,-0.0158 -0.05898,-0.0107 -0.116469,-0.0278 -0.175628,-0.0372 -0.09591,-0.005 -0.191166,0.0124 -0.286541,0.0197 -0.243165,0.026 -0.487357,0.04 -0.730697,0.0642 -0.498509,0.0488 -0.995444,0.11221 -1.49126,0.18319 -0.318421,0.0166 -0.341876,-0.43373 -0.02347,-0.45031 z"
       inkscape:connector-curvature="0" />
    <path
       style="opacity:1;fill:#000000;fill-opacity:1;stroke:none;stroke-width:0.52916664;stroke-linecap:round;stroke-miterlimit:4;stroke-dasharray:none;stroke-opacity:1"
       id="path4514"
       d="m 49.754204,275.98471 c -0.360191,0.0811 -0.725602,0.15392 -1.068957,0.29293 -0.056,-0.004 -0.171532,0.13102 -0.06746,0.0493 0.07598,-0.079 0.0024,-0.16407 0.01842,-0.1294 0.03676,0.0552 0.08986,0.0967 0.138912,0.14036 0.100851,0.083 0.20606,0.16028 0.30716,0.24298 0.111553,0.0979 0.226046,0.19233 0.339725,0.28775 0.09778,0.0837 0.189672,0.17402 0.277309,0.26821 0.08004,0.0864 0.135909,0.18896 0.184746,0.29507 0.06802,0.14503 0.04727,0.29056 -0.02154,0.43506 -0.0616,0.11572 -0.156057,0.20833 -0.251905,0.29581 -0.124079,0.11281 -0.28239,0.1587 -0.442092,0.1944 -0.161269,0.0394 -0.325448,0.0335 -0.487797,0.007 -0.165473,-0.0291 -0.318457,-0.0992 -0.464023,-0.18061 -0.115462,-0.06 -0.168161,-0.14484 -0.194958,-0.26643 0.0039,-0.14565 -0.01987,-0.0682 0.137871,-0.20028 0.0098,-0.0113 0.0258,0.003 0.01601,0.0138 v 0 c 0.08774,0.003 0.06578,0.0254 0.08393,-0.0439 0.04349,-0.0629 0.139801,0.004 0.189096,0.0293 0.104425,0.0555 0.211521,0.10977 0.328019,0.1346 0.109673,0.0206 0.218864,0.0274 0.329399,0.006 0.08959,-0.0144 0.174093,-0.0324 0.242514,-0.0965 0.05385,-0.0476 0.108315,-0.0966 0.131911,-0.16667 0.02175,-0.087 -0.02975,0.17557 0.0039,0.0717 -0.02104,-0.0695 -0.04949,-0.13753 -0.09787,-0.19281 -0.07,-0.085 -0.1525,-0.1591 -0.233516,-0.23332 -0.112657,-0.0956 -0.227727,-0.18831 -0.337582,-0.28719 -0.10437,-0.0865 -0.214061,-0.16589 -0.319074,-0.25149 -0.07022,-0.0623 -0.145367,-0.12121 -0.202517,-0.19636 -0.101116,-0.1342 -0.126762,-0.24198 -0.07539,-0.41471 0.07669,-0.13522 0.202157,-0.20701 0.344133,-0.26354 0.367321,-0.13697 0.75099,-0.22113 1.13276,-0.30714 0.329983,-0.0416 0.3888,0.42507 0.05882,0.46666 z"
       inkscape:connector-curvature="0" />
    <path
       style="opacity:1;fill:#000000;fill-opacity:1;stroke:none;stroke-width:0.52916664;stroke-linecap:round;stroke-miterlimit:4;stroke-dasharray:none;stroke-opacity:1"
       id="path4518"
       d="m 103.72716,269.64118 c -0.43921,0.0682 -0.87674,0.15938 -1.29331,0.31663 -0.20374,0.0677 -0.23333,0.24964 -0.1346,-0.006 -0.0263,-0.0488 0.0734,0.0525 0.0851,0.0625 0.0678,0.0578 0.11939,0.13132 0.18652,0.18957 0.0517,0.0413 0.10706,0.0778 0.15871,0.11912 0.0656,0.0571 0.10894,0.1284 0.13835,0.20914 0.029,0.11358 -0.005,0.22363 -0.0446,0.3296 -0.051,0.1323 -0.12924,0.24672 -0.2163,0.35665 -0.10313,0.12194 -0.22386,0.22687 -0.33973,0.33621 -0.0982,0.0867 -0.19559,0.17441 -0.27817,0.2763 -0.0481,0.0688 -0.10219,0.13354 -0.14792,0.20392 -0.0297,0.0593 -0.0662,0.11326 -0.11058,0.16252 -0.0403,0.0457 -0.0932,0.0772 -0.13872,0.11602 -0.0329,0.0382 -0.066,0.0753 -0.10063,0.11212 -0.0305,0.0314 -0.0515,0.0725 -0.0736,0.11069 -0.0332,0.0498 -0.0614,0.1027 -0.0931,0.15354 -0.0398,0.0552 -0.0827,0.10944 -0.13376,0.15479 -0.0607,0.0569 -0.0964,0.0594 -0.1882,0.0867 0.0194,-0.004 0.0311,0.0104 0.0402,0.0151 0.12646,-0.10442 -0.096,-0.37748 0.0783,-0.27715 0.0668,0.008 0.13621,0.0169 0.20378,0.0267 0.11057,0.0171 0.22247,0.0163 0.33388,0.0111 0.13205,-0.008 0.26402,-0.0163 0.39607,-0.0239 0.14248,-0.005 0.28438,-0.0147 0.42532,-0.0365 0.11653,-0.015 0.23023,-0.0441 0.34103,-0.0826 0.0796,-0.032 0.15971,-0.051 0.2455,-0.0516 0.0871,0.002 0.16634,0.0414 0.24625,0.072 0.0816,0.0313 0.16551,0.055 0.2496,0.0783 0.0722,0.0184 0.14633,0.0279 0.22053,0.0332 0.0803,0.007 0.15069,0.0381 0.21694,0.0824 0.052,0.0403 0.0974,0.0885 0.14464,0.13418 0.0568,0.0534 0.10897,0.11132 0.16055,0.16969 0.0204,0.0289 0.043,0.046 0.074,0.0584 0.034,0.0134 0.068,0.0133 0.10375,0.0126 0.0575,0.002 0.11401,-0.002 0.1702,-0.014 0.0786,-0.023 0.15754,-0.0455 0.23386,-0.0754 0.0638,-0.0297 0.12082,-0.0713 0.18288,-0.10418 0.0342,-0.0192 0.0685,-0.0279 0.087,-0.0634 0.0323,-0.0387 0.0534,-0.0843 0.0711,-0.13126 0.0339,-0.0758 0.0731,-0.14887 0.11216,-0.22206 0.028,-0.0617 0.0631,-0.11849 0.10364,-0.17263 0.0521,-0.11261 -0.0399,0.0775 0.006,-0.0183 0.0174,-0.0429 0.0301,-0.0875 0.0469,-0.13063 0.0103,-0.0261 0.0137,-0.0517 0.0144,-0.0793 0.002,-0.0155 -0.005,-0.02 -0.0109,-0.0322 -0.0153,-0.0129 -0.0382,-0.0151 -0.0583,-0.0195 -0.0645,-0.0151 -0.13051,-0.0196 -0.19593,-0.0284 -0.064,-0.01 -0.1272,-0.0197 -0.18851,-0.0406 -0.0709,-0.0218 -0.1197,-0.0836 -0.14403,-0.15352 -0.0196,-0.038 -0.0495,-0.07 -0.0779,-0.10162 -0.0472,-0.0508 -0.0954,-0.10037 -0.14004,-0.15351 -0.0374,-0.0418 -0.0675,-0.0887 -0.0925,-0.13867 -0.0503,-0.0836 -0.0393,-0.16774 -0.0136,-0.25573 0.0339,-0.10624 0.0894,-0.20092 0.15085,-0.29277 0.0446,-0.0568 0.0961,-0.10581 0.13813,-0.16462 0.0269,-0.0558 0.0639,-0.10547 0.0955,-0.1585 0.0363,-0.064 0.0815,-0.12252 0.12681,-0.18041 0.0389,-0.0582 0.0819,-0.11003 0.13245,-0.15834 0.0327,-0.0304 0.0473,-0.0692 0.0667,-0.10787 -0.082,0.1767 -0.0283,0.0407 -0.007,-0.002 0.0147,-0.0269 0.0262,-0.052 0.0335,-0.0819 0.006,-0.0213 0.0112,-0.003 0.0163,-0.004 0.006,0.0198 0.0487,0.0431 0.008,0.027 -0.0338,-0.004 -0.0664,-0.0156 -0.0987,-0.0275 -0.035,-0.0151 -0.0723,-0.0237 -0.10844,-0.0355 -0.0399,-0.009 -0.0792,-0.021 -0.11814,-0.0338 -0.0448,-0.0126 -0.0855,-0.0357 -0.12508,-0.0596 -0.0395,-0.0262 -0.0711,-0.0615 -0.10664,-0.0924 -0.0195,-0.0145 -0.042,-0.0206 -0.0649,-0.0276 -0.0472,-0.008 -0.0902,-0.0289 -0.13299,-0.0491 0.0405,0.0343 -0.0663,-0.002 -0.0927,-0.009 -0.0391,-0.0127 -0.0807,-0.0164 -0.12164,-0.02 -0.0487,0.001 -0.097,0.008 -0.14582,0.0104 -0.0611,-0.002 -0.12082,0.0121 -0.18144,0.0168 -0.0719,0.003 -0.14355,-0.007 -0.21388,-0.0213 -0.0618,-0.0128 -0.0408,-0.0858 -0.0407,-0.13699 -2.1e-4,-0.0243 -5.3e-4,-0.0486 -5.3e-4,-0.0729 -0.0806,-9e-4 -0.0793,-0.11495 0.001,-0.11404 v 0 c 0.003,-0.0245 0.007,-0.0491 0.01,-0.0736 0.0223,-0.0856 0.053,-0.13899 0.14921,-0.12046 0.0316,0.005 0.0635,0.0117 0.0957,0.009 0.0649,-0.007 0.12995,-0.0138 0.19542,-0.0133 0.0783,-0.004 0.15711,-0.006 0.23482,0.007 0.0694,0.0129 0.13942,0.0292 0.2031,0.0606 0.0285,0.0117 0.0893,0.0346 0.13055,0.0545 0.0249,0.0154 0.0423,0.0287 0.0839,0.038 0.0615,0.0266 0.12112,0.0563 0.17203,0.10079 0.0203,0.0173 0.0775,0.0619 0.0674,0.0722 0.0133,0.0106 0.0251,0.0218 0.0415,0.0275 0.0351,0.0143 0.0705,0.0275 0.10679,0.0385 0.0392,0.0131 0.0791,0.0245 0.11687,0.0414 0.043,0.0149 0.0887,0.022 0.12938,0.0435 0.0783,0.0398 0.15012,0.0877 0.18977,0.16976 0.0271,0.0702 0.0429,0.14604 0.0252,0.22103 -0.0124,0.0423 -0.02,0.0869 -0.0392,0.12689 -0.0302,0.077 -0.0723,0.14799 -0.10719,0.22384 -0.0379,0.0595 -0.083,0.11317 -0.13346,0.16244 -0.0351,0.041 -0.0615,0.0899 -0.0976,0.13065 -0.0375,0.0523 -0.0709,0.10719 -0.10474,0.16192 -0.0402,0.0608 -0.075,0.12534 -0.12205,0.18141 -0.0391,0.0471 -0.0847,0.0892 -0.11472,0.1432 -0.0871,0.1408 0.0379,-0.0741 -0.0253,0.0432 -0.0297,0.0596 -0.0228,0.003 -0.0537,-0.0299 0.0171,0.0296 0.03,0.0611 0.0534,0.0867 0.0366,0.0509 0.0801,0.0959 0.12074,0.14352 0.05,0.0567 0.0985,0.11552 0.13686,0.18095 0.0471,0.0925 0.0138,0.0315 -0.0528,-0.006 0.035,0.0121 0.0749,0.0202 0.11268,0.0259 0.079,0.0133 0.15822,0.026 0.23531,0.0485 0.0836,0.027 0.16537,0.062 0.22139,0.13314 0.0445,0.0565 0.0813,0.11783 0.0933,0.18986 0.01,0.0657 0.0109,0.13312 -0.005,0.19813 -0.0135,0.0543 -0.0361,0.10369 -0.0519,0.15728 -0.0287,0.0871 -0.0695,0.17051 -0.12228,0.24551 -0.0267,0.0477 -0.0493,0.0975 -0.075,0.14579 -0.0364,0.071 -0.0706,0.14297 -0.10379,0.21547 -0.0406,0.0738 -0.0859,0.14464 -0.14754,0.20297 -0.0493,0.0425 -0.10432,0.0749 -0.16148,0.10581 -0.0734,0.0467 -0.14776,0.0928 -0.22937,0.12413 -0.0916,0.0342 -0.18373,0.0679 -0.27784,0.0946 -0.0815,0.0186 -0.16387,0.0278 -0.24759,0.0259 -0.0759,-0.002 -0.15017,-0.0129 -0.2216,-0.0399 -0.0812,-0.0321 -0.15296,-0.0782 -0.21159,-0.14378 -0.0473,-0.052 -0.0955,-0.10327 -0.14657,-0.15164 -0.0349,-0.0339 -0.0706,-0.0673 -0.10412,-0.1022 -0.008,-0.005 -0.0166,-0.0161 -0.0447,-0.0127 -0.0956,-0.009 -0.19095,-0.0229 -0.28381,-0.0479 -0.0951,-0.0263 -0.18953,-0.0547 -0.28195,-0.0894 -0.0336,-0.0128 -0.0874,-0.0363 -0.11152,-0.0418 -0.0482,0.0146 -0.0957,0.0313 -0.1435,0.0473 -0.13108,0.041 -0.26454,0.0737 -0.40072,0.0929 -0.15072,0.0215 -0.30223,0.0335 -0.45435,0.0399 -0.13509,0.01 -0.27027,0.0188 -0.40553,0.0263 -0.13421,0.004 -0.2687,0.003 -0.40165,-0.0188 -0.1119,-0.0176 -0.22882,-0.0212 -0.33077,-0.076 -0.14354,-0.0846 -0.27297,-0.32173 -0.1306,-0.45337 0.0667,-0.0625 0.14233,-0.10586 0.23654,-0.11089 -0.0953,0.052 -0.0722,0.0446 -0.0465,0.0207 0.0272,-0.0304 0.0548,-0.0608 0.0762,-0.0956 0.0328,-0.0511 0.0637,-0.10336 0.098,-0.15351 0.0361,-0.0515 0.0718,-0.10288 0.11818,-0.14607 0.0425,-0.0469 0.0845,-0.0948 0.13432,-0.13424 0.033,-0.0244 0.0652,-0.0466 0.0876,-0.0815 0.0309,-0.0495 0.0591,-0.10068 0.0941,-0.14751 0.0566,-0.0753 0.11057,-0.15272 0.17283,-0.22359 0.0951,-0.10602 0.20126,-0.20095 0.30674,-0.29649 0.10302,-0.0969 0.20897,-0.19203 0.29572,-0.30435 0.0273,-0.0375 0.0522,-0.0739 0.075,-0.11422 0.006,-0.0115 0.0241,-0.0468 0.0195,-0.0344 -0.004,0.0122 -0.0565,0.11485 -0.0114,0.0255 0.0231,-0.04 0.0355,-0.0883 0.0663,-0.12193 -0.002,-0.015 -7.9e-4,-0.0323 -0.01,-0.0447 -0.0529,-0.0416 -0.10809,-0.0809 -0.16104,-0.12271 -0.0677,-0.0583 -0.12466,-0.12585 -0.18673,-0.18989 -0.0901,-0.079 -0.18678,-0.15081 -0.21807,-0.27369 0.0708,-0.32214 0.13147,-0.3329 0.42381,-0.4587 0.43931,-0.15777 0.89751,-0.24969 1.35808,-0.32131 0.27028,-0.0128 0.28832,0.36948 0.018,0.38223 z"
       inkscape:connector-curvature="0" />
    <path
       style="opacity:1;fill:#000000;fill-opacity:1;stroke:none;stroke-width:0.52916664;stroke-linecap:round;stroke-miterlimit:4;stroke-dasharray:none;stroke-opacity:1"
       id="path4520"
       d="m 49.364419,271.16679 c 0.587738,-0.33649 1.163514,-0.69295 1.747467,-1.03587 0.75668,-0.4403 1.513121,-0.88095 2.267974,-1.32437 0.819481,-0.49536 1.658544,-0.95561 2.518498,-1.37649 0.898877,-0.43412 1.831541,-0.79045 2.767271,-1.13543 1.099627,-0.39858 2.208806,-0.76959 3.323455,-1.12369 1.22527,-0.38276 2.464435,-0.71855 3.710401,-1.02651 1.140245,-0.28431 2.297527,-0.48833 3.459114,-0.66153 1.074606,-0.15739 2.154944,-0.27115 3.235987,-0.37337 1.077666,-0.10278 2.158497,-0.16381 3.239577,-0.21619 1.010999,-0.0484 2.023081,-0.063 3.035091,-0.0664 0.926576,-0.005 1.852607,0.0342 2.777048,0.0936 0.836837,0.054 1.668764,0.16088 2.497166,0.28845 0.723863,0.11545 1.43986,0.27325 2.155661,0.42975 0.695,0.15446 1.389341,0.31185 2.08347,0.47017 0.67121,0.15566 1.338897,0.32589 2.007327,0.49293 0.688232,0.17314 1.376225,0.34715 2.065623,0.5156 0.681345,0.16328 1.362438,0.32751 2.040486,0.50403 0.607478,0.15694 1.205846,0.34548 1.798399,0.55109 0.514837,0.18038 1.018204,0.39055 1.516891,0.6111 0.407413,0.18177 0.805613,0.38303 1.198808,0.59353 0.321138,0.17628 0.64225,0.35254 0.964039,0.52763 0.281198,0.1515 0.557228,0.31226 0.834968,0.46995 0.23196,0.12998 0.46493,0.25817 0.69317,0.39463 0.17625,0.10796 0.35073,0.21881 0.52615,0.32813 0.14878,0.091 0.29694,0.18238 0.43752,0.28567 0.12581,0.0948 0.23911,0.20451 0.35395,0.31197 0.0687,0.0675 0.13827,0.134 0.20663,0.20179 0.0463,0.046 0.0898,0.0946 0.13728,0.13931 0.032,0.0278 0.0666,0.0522 0.10078,0.0772 0.11097,0.0871 0.10328,0.0837 -0.0414,0.0394 0.29951,0.0114 0.28343,0.43495 -0.0161,0.42358 v 0 c -0.0705,0.0429 -0.16964,-0.0152 -0.21555,-0.0447 -0.0562,-0.0333 -0.11173,-0.0679 -0.16098,-0.11117 -0.0523,-0.0485 -0.10185,-0.0995 -0.15084,-0.15122 -0.0634,-0.0655 -0.13183,-0.12607 -0.19519,-0.19162 -0.10228,-0.0964 -0.20332,-0.19464 -0.31446,-0.28091 -0.13061,-0.0971 -0.27,-0.18077 -0.40824,-0.26648 -0.17299,-0.10812 -0.34515,-0.21758 -0.51875,-0.3247 -0.22651,-0.1332 -0.45653,-0.26011 -0.68561,-0.38881 -0.27537,-0.15661 -0.54896,-0.31644 -0.827772,-0.4669 -0.321329,-0.17503 -0.641858,-0.35146 -0.9623,-0.52811 -0.3854,-0.2043 -0.77343,-0.40374 -1.172136,-0.58118 -0.487066,-0.21572 -0.979559,-0.4195 -1.482191,-0.59648 -0.581856,-0.20195 -1.169421,-0.38705 -1.766326,-0.5398 -0.675685,-0.17479 -1.354342,-0.33737 -2.032477,-0.50233 -0.690488,-0.16674 -1.378214,-0.34449 -2.067602,-0.51569 -0.665064,-0.16809 -1.330391,-0.33551 -1.998353,-0.49173 -0.693078,-0.15929 -1.386932,-0.31527 -2.081241,-0.46911 -0.706845,-0.15559 -1.414566,-0.30996 -2.129483,-0.42436 -0.816322,-0.12576 -1.636189,-0.23004 -2.460927,-0.28192 -0.915194,-0.0572 -1.831512,-0.0955 -2.748722,-0.0919 -1.005824,0.004 -2.011688,0.0191 -3.016551,0.0662 -1.07373,0.0506 -2.146904,0.11518 -3.217246,0.21594 -1.073463,0.10312 -2.146144,0.21758 -3.213339,0.37403 -1.147701,0.1731 -2.291304,0.37595 -3.418493,0.65557 -1.236239,0.30814 -2.466962,0.63917 -3.682537,1.02168 -1.108196,0.35296 -2.210324,0.72508 -3.302862,1.12409 -0.922118,0.33891 -1.841791,0.68945 -2.727852,1.11559 -0.849281,0.41764 -1.678183,0.87346 -2.489303,1.36131 -0.753388,0.4447 -1.511308,0.88154 -2.267942,1.32068 -0.585182,0.34145 -1.17285,0.67856 -1.759614,1.01729 -0.306113,0.11868 -0.473954,-0.31423 -0.167844,-0.43291 z"
       inkscape:connector-curvature="0" />
    <path
       style="opacity:1;fill:#000000;fill-opacity:1;stroke:none;stroke-width:0.52916664;stroke-linecap:round;stroke-miterlimit:4;stroke-dasharray:none;stroke-opacity:1"
       id="path4522"
       d="m 68.207832,273.72102 c 0.55476,0.0469 1.111176,0.0664 1.667762,0.068 0.453244,0.003 0.905833,-0.0221 1.35817,-0.0473 0.424018,-0.0253 0.848635,-0.0367 1.273296,-0.0433 0.435473,-0.005 0.870998,-0.003 1.306473,10e-4 0.416846,0.003 0.83367,0.01 1.250527,0.0116 0.439626,0.007 0.879086,0.0176 1.318781,0.0138 0.412057,-0.007 0.824137,5.3e-4 1.236197,-0.004 0.359722,-9.8e-4 0.717976,-0.0329 1.075973,-0.0643 0.279709,-0.0232 0.559628,-0.043 0.838935,-0.0708 0.193376,-0.0239 0.387459,-0.0378 0.582266,-0.0383 0.133956,-10e-4 0.266782,0.0159 0.399098,0.0345 0.0717,0.0108 0.144383,0.008 0.21627,0.0158 0.03298,0.002 0.06085,0.0166 0.08932,0.0312 0.03593,0.0135 0.05143,0.0356 0.05839,0.0697 0.07662,0.0923 -0.01892,-0.0112 0.02556,0.0152 0.01312,-0.007 0.02331,0.0113 0.01019,0.0186 v 0 c -0.0026,0.004 -0.0052,0.008 -0.0079,0.0115 -0.0016,0.0107 -0.003,0.0214 -0.0044,0.0322 -0.01662,0.04 -0.05364,0.0571 -0.08296,0.0871 -0.03854,0.0194 -0.07813,0.0316 -0.122439,0.031 -0.07832,0.002 -0.156771,-1.4e-4 -0.234685,-0.009 -0.121037,-0.0123 -0.242504,-0.0184 -0.364146,-0.0111 -0.187315,0.007 -0.373595,0.0263 -0.559597,0.0493 -0.280363,0.0292 -0.561419,0.0495 -0.842253,0.0735 -0.365202,0.0337 -0.730718,0.0681 -1.097653,0.0751 -0.413023,0.009 -0.826122,0.006 -1.239192,0.0118 -0.441193,0.003 -0.882134,-0.008 -1.32329,-0.0117 -0.416779,-0.004 -0.833583,-0.008 -1.250384,-0.007 -0.433607,0.002 -0.867193,0.006 -1.30072,0.015 -0.420722,0.01 -0.841354,0.0241 -1.261531,0.0482 -0.458785,0.0263 -0.91789,0.0493 -1.377619,0.0462 -0.564232,-0.006 -1.127866,-0.028 -1.690632,-0.0702 -0.271256,-0.0369 -0.219057,-0.42053 0.0522,-0.38362 z"
       inkscape:connector-curvature="0" />
    <path
       style="opacity:1;fill:#000000;fill-opacity:1;stroke:none;stroke-width:0.52916664;stroke-linecap:round;stroke-miterlimit:4;stroke-dasharray:none;stroke-opacity:1"
       id="path4524"
       d="m 79.442551,272.47336 c 0.447813,0.21216 0.897493,0.42068 1.353122,0.61557 0.221366,0.0914 0.441404,0.18586 0.647284,0.30878 0.12032,0.0669 0.209751,0.16045 0.261618,0.28764 0.05839,0.17408 -0.01524,0.324 -0.129413,0.45911 -0.125545,0.13775 -0.288605,0.23176 -0.448215,0.32425 -0.252614,0.13596 -0.516162,0.24975 -0.783066,0.35429 -0.246811,0.0987 -0.503359,0.16809 -0.760264,0.23437 -0.105776,0.0224 -0.224484,0.0648 -0.328526,0.016 0.109273,-0.13609 0.06583,-0.35492 0.143164,-0.1537 0.01259,0.008 0.0011,0.0259 -0.01146,0.0178 v 0 c -0.196048,-0.005 -0.272436,-0.21083 -0.07664,-0.33421 0.05192,-0.0477 0.141918,-0.0323 0.206841,-0.0597 0.241051,-0.0589 0.481161,-0.12306 0.71741,-0.19908 0.250383,-0.0871 0.500729,-0.17691 0.736618,-0.29904 0.119121,-0.063 0.246365,-0.12393 0.335161,-0.22852 0.06465,-0.0927 -0.06629,0.0913 0.02429,0.0431 0.0094,-0.057 -0.05237,-0.0794 -0.09271,-0.10733 -0.193283,-0.11465 -0.402449,-0.19763 -0.609234,-0.28434 -0.459918,-0.19658 -0.913744,-0.40666 -1.367312,-0.61742 -0.267033,-0.1282 -0.08573,-0.50584 0.181304,-0.37764 z"
       inkscape:connector-curvature="0" />
    <path
       style="opacity:1;fill:#000000;fill-opacity:1;stroke:none;stroke-width:0.52916664;stroke-linecap:round;stroke-miterlimit:4;stroke-dasharray:none;stroke-opacity:1"
       id="path4530"
       d="m 72.278606,278.26564 c 0.511487,-0.12579 0.986663,-0.34677 1.42957,-0.62784 0.323816,-0.21708 0.618088,-0.47446 0.893246,-0.74973 0.185071,-0.185 0.32338,-0.40292 0.424842,-0.64259 0.06074,-0.18076 0.07602,-0.36729 0.07367,-0.55654 -0.0079,-0.14034 -0.02503,-0.28141 -0.07575,-0.41324 -0.0016,-0.005 -0.01254,0.005 -0.0123,0.0108 -0.0381,0.002 -0.05778,0.0126 -0.08069,0.0408 -0.06996,0.089 -0.124717,0.1901 -0.18152,0.288 -0.112348,0.19476 -0.21031,0.39693 -0.301824,0.60214 -0.122214,0.26975 -0.236974,0.5427 -0.346488,0.81782 -0.14682,0.36958 -0.275592,0.74547 -0.382569,1.12841 -0.110474,0.41356 -0.188446,0.83481 -0.270192,1.25472 -0.07964,0.42375 -0.17775,0.84338 -0.289825,1.25963 -0.10256,0.36512 -0.227393,0.72306 -0.366162,1.07583 -0.09193,0.20929 -0.171495,0.4258 -0.277812,0.62863 -0.09862,0.1668 -0.181142,-0.11043 -0.142889,-0.22344 0.0013,-0.0149 0.02231,-0.0132 0.02109,0.002 v 0 c -0.05602,0.16347 -0.2257,0.0804 -0.18383,-0.0209 0.05762,-0.14882 0.13313,-0.29026 0.192953,-0.43822 0.140321,-0.33959 0.263353,-0.68592 0.365479,-1.039 0.117054,-0.40605 0.20932,-0.81827 0.291449,-1.23273 0.08341,-0.42866 0.160798,-0.85903 0.270656,-1.28194 0.107844,-0.3952 0.238593,-0.78326 0.390054,-1.16399 0.135731,-0.33802 0.283252,-0.67091 0.436298,-1.00142 0.100753,-0.21422 0.205203,-0.42719 0.334899,-0.62577 0.08299,-0.12791 0.166833,-0.25977 0.296915,-0.34503 0.08463,-0.0452 0.172839,-0.0748 0.269677,-0.0552 0.110783,0.02 0.201506,0.0731 0.239927,0.18486 0.04889,0.15795 0.06078,0.32595 0.0777,0.48957 0.0089,0.27072 -0.01471,0.53773 -0.128156,0.78785 -0.119912,0.2627 -0.279527,0.50146 -0.483299,0.70754 -0.286874,0.29166 -0.59391,0.56395 -0.934452,0.79216 -0.468226,0.29366 -0.968725,0.52239 -1.506824,0.65748 -0.219456,0.031 -0.263276,-0.27937 -0.04382,-0.31036 z"
       inkscape:connector-curvature="0" />
    <path
       style="opacity:1;fill:#000000;fill-opacity:1;stroke:none;stroke-width:0.52916664;stroke-linecap:round;stroke-miterlimit:4;stroke-dasharray:none;stroke-opacity:1"
       id="path4532"
       d="m 72.311729,279.72053 c 0.485587,-0.0757 0.973116,-0.13775 1.460778,-0.19825 0.25256,-0.0316 0.504547,-0.0675 0.756904,-0.0224 0.140986,0.0426 0.06922,0.0218 0.21532,0.0621 0.01474,-0.003 0.01841,0.0183 0.0037,0.0208 v 0 c -0.128389,0.11904 -0.06227,0.0637 -0.197908,0.16666 -0.238874,0.12177 -0.500184,0.13975 -0.764151,0.16507 -0.484357,0.0567 -0.96855,0.11629 -1.449721,0.19616 -0.275923,0.0176 -0.30081,-0.37262 -0.0249,-0.39022 z"
       inkscape:connector-curvature="0" />
    <path
       style="opacity:1;fill:#000000;fill-opacity:1;stroke:none;stroke-width:0.52916664;stroke-linecap:round;stroke-miterlimit:4;stroke-dasharray:none;stroke-opacity:1"
       id="path4534"
       d="m 100.53858,275.02562 c 0.47005,-9.8e-4 0.93607,-0.066 1.38006,-0.22078 0.21423,-0.0837 0.42181,-0.19266 0.57046,-0.37172 0.0606,-0.12268 0.0409,-0.0413 0.0666,-0.19034 0.0136,-0.0794 -0.004,-0.15503 -0.0255,-0.23086 -0.0156,-0.0584 -0.0378,-0.11377 -0.0699,-0.16497 -0.0248,-0.0424 -0.0496,-0.0468 -0.003,-0.0108 0.0447,0.0283 0.091,0.0173 0.13581,0.006 -0.0437,0.0753 -0.0945,0.14655 -0.13928,0.22139 -0.0942,0.15984 -0.18316,0.32259 -0.26958,0.48674 -0.11229,0.22464 -0.24321,0.44029 -0.34913,0.66809 -0.17031,0.32748 -0.34016,0.65521 -0.49829,0.98877 -0.10403,0.22877 -0.2085,0.45736 -0.31054,0.68704 -0.0782,0.16966 -0.14734,0.34306 -0.20792,0.51972 -0.0402,0.13118 -0.0916,0.25835 -0.14106,0.38619 -0.0251,0.0754 -0.0762,0.1076 -0.15069,0.12291 -0.008,0.1004 -0.15035,0.0886 -0.142,-0.0118 v 0 c -0.0812,-0.004 -0.1018,-0.0492 -0.0873,-0.12815 0.0248,-0.13797 0.0621,-0.27249 0.10776,-0.40508 0.0598,-0.18865 0.12991,-0.37358 0.21218,-0.55369 0.13041,-0.296 0.26698,-0.58929 0.40383,-0.88234 0.13405,-0.27485 0.2754,-0.546 0.4164,-0.81734 0.1509,-0.28094 0.30279,-0.56135 0.45808,-0.8399 0.0928,-0.16874 0.18796,-0.33628 0.29191,-0.49847 0.0546,-0.0812 0.10718,-0.16482 0.1696,-0.2403 0.0711,-0.0665 0.15605,-0.0826 0.24554,-0.0456 0.0618,0.0359 0.10601,0.0828 0.13397,0.14916 0.0402,0.0718 0.0772,0.14575 0.0987,0.22562 0.0339,0.11226 0.0654,0.22644 0.0525,0.34514 -0.0183,0.17989 -0.0824,0.34878 -0.20705,0.4836 -0.19486,0.19782 -0.43381,0.33869 -0.69196,0.43978 -0.47626,0.16438 -0.97113,0.24497 -1.47584,0.24809 -0.25913,-0.0178 -0.2339,-0.38431 0.0252,-0.36647 z"
       inkscape:connector-curvature="0" />
    <path
       style="opacity:1;fill:#000000;fill-opacity:1;stroke:none;stroke-width:0.52916664;stroke-linecap:round;stroke-miterlimit:4;stroke-dasharray:none;stroke-opacity:1"
       id="path4536"
       d="m 100.66607,276.09744 c 0.44732,-0.0144 0.89324,-0.0589 1.34085,-0.0643 0.16254,-0.0111 0.31226,0.0281 0.46105,0.0874 0.0147,-0.003 0.0184,0.0183 0.004,0.0209 v 0 c -0.12605,0.1425 -0.27355,0.23303 -0.46568,0.26139 -0.44819,0.0689 -0.90301,0.0747 -1.35487,0.10409 -0.28955,-0.0106 -0.27453,-0.4201 0.015,-0.40948 z"
       inkscape:connector-curvature="0" />
    <path
       style="opacity:1;fill:#000000;fill-opacity:1;stroke:none;stroke-width:0.52916664;stroke-linecap:round;stroke-miterlimit:4;stroke-dasharray:none;stroke-opacity:1"
       id="path4540"
       d="m 104.75874,275.66781 c -0.41358,-10e-4 -0.82735,-0.003 -1.24083,0.007 -0.11959,-0.002 -0.23033,0.0212 -0.33866,0.0685 -0.0537,0.024 -0.0973,0.0617 -0.1425,0.0982 -0.0419,0.0274 -0.0749,0.0634 -0.10863,0.0996 0.006,0.0435 0.0718,-0.10626 0.034,-0.15993 0.0314,0.0202 0.0756,0.0476 0.11122,0.0697 0.0669,0.0421 0.13484,0.0825 0.20186,0.12436 0.0785,0.0494 0.15894,0.0958 0.2381,0.14412 0.0739,0.0487 0.14801,0.0971 0.21971,0.14908 0.0625,0.0483 0.12497,0.0965 0.18782,0.14429 0.076,0.0544 0.13965,0.12322 0.20573,0.18875 0.0681,0.0644 0.12409,0.13803 0.17399,0.21692 0.0492,0.0795 0.0794,0.16669 0.0943,0.25849 0.0194,0.14852 -0.0669,0.27059 -0.15694,0.37973 -0.0928,0.10788 -0.20122,0.19762 -0.31998,0.27517 -0.1268,0.0816 -0.25667,0.15728 -0.39415,0.21933 -0.15813,0.0782 -0.32419,0.104 -0.49863,0.1 -0.2134,-0.0105 -0.41514,-0.0776 -0.61229,-0.1547 -0.17968,-0.073 -0.35141,-0.16367 -0.51926,-0.2604 -0.0825,-0.0596 -0.19299,-0.10256 -0.25264,-0.18891 -0.007,-0.0309 -0.007,-0.0601 -0.0127,-0.0918 -0.16564,-0.13705 0.0282,-0.37131 0.19383,-0.23426 v 0 c 0.0105,-0.037 0.0216,-0.0381 0.0596,-0.0385 0.0899,0.0285 0.15399,0.108 0.23829,0.14877 0.15167,0.0899 0.3079,0.17192 0.46793,0.24598 0.15318,0.0653 0.30942,0.12931 0.47718,0.14337 0.11899,0.004 0.23308,-0.0187 0.34201,-0.0682 0.11881,-0.0542 0.23363,-0.11638 0.34169,-0.19002 0.0879,-0.0634 0.16949,-0.13509 0.2393,-0.21832 0.0981,-0.124 -0.0492,0.0577 0.0255,0.0194 0.007,-0.0415 -0.002,-0.0784 -0.0224,-0.117 -0.0334,-0.0592 -0.0689,-0.11457 -0.12068,-0.16 -0.0546,-0.0554 -0.10673,-0.1139 -0.16885,-0.16116 -0.0628,-0.0464 -0.12377,-0.0952 -0.1862,-0.142 -0.064,-0.0482 -0.13099,-0.092 -0.19795,-0.13595 -0.0774,-0.0492 -0.15784,-0.0934 -0.23519,-0.14278 -0.0696,-0.0411 -0.13778,-0.0843 -0.20639,-0.12687 -0.0624,-0.0399 -0.12767,-0.0767 -0.18291,-0.12651 -0.10323,-0.12528 -0.12425,-0.29509 0.008,-0.42339 0.0454,-0.0505 0.0984,-0.0923 0.15248,-0.1331 0.0705,-0.0536 0.14637,-0.0991 0.22877,-0.1323 0.14681,-0.0551 0.29921,-0.0798 0.45644,-0.0793 0.41586,-0.007 0.83184,-0.003 1.24773,-0.007 0.27626,0.0196 0.24856,0.41028 -0.0277,0.39069 z"
       inkscape:connector-curvature="0" />
    <path
       style="opacity:1;fill:#000000;fill-opacity:1;stroke:none;stroke-width:0.52916664;stroke-linecap:round;stroke-miterlimit:4;stroke-dasharray:none;stroke-opacity:1"
       id="path4542"
       d="m 60.368808,261.86215 c 0.499972,-0.28888 0.970351,-0.62456 1.410208,-0.99797 0.327266,-0.27754 0.605552,-0.60438 0.871614,-0.93924 0.162631,-0.20612 0.317926,-0.41854 0.442143,-0.65023 0.07215,-0.18702 0.04377,-0.075 0.03035,0.0866 -0.02127,0.0463 -0.07062,0.0815 -0.105821,0.11931 -0.07609,0.0976 -0.138297,0.2051 -0.195714,0.31444 -0.09413,0.18916 -0.187384,0.37852 -0.267796,0.57398 -0.07755,0.20357 -0.149254,0.40928 -0.198985,0.6215 -0.02141,0.111 -0.0451,0.22451 -0.05678,0.34365 -0.0105,0.0616 0.0232,0.108 -0.04061,0.0556 -0.04783,-0.0126 0.06299,-0.0171 0.07964,-0.0217 0.117692,-0.0353 0.224422,-0.0907 0.325128,-0.16018 0.145103,-0.10727 0.286295,-0.21964 0.420539,-0.34023 0.166394,-0.15598 0.315926,-0.32865 0.469927,-0.49658 0.141256,-0.14999 0.282122,-0.30027 0.415623,-0.45725 0.07161,-0.0836 0.12486,-0.18036 0.20692,-0.25454 0.113398,-0.0807 0.228209,-0.0435 0.28266,0.086 0.03313,0.13073 0.02677,0.26789 0.01984,0.40143 -0.01775,0.22594 -0.0654,0.44754 -0.127035,0.66517 -0.03985,0.11821 -0.07429,0.2381 -0.111154,0.35723 -0.03641,0.10788 -0.05019,0.14628 -0.126182,-0.1675 -0.0094,-0.0387 0.06155,-0.0507 0.09087,-0.0777 0.146782,-0.14782 0.300106,-0.28887 0.450373,-0.43309 0.185349,-0.17436 0.374576,-0.34448 0.558935,-0.5199 0.15213,-0.14904 0.295429,-0.30663 0.43974,-0.46315 0.0693,-0.069 0.122812,-0.15089 0.188127,-0.2231 0.248436,-0.15597 0.222094,0.2671 0.209471,0.35869 -0.02614,0.14839 -0.04478,0.29767 -0.05816,0.4477 -0.0131,0.17687 -0.01918,0.35414 -0.02706,0.53129 -0.0013,0.14455 -0.01894,0.28977 -0.0078,0.43421 0.01037,0.0536 0.0092,0.0498 0.0546,0.0286 0.162555,-0.0847 0.290809,-0.22045 0.41211,-0.35494 0.188841,-0.21171 0.355962,-0.44114 0.521295,-0.67127 0.140904,-0.20702 0.294182,-0.40457 0.455141,-0.59623 0.08359,-0.1066 0.177486,-0.20154 0.291775,-0.27429 0.09556,-0.0604 0.1807,-0.0428 0.261522,0.0305 0.07394,0.0911 0.116578,0.20271 0.162462,0.30957 0.0091,0.0439 0.07716,0.16098 0.0787,0.1631 -0.258736,0.0766 -0.130699,-0.0218 -0.268121,-0.18283 -0.06209,-0.0675 -0.134077,-0.11185 -0.225904,-0.11713 -0.136522,0.0127 -0.244271,0.10538 -0.344434,0.19069 -0.192019,0.17727 -0.335926,0.3971 -0.473745,0.61705 -0.14534,0.24639 -0.284763,0.49672 -0.408963,0.75449 -0.03755,0.0291 -0.08692,0.29206 -0.07446,0.15869 0.07571,-0.0253 0.186172,-0.071 0.267872,-0.10957 0.277032,-0.13992 0.537951,-0.30886 0.796362,-0.48003 0.29551,-0.19243 0.575545,-0.40474 0.833588,-0.64495 0.274278,-0.27405 0.508484,-0.58306 0.719275,-0.90747 0.214125,-0.3382 0.363016,-0.71031 0.495967,-1.08615 0.10124,-0.30078 0.187317,-0.60645 0.261189,-0.91503 0.02066,-0.0951 0.02782,-0.19553 0.07051,-0.28416 0.416603,-0.10381 0.0086,0.41869 -0.01955,0.4666 -0.12369,0.23126 -0.221859,0.47493 -0.318723,0.71828 -0.141099,0.35206 -0.266311,0.71008 -0.380716,1.0716 -0.08773,0.29835 -0.182499,0.59671 -0.235416,0.90376 -0.03644,0.20148 -0.06414,0.40492 -0.07303,0.60958 -1.2e-4,0.0478 -0.0039,0.0987 0.01709,0.14251 0.05804,-0.0102 0.11226,-0.038 0.165248,-0.0634 0.144613,-0.0733 0.273005,-0.17242 0.39728,-0.27548 0.180107,-0.16014 0.328059,-0.35015 0.47186,-0.5423 0.177618,-0.24634 0.335595,-0.50553 0.49303,-0.76494 0.121941,-0.20642 0.249253,-0.40976 0.365842,-0.61929 0.11285,-0.19426 0.04318,-0.28924 0.197268,0.0964 -0.106696,0.17888 -0.188598,0.37016 -0.267023,0.5626 -0.104709,0.27095 -0.196397,0.54675 -0.281027,0.82456 -0.05978,0.19184 -0.106939,0.38623 -0.133144,0.58515 -0.0046,0.0463 -0.0013,0.0934 -0.0095,0.13916 0.09407,-0.005 0.167445,-0.0709 0.239732,-0.12501 0.190211,-0.14956 0.361325,-0.32035 0.527579,-0.49557 0.197956,-0.2149 0.370215,-0.45089 0.519885,-0.7014 0.106648,-0.18697 0.182991,-0.38788 0.235153,-0.59618 -0.02895,-0.13613 0.160936,-0.002 0.107686,0.0893 -0.06911,0.15222 -0.118774,0.31357 -0.150119,0.47769 -0.05301,0.25625 -0.112422,0.5112 -0.161126,0.76831 -0.03289,0.16375 -0.06013,0.32999 -0.04665,0.49727 0.0093,0.0608 0.0322,0.0925 0.09471,0.0845 0.171934,-0.0432 0.311542,-0.16246 0.446334,-0.27147 0.253783,-0.2066 0.457798,-0.4621 0.653137,-0.72232 0.201184,-0.27671 0.374499,-0.57182 0.550579,-0.86468 0.09814,-0.16008 0.19013,-0.3259 0.314415,-0.46765 0.07841,-0.0979 0.181399,-0.0869 0.258059,0.007 0.05891,0.10312 0.08751,0.22002 0.119594,0.33349 0.02027,0.0752 0.0382,0.15113 0.06996,0.22224 -0.262556,0.0725 -0.166224,-0.0124 -0.284829,-0.14293 -0.03971,-0.0438 -0.08668,-0.0706 -0.145505,-0.076 -0.04799,-8.7e-4 -0.08134,0.0265 -0.112932,0.0594 -0.09087,0.0894 -0.161171,0.19685 -0.230608,0.30299 -0.116478,0.17816 -0.206981,0.37114 -0.294293,0.56472 -0.06864,0.15332 -0.122817,0.31305 -0.156364,0.47677 -0.01656,0.10382 -0.03887,0.2112 -0.01773,0.31588 0.01535,0.0596 0.05351,0.0893 0.107799,0.11248 0.103997,0.0314 0.211934,0.009 0.31555,-0.0122 0.14949,-0.0367 0.297868,-0.0789 0.444175,-0.12676 0.177519,-0.0574 0.34273,-0.14418 0.504833,-0.23518 0.172156,-0.1087 0.353674,-0.20039 0.532921,-0.29637 0.13407,-0.0684 0.258852,-0.15323 0.376028,-0.24731 0.109413,-0.081 0.178412,-0.19339 0.243724,-0.31001 0.06225,-0.10608 0.10691,-0.22255 0.131802,-0.34056 0.02151,-0.10829 0.0217,-0.21729 -0.0086,-0.32343 -0.01003,-0.0506 -0.05841,-0.11895 -0.07945,-0.13957 0.04329,0.0294 -0.0231,0.0316 -0.04791,0.0482 -0.08288,0.0642 -0.147669,0.15188 -0.211272,0.23471 -0.08584,0.10837 -0.147802,0.23138 -0.202486,0.35753 -0.05185,0.11134 -0.0729,0.23029 -0.0922,0.34353 -0.02064,0.13404 -0.03314,0.2694 -0.03341,0.40504 -0.0024,0.0815 0.01617,0.15381 0.06555,0.21841 0.04914,0.0591 0.112951,0.0947 0.18509,0.11765 0.103621,0.0231 0.198146,-0.014 0.291737,-0.0548 0.198549,-0.10131 0.360312,-0.25853 0.52359,-0.40727 0.188624,-0.1816 0.364614,-0.37559 0.54787,-0.56247 0.103954,-0.10313 0.203721,-0.2113 0.318878,-0.30216 0.08016,-0.0602 0.171154,-0.089 0.269322,-0.10002 0.105659,-0.004 0.195482,0.0418 0.280572,0.099 0.07123,0.0499 0.133226,0.1112 0.200324,0.16624 0.03482,0.0299 0.07729,0.046 0.119571,0.0618 0.04482,0.004 0.0088,-0.002 -0.01752,-3.5e-4 -0.09584,0.0267 -0.04506,0.1468 -0.07643,0.0342 -0.01542,-0.0477 -0.03847,-0.0728 -0.08684,-0.0791 -0.0858,-0.002 -0.160026,0.0446 -0.229627,0.0892 -0.1574,0.1104 -0.28807,0.25233 -0.40744,0.40176 -0.120724,0.1656 -0.220294,0.34658 -0.300818,0.53486 -0.05031,0.13511 -0.04803,0.14487 -0.04523,0.21627 0.0033,0.0389 0.02519,0.0618 0.05435,0.0842 0.06124,0.0222 0.128093,0.0143 0.191336,0.006 0.140282,-0.0282 0.259686,-0.10688 0.375441,-0.18688 0.187632,-0.13929 0.357524,-0.30072 0.519613,-0.46854 0.202036,-0.20883 0.359354,-0.45378 0.504171,-0.70414 0.17784,-0.31808 0.301594,-0.66098 0.420447,-1.00421 0.136784,-0.41842 0.265631,-0.83942 0.388046,-1.26225 0.0722,-0.25392 0.150111,-0.50629 0.215082,-0.7622 -0.02474,-0.45106 0.348721,-0.0927 0.247457,0.12156 -0.05705,0.11971 -0.118835,0.23654 -0.171087,0.3585 -0.088,0.20837 -0.16841,0.4198 -0.24306,0.63328 -0.09641,0.28262 -0.181337,0.56898 -0.261022,0.85671 -0.06746,0.25879 -0.10492,0.52267 -0.127436,0.78868 -0.02424,0.28811 -0.0057,0.57557 0.0452,0.8595 0.03973,0.20157 0.116681,0.38603 0.252802,0.54014 0.125841,0.13343 0.274404,0.15147 0.447889,0.13495 0.308904,-0.0545 0.574241,-0.22571 0.829858,-0.39784 0.233219,-0.17855 0.492895,-0.31497 0.743164,-0.4668 0.01183,-0.009 0.02479,0.008 0.01294,0.0168 v 0 c -0.159155,0.28648 -0.318849,0.56758 -0.589505,0.76578 -0.296053,0.21609 -0.613566,0.40666 -0.983969,0.45546 -0.269635,0.0163 -0.513041,-0.0303 -0.711121,-0.22853 -0.179163,-0.19477 -0.296058,-0.42275 -0.35016,-0.68338 -0.06184,-0.30962 -0.08778,-0.62446 -0.06486,-0.94015 0.02596,-0.34821 0.07219,-0.69417 0.173676,-1.02959 0.08421,-0.29327 0.174503,-0.58485 0.276709,-0.8724 0.08114,-0.22054 0.166619,-0.43978 0.271547,-0.65031 0.06029,-0.11874 0.128818,-0.23289 0.187717,-0.35235 0.1213,-0.23696 0.369358,0.23482 0.348167,-2.5e-4 -0.0031,-0.0344 -0.04405,0.16442 -0.03579,0.0973 -0.09131,0.29934 -0.176054,0.60063 -0.263002,0.90125 -0.122401,0.42767 -0.249973,0.85396 -0.389781,1.2763 -0.12342,0.35824 -0.257596,0.7143 -0.447823,1.04343 -0.158332,0.26569 -0.332203,0.52339 -0.54887,0.74576 -0.176401,0.17786 -0.358188,0.35176 -0.554803,0.50727 -0.151968,0.10325 -0.311221,0.19757 -0.496051,0.22553 -0.124672,0.014 -0.252071,0.0174 -0.366929,-0.0414 -0.09925,-0.0609 -0.176565,-0.14265 -0.20778,-0.25803 -0.0344,-0.1809 0.01754,-0.35731 0.09432,-0.52132 0.100693,-0.20362 0.214183,-0.40188 0.355267,-0.58057 0.142811,-0.16845 0.296656,-0.32981 0.484608,-0.44869 0.137594,-0.0785 0.283512,-0.14053 0.444487,-0.10106 0.121549,0.0439 0.215212,0.12054 0.261517,0.2445 0.04358,0.12525 0.05816,0.25283 -0.05549,0.35009 -0.06366,0.0299 -0.126344,0.0311 -0.193037,0.01 -0.07015,-0.0221 -0.13901,-0.0504 -0.19784,-0.0955 -0.06319,-0.0508 -0.121711,-0.10717 -0.186404,-0.15606 -0.03598,-0.0262 -0.07271,-0.0537 -0.118729,-0.056 -0.05295,0.008 -0.10023,0.0296 -0.141547,0.0641 -0.104886,0.0896 -0.197771,0.19244 -0.296233,0.28886 -0.18611,0.18977 -0.366077,0.38572 -0.559914,0.56777 -0.183343,0.16831 -0.369141,0.33983 -0.597884,0.44484 -0.146738,0.0573 -0.29559,0.0958 -0.452612,0.055 -0.117949,-0.0349 -0.228206,-0.084 -0.313889,-0.17564 -0.09012,-0.10386 -0.149796,-0.22088 -0.157487,-0.36078 -0.0059,-0.15023 0.0034,-0.30017 0.02463,-0.44906 0.0268,-0.19229 0.07087,-0.38271 0.155255,-0.55855 0.06815,-0.14183 0.148341,-0.27684 0.248346,-0.3989 0.09088,-0.1118 0.183282,-0.22878 0.314822,-0.29453 0.102704,-0.0397 0.205796,-0.0658 0.308004,-0.007 0.08521,0.0752 0.12254,0.17501 0.148471,0.28444 0.02992,0.1372 0.04258,0.27584 0.01749,0.41534 -0.04065,0.17952 -0.0952,0.35216 -0.194548,0.50916 -0.07978,0.13628 -0.169423,0.26494 -0.294224,0.36446 -0.126437,0.10645 -0.257961,0.20719 -0.406292,0.28183 -0.177792,0.0954 -0.355478,0.19062 -0.526915,0.2973 -0.174837,0.0998 -0.354116,0.19285 -0.546346,0.2549 -0.15531,0.0506 -0.312579,0.0957 -0.471342,0.13407 -0.149365,0.0293 -0.301535,0.0485 -0.450712,0.006 -0.124958,-0.0483 -0.227463,-0.11983 -0.276445,-0.25023 -0.04684,-0.14138 -0.04078,-0.285 -0.01558,-0.43096 0.04885,-0.23304 0.114549,-0.46039 0.21962,-0.6753 0.09553,-0.20393 0.199903,-0.40398 0.335963,-0.5844 0.0871,-0.11892 0.175125,-0.23856 0.288732,-0.33407 0.09517,-0.0687 0.197252,-0.11175 0.316346,-0.0822 0.09896,0.0326 0.188203,0.0847 0.250505,0.17056 0.04437,0.0647 0.307853,0.5635 -0.05167,0.43719 -0.05048,-0.0806 -0.07222,-0.17373 -0.09623,-0.26482 -0.02582,-0.0966 -0.0528,-0.19306 -0.08499,-0.28777 0.0028,-0.002 0.0948,-0.0482 0.02093,0.006 -0.115557,0.13744 -0.200909,0.29685 -0.295958,0.4484 -0.179332,0.29671 -0.357203,0.59463 -0.554275,0.88008 -0.199078,0.27784 -0.410599,0.54912 -0.66502,0.77912 -0.169415,0.14664 -0.350531,0.29683 -0.581345,0.3231 -0.167024,-0.009 -0.296029,-0.0828 -0.334238,-0.25607 -0.02788,-0.1901 -0.0027,-0.38068 0.03531,-0.56802 0.05586,-0.26011 0.125196,-0.51701 0.181031,-0.77714 0.05847,-0.22379 0.110101,-0.45663 0.235415,-0.65441 0.21472,-0.24707 0.361966,0.003 0.240475,0.19477 -0.06654,0.21974 -0.149119,0.43465 -0.266594,0.63286 -0.157628,0.26118 -0.337516,0.50828 -0.546727,0.73099 -0.173615,0.18284 -0.352703,0.36043 -0.549574,0.51855 -0.123291,0.0937 -0.251328,0.18334 -0.414277,0.16061 -0.162187,-0.0553 -0.194003,-0.18302 -0.176773,-0.34343 0.02669,-0.25365 0.09394,-0.50022 0.170219,-0.74301 0.09094,-0.28178 0.186346,-0.5623 0.296492,-0.83724 0.08383,-0.20274 0.172763,-0.40349 0.288761,-0.59036 0.291669,0.10608 0.248791,0.0287 0.141351,0.21728 -0.12224,0.20717 -0.246933,0.41285 -0.370236,0.61939 -0.160547,0.2642 -0.321837,0.52817 -0.498891,0.78177 -0.149394,0.2074 -0.308528,0.40839 -0.499559,0.57958 -0.135248,0.11793 -0.27594,0.23 -0.437185,0.31094 -0.120348,0.0592 -0.243398,0.11437 -0.377269,0.0629 -0.118293,-0.0705 -0.163629,-0.17927 -0.172657,-0.31473 -0.0079,-0.21961 0.01577,-0.43846 0.05451,-0.65457 0.07297,-0.36453 0.164341,-0.72466 0.280067,-1.0782 0.118311,-0.36643 0.247706,-0.72936 0.396505,-1.08464 0.106502,-0.25436 0.211031,-0.51217 0.354938,-0.74816 0.180425,-0.26134 0.144764,-0.31477 0.439806,-0.0858 0.0053,-0.10293 -0.04712,0.20902 -0.06176,0.22483 -0.08178,0.3131 -0.170174,0.62469 -0.276214,0.93055 -0.141452,0.38964 -0.300654,0.77436 -0.527143,1.12358 -0.224104,0.33474 -0.467648,0.65745 -0.756099,0.94017 -0.265076,0.25013 -0.553869,0.47073 -0.854914,0.67607 -0.264605,0.18355 -0.532524,0.3643 -0.821778,0.50741 -0.184157,0.0868 -0.390326,0.18501 -0.572923,0.0426 -0.12764,-0.17708 -0.03668,-0.3636 0.04943,-0.54177 0.130376,-0.26498 0.275143,-0.52287 0.440991,-0.76748 0.158896,-0.23299 0.324327,-0.46546 0.541687,-0.64836 0.152585,-0.11871 0.316214,-0.22923 0.5182,-0.21995 0.149873,0.0257 0.267533,0.0926 0.356923,0.21847 0.147497,0.22548 0.191513,0.28429 -0.01789,0.51281 -0.06741,-0.0611 -0.09459,-0.15287 -0.131244,-0.23399 -0.03718,-0.0912 -0.07654,-0.18226 -0.125325,-0.26797 -0.01556,-0.036 -0.0078,-0.046 -0.05382,-0.0183 -0.09957,0.0688 -0.179936,0.15743 -0.2554,0.25176 -0.156686,0.19037 -0.304229,0.38776 -0.438224,0.59492 -0.164611,0.24038 -0.327806,0.48243 -0.510117,0.70991 -0.142443,0.17066 -0.291901,0.34829 -0.50442,0.43165 -0.1637,0.035 -0.307245,-0.01 -0.361246,-0.18204 -0.03345,-0.15705 -0.02397,-0.31655 -0.01701,-0.47613 0.0077,-0.18081 0.01625,-0.3616 0.02929,-0.54212 0.01289,-0.15769 0.02762,-0.31567 0.06544,-0.46972 0.03254,-0.1582 0.0029,-0.20855 0.19268,-0.19204 -0.06742,0.0627 -0.11698,0.14355 -0.18333,0.20806 -0.144801,0.16122 -0.29287,0.31972 -0.445704,0.47336 -0.18243,0.17689 -0.370345,0.34802 -0.550219,0.52753 -0.149188,0.15169 -0.296556,0.3052 -0.446802,0.45578 -0.151532,0.12999 -0.408472,0.18809 -0.357923,-0.11069 0.03173,-0.12041 0.07514,-0.23735 0.109405,-0.35703 0.04373,-0.15709 0.08296,-0.31564 0.09949,-0.47831 0.01114,-0.10958 0.02191,-0.21928 0.02376,-0.32946 0.03304,0.003 0.06647,1.1e-4 0.09942,0.004 -0.06837,0.0761 -0.115769,0.16963 -0.187323,0.24346 -0.134556,0.15896 -0.275076,0.31269 -0.413221,0.46851 -0.155786,0.17999 -0.299029,0.37156 -0.470394,0.53741 -0.141444,0.13029 -0.287354,0.25595 -0.441164,0.37153 -0.12609,0.0856 -0.259408,0.15841 -0.406252,0.20212 -0.104698,0.0271 -0.211637,0.0494 -0.314134,0.002 -0.101077,-0.0741 -0.141685,-0.16565 -0.139539,-0.2915 0.0052,-0.19559 0.04797,-0.38758 0.09233,-0.57754 0.0617,-0.2244 0.13503,-0.44558 0.225611,-0.66012 0.09093,-0.20198 0.187523,-0.40187 0.300172,-0.59277 0.078,-0.12728 0.160896,-0.25404 0.278831,-0.34838 0.07894,-0.0638 0.15752,-0.13138 0.260398,-0.15058 0.23414,-0.006 0.324323,0.20836 0.179522,0.37436 -0.140237,0.23299 -0.297778,0.45472 -0.464529,0.66949 -0.271462,0.35284 -0.552966,0.69973 -0.882954,1.00042 -0.449088,0.38699 -0.928222,0.73551 -1.434976,1.04386 -0.207891,0.0929 -0.339254,-0.20111 -0.131363,-0.294 z"
       inkscape:connector-curvature="0" />
    <path
       style="opacity:1;fill:#000000;fill-opacity:1;stroke:none;stroke-width:0.52916664;stroke-linecap:round;stroke-miterlimit:4;stroke-dasharray:none;stroke-opacity:1"
       id="path4544"
       d="m 83.489594,257.84659 c 0.479965,0.0863 0.945941,0.0419 1.392582,-0.14859 0.300897,-0.14891 0.510738,-0.38723 0.668983,-0.67673 0.102671,-0.20254 0.134646,-0.4243 0.146642,-0.6483 -0.0011,-0.12437 0.0056,-0.26147 -0.05111,-0.37633 -0.02384,-0.0236 0.0011,-0.001 -0.0087,0.0232 -0.08673,0.08 -0.158848,0.17251 -0.224314,0.27022 -0.111358,0.18778 -0.196395,0.38952 -0.284949,0.58863 -0.131143,0.30161 -0.265808,0.60166 -0.395777,0.90379 -0.165541,0.3627 -0.325125,0.72803 -0.485468,1.09306 -0.170868,0.38351 -0.354742,0.76101 -0.519083,1.14741 -0.09582,0.24304 -0.192074,0.49072 -0.242014,0.74828 -0.03636,0.1452 -0.05972,0.29344 -0.09828,0.43808 0.0091,0.0999 -0.279445,-0.018 -0.03436,0.0176 0.01294,-0.008 0.02357,0.0108 0.01064,0.0183 v 0 c -0.07017,0.16208 -0.273153,0.23966 -0.313984,0.0156 -0.01053,-0.16414 0.0291,-0.32468 0.06361,-0.48415 0.08117,-0.33214 0.174191,-0.66145 0.314942,-0.97421 0.169997,-0.38527 0.353597,-0.76425 0.525004,-1.14889 0.163023,-0.36452 0.326422,-0.7289 0.497232,-1.08987 0.14107,-0.29571 0.279064,-0.59287 0.423066,-0.88718 0.103537,-0.20726 0.207581,-0.41714 0.352147,-0.59955 0.09192,-0.10972 0.189802,-0.21571 0.312314,-0.29206 0.12301,-0.0576 0.242366,-0.0468 0.314611,0.08 0.06668,0.14748 0.08241,0.30896 0.07978,0.46971 -0.01233,0.29356 -0.06322,0.58473 -0.200511,0.84817 -0.187823,0.32377 -0.432594,0.59694 -0.768197,0.77439 -0.486526,0.22654 -1.003887,0.31181 -1.539594,0.24063 -0.248296,-0.0458 -0.183558,-0.39692 0.06473,-0.35114 z"
       inkscape:connector-curvature="0" />
    <path
       style="opacity:1;fill:#000000;fill-opacity:1;stroke:none;stroke-width:0.52916664;stroke-linecap:round;stroke-miterlimit:4;stroke-dasharray:none;stroke-opacity:1"
       id="path4546"
       d="m 83.5126,259.12962 c 0.464952,-0.0429 0.928288,-0.1022 1.394047,-0.13591 0.224171,-0.0538 0.422074,0.0764 0.633113,0.0911 0.01498,-1.1e-4 0.01514,0.0211 1.59e-4,0.0212 v 0 c -0.211225,0.041 -0.383937,0.21668 -0.612053,0.22526 -0.46315,0.0865 -0.93319,0.12064 -1.401056,0.17261 -0.264596,0.01 -0.278807,-0.36415 -0.01421,-0.3742 z"
       inkscape:connector-curvature="0" />
    <path
       style="opacity:1;fill:#000000;fill-opacity:1;stroke:none;stroke-width:0.52916664;stroke-linecap:round;stroke-miterlimit:4;stroke-dasharray:none;stroke-opacity:1"
       id="path4548"
       d="m 63.422793,257.00378 c -0.23114,0.27486 -0.487704,0.53596 -0.666647,0.84981 -0.02188,0.0978 0.0016,0.007 -0.03996,-0.0475 0.08595,0.0366 0.17853,0.0524 0.270441,0.0655 0.115382,0.013 0.231923,-1.2e-4 0.345384,-0.022 0.06947,-0.0154 0.134837,-0.0387 0.18886,-0.0841 0.02334,-0.0887 -0.04394,0.0961 -0.02315,0.0221 0.0046,-0.0344 -0.01352,-0.0597 -0.03346,-0.0859 -0.04635,-0.0527 -0.104569,-0.0934 -0.162499,-0.13226 -0.07359,-0.0459 -0.154683,-0.078 -0.231571,-0.11803 -0.06447,-0.0341 -0.128966,-0.0677 -0.188749,-0.10963 -0.05188,-0.0382 -0.09077,-0.0872 -0.118062,-0.14448 0.05395,-0.006 -0.05351,0.006 0.03384,-0.004 -0.181935,-0.12147 -0.01016,-0.37876 0.171778,-0.2573 v 0 c 0.04007,0.006 0.02143,-7e-5 0.05619,0.0166 0.02601,0.0188 0.05077,0.0399 0.06758,0.0681 0.04574,0.0342 0.09721,0.059 0.147024,0.0869 0.08927,0.0493 0.184195,0.0891 0.265525,0.15191 0.08503,0.0657 0.161692,0.14046 0.216625,0.2339 0.04309,0.0753 0.08125,0.15492 0.08403,0.24337 -0.0013,0.11835 -0.04164,0.22942 -0.143547,0.29614 -0.09039,0.0561 -0.190238,0.0917 -0.293897,0.11513 -0.139054,0.0294 -0.279688,0.051 -0.422399,0.0457 -0.133924,-0.006 -0.26878,-0.0181 -0.392642,-0.0737 -0.209838,-0.12931 -0.182229,-0.31676 -0.06891,-0.51706 0.197408,-0.32676 0.453176,-0.61155 0.699905,-0.90133 0.213416,-0.1685 0.451705,0.13332 0.238292,0.30181 z"
       inkscape:connector-curvature="0" />
    <path
       style="opacity:1;fill:#000000;fill-opacity:1;stroke:none;stroke-width:0.52916664;stroke-linecap:round;stroke-miterlimit:4;stroke-dasharray:none;stroke-opacity:1"
       id="path4550"
       d="m 84.105224,261.30068 c 0.268637,-0.42342 0.529317,-0.85229 0.7454,-1.30516 0.110471,-0.24229 0.188034,-0.4974 0.261736,-0.7527 0.01982,-0.0766 0.04717,-0.15329 0.05018,-0.23288 0.221872,0.15295 0.185629,0.1541 0.08473,0.32702 -0.06247,0.11362 -0.105214,0.23661 -0.153326,0.35667 -0.06847,0.16326 -0.159234,0.31528 -0.228219,0.4783 -0.05933,0.14387 -0.112181,0.29093 -0.15666,0.43965 -0.03965,0.13389 -0.06693,0.27106 -0.07905,0.41013 -0.0048,0.0527 -0.0024,0.12291 -0.0032,0.16805 0.0083,0.01 0.04556,0.0133 0.0617,0.0156 0.06887,0.0106 0.132297,-0.0121 0.194855,-0.0381 0.129982,-0.0507 0.235784,-0.14239 0.340305,-0.23208 0.14782,-0.12799 0.276831,-0.27354 0.396861,-0.42731 0.135718,-0.18068 0.242647,-0.37947 0.336892,-0.58416 0.04818,-0.10014 0.09804,-0.24218 0.117136,-0.31417 0.0097,-0.16772 0.251865,-0.0483 0.142899,0.17158 -0.05667,0.11297 -0.107405,0.22866 -0.155414,0.34554 -0.07634,0.19484 -0.138626,0.39476 -0.20415,0.59339 -0.06217,0.17569 -0.108534,0.35623 -0.157808,0.53579 -0.03515,0.13628 -0.08692,0.31234 -0.111283,0.40098 -0.02754,0.0927 -0.01527,0.0677 -0.07177,0.0127 -0.05893,-0.0253 0.0836,-0.0978 0.109162,-0.12044 0.168497,-0.16648 0.319629,-0.34969 0.471802,-0.53094 0.188338,-0.22472 0.359166,-0.463 0.525042,-0.70452 0.143092,-0.21563 0.276635,-0.43743 0.410607,-0.6588 0.07847,-0.1332 0.156511,-0.26647 0.262617,-0.37967 0.213913,-0.15348 0.238736,0.20325 0.230952,0.33418 -0.02432,0.22045 -0.07053,0.43801 -0.116985,0.65468 -0.05968,0.2638 -0.143206,0.52125 -0.221372,0.77993 -0.03532,0.11036 -0.05862,0.22507 -0.08979,0.33603 -0.02529,-0.0334 -0.05806,-0.0622 -0.07584,-0.10014 -0.01082,-0.023 0.03993,-0.0316 0.05909,-0.0484 0.06896,-0.0604 0.128484,-0.1285 0.188809,-0.19726 0.179507,-0.21479 0.340135,-0.44415 0.49213,-0.67893 0.159536,-0.24676 0.284554,-0.5124 0.407916,-0.77832 0.07892,-0.13359 0.114631,-0.28443 0.170678,-0.42688 0.0061,-0.008 0.0109,-0.0294 0.01815,-0.0229 0.06198,0.0553 0.129029,0.1118 0.165217,0.18658 0.0049,0.0102 -0.108636,0.38663 -0.119084,0.42366 -0.07334,0.26215 -0.137803,0.52667 -0.202216,0.79112 -0.04042,0.1816 -0.08158,0.36459 -0.09118,0.55091 0.008,0.0662 -0.01273,0.0582 0.02885,0.048 0.130304,-0.0294 0.231489,-0.11979 0.330155,-0.20419 0.17373,-0.16274 0.321011,-0.35077 0.461674,-0.54203 0.134218,-0.1966 0.276357,-0.3875 0.4158,-0.58036 0.08446,-0.1248 0.17412,-0.24413 0.299069,-0.33027 0.107276,-0.058 0.187135,-0.005 0.247431,0.0867 0.06118,0.11389 0.09993,0.23806 0.13961,0.36062 0.02857,0.0787 0.04269,0.16421 0.08358,0.23804 -0.0055,0.29371 -0.21313,-0.0393 -0.242869,-0.0734 -0.06821,-0.0675 -0.143415,-0.12771 -0.217093,-0.18912 -0.05475,-0.0509 -0.114994,-0.0817 -0.188291,-0.0842 -0.03875,0.004 -0.0443,0.0346 -0.06517,0.0657 -0.09902,0.15177 -0.180083,0.31367 -0.259353,0.4763 -0.109235,0.22067 -0.199882,0.44963 -0.290184,0.67847 -0.03812,0.10403 -0.0848,0.20621 -0.106579,0.31485 -0.0051,0.0323 0.01847,0.0222 0.0534,0.022 0.179549,-0.0247 0.342971,-0.11079 0.50215,-0.1925 0.229648,-0.12003 0.44636,-0.26215 0.657408,-0.41196 0.194233,-0.13675 0.374909,-0.29166 0.549132,-0.45281 0.201035,-0.17809 0.37148,-0.38415 0.532886,-0.59772 0.205479,-0.27972 0.374309,-0.5832 0.531088,-0.8921 0.174083,-0.3481 0.326972,-0.70617 0.480544,-1.06362 0.09226,-0.22756 0.190331,-0.45323 0.270563,-0.68544 0.03084,-0.29661 0.204142,0.0214 0.100587,0.19144 -0.107744,0.17107 -0.219821,0.33946 -0.325377,0.51187 -0.167375,0.27716 -0.314211,0.56591 -0.455364,0.85707 -0.178443,0.38214 -0.3474,0.76864 -0.518432,1.15415 -0.166016,0.36151 -0.322747,0.72689 -0.457311,1.1013 -0.06927,0.21037 -0.135287,0.42314 -0.166484,0.64291 -0.02048,0.048 0.01069,0.11233 0.01717,0.12073 0.121862,-0.0441 0.228328,-0.11941 0.331814,-0.19582 0.183338,-0.14281 0.338916,-0.3163 0.49434,-0.48795 0.178313,-0.19918 0.336092,-0.41486 0.484992,-0.63649 0.133405,-0.20501 0.257492,-0.41603 0.374158,-0.63098 0.05657,-0.0925 0.09101,-0.19442 0.130241,-0.29431 0.0024,-0.006 0.0037,-0.0238 0.0071,-0.0182 0.177853,0.29142 0.108424,0.24524 -0.02524,0.48128 -0.08436,0.15919 -0.163012,0.3214 -0.23791,0.48524 -0.07627,0.18013 -0.140724,0.36491 -0.208632,0.5483 -0.05237,0.15058 -0.115922,0.2968 -0.174218,0.44508 -0.03037,0.09 -0.04933,0.1718 -0.07145,0.26615 -0.01429,0.0603 -0.02011,0.12196 -0.02455,0.1836 -0.0301,-0.006 -0.03401,-0.0135 0.02408,-0.0405 0.152278,-0.0687 0.284134,-0.17268 0.414978,-0.27477 0.203433,-0.15111 0.390681,-0.32133 0.576429,-0.49318 0.197226,-0.1871 0.404701,-0.36231 0.620594,-0.52736 0.149084,-0.11323 0.307895,-0.21162 0.476459,-0.29277 0.09386,-0.0439 0.190489,-0.0723 0.294333,-0.0656 0.07762,0.0125 0.136556,0.0599 0.193212,0.11071 0.04529,0.0428 0.07979,0.095 0.116355,0.14506 0.02101,0.0333 0.04223,0.0658 0.06921,0.0946 -0.205118,0.2031 -0.20768,0.14096 -0.408035,0.0973 -0.124654,-0.0245 -0.251624,-0.031 -0.378344,-0.0286 -0.122825,0.001 -0.226123,0.0414 -0.317881,0.12082 -0.122367,0.12581 -0.203248,0.28315 -0.278344,0.43986 -0.09279,0.20974 -0.172249,0.42505 -0.254159,0.63919 -0.05439,0.13778 -0.09703,0.2795 -0.1344,0.42267 -0.004,0.0135 -0.0041,0.0278 -0.0062,0.0416 0.139057,-0.0265 0.256244,-0.10886 0.368613,-0.1903 0.202975,-0.15325 0.364974,-0.35003 0.52058,-0.54912 0.137629,-0.17784 0.251431,-0.37136 0.337699,-0.57876 0.02836,-0.0754 0.04422,-0.15493 0.04318,-0.23706 0.01008,-0.017 -0.03218,-0.11747 -0.007,-0.0683 0.12138,0.0538 0.09794,0.0546 0.05769,0.16318 -0.04445,0.10911 -0.0779,0.22646 -0.09775,0.32267 -0.0057,0.0455 -0.02154,0.0994 0.01445,0.13397 0.08042,0.0204 0.15857,-0.0226 0.229544,-0.0565 0.206082,-0.11148 0.387618,-0.26228 0.567558,-0.41091 0.185753,-0.15288 0.360892,-0.31693 0.526857,-0.49089 0.157329,-0.3119 0.392888,-0.005 0.26503,0.26425 -0.118067,0.22398 -0.23482,0.44861 -0.343818,0.67717 -0.118528,0.23855 -0.207076,0.48925 -0.28136,0.74452 -0.02164,0.0604 -0.03432,0.16087 -0.05753,0.20784 -0.076,-0.0903 -0.07236,-0.0546 0.03178,-0.11459 0.184933,-0.1246 0.334862,-0.29326 0.485468,-0.45584 0.227537,-0.24146 0.43492,-0.50042 0.640911,-0.76015 0.121957,-0.11321 0.180041,-0.28837 0.304922,-0.39702 0.06793,0.0729 0.17095,0.12454 0.203795,0.21858 0.01736,0.0497 -0.290113,0.78669 -0.321625,0.8773 -0.132564,0.37322 -0.222551,0.75807 -0.265451,1.15148 -0.01439,0.21677 -0.01455,0.44112 0.05678,0.6489 0.0595,0.11381 0.130445,0.13385 0.238699,0.0596 0.01339,-0.007 0.02286,0.0122 0.0095,0.0189 v 0 c -0.18215,0.12283 -0.253838,0.30724 -0.490037,0.11903 -0.181735,-0.22866 -0.186172,-0.52216 -0.168328,-0.80397 0.04949,-0.47371 0.179345,-0.93269 0.342093,-1.37967 0.02617,-0.067 0.283353,-0.7019 0.294817,-0.70094 0.08543,0.007 0.168463,0.0319 0.252693,0.0479 -0.111487,0.0964 -0.186208,0.23079 -0.281165,0.34297 -0.205515,0.26936 -0.413406,0.5371 -0.635447,0.79317 -0.167539,0.18781 -0.338733,0.3801 -0.558403,0.50834 -0.151096,0.0723 -0.318296,0.12097 -0.430064,-0.0428 -0.05421,-0.17185 0.01363,-0.34198 0.06162,-0.50914 0.08246,-0.26851 0.182464,-0.53087 0.310181,-0.7815 0.111903,-0.22529 0.228524,-0.44794 0.348073,-0.66924 0.09886,-0.22001 0.385159,0.0587 0.148476,0.15901 -0.174582,0.1773 -0.356481,0.34669 -0.549608,0.50386 -0.196718,0.16086 -0.395362,0.32408 -0.623917,0.43826 -0.152797,0.0638 -0.309433,0.10921 -0.464462,0.0244 -0.115949,-0.087 -0.167207,-0.2026 -0.14736,-0.34872 0.0258,-0.17585 0.08695,-0.344 0.153604,-0.5081 0.07561,-0.16506 0.156276,-0.27288 0.354547,-0.20282 0.04896,0.0641 0.06825,0.13415 0.07286,0.21472 0.0097,0.15604 -0.02665,0.30576 -0.09193,0.44809 -0.09981,0.21943 -0.226456,0.42462 -0.375459,0.61435 -0.168931,0.21345 -0.347152,0.4217 -0.567304,0.58464 -0.153262,0.1089 -0.317389,0.21508 -0.511429,0.22125 -0.157805,-0.0211 -0.25073,-0.11067 -0.241993,-0.27628 0.02381,-0.20871 0.105743,-0.40658 0.17725,-0.60249 0.08694,-0.21942 0.174193,-0.43931 0.278302,-0.65126 0.09837,-0.17955 0.202522,-0.36055 0.363743,-0.49171 0.136631,-0.0967 0.284943,-0.1467 0.454152,-0.14294 0.141113,0.003 0.280893,0.0186 0.419889,0.0432 0.186089,0.0396 0.273942,0.0211 0.13906,0.25583 0.0016,-0.028 7.93e-4,-0.0523 -0.01778,-0.0762 -0.02619,-0.0418 -0.05476,-0.0823 -0.08434,-0.12181 -0.0282,-0.0277 -0.05536,-0.0571 -0.09106,-0.0751 -0.07254,-0.006 -0.139859,0.0142 -0.206108,0.046 -0.158792,0.0761 -0.306226,0.17166 -0.446395,0.27817 -0.211071,0.16348 -0.413416,0.33757 -0.607912,0.52052 -0.188269,0.17527 -0.381116,0.34539 -0.587353,0.49951 -0.141883,0.11001 -0.285769,0.21971 -0.450271,0.29431 -0.101214,0.0413 -0.216897,0.0616 -0.271711,-0.0586 -0.03154,-0.0836 -0.03794,-0.16924 -0.02291,-0.25765 0.02553,-0.14077 0.06021,-0.28052 0.111453,-0.41427 0.05814,-0.14732 0.120097,-0.29318 0.172313,-0.44279 0.07208,-0.18756 0.136866,-0.37816 0.220808,-0.56092 0.08116,-0.16594 0.163478,-0.33143 0.254005,-0.49251 0.13603,-0.23289 0.08411,-0.31373 0.364979,-0.16034 -0.05577,0.0916 -0.09689,0.19193 -0.151151,0.2847 -0.121465,0.21752 -0.246943,0.43307 -0.383926,0.64125 -0.153096,0.22939 -0.310243,0.4564 -0.492932,0.66365 -0.161031,0.18493 -0.327083,0.36746 -0.52347,0.51595 -0.141812,0.10356 -0.290883,0.21606 -0.472263,0.22781 -0.166497,-0.034 -0.237307,-0.15123 -0.243755,-0.31751 0.0083,-0.28918 0.101597,-0.56441 0.194516,-0.83621 0.137779,-0.37895 0.298074,-0.74858 0.466061,-1.11508 0.172582,-0.38845 0.341913,-0.77846 0.524939,-1.16215 0.146002,-0.29796 0.296158,-0.59494 0.478133,-0.87296 0.111821,-0.16609 0.234464,-0.32379 0.350626,-0.48677 0.109218,-0.1601 0.343927,-0.03 0.202433,0.0773 -0.108307,0.2193 -0.188518,0.45115 -0.28807,0.67438 -0.155467,0.3597 -0.310248,0.71984 -0.477343,1.07434 -0.156467,0.32082 -0.318005,0.64036 -0.522433,0.93402 -0.161325,0.22729 -0.335812,0.44604 -0.533651,0.64292 -0.175041,0.17651 -0.360016,0.34226 -0.559353,0.4912 -0.217671,0.16044 -0.441333,0.31321 -0.673773,0.45157 -0.197963,0.1081 -0.405418,0.21614 -0.63583,0.22325 -0.165148,-0.0186 -0.303387,-0.0893 -0.330002,-0.26875 -0.0016,-0.19307 0.09025,-0.37091 0.155573,-0.54825 0.09409,-0.23502 0.192659,-0.46848 0.310978,-0.69256 0.09396,-0.17941 0.188378,-0.3616 0.319235,-0.51748 0.08931,-0.0825 0.187558,-0.13992 0.312518,-0.10574 0.106791,0.0373 0.18868,0.10808 0.264557,0.19104 0.06955,0.0762 0.1427,0.14891 0.213156,0.22428 0.115676,0.1453 0.117869,0.13824 -0.03182,0.31313 -0.0067,0.008 0.01027,-0.0463 -5.29e-4,-0.031 -0.01416,-0.0847 -0.04522,-0.16604 -0.06782,-0.24868 -0.03572,-0.11537 -0.07175,-0.23135 -0.123727,-0.34065 -0.02474,-0.0491 -0.04034,-0.0902 -0.102761,-0.0737 -0.123415,0.067 -0.195575,0.1955 -0.273042,0.3076 -0.13048,0.20328 -0.253574,0.41113 -0.387509,0.61221 -0.140118,0.20829 -0.270791,0.42426 -0.441619,0.60977 -0.122116,0.12922 -0.256296,0.24829 -0.438205,0.2775 -0.162931,0.007 -0.269172,-0.0711 -0.292219,-0.23712 -0.009,-0.20463 0.03352,-0.40498 0.07854,-0.60374 0.06599,-0.26909 0.139097,-0.53636 0.220096,-0.80135 0.0098,-0.0329 0.131382,-0.42217 0.132353,-0.42256 0.06896,-0.0279 0.173725,0.0485 0.222975,-0.009 -0.09049,0.11629 -0.121973,0.26837 -0.194699,0.3948 -0.126929,0.27282 -0.256273,0.54532 -0.405376,0.80682 -0.149755,0.2504 -0.301871,0.50093 -0.489424,0.72543 -0.06437,0.0742 -0.257352,0.3346 -0.38476,0.30338 -0.06281,-0.0154 -0.115001,-0.0592 -0.1725,-0.0888 -0.01603,-0.13642 0.03973,-0.27306 0.06989,-0.404 0.07597,-0.25487 0.162615,-0.50675 0.226282,-0.76509 0.04932,-0.20783 0.09523,-0.41695 0.129215,-0.62786 0.02035,-0.16828 -0.04485,-0.20977 0.149757,-0.18176 -0.08891,0.11224 -0.145953,0.24772 -0.22632,0.36577 -0.136517,0.22419 -0.271039,0.44988 -0.418571,0.66707 -0.169121,0.24703 -0.345559,0.48909 -0.535704,0.72048 -0.159319,0.19192 -0.31509,0.38857 -0.497404,0.55955 -0.108775,0.0889 -0.227909,0.18156 -0.374184,0.12666 -0.0843,-0.0664 -0.110537,-0.13748 -0.08648,-0.24121 0.03307,-0.14454 0.07115,-0.25586 0.110302,-0.40635 0.06333,-0.23063 0.126741,-0.46137 0.210743,-0.68559 0.07306,-0.19973 0.144547,-0.40031 0.230288,-0.59506 0.05477,-0.12211 0.109173,-0.24499 0.177763,-0.36014 0.09699,-0.15044 0.345049,-0.17653 0.277482,0.005 -0.04292,0.15482 -0.102817,0.30407 -0.171696,0.44911 -0.101709,0.21643 -0.217427,0.4267 -0.357447,0.62101 -0.124211,0.1698 -0.259995,0.33088 -0.41928,0.46927 -0.122042,0.10752 -0.249311,0.21116 -0.401532,0.27318 -0.09879,0.0388 -0.200321,0.0694 -0.307877,0.057 -0.0957,-0.009 -0.188245,-0.0324 -0.253515,-0.10859 -0.06323,-0.0925 -0.08163,-0.19576 -0.07817,-0.30743 0.0077,-0.1585 0.03097,-0.31559 0.07373,-0.4687 0.06456,-0.2111 0.132623,-0.42162 0.228418,-0.6211 0.07836,-0.15482 0.168484,-0.30339 0.243676,-0.45991 0.05824,-0.12335 0.112268,-0.2495 0.187624,-0.36377 0.04287,-0.0728 0.275113,-0.45011 0.358454,-0.13075 -0.04184,0.0701 -0.06357,0.15012 -0.08876,0.22739 -0.08934,0.29561 -0.17948,0.59241 -0.312031,0.87218 -0.224655,0.45566 -0.49,0.88827 -0.758682,1.3191 -0.09999,0.10228 -0.244642,-0.0391 -0.144648,-0.14141 z"
       inkscape:connector-curvature="0" />
    <path
       style="opacity:1;fill:#000000;fill-opacity:1;stroke:none;stroke-width:0.52916664;stroke-linecap:round;stroke-miterlimit:4;stroke-dasharray:none;stroke-opacity:1"
       id="path4552"
       d="m 89.106397,257.80907 c 0.728908,-0.0337 1.458311,-0.004 2.186363,0.0335 0.69374,0.0416 1.386705,0.0948 2.079413,0.15075 0.436901,0.0359 0.87362,0.0746 1.309555,0.12087 0.15598,0.0224 0.275805,0.0263 0.422484,-0.0278 0.01429,-0.005 0.02064,0.0157 0.0064,0.0202 v 0 c -0.143844,0.0803 -0.265115,0.1907 -0.424064,0.24253 -0.445455,0.12327 -0.907677,0.10014 -1.365448,0.0727 -0.691319,-0.0468 -1.381493,-0.10971 -2.073402,-0.14811 -0.71628,-0.0395 -1.433719,-0.0733 -2.151269,-0.0521 -0.291727,-0.007 -0.281731,-0.41963 0.01,-0.41256 z"
       inkscape:connector-curvature="0" />
    <path
       style="opacity:1;fill:#000000;fill-opacity:1;stroke:none;stroke-width:0.52916664;stroke-linecap:round;stroke-miterlimit:4;stroke-dasharray:none;stroke-opacity:1"
       id="path4556"
       d="m 93.485148,257.74896 c -0.264176,0.26667 -0.525283,0.53612 -0.779206,0.81257 -0.155562,0.16765 -0.08428,0.19103 -0.119007,-0.19929 0.08827,0.0131 0.163719,0.0595 0.243747,0.0945 0.064,0.0258 0.123873,0.0601 0.187698,0.0863 0.06897,0.027 0.141888,0.0399 0.215236,0.0473 0.08833,0.005 0.17798,0.002 0.265523,-0.0108 0.07425,-0.011 0.144764,-0.0361 0.213894,-0.0645 0.159726,-0.11084 -0.01542,0.18214 -0.05727,0.097 -0.03881,-0.0549 -0.08828,-0.10168 -0.134647,-0.15019 -0.09034,-0.0849 -0.154665,-0.18877 -0.212995,-0.29688 -0.05063,-0.0947 -0.09535,-0.19196 -0.12483,-0.2953 -0.02487,-0.0715 0.01191,-0.0987 0.07192,-0.13244 -0.02363,-0.0957 0.111654,-0.12911 0.135295,-0.0334 v 0 c 0.05146,-0.012 0.09536,-0.0405 0.102835,0.0303 0.01894,0.0831 0.05371,0.15976 0.09308,0.23518 0.04813,0.0888 0.09192,0.18106 0.162661,0.25491 0.05752,0.0695 0.120261,0.13509 0.170783,0.21001 0.07242,0.13837 0.03773,0.34109 -0.120232,0.37905 -0.08975,0.0397 -0.181806,0.0743 -0.279032,0.0907 -0.105794,0.0149 -0.212148,0.0255 -0.319111,0.026 -0.103751,-0.002 -0.208008,-0.009 -0.30878,-0.0352 -0.06955,-0.0226 -0.135644,-0.053 -0.203771,-0.0793 -0.06133,-0.0233 -0.118449,-0.0569 -0.182843,-0.0714 -0.202544,-0.3619 -0.247542,-0.29091 -0.04759,-0.51085 0.252804,-0.28184 0.52361,-0.54646 0.784222,-0.82096 0.238149,-0.17142 0.480573,0.16537 0.242425,0.33679 z"
       inkscape:connector-curvature="0" />
    <path
       style="opacity:1;fill:#000000;fill-opacity:1;stroke:none;stroke-width:0.52916664;stroke-linecap:round;stroke-miterlimit:4;stroke-dasharray:none;stroke-opacity:1"
       id="path4579"
       d="m 102.01162,268.06594 c 0.1146,0.44747 0.23798,0.89258 0.39492,1.32719 0.0677,0.18596 0.15317,0.36389 0.29025,0.50808 0.0748,0.0723 0.17172,0.11031 0.26737,0.14626 0.0983,0.0271 0.19228,0.0649 0.28431,0.10839 0.0547,0.025 0.11047,0.0476 0.16451,0.0741 0.1656,0.046 -0.0949,0.32807 -0.2285,0.24402 -0.0422,-0.0246 -0.0891,-0.0381 -0.13353,-0.0581 -0.0662,-0.0331 -0.13892,-0.0499 -0.21025,-0.0683 -0.10964,-0.032 -0.22249,-0.0487 -0.33486,-0.0676 -0.17413,-0.0308 -0.34859,-0.0595 -0.52301,-0.0887 -0.21399,-0.0362 -0.42841,-0.0695 -0.64397,-0.0948 -0.1902,-0.0259 -0.38158,-0.0204 -0.57202,-0.002 -0.12751,0.0113 -0.25209,0.041 -0.37521,0.0748 -0.0623,0.0119 -0.11148,0.0447 -0.16028,0.0831 -0.0433,0.0401 -0.0801,0.0865 -0.1228,0.1275 -0.0898,0.0796 -0.110601,-0.0274 -0.199162,0.0457 0.0019,0.0149 -0.01918,0.0174 -0.02101,0.003 v 0 c -0.07726,-0.0978 -0.05706,-0.2252 -0.0078,-0.33487 0.04952,-0.0784 0.110337,-0.14872 0.188082,-0.20055 0.0836,-0.0534 0.17248,-0.0942 0.26976,-0.11612 0.14284,-0.0368 0.28742,-0.0659 0.43481,-0.0772 0.21246,-0.0143 0.42517,-0.0109 0.63632,0.0197 0.21981,0.029 0.43763,0.0697 0.65528,0.11175 0.17356,0.0306 0.34637,0.0653 0.52004,0.0953 0.1227,0.0204 0.24456,0.0443 0.36367,0.0808 0.086,0.0251 0.17299,0.0497 0.25277,0.0914 0.057,0.0268 0.11638,0.0489 0.16858,0.085 0.14345,0.0971 0.0755,0.47755 -0.0996,0.36783 -0.058,-0.0202 -0.1161,-0.0406 -0.1726,-0.0649 -0.0888,-0.036 -0.17878,-0.0663 -0.2715,-0.0909 -0.14175,-0.0516 -0.28115,-0.11233 -0.39145,-0.21867 -0.16945,-0.1757 -0.28861,-0.38341 -0.3691,-0.61437 -0.16127,-0.44303 -0.28693,-0.8971 -0.40704,-1.35281 -0.10131,-0.2496 0.25167,-0.39288 0.35298,-0.14329 z"
       inkscape:connector-curvature="0" />
  </g>
</svg>
